<?xml version="1.0" encoding="UTF-8" standalone="no"?>
<!-- Created with ggears by Gareth Nisbet) -->
<svg docname="ggears.svg">
   <g
     transform="matrix(3.5434,0,0,3.5434,0,0)"
     style="font-size:1px;stroke-width:0.05">
<circle r="1.5" stroke="black" stroke-width="0.05" fill="none" />
    <path
       id="gear"
       d="m 16.7116339962,-1.19278480264 L 16.8754753231,-1.20711906136 L 16.8815745343,-1.20776319685 L 16.8998205097,-1.21013298613 L 16.9301159184,-1.2148819019 L 16.97233708,-1.22265918952 L 17.0263341283,-1.23410892294 L 17.0919312065,-1.24986906644 L 17.1689266937,-1.27057054337 L 17.2570934629,-1.29683631284 L 17.3561791699,-1.32928045531 L 17.4659065728,-1.36850726814 L 17.5859738824,-1.41511037217 L 17.7160551418,-1.46967183007 L 17.8558006359,-1.53276127771 L 18.0048373306,-1.60493506926 L 18.1627693401,-1.68673543716 L 18.3291784229,-1.77868966771 L 18.5036245049,-1.88130929336 L 18.6856462305,-1.99508930244 L 18.8747615399,-2.12050736728 L 18.7804473284,-2.8368949274 L 18.565315383,-2.90909283151 L 18.360047464,-2.97188519158 L 18.1649855747,-3.02585816993 L 17.9804472378,-3.07160929616 L 17.8067251378,-3.10974657221 L 17.6440867935,-3.14088756644 L 17.4927742611,-3.16565849794 L 17.3530038687,-3.18469331192 L 17.2249659826,-3.19863274727 L 17.108824804,-3.20812339721 L 17.0047181987,-3.21381676427 L 16.9127575579,-3.21636831034 L 16.8330276918,-3.21643650308 L 16.7655867546,-3.21468185956 L 16.710466202,-3.21176598829 L 16.6676707814,-3.20835063054 L 16.6371785539,-3.20509670217 L 16.6189409484,-3.2026633369 L 16.6128828483,-3.20170693201 L 16.4509143001,-3.17314750693 L 16.2506218177,-4.0766085106 L 16.4094849088,-4.11917574756 L 16.4153796062,-4.12086921409 L 16.4329368747,-4.12637138133 L 16.4619473875,-4.1363088929 L 16.5021766029,-4.15129965382 L 16.5533650894,-4.17195192911 L 16.6152288804,-4.1988634537 L 16.6874598594,-4.23262055473 L 16.7697261743,-4.27379728694 L 16.8616726805,-4.32295458242 L 16.9629214131,-4.38063941539 L 17.0730720864,-4.44738398307 L 17.1917026213,-4.52370490346 L 17.3183696998,-4.61010243101 L 17.4526093448,-4.70705969094 L 17.5939375275,-4.8150419331 L 17.7418507978,-4.93449580623 L 17.8958269408,-5.06584865342 L 18.0553256561,-5.20950782944 L 18.2197892607,-5.36586004092 L 18.0025084997,-6.05498657333 L 17.7781078575,-6.08873035878 L 17.5650546405,-6.11492436174 L 17.3635838702,-6.13420522765 L 17.1739044856,-6.14721654556 L 16.9961991462,-6.15460790461 L 16.8306240669,-6.15703394506 L 16.6773088847,-6.15515340493 L 16.5363565579,-6.1496281634 L 16.4078432975,-6.1411222818 L 16.2918185302,-6.13030104343 L 16.1883048954,-6.11782999315 L 16.0972982721,-6.10437397782 L 16.0187678402,-6.09059618861 L 15.952656173,-6.07715720621 L 15.8988793612,-6.06471405006 L 15.8573271699,-6.05391923247 L 15.8278632265,-6.04541981886 L 15.8103252407,-6.03985649491 L 15.8045252547,-6.03786264192 L 15.6499766648,-5.98161155544 L 15.2958427184,-6.83656653183 L 15.444900599,-6.90607336308 L 15.4504116754,-6.90876470551 L 15.4667467682,-6.91723207015 L 15.4935909153,-6.93205623127 L 15.5306058403,-6.9538049788 L 15.5774304287,-6.98303228702 L 15.6336812325,-7.02027749966 L 15.6989530016,-7.06606453234 L 15.7728192417,-7.12090109312 L 15.8548327991,-7.18527792207 L 15.9445264698,-7.25966805072 L 16.0414136344,-7.34452608212 L 16.1449889162,-7.44028749245 L 16.2547288639,-7.54736795476 L 16.3700926556,-7.66616268579 L 16.490522826,-7.79704581642 L 16.615446014,-7.94036978666 L 16.7442737309,-8.09646476559 L 16.8764031482,-8.26563809718 L 17.0112179045,-8.44817377248 L 16.6775725599,-9.0891005162 L 16.4507215208,-9.08336489515 L 16.2363565201,-9.07216464947 L 16.0345984562,-9.05616756359 L 15.845541336,-9.03604373086 L 15.669252244,-9.01246459022 L 15.5057713447,-8.98610196287 L 15.355111917,-8.95762709038 L 15.2172604209,-8.927709675 L 15.0921765965,-8.89701692336 L 14.9797935945,-8.86621259452 L 14.8800181395,-8.83595605346 L 14.7927307238,-8.80690133095 L 14.7177858337,-8.77969619094 L 14.6550122061,-8.75498120634 L 14.6042131162,-8.73338884432 L 14.5651666965,-8.71554256197 L 14.5376262843,-8.70205591347 L 14.521320801,-8.69353166964 L 14.5159551588,-8.69056095076 L 14.3735224079,-8.60832736369 L 13.8763071782,-9.38879893846 L 14.0110308001,-9.4831334341 L 14.0159908041,-9.48674087737 L 14.0306073877,-9.4979161628 L 14.0544695234,-9.51717654884 L 14.0871454781,-9.54502245829 L 14.128183427,-9.58193674247 L 14.1771120914,-9.62838396621 L 14.2334414008,-9.68480971473 L 14.2966631779,-9.75163992293 L 14.3662518461,-9.82928022798 L 14.4416651581,-9.91811534589 L 14.5223449464,-10.0185084727 L 14.6077178926,-10.130800711 L 14.6971963167,-10.2553105224 L 14.7901789847,-10.3923332067 L 14.8860519331,-10.5421404081 L 14.9841893109,-10.7049796491 L 15.0839542366,-10.8810738929 L 15.1846996705,-11.070621134 L 15.2857693003,-11.2737940189 L 14.8458970171,-11.8470467392 L 14.6234883352,-11.8020059856 L 14.4143249228,-11.7537518051 L 14.2184098821,-11.7029628307 L 14.0357194312,-11.6503152999 L 13.8662030415,-11.5964820998 L 13.7097836065,-11.5421318197 L 13.5663576438,-11.4879278095 L 13.4357955263,-11.4345272458 L 13.3179417466,-11.3825802078 L 13.2126152105,-11.3327287625 L 13.1196095621,-11.2856060603 L 13.038693538,-11.2418354436 L 12.9696113522,-11.2020295672 L 12.912083109,-11.1667895327 L 12.8658052458,-11.1367040378 L 12.8304510033,-11.112348541 L 12.8056709239,-11.0942844426 L 12.7910933768,-11.0830582837 L 12.7863251107,-11.0792009627 L 12.6603359459,-10.973483501 L 12.0351470661,-11.6557574403 L 12.1514429202,-11.7720532944 L 12.1557011447,-11.7764672282 L 12.1681551016,-11.790010879 L 12.1883101869,-11.8131222729 L 12.215654329,-11.8462192604 L 12.249658721,-11.8896988987 L 12.2897785733,-11.9439368582 L 12.3354538855,-12.0092868547 L 12.386110238,-12.0860801083 L 12.4411596004,-12.174624828 L 12.5000011584,-12.2752057251 L 12.5620221559,-12.3880835529 L 12.6265987527,-12.5134946763 L 12.6930968966,-12.6516506692 L 12.7608732095,-12.8027379419 L 12.8292758848,-12.9669173981 L 12.8976455979,-13.144324122 L 12.9653164257,-13.335067096 L 13.0316167771,-13.5392289496 L 13.0958703309,-13.7568657389 L 12.5631364059,-14.2450264419 L 12.3519278564,-14.1620490962 L 12.1543213567,-14.0782071597 L 11.9702021185,-13.9941694943 L 11.7994292939,-13.9105979338 L 11.6418362761,-13.8281463688 L 11.497231031,-13.7474598418 L 11.3653964585,-13.6691736552 L 11.2460907835,-13.5939124923 L 11.139047976,-13.5222895525 L 11.0439781993,-13.4549057016 L 10.960568287,-13.3923486378 L 10.888482247,-13.335192075 L 10.8273617927,-13.2839949436 L 10.7768269005,-13.2393006099 L 10.7364763935,-13.2016361146 L 10.705888549,-13.1715114327 L 10.6846217324,-13.1494187529 L 10.6722150531,-13.1358317802 L 10.6681890444,-13.1312050598 L 10.5624715826,-13.005215895 L 9.8283051005,-13.5685616504 L 9.92263959614,-13.7032852723 L 9.92606665707,-13.7083715814 L 9.9359795801,-13.7238720807 L 9.9518152129,-13.7501322544 L 9.97299670447,-13.7874746848 L 9.99893433345,-13.8361985704 L 10.0290263522,-13.8965792726 L 10.062659846,-13.9688678906 L 10.0992116061,-14.0532908653 L 10.1380490158,-14.1500496133 L 10.1785309488,-14.2593201899 L 10.2200086789,-14.3812529831 L 10.261826799,-14.515972438 L 10.3033241503,-14.6635768125 L 10.3438347591,-14.8241379632 L 10.3826887808,-14.9977011645 L 10.41921345,-15.1842849577 L 10.452734036,-15.3838810333 L 10.4825748023,-15.5964541448 L 10.5080599683,-15.8219420548 L 9.8986512522,-16.2101782245 L 9.70506030005,-16.0917855115 L 9.52501488655,-15.9749033138 L 9.35828582079,-15.8601703991 L 9.2046194683,-15.7482140887 L 9.06373820654,-15.6396494079 L 8.93534090837,-15.5350782532 L 8.8191034529,-15.4350885764 L 8.71467926303,-15.3402535866 L 8.62169986927,-15.2511309718 L 8.53977549903,-15.1682621395 L 8.46849569084,-15.0921714788 L 8.4074299327,-15.0233656431 L 8.35612832399,-14.9623328557 L 8.31412226004,-14.9095422374 L 8.28092513878,-14.8654431584 L 8.25603308852,-14.8304646147 L 8.23892571622,-14.8050146284 L 8.22906687532,-14.789479675 L 8.2259054523,-14.7842241359 L 8.14367186523,-14.641791385 L 7.32283505778,-15.0690919808 L 7.39234188904,-15.2181498615 L 7.3948336569,-15.223754001 L 7.4019043469,-15.2407403739 L 7.41293936955,-15.2693514253 L 7.42731462169,-15.3098046676 L 7.44439738586,-15.3622923499 L 7.46354724033,-15.4269811578 L 7.48411697901,-15.5040119442 L 7.50545353998,-15.5934994908 L 7.52689894188,-15.6955323014 L 7.54779122694,-15.8101724263 L 7.56746540977,-15.9374553186 L 7.58525443082,-16.0773897227 L 7.60049011349,-16.2299575944 L 7.61250412388,-16.3951140539 L 7.62062893203,-16.5727873702 L 7.62419877376,-16.7628789786 L 7.622550612,-16.96526353 L 7.6150250965,-17.1797889729 L 7.60096752098,-17.4062766676 L 6.93340058919,-17.6827919445 L 6.76330939747,-17.5325811667 L 6.60629565898,-17.3862101143 L 6.46202274392,-17.244268052 L 6.3301319379,-17.1073287274 L 6.21024303805,-16.9759496137 L 6.10195497379,-16.850671173 L 6.00484645162,-16.7320161417 L 5.91847662298,-16.6204888383 L 5.84238577479,-16.5165744939 L 5.77609604153,-16.4207386078 L 5.71911213836,-16.3334263264 L 5.67092211428,-16.2550618484 L 5.63099812459,-16.1860478553 L 5.59879722181,-16.1267649686 L 5.57376216411,-16.0775712341 L 5.55532224041,-16.0388016339 L 5.54289411128,-16.0107676261 L 5.53588266467,-15.9937567138 L 5.53368188556,-15.9880320427 L 5.47743079909,-15.8334834528 L 4.59486437737,-16.1117555767 L 4.63743161434,-16.2706186678 L 4.63891237803,-16.2765703588 L 4.64292599567,-16.2945264829 L 4.64882511458,-16.3246190798 L 4.65595734254,-16.3669539828 L 4.66366619074,-16.4216106501 L 4.67129202229,-16.488642027 L 4.67817300474,-16.5680744403 L 4.68364606602,-16.6599075249 L 4.68704785246,-16.7641141828 L 4.68771568799,-16.8806405738 L 4.68498853347,-17.009406139 L 4.67820794506,-17.1503036561 L 4.66671903058,-17.3031993276 L 4.64987140293,-17.4679329004 L 4.62702012939,-17.6443178179 L 4.59752667582,-17.8321414041 L 4.56075984481,-18.0311650792 L 4.51609670656,-18.2411246065 L 4.46292352176,-18.4617303718 L 3.75748205775,-18.6181229792 L 3.61605876124,-18.4406582152 L 3.48684748076,-18.2692457184 L 3.36941437593,-18.1044073462 L 3.26330655178,-17.9466458395 L 3.16805277738,-17.7964441807 L 3.08316422507,-17.654264976 L 3.0081352295,-17.5205498634 L 2.94244406564,-17.3957189469 L 2.88555374494,-17.2801702578 L 2.83691282866,-17.1742792427 L 2.79595625757,-17.0783982802 L 2.76210619703,-16.9928562248 L 2.73477289659,-16.9179579813 L 2.71335556313,-16.8539841068 L 2.69724324655,-16.8011904435 L 2.68581573715,-16.7598077815 L 2.6784444736,-16.7300415512 L 2.67449346054,-16.712071548 L 2.6733201949,-16.7060516863 L 2.64476076983,-16.5440831381 L 1.72728106797,-16.6648716323 L 1.74161532669,-16.8287129592 L 1.74204009396,-16.8348313626 L 1.74287468749,-16.8532116502 L 1.74345866093,-16.8838714442 L 1.74313115555,-16.9268016833 L 1.74123185836,-16.9819666205 L 1.73710195994,-17.0493038519 L 1.730085111,-17.1287243783 L 1.71952837639,-17.2201126992 L 1.7047831858,-17.3233269378 L 1.68520627995,-17.4381989995 L 1.6601606513,-17.564534761 L 1.62901647817,-17.7021142915 L 1.59115205139,-17.8506921051 L 1.54595469235,-18.0099974449 L 1.49282166151,-18.1797345972 L 1.4311610563,-18.3595832366 L 1.36039269758,-18.5491988016 L 1.27994900345,-18.7482128994 L 1.18927584968,-18.9562337408 L 0.467394335355,-18.9877517684 L 0.358936009374,-18.7884251952 L 0.261453206275,-18.597179536 L 0.174428057123,-18.4144533844 L 0.0973272473866,-18.2406631992 L 0.0296028361844,-18.0762027968 L -0.029306908475,-17.9214428712 L -0.0799766593843,-17.7767305433 L -0.122993165695,-17.642388938 L -0.158954375294,-17.5187167926 L -0.188468544958,-17.4059880936 L -0.212153339277,-17.3044517443 L -0.230634919311,-17.2143312636 L -0.244547022001,-17.1358245149 L -0.25453003132,-17.0691034664 L -0.261230042192,-17.0143139831 L -0.26529791819,-16.9715756505 L -0.267388344052,-16.9409816297 L -0.268158874028,-16.922598545 L -0.268268977113,-16.9164664031 L -0.268268977113,-16.7519992289 L -1.19278480264,-16.7116339962 L -1.20711906136,-16.8754753231 L -1.20776319685,-16.8815745343 L -1.21013298613,-16.8998205097 L -1.2148819019,-16.9301159184 L -1.22265918952,-16.97233708 L -1.23410892294,-17.0263341283 L -1.24986906644,-17.0919312065 L -1.27057054337,-17.1689266937 L -1.29683631284,-17.2570934629 L -1.32928045531,-17.3561791699 L -1.36850726814,-17.4659065728 L -1.41511037217,-17.5859738824 L -1.46967183007,-17.7160551418 L -1.53276127771,-17.8558006359 L -1.60493506926,-18.0048373306 L -1.68673543716,-18.1627693401 L -1.77868966771,-18.3291784229 L -1.88130929336,-18.5036245049 L -1.99508930244,-18.6856462305 L -2.12050736728,-18.8747615399 L -2.8368949274,-18.7804473284 L -2.90909283151,-18.565315383 L -2.97188519158,-18.360047464 L -3.02585816993,-18.1649855747 L -3.07160929616,-17.9804472378 L -3.10974657221,-17.8067251378 L -3.14088756644,-17.6440867935 L -3.16565849794,-17.4927742611 L -3.18469331192,-17.3530038687 L -3.19863274727,-17.2249659826 L -3.20812339721,-17.108824804 L -3.21381676427,-17.0047181987 L -3.21636831034,-16.9127575579 L -3.21643650308,-16.8330276918 L -3.21468185956,-16.7655867546 L -3.21176598829,-16.710466202 L -3.20835063053,-16.6676707814 L -3.20509670217,-16.6371785539 L -3.2026633369,-16.6189409484 L -3.20170693201,-16.6128828483 L -3.17314750693,-16.4509143001 L -4.0766085106,-16.2506218177 L -4.11917574756,-16.4094849088 L -4.12086921409,-16.4153796062 L -4.12637138133,-16.4329368747 L -4.1363088929,-16.4619473875 L -4.15129965382,-16.5021766029 L -4.17195192911,-16.5533650894 L -4.1988634537,-16.6152288804 L -4.23262055473,-16.6874598594 L -4.27379728694,-16.7697261743 L -4.32295458242,-16.8616726805 L -4.38063941539,-16.9629214131 L -4.44738398307,-17.0730720864 L -4.52370490346,-17.1917026213 L -4.61010243101,-17.3183696998 L -4.70705969094,-17.4526093448 L -4.8150419331,-17.5939375275 L -4.93449580623,-17.7418507978 L -5.06584865342,-17.8958269408 L -5.20950782944,-18.0553256561 L -5.36586004092,-18.2197892607 L -6.05498657333,-18.0025084997 L -6.08873035878,-17.7781078575 L -6.11492436174,-17.5650546405 L -6.13420522765,-17.3635838702 L -6.14721654556,-17.1739044856 L -6.15460790461,-16.9961991462 L -6.15703394506,-16.8306240669 L -6.15515340493,-16.6773088847 L -6.1496281634,-16.5363565579 L -6.1411222818,-16.4078432975 L -6.13030104343,-16.2918185302 L -6.11782999315,-16.1883048954 L -6.10437397782,-16.0972982721 L -6.09059618861,-16.0187678402 L -6.07715720621,-15.952656173 L -6.06471405006,-15.8988793612 L -6.05391923247,-15.8573271699 L -6.04541981886,-15.8278632265 L -6.03985649491,-15.8103252407 L -6.03786264192,-15.8045252547 L -5.98161155544,-15.6499766648 L -6.83656653183,-15.2958427184 L -6.90607336308,-15.444900599 L -6.90876470551,-15.4504116754 L -6.91723207015,-15.4667467682 L -6.93205623127,-15.4935909153 L -6.9538049788,-15.5306058403 L -6.98303228702,-15.5774304287 L -7.02027749966,-15.6336812325 L -7.06606453234,-15.6989530016 L -7.12090109312,-15.7728192417 L -7.18527792207,-15.8548327991 L -7.25966805072,-15.9445264698 L -7.34452608212,-16.0414136344 L -7.44028749245,-16.1449889162 L -7.54736795476,-16.2547288639 L -7.66616268579,-16.3700926556 L -7.79704581642,-16.490522826 L -7.94036978666,-16.615446014 L -8.09646476559,-16.7442737309 L -8.26563809718,-16.8764031482 L -8.44817377248,-17.0112179045 L -9.0891005162,-16.6775725599 L -9.08336489515,-16.4507215208 L -9.07216464947,-16.2363565201 L -9.05616756359,-16.0345984562 L -9.03604373086,-15.845541336 L -9.01246459022,-15.669252244 L -8.98610196287,-15.5057713447 L -8.95762709038,-15.355111917 L -8.927709675,-15.2172604209 L -8.89701692336,-15.0921765965 L -8.86621259452,-14.9797935945 L -8.83595605346,-14.8800181395 L -8.80690133095,-14.7927307238 L -8.77969619094,-14.7177858337 L -8.75498120634,-14.6550122061 L -8.73338884432,-14.6042131162 L -8.71554256197,-14.5651666965 L -8.70205591347,-14.5376262843 L -8.69353166964,-14.521320801 L -8.69056095076,-14.5159551588 L -8.60832736369,-14.3735224079 L -9.38879893846,-13.8763071782 L -9.4831334341,-14.0110308001 L -9.48674087737,-14.0159908041 L -9.4979161628,-14.0306073877 L -9.51717654884,-14.0544695234 L -9.54502245829,-14.0871454781 L -9.58193674247,-14.128183427 L -9.62838396621,-14.1771120914 L -9.68480971473,-14.2334414008 L -9.75163992293,-14.2966631779 L -9.82928022798,-14.3662518461 L -9.91811534589,-14.4416651581 L -10.0185084727,-14.5223449464 L -10.130800711,-14.6077178926 L -10.2553105224,-14.6971963167 L -10.3923332067,-14.7901789847 L -10.5421404081,-14.8860519331 L -10.7049796491,-14.9841893109 L -10.8810738929,-15.0839542366 L -11.070621134,-15.1846996705 L -11.2737940189,-15.2857693003 L -11.8470467392,-14.8458970171 L -11.8020059856,-14.6234883352 L -11.7537518051,-14.4143249228 L -11.7029628307,-14.2184098821 L -11.6503152999,-14.0357194312 L -11.5964820998,-13.8662030415 L -11.5421318197,-13.7097836065 L -11.4879278095,-13.5663576438 L -11.4345272458,-13.4357955263 L -11.3825802078,-13.3179417466 L -11.3327287625,-13.2126152105 L -11.2856060603,-13.1196095621 L -11.2418354436,-13.038693538 L -11.2020295672,-12.9696113522 L -11.1667895327,-12.912083109 L -11.1367040378,-12.8658052458 L -11.112348541,-12.8304510033 L -11.0942844426,-12.8056709239 L -11.0830582837,-12.7910933768 L -11.0792009627,-12.7863251107 L -10.973483501,-12.6603359459 L -11.6557574403,-12.0351470661 L -11.7720532944,-12.1514429202 L -11.7764672282,-12.1557011447 L -11.790010879,-12.1681551016 L -11.8131222729,-12.1883101869 L -11.8462192604,-12.215654329 L -11.8896988987,-12.249658721 L -11.9439368582,-12.2897785733 L -12.0092868547,-12.3354538855 L -12.0860801083,-12.386110238 L -12.174624828,-12.4411596004 L -12.2752057251,-12.5000011584 L -12.3880835529,-12.5620221559 L -12.5134946763,-12.6265987527 L -12.6516506692,-12.6930968966 L -12.8027379419,-12.7608732095 L -12.9669173981,-12.8292758848 L -13.144324122,-12.8976455979 L -13.335067096,-12.9653164257 L -13.5392289496,-13.0316167771 L -13.7568657389,-13.0958703309 L -14.2450264419,-12.5631364059 L -14.1620490962,-12.3519278564 L -14.0782071597,-12.1543213567 L -13.9941694943,-11.9702021185 L -13.9105979338,-11.7994292939 L -13.8281463688,-11.6418362761 L -13.7474598418,-11.497231031 L -13.6691736552,-11.3653964585 L -13.5939124923,-11.2460907835 L -13.5222895525,-11.139047976 L -13.4549057016,-11.0439781993 L -13.3923486378,-10.960568287 L -13.335192075,-10.888482247 L -13.2839949436,-10.8273617927 L -13.2393006099,-10.7768269005 L -13.2016361146,-10.7364763935 L -13.1715114327,-10.705888549 L -13.1494187529,-10.6846217324 L -13.1358317802,-10.6722150531 L -13.1312050598,-10.6681890444 L -13.005215895,-10.5624715826 L -13.5685616504,-9.8283051005 L -13.7032852723,-9.92263959614 L -13.7083715814,-9.92606665707 L -13.7238720807,-9.9359795801 L -13.7501322544,-9.9518152129 L -13.7874746848,-9.97299670447 L -13.8361985704,-9.99893433345 L -13.8965792726,-10.0290263522 L -13.9688678906,-10.062659846 L -14.0532908653,-10.0992116061 L -14.1500496133,-10.1380490158 L -14.2593201899,-10.1785309488 L -14.3812529831,-10.2200086789 L -14.515972438,-10.261826799 L -14.6635768125,-10.3033241503 L -14.8241379632,-10.3438347591 L -14.9977011645,-10.3826887808 L -15.1842849577,-10.41921345 L -15.3838810333,-10.452734036 L -15.5964541448,-10.4825748023 L -15.8219420548,-10.5080599683 L -16.2101782245,-9.8986512522 L -16.0917855115,-9.70506030005 L -15.9749033138,-9.52501488655 L -15.8601703991,-9.35828582079 L -15.7482140887,-9.2046194683 L -15.6396494079,-9.06373820654 L -15.5350782532,-8.93534090837 L -15.4350885764,-8.8191034529 L -15.3402535866,-8.71467926303 L -15.2511309718,-8.62169986927 L -15.1682621395,-8.53977549903 L -15.0921714788,-8.46849569084 L -15.0233656431,-8.4074299327 L -14.9623328557,-8.35612832399 L -14.9095422374,-8.31412226004 L -14.8654431584,-8.28092513878 L -14.8304646147,-8.25603308852 L -14.8050146284,-8.23892571622 L -14.789479675,-8.22906687532 L -14.7842241359,-8.2259054523 L -14.641791385,-8.14367186523 L -15.0690919808,-7.32283505778 L -15.2181498615,-7.39234188904 L -15.223754001,-7.3948336569 L -15.2407403739,-7.4019043469 L -15.2693514253,-7.41293936955 L -15.3098046676,-7.42731462169 L -15.3622923499,-7.44439738586 L -15.4269811578,-7.46354724033 L -15.5040119442,-7.48411697901 L -15.5934994908,-7.50545353998 L -15.6955323014,-7.52689894188 L -15.8101724263,-7.54779122694 L -15.9374553186,-7.56746540977 L -16.0773897227,-7.58525443082 L -16.2299575944,-7.60049011349 L -16.3951140539,-7.61250412388 L -16.5727873702,-7.62062893203 L -16.7628789786,-7.62419877376 L -16.96526353,-7.622550612 L -17.1797889729,-7.6150250965 L -17.4062766676,-7.60096752098 L -17.6827919445,-6.93340058919 L -17.5325811667,-6.76330939747 L -17.3862101143,-6.60629565898 L -17.244268052,-6.46202274392 L -17.1073287274,-6.3301319379 L -16.9759496137,-6.21024303805 L -16.850671173,-6.10195497379 L -16.7320161417,-6.00484645162 L -16.6204888383,-5.91847662298 L -16.5165744939,-5.84238577479 L -16.4207386078,-5.77609604153 L -16.3334263264,-5.71911213836 L -16.2550618484,-5.67092211428 L -16.1860478553,-5.63099812459 L -16.1267649686,-5.59879722181 L -16.0775712341,-5.57376216411 L -16.0388016339,-5.55532224041 L -16.0107676261,-5.54289411128 L -15.9937567138,-5.53588266467 L -15.9880320427,-5.53368188556 L -15.8334834528,-5.47743079909 L -16.1117555767,-4.59486437737 L -16.2706186678,-4.63743161434 L -16.2765703588,-4.63891237803 L -16.2945264829,-4.64292599567 L -16.3246190798,-4.64882511458 L -16.3669539828,-4.65595734254 L -16.4216106501,-4.66366619074 L -16.488642027,-4.67129202229 L -16.5680744403,-4.67817300474 L -16.6599075249,-4.68364606602 L -16.7641141828,-4.68704785246 L -16.8806405738,-4.68771568799 L -17.009406139,-4.68498853347 L -17.1503036561,-4.67820794506 L -17.3031993276,-4.66671903058 L -17.4679329004,-4.64987140293 L -17.6443178179,-4.62702012939 L -17.8321414041,-4.59752667582 L -18.0311650792,-4.56075984481 L -18.2411246065,-4.51609670656 L -18.4617303718,-4.46292352176 L -18.6181229792,-3.75748205775 L -18.4406582152,-3.61605876124 L -18.2692457184,-3.48684748076 L -18.1044073462,-3.36941437593 L -17.9466458395,-3.26330655178 L -17.7964441807,-3.16805277738 L -17.654264976,-3.08316422507 L -17.5205498634,-3.0081352295 L -17.3957189469,-2.94244406564 L -17.2801702578,-2.88555374494 L -17.1742792427,-2.83691282866 L -17.0783982802,-2.79595625757 L -16.9928562248,-2.76210619703 L -16.9179579813,-2.73477289659 L -16.8539841068,-2.71335556313 L -16.8011904435,-2.69724324655 L -16.7598077815,-2.68581573715 L -16.7300415512,-2.6784444736 L -16.712071548,-2.67449346054 L -16.7060516863,-2.6733201949 L -16.5440831381,-2.64476076983 L -16.6648716323,-1.72728106797 L -16.8287129592,-1.74161532669 L -16.8348313626,-1.74204009396 L -16.8532116502,-1.74287468749 L -16.8838714442,-1.74345866093 L -16.9268016833,-1.74313115555 L -16.9819666205,-1.74123185836 L -17.0493038519,-1.73710195994 L -17.1287243783,-1.730085111 L -17.2201126992,-1.71952837639 L -17.3233269378,-1.7047831858 L -17.4381989995,-1.68520627995 L -17.564534761,-1.6601606513 L -17.7021142915,-1.62901647817 L -17.8506921051,-1.59115205139 L -18.0099974449,-1.54595469235 L -18.1797345972,-1.49282166151 L -18.3595832366,-1.4311610563 L -18.5491988016,-1.36039269758 L -18.7482128994,-1.27994900345 L -18.9562337408,-1.18927584968 L -18.9877517684,-0.467394335355 L -18.7884251952,-0.358936009374 L -18.597179536,-0.261453206275 L -18.4144533844,-0.174428057123 L -18.2406631992,-0.0973272473866 L -18.0762027968,-0.0296028361844 L -17.9214428712,0.029306908475 L -17.7767305433,0.0799766593843 L -17.642388938,0.122993165695 L -17.5187167926,0.158954375294 L -17.4059880936,0.188468544958 L -17.3044517443,0.212153339277 L -17.2143312636,0.230634919311 L -17.1358245149,0.244547022001 L -17.0691034664,0.25453003132 L -17.0143139831,0.261230042192 L -16.9715756505,0.26529791819 L -16.9409816297,0.267388344052 L -16.922598545,0.268158874028 L -16.9164664031,0.268268977113 L -16.7519992289,0.268268977113 L -16.7116339962,1.19278480264 L -16.8754753231,1.20711906136 L -16.8815745343,1.20776319685 L -16.8998205097,1.21013298613 L -16.9301159184,1.2148819019 L -16.97233708,1.22265918952 L -17.0263341283,1.23410892294 L -17.0919312065,1.24986906644 L -17.1689266937,1.27057054337 L -17.2570934629,1.29683631284 L -17.3561791699,1.32928045531 L -17.4659065728,1.36850726814 L -17.5859738824,1.41511037217 L -17.7160551418,1.46967183007 L -17.8558006359,1.53276127771 L -18.0048373306,1.60493506926 L -18.1627693401,1.68673543716 L -18.3291784229,1.77868966771 L -18.5036245049,1.88130929336 L -18.6856462305,1.99508930244 L -18.8747615399,2.12050736728 L -18.7804473284,2.8368949274 L -18.565315383,2.90909283151 L -18.360047464,2.97188519158 L -18.1649855747,3.02585816993 L -17.9804472378,3.07160929616 L -17.8067251378,3.10974657221 L -17.6440867935,3.14088756644 L -17.4927742611,3.16565849794 L -17.3530038687,3.18469331192 L -17.2249659826,3.19863274727 L -17.108824804,3.20812339721 L -17.0047181987,3.21381676427 L -16.9127575579,3.21636831034 L -16.8330276918,3.21643650308 L -16.7655867546,3.21468185956 L -16.710466202,3.21176598829 L -16.6676707814,3.20835063053 L -16.6371785539,3.20509670217 L -16.6189409484,3.2026633369 L -16.6128828483,3.20170693201 L -16.4509143001,3.17314750693 L -16.2506218177,4.0766085106 L -16.4094849088,4.11917574756 L -16.4153796062,4.12086921409 L -16.4329368747,4.12637138133 L -16.4619473875,4.1363088929 L -16.5021766029,4.15129965382 L -16.5533650894,4.17195192911 L -16.6152288804,4.1988634537 L -16.6874598594,4.23262055473 L -16.7697261743,4.27379728694 L -16.8616726805,4.32295458242 L -16.9629214131,4.38063941539 L -17.0730720864,4.44738398307 L -17.1917026213,4.52370490346 L -17.3183696998,4.61010243101 L -17.4526093448,4.70705969094 L -17.5939375275,4.8150419331 L -17.7418507978,4.93449580623 L -17.8958269408,5.06584865342 L -18.0553256561,5.20950782944 L -18.2197892607,5.36586004092 L -18.0025084997,6.05498657333 L -17.7781078575,6.08873035878 L -17.5650546405,6.11492436174 L -17.3635838702,6.13420522765 L -17.1739044856,6.14721654556 L -16.9961991462,6.15460790461 L -16.8306240669,6.15703394506 L -16.6773088847,6.15515340493 L -16.5363565579,6.1496281634 L -16.4078432975,6.1411222818 L -16.2918185302,6.13030104343 L -16.1883048954,6.11782999315 L -16.0972982721,6.10437397782 L -16.0187678402,6.09059618861 L -15.952656173,6.07715720621 L -15.8988793612,6.06471405006 L -15.8573271699,6.05391923247 L -15.8278632265,6.04541981886 L -15.8103252407,6.03985649491 L -15.8045252547,6.03786264192 L -15.6499766648,5.98161155544 L -15.2958427184,6.83656653183 L -15.444900599,6.90607336308 L -15.4504116754,6.90876470551 L -15.4667467682,6.91723207015 L -15.4935909153,6.93205623127 L -15.5306058403,6.9538049788 L -15.5774304287,6.98303228702 L -15.6336812325,7.02027749966 L -15.6989530016,7.06606453234 L -15.7728192417,7.12090109312 L -15.8548327991,7.18527792207 L -15.9445264698,7.25966805072 L -16.0414136344,7.34452608212 L -16.1449889162,7.44028749245 L -16.2547288639,7.54736795476 L -16.3700926556,7.66616268579 L -16.490522826,7.79704581642 L -16.615446014,7.94036978666 L -16.7442737309,8.09646476559 L -16.8764031482,8.26563809718 L -17.0112179045,8.44817377248 L -16.6775725599,9.0891005162 L -16.4507215208,9.08336489515 L -16.2363565201,9.07216464947 L -16.0345984562,9.05616756359 L -15.845541336,9.03604373086 L -15.669252244,9.01246459022 L -15.5057713447,8.98610196287 L -15.355111917,8.95762709038 L -15.2172604209,8.927709675 L -15.0921765965,8.89701692336 L -14.9797935945,8.86621259452 L -14.8800181395,8.83595605346 L -14.7927307238,8.80690133095 L -14.7177858337,8.77969619094 L -14.6550122061,8.75498120634 L -14.6042131162,8.73338884432 L -14.5651666965,8.71554256197 L -14.5376262843,8.70205591347 L -14.521320801,8.69353166964 L -14.5159551588,8.69056095076 L -14.3735224079,8.60832736369 L -13.8763071782,9.38879893846 L -14.0110308001,9.4831334341 L -14.0159908041,9.48674087737 L -14.0306073877,9.4979161628 L -14.0544695234,9.51717654884 L -14.0871454781,9.54502245829 L -14.128183427,9.58193674247 L -14.1771120914,9.62838396621 L -14.2334414008,9.68480971473 L -14.2966631779,9.75163992293 L -14.3662518461,9.82928022798 L -14.4416651581,9.91811534589 L -14.5223449464,10.0185084727 L -14.6077178926,10.130800711 L -14.6971963167,10.2553105224 L -14.7901789847,10.3923332067 L -14.8860519331,10.5421404081 L -14.9841893109,10.7049796491 L -15.0839542366,10.8810738929 L -15.1846996705,11.070621134 L -15.2857693003,11.2737940189 L -14.8458970171,11.8470467392 L -14.6234883352,11.8020059856 L -14.4143249228,11.7537518051 L -14.2184098821,11.7029628307 L -14.0357194312,11.6503152999 L -13.8662030415,11.5964820998 L -13.7097836065,11.5421318197 L -13.5663576438,11.4879278095 L -13.4357955263,11.4345272458 L -13.3179417466,11.3825802078 L -13.2126152105,11.3327287625 L -13.1196095621,11.2856060603 L -13.038693538,11.2418354436 L -12.9696113522,11.2020295672 L -12.912083109,11.1667895327 L -12.8658052458,11.1367040378 L -12.8304510033,11.112348541 L -12.8056709239,11.0942844426 L -12.7910933768,11.0830582837 L -12.7863251107,11.0792009627 L -12.6603359459,10.973483501 L -12.0351470661,11.6557574403 L -12.1514429202,11.7720532944 L -12.1557011447,11.7764672282 L -12.1681551016,11.790010879 L -12.1883101869,11.8131222729 L -12.215654329,11.8462192604 L -12.249658721,11.8896988987 L -12.2897785733,11.9439368582 L -12.3354538855,12.0092868547 L -12.386110238,12.0860801083 L -12.4411596004,12.174624828 L -12.5000011584,12.2752057251 L -12.5620221559,12.3880835529 L -12.6265987527,12.5134946763 L -12.6930968966,12.6516506692 L -12.7608732095,12.8027379419 L -12.8292758848,12.9669173981 L -12.8976455979,13.144324122 L -12.9653164257,13.335067096 L -13.0316167771,13.5392289496 L -13.0958703309,13.7568657389 L -12.5631364059,14.2450264419 L -12.3519278564,14.1620490962 L -12.1543213567,14.0782071597 L -11.9702021185,13.9941694943 L -11.7994292939,13.9105979338 L -11.6418362761,13.8281463688 L -11.497231031,13.7474598418 L -11.3653964585,13.6691736552 L -11.2460907835,13.5939124923 L -11.139047976,13.5222895525 L -11.0439781993,13.4549057016 L -10.960568287,13.3923486378 L -10.888482247,13.335192075 L -10.8273617927,13.2839949436 L -10.7768269005,13.2393006099 L -10.7364763935,13.2016361146 L -10.705888549,13.1715114327 L -10.6846217324,13.1494187529 L -10.6722150531,13.1358317802 L -10.6681890444,13.1312050598 L -10.5624715826,13.005215895 L -9.8283051005,13.5685616504 L -9.92263959614,13.7032852723 L -9.92606665707,13.7083715814 L -9.9359795801,13.7238720807 L -9.9518152129,13.7501322544 L -9.97299670447,13.7874746848 L -9.99893433345,13.8361985704 L -10.0290263522,13.8965792726 L -10.062659846,13.9688678906 L -10.0992116061,14.0532908653 L -10.1380490158,14.1500496133 L -10.1785309488,14.2593201899 L -10.2200086789,14.3812529831 L -10.261826799,14.515972438 L -10.3033241503,14.6635768125 L -10.3438347591,14.8241379632 L -10.3826887808,14.9977011645 L -10.41921345,15.1842849577 L -10.452734036,15.3838810333 L -10.4825748023,15.5964541448 L -10.5080599683,15.8219420548 L -9.8986512522,16.2101782245 L -9.70506030005,16.0917855115 L -9.52501488655,15.9749033138 L -9.35828582079,15.8601703991 L -9.2046194683,15.7482140887 L -9.06373820654,15.6396494079 L -8.93534090837,15.5350782532 L -8.8191034529,15.4350885764 L -8.71467926303,15.3402535866 L -8.62169986927,15.2511309718 L -8.53977549903,15.1682621395 L -8.46849569084,15.0921714788 L -8.4074299327,15.0233656431 L -8.35612832399,14.9623328557 L -8.31412226004,14.9095422374 L -8.28092513878,14.8654431584 L -8.25603308852,14.8304646147 L -8.23892571622,14.8050146284 L -8.22906687532,14.789479675 L -8.2259054523,14.7842241359 L -8.14367186523,14.641791385 L -7.32283505778,15.0690919808 L -7.39234188904,15.2181498615 L -7.3948336569,15.223754001 L -7.4019043469,15.2407403739 L -7.41293936955,15.2693514253 L -7.42731462169,15.3098046676 L -7.44439738586,15.3622923499 L -7.46354724033,15.4269811578 L -7.48411697901,15.5040119442 L -7.50545353998,15.5934994908 L -7.52689894188,15.6955323014 L -7.54779122694,15.8101724263 L -7.56746540977,15.9374553186 L -7.58525443082,16.0773897227 L -7.60049011349,16.2299575944 L -7.61250412388,16.3951140539 L -7.62062893203,16.5727873702 L -7.62419877376,16.7628789786 L -7.622550612,16.96526353 L -7.6150250965,17.1797889729 L -7.60096752098,17.4062766676 L -6.93340058919,17.6827919445 L -6.76330939747,17.5325811667 L -6.60629565898,17.3862101143 L -6.46202274392,17.244268052 L -6.3301319379,17.1073287274 L -6.21024303805,16.9759496137 L -6.10195497379,16.850671173 L -6.00484645162,16.7320161417 L -5.91847662298,16.6204888383 L -5.84238577479,16.5165744939 L -5.77609604153,16.4207386078 L -5.71911213836,16.3334263264 L -5.67092211428,16.2550618484 L -5.63099812459,16.1860478553 L -5.59879722181,16.1267649686 L -5.57376216411,16.0775712341 L -5.55532224041,16.0388016339 L -5.54289411128,16.0107676261 L -5.53588266467,15.9937567138 L -5.53368188556,15.9880320427 L -5.47743079909,15.8334834528 L -4.59486437737,16.1117555767 L -4.63743161434,16.2706186678 L -4.63891237803,16.2765703588 L -4.64292599567,16.2945264829 L -4.64882511458,16.3246190798 L -4.65595734254,16.3669539828 L -4.66366619074,16.4216106501 L -4.67129202229,16.488642027 L -4.67817300474,16.5680744403 L -4.68364606602,16.6599075249 L -4.68704785246,16.7641141828 L -4.68771568799,16.8806405738 L -4.68498853347,17.009406139 L -4.67820794506,17.1503036561 L -4.66671903058,17.3031993276 L -4.64987140293,17.4679329004 L -4.62702012939,17.6443178179 L -4.59752667582,17.8321414041 L -4.56075984481,18.0311650792 L -4.51609670656,18.2411246065 L -4.46292352176,18.4617303718 L -3.75748205775,18.6181229792 L -3.61605876124,18.4406582152 L -3.48684748076,18.2692457184 L -3.36941437593,18.1044073462 L -3.26330655178,17.9466458395 L -3.16805277738,17.7964441807 L -3.08316422507,17.654264976 L -3.0081352295,17.5205498634 L -2.94244406564,17.3957189469 L -2.88555374494,17.2801702578 L -2.83691282866,17.1742792427 L -2.79595625757,17.0783982802 L -2.76210619703,16.9928562248 L -2.73477289659,16.9179579813 L -2.71335556313,16.8539841068 L -2.69724324655,16.8011904435 L -2.68581573715,16.7598077815 L -2.6784444736,16.7300415512 L -2.67449346054,16.712071548 L -2.6733201949,16.7060516863 L -2.64476076983,16.5440831381 L -1.72728106797,16.6648716323 L -1.74161532669,16.8287129592 L -1.74204009396,16.8348313626 L -1.74287468749,16.8532116502 L -1.74345866093,16.8838714442 L -1.74313115555,16.9268016833 L -1.74123185836,16.9819666205 L -1.73710195994,17.0493038519 L -1.730085111,17.1287243783 L -1.71952837639,17.2201126992 L -1.7047831858,17.3233269378 L -1.68520627995,17.4381989995 L -1.6601606513,17.564534761 L -1.62901647817,17.7021142915 L -1.59115205139,17.8506921051 L -1.54595469235,18.0099974449 L -1.49282166151,18.1797345972 L -1.4311610563,18.3595832366 L -1.36039269758,18.5491988016 L -1.27994900345,18.7482128994 L -1.18927584968,18.9562337408 L -0.467394335355,18.9877517684 L -0.358936009374,18.7884251952 L -0.261453206275,18.597179536 L -0.174428057123,18.4144533844 L -0.0973272473866,18.2406631992 L -0.0296028361844,18.0762027968 L 0.029306908475,17.9214428712 L 0.0799766593843,17.7767305433 L 0.122993165695,17.642388938 L 0.158954375294,17.5187167926 L 0.188468544958,17.4059880936 L 0.212153339277,17.3044517443 L 0.230634919311,17.2143312636 L 0.244547022001,17.1358245149 L 0.25453003132,17.0691034664 L 0.261230042192,17.0143139831 L 0.26529791819,16.9715756505 L 0.267388344052,16.9409816297 L 0.268158874028,16.922598545 L 0.268268977113,16.9164664031 L 0.268268977113,16.7519992289 L 1.19278480264,16.7116339962 L 1.20711906136,16.8754753231 L 1.20776319685,16.8815745343 L 1.21013298613,16.8998205097 L 1.2148819019,16.9301159184 L 1.22265918952,16.97233708 L 1.23410892294,17.0263341283 L 1.24986906644,17.0919312065 L 1.27057054337,17.1689266937 L 1.29683631284,17.2570934629 L 1.32928045531,17.3561791699 L 1.36850726814,17.4659065728 L 1.41511037217,17.5859738824 L 1.46967183007,17.7160551418 L 1.53276127771,17.8558006359 L 1.60493506926,18.0048373306 L 1.68673543716,18.1627693401 L 1.77868966771,18.3291784229 L 1.88130929336,18.5036245049 L 1.99508930244,18.6856462305 L 2.12050736728,18.8747615399 L 2.8368949274,18.7804473284 L 2.90909283151,18.565315383 L 2.97188519158,18.360047464 L 3.02585816993,18.1649855747 L 3.07160929616,17.9804472378 L 3.10974657221,17.8067251378 L 3.14088756644,17.6440867935 L 3.16565849794,17.4927742611 L 3.18469331192,17.3530038687 L 3.19863274727,17.2249659826 L 3.20812339721,17.108824804 L 3.21381676427,17.0047181987 L 3.21636831034,16.9127575579 L 3.21643650308,16.8330276918 L 3.21468185956,16.7655867546 L 3.21176598829,16.710466202 L 3.20835063053,16.6676707814 L 3.20509670217,16.6371785539 L 3.2026633369,16.6189409484 L 3.20170693201,16.6128828483 L 3.17314750693,16.4509143001 L 4.0766085106,16.2506218177 L 4.11917574756,16.4094849088 L 4.12086921409,16.4153796062 L 4.12637138133,16.4329368747 L 4.1363088929,16.4619473875 L 4.15129965382,16.5021766029 L 4.17195192911,16.5533650894 L 4.1988634537,16.6152288804 L 4.23262055473,16.6874598594 L 4.27379728694,16.7697261743 L 4.32295458242,16.8616726805 L 4.38063941539,16.9629214131 L 4.44738398307,17.0730720864 L 4.52370490346,17.1917026213 L 4.61010243101,17.3183696998 L 4.70705969094,17.4526093448 L 4.8150419331,17.5939375275 L 4.93449580623,17.7418507978 L 5.06584865342,17.8958269408 L 5.20950782944,18.0553256561 L 5.36586004092,18.2197892607 L 6.05498657333,18.0025084997 L 6.08873035878,17.7781078575 L 6.11492436174,17.5650546405 L 6.13420522765,17.3635838702 L 6.14721654556,17.1739044856 L 6.15460790461,16.9961991462 L 6.15703394506,16.8306240669 L 6.15515340493,16.6773088847 L 6.1496281634,16.5363565579 L 6.1411222818,16.4078432975 L 6.13030104343,16.2918185302 L 6.11782999315,16.1883048954 L 6.10437397782,16.0972982721 L 6.09059618861,16.0187678402 L 6.07715720621,15.952656173 L 6.06471405006,15.8988793612 L 6.05391923247,15.8573271699 L 6.04541981886,15.8278632265 L 6.03985649491,15.8103252407 L 6.03786264192,15.8045252547 L 5.98161155544,15.6499766648 L 6.83656653183,15.2958427184 L 6.90607336308,15.444900599 L 6.90876470551,15.4504116754 L 6.91723207015,15.4667467682 L 6.93205623127,15.4935909153 L 6.9538049788,15.5306058403 L 6.98303228702,15.5774304287 L 7.02027749966,15.6336812325 L 7.06606453234,15.6989530016 L 7.12090109312,15.7728192417 L 7.18527792207,15.8548327991 L 7.25966805072,15.9445264698 L 7.34452608212,16.0414136344 L 7.44028749245,16.1449889162 L 7.54736795476,16.2547288639 L 7.66616268579,16.3700926556 L 7.79704581642,16.490522826 L 7.94036978666,16.615446014 L 8.09646476559,16.7442737309 L 8.26563809718,16.8764031482 L 8.44817377248,17.0112179045 L 9.0891005162,16.6775725599 L 9.08336489515,16.4507215208 L 9.07216464947,16.2363565201 L 9.05616756359,16.0345984562 L 9.03604373086,15.845541336 L 9.01246459022,15.669252244 L 8.98610196287,15.5057713447 L 8.95762709038,15.355111917 L 8.927709675,15.2172604209 L 8.89701692336,15.0921765965 L 8.86621259452,14.9797935945 L 8.83595605346,14.8800181395 L 8.80690133095,14.7927307238 L 8.77969619094,14.7177858337 L 8.75498120634,14.6550122061 L 8.73338884432,14.6042131162 L 8.71554256197,14.5651666965 L 8.70205591347,14.5376262843 L 8.69353166964,14.521320801 L 8.69056095076,14.5159551588 L 8.60832736369,14.3735224079 L 9.38879893846,13.8763071782 L 9.4831334341,14.0110308001 L 9.48674087737,14.0159908041 L 9.4979161628,14.0306073877 L 9.51717654884,14.0544695234 L 9.54502245829,14.0871454781 L 9.58193674247,14.128183427 L 9.62838396621,14.1771120914 L 9.68480971473,14.2334414008 L 9.75163992293,14.2966631779 L 9.82928022798,14.3662518461 L 9.91811534589,14.4416651581 L 10.0185084727,14.5223449464 L 10.130800711,14.6077178926 L 10.2553105224,14.6971963167 L 10.3923332067,14.7901789847 L 10.5421404081,14.8860519331 L 10.7049796491,14.9841893109 L 10.8810738929,15.0839542366 L 11.070621134,15.1846996705 L 11.2737940189,15.2857693003 L 11.8470467392,14.8458970171 L 11.8020059856,14.6234883352 L 11.7537518051,14.4143249228 L 11.7029628307,14.2184098821 L 11.6503152999,14.0357194312 L 11.5964820998,13.8662030415 L 11.5421318197,13.7097836065 L 11.4879278095,13.5663576438 L 11.4345272458,13.4357955263 L 11.3825802078,13.3179417466 L 11.3327287625,13.2126152105 L 11.2856060603,13.1196095621 L 11.2418354436,13.038693538 L 11.2020295672,12.9696113522 L 11.1667895327,12.912083109 L 11.1367040378,12.8658052458 L 11.112348541,12.8304510033 L 11.0942844426,12.8056709239 L 11.0830582837,12.7910933768 L 11.0792009627,12.7863251107 L 10.973483501,12.6603359459 L 11.6557574403,12.0351470661 L 11.7720532944,12.1514429202 L 11.7764672282,12.1557011447 L 11.790010879,12.1681551016 L 11.8131222729,12.1883101869 L 11.8462192604,12.215654329 L 11.8896988987,12.249658721 L 11.9439368582,12.2897785733 L 12.0092868547,12.3354538855 L 12.0860801083,12.386110238 L 12.174624828,12.4411596004 L 12.2752057251,12.5000011584 L 12.3880835529,12.5620221559 L 12.5134946763,12.6265987527 L 12.6516506692,12.6930968966 L 12.8027379419,12.7608732095 L 12.9669173981,12.8292758848 L 13.144324122,12.8976455979 L 13.335067096,12.9653164257 L 13.5392289496,13.0316167771 L 13.7568657389,13.0958703309 L 14.2450264419,12.5631364059 L 14.1620490962,12.3519278564 L 14.0782071597,12.1543213567 L 13.9941694943,11.9702021185 L 13.9105979338,11.7994292939 L 13.8281463688,11.6418362761 L 13.7474598418,11.497231031 L 13.6691736552,11.3653964585 L 13.5939124923,11.2460907835 L 13.5222895525,11.139047976 L 13.4549057016,11.0439781993 L 13.3923486378,10.960568287 L 13.335192075,10.888482247 L 13.2839949436,10.8273617927 L 13.2393006099,10.7768269005 L 13.2016361146,10.7364763935 L 13.1715114327,10.705888549 L 13.1494187529,10.6846217324 L 13.1358317802,10.6722150531 L 13.1312050598,10.6681890444 L 13.005215895,10.5624715826 L 13.5685616504,9.8283051005 L 13.7032852723,9.92263959614 L 13.7083715814,9.92606665707 L 13.7238720807,9.9359795801 L 13.7501322544,9.9518152129 L 13.7874746848,9.97299670447 L 13.8361985704,9.99893433345 L 13.8965792726,10.0290263522 L 13.9688678906,10.062659846 L 14.0532908653,10.0992116061 L 14.1500496133,10.1380490158 L 14.2593201899,10.1785309488 L 14.3812529831,10.2200086789 L 14.515972438,10.261826799 L 14.6635768125,10.3033241503 L 14.8241379632,10.3438347591 L 14.9977011645,10.3826887808 L 15.1842849577,10.41921345 L 15.3838810333,10.452734036 L 15.5964541448,10.4825748023 L 15.8219420548,10.5080599683 L 16.2101782245,9.8986512522 L 16.0917855115,9.70506030005 L 15.9749033138,9.52501488655 L 15.8601703991,9.35828582079 L 15.7482140887,9.2046194683 L 15.6396494079,9.06373820654 L 15.5350782532,8.93534090837 L 15.4350885764,8.8191034529 L 15.3402535866,8.71467926303 L 15.2511309718,8.62169986927 L 15.1682621395,8.53977549903 L 15.0921714788,8.46849569084 L 15.0233656431,8.4074299327 L 14.9623328557,8.35612832399 L 14.9095422374,8.31412226004 L 14.8654431584,8.28092513878 L 14.8304646147,8.25603308852 L 14.8050146284,8.23892571622 L 14.789479675,8.22906687532 L 14.7842241359,8.2259054523 L 14.641791385,8.14367186523 L 15.0690919808,7.32283505778 L 15.2181498615,7.39234188904 L 15.223754001,7.3948336569 L 15.2407403739,7.4019043469 L 15.2693514253,7.41293936955 L 15.3098046676,7.42731462169 L 15.3622923499,7.44439738586 L 15.4269811578,7.46354724033 L 15.5040119442,7.48411697901 L 15.5934994908,7.50545353998 L 15.6955323014,7.52689894188 L 15.8101724263,7.54779122694 L 15.9374553186,7.56746540977 L 16.0773897227,7.58525443082 L 16.2299575944,7.60049011349 L 16.3951140539,7.61250412388 L 16.5727873702,7.62062893203 L 16.7628789786,7.62419877376 L 16.96526353,7.622550612 L 17.1797889729,7.6150250965 L 17.4062766676,7.60096752098 L 17.6827919445,6.93340058919 L 17.5325811667,6.76330939747 L 17.3862101143,6.60629565898 L 17.244268052,6.46202274392 L 17.1073287274,6.3301319379 L 16.9759496137,6.21024303805 L 16.850671173,6.10195497379 L 16.7320161417,6.00484645162 L 16.6204888383,5.91847662298 L 16.5165744939,5.84238577479 L 16.4207386078,5.77609604153 L 16.3334263264,5.71911213836 L 16.2550618484,5.67092211428 L 16.1860478553,5.63099812459 L 16.1267649686,5.59879722181 L 16.0775712341,5.57376216411 L 16.0388016339,5.55532224041 L 16.0107676261,5.54289411128 L 15.9937567138,5.53588266467 L 15.9880320427,5.53368188556 L 15.8334834528,5.47743079909 L 16.1117555767,4.59486437737 L 16.2706186678,4.63743161434 L 16.2765703588,4.63891237803 L 16.2945264829,4.64292599567 L 16.3246190798,4.64882511458 L 16.3669539828,4.65595734254 L 16.4216106501,4.66366619074 L 16.488642027,4.67129202229 L 16.5680744403,4.67817300474 L 16.6599075249,4.68364606602 L 16.7641141828,4.68704785246 L 16.8806405738,4.68771568799 L 17.009406139,4.68498853347 L 17.1503036561,4.67820794506 L 17.3031993276,4.66671903058 L 17.4679329004,4.64987140293 L 17.6443178179,4.62702012939 L 17.8321414041,4.59752667582 L 18.0311650792,4.56075984481 L 18.2411246065,4.51609670656 L 18.4617303718,4.46292352176 L 18.6181229792,3.75748205775 L 18.4406582152,3.61605876124 L 18.2692457184,3.48684748076 L 18.1044073462,3.36941437593 L 17.9466458395,3.26330655178 L 17.7964441807,3.16805277738 L 17.654264976,3.08316422507 L 17.5205498634,3.0081352295 L 17.3957189469,2.94244406564 L 17.2801702578,2.88555374494 L 17.1742792427,2.83691282866 L 17.0783982802,2.79595625757 L 16.9928562248,2.76210619703 L 16.9179579813,2.73477289659 L 16.8539841068,2.71335556313 L 16.8011904435,2.69724324655 L 16.7598077815,2.68581573715 L 16.7300415512,2.6784444736 L 16.712071548,2.67449346054 L 16.7060516863,2.6733201949 L 16.5440831381,2.64476076983 L 16.6648716323,1.72728106797 L 16.8287129592,1.74161532669 L 16.8348313626,1.74204009396 L 16.8532116502,1.74287468749 L 16.8838714442,1.74345866093 L 16.9268016833,1.74313115555 L 16.9819666205,1.74123185836 L 17.0493038519,1.73710195994 L 17.1287243783,1.730085111 L 17.2201126992,1.71952837639 L 17.3233269378,1.7047831858 L 17.4381989995,1.68520627995 L 17.564534761,1.6601606513 L 17.7021142915,1.62901647817 L 17.8506921051,1.59115205139 L 18.0099974449,1.54595469235 L 18.1797345972,1.49282166151 L 18.3595832366,1.4311610563 L 18.5491988016,1.36039269758 L 18.7482128994,1.27994900345 L 18.9562337408,1.18927584968 L 18.9877517684,0.467394335355 L 18.7884251952,0.358936009374 L 18.597179536,0.261453206275 L 18.4144533844,0.174428057123 L 18.2406631992,0.0973272473866 L 18.0762027968,0.0296028361844 L 17.9214428712,-0.029306908475 L 17.7767305433,-0.0799766593843 L 17.642388938,-0.122993165695 L 17.5187167926,-0.158954375294 L 17.4059880936,-0.188468544958 L 17.3044517443,-0.212153339277 L 17.2143312636,-0.230634919311 L 17.1358245149,-0.244547022001 L 17.0691034664,-0.25453003132 L 17.0143139831,-0.261230042192 L 16.9715756505,-0.26529791819 L 16.9409816297,-0.267388344052 L 16.922598545,-0.268158874028 L 16.9164664031,-0.268268977113 L 16.7519992289,-0.268268977113 L 16.7116339962,-1.19278480264z"
       style="fill:none;stroke:#000000" />
  </g>
</svg>