  0
SECTION
  2
ENTITIES
  0
LINE
 10
19.0014488507
 20
-3.18954563248
 11
18.8425857596
 21
-3.14697839551
  0
LINE
 10
18.8425857596
 20
-3.14697839551
 11
18.8366340686
 21
-3.14549763182
  0
LINE
 10
18.8366340686
 20
-3.14549763182
 11
18.8186779445
 21
-3.14148401418
  0
LINE
 10
18.8186779445
 20
-3.14148401418
 11
18.7885853477
 21
-3.13558489527
  0
LINE
 10
18.7885853477
 20
-3.13558489527
 11
18.7462504446
 21
-3.12845266732
  0
LINE
 10
18.7462504446
 20
-3.12845266732
 11
18.6915937773
 21
-3.12074381911
  0
LINE
 10
18.6915937773
 20
-3.12074381911
 11
18.6245624004
 21
-3.11311798756
  0
LINE
 10
18.6245624004
 20
-3.11311798756
 11
18.5451299872
 21
-3.10623700511
  0
LINE
 10
18.5451299872
 20
-3.10623700511
 11
18.4532969025
 21
-3.10076394383
  0
LINE
 10
18.4532969025
 20
-3.10076394383
 11
18.3490902446
 21
-3.09736215739
  0
LINE
 10
18.3490902446
 20
-3.09736215739
 11
18.2325638536
 21
-3.09669432186
  0
LINE
 10
18.2325638536
 20
-3.09669432186
 11
18.1037982884
 21
-3.09942147638
  0
LINE
 10
18.1037982884
 20
-3.09942147638
 11
17.9629007713
 21
-3.10620206479
  0
LINE
 10
17.9629007713
 20
-3.10620206479
 11
17.8100050998
 21
-3.11769097927
  0
LINE
 10
17.8100050998
 20
-3.11769097927
 11
17.645271527
 21
-3.13453860692
  0
LINE
 10
17.645271527
 20
-3.13453860692
 11
17.4688866095
 21
-3.15738988046
  0
LINE
 10
17.4688866095
 20
-3.15738988046
 11
17.2810630233
 21
-3.18688333403
  0
LINE
 10
17.2810630233
 20
-3.18688333403
 11
17.0820393483
 21
-3.22365016504
  0
LINE
 10
17.0820393483
 20
-3.22365016504
 11
16.8720798209
 21
-3.26831330329
  0
LINE
 10
16.8720798209
 20
-3.26831330329
 11
16.6514740556
 21
-3.32148648809
  0
LINE
 10
16.6514740556
 20
-3.32148648809
 11
16.4950814482
 21
-4.0269279521
  0
LINE
 10
16.4950814482
 20
-4.0269279521
 11
16.6725462122
 21
-4.16835124861
  0
LINE
 10
16.6725462122
 20
-4.16835124861
 11
16.843958709
 21
-4.29756252909
  0
LINE
 10
16.843958709
 20
-4.29756252909
 11
17.0087970813
 21
-4.41499563392
  0
LINE
 10
17.0087970813
 20
-4.41499563392
 11
17.166558588
 21
-4.52110345807
  0
LINE
 10
17.166558588
 20
-4.52110345807
 11
17.3167602467
 21
-4.61635723247
  0
LINE
 10
17.3167602467
 20
-4.61635723247
 11
17.4589394514
 21
-4.70124578478
  0
LINE
 10
17.4589394514
 20
-4.70124578478
 11
17.592654564
 21
-4.77627478036
  0
LINE
 10
17.592654564
 20
-4.77627478036
 11
17.7174854805
 21
-4.84196594421
  0
LINE
 10
17.7174854805
 20
-4.84196594421
 11
17.8330341696
 21
-4.89885626491
  0
LINE
 10
17.8330341696
 20
-4.89885626491
 11
17.9389251847
 21
-4.94749718119
  0
LINE
 10
17.9389251847
 20
-4.94749718119
 11
18.0348061473
 21
-4.98845375228
  0
LINE
 10
18.0348061473
 20
-4.98845375228
 11
18.1203482026
 21
-5.02230381282
  0
LINE
 10
18.1203482026
 20
-5.02230381282
 11
18.1952464461
 21
-5.04963711326
  0
LINE
 10
18.1952464461
 20
-5.04963711326
 11
18.2592203207
 21
-5.07105444672
  0
LINE
 10
18.2592203207
 20
-5.07105444672
 11
18.3120139839
 21
-5.0871667633
  0
LINE
 10
18.3120139839
 20
-5.0871667633
 11
18.353396646
 21
-5.0985942727
  0
LINE
 10
18.353396646
 20
-5.0985942727
 11
18.3831628762
 21
-5.10596553625
  0
LINE
 10
18.3831628762
 20
-5.10596553625
 11
18.4011328794
 21
-5.10991654931
  0
LINE
 10
18.4011328794
 20
-5.10991654931
 11
18.4071527411
 21
-5.11108981495
  0
LINE
 10
18.4071527411
 20
-5.11108981495
 11
18.5691212893
 21
-5.13964924002
  0
LINE
 10
18.5691212893
 20
-5.13964924002
 11
18.15891536
 21
-6.44065623341
  0
LINE
 10
18.15891536
 20
-6.44065623341
 11
18.0098574794
 21
-6.37114940216
  0
LINE
 10
18.0098574794
 20
-6.37114940216
 11
18.0042533398
 21
-6.36865763429
  0
LINE
 10
18.0042533398
 20
-6.36865763429
 11
17.9872669669
 21
-6.36158694429
  0
LINE
 10
17.9872669669
 20
-6.36158694429
 11
17.9586559155
 21
-6.35055192165
  0
LINE
 10
17.9586559155
 20
-6.35055192165
 11
17.9182026732
 21
-6.3361766695
  0
LINE
 10
17.9182026732
 20
-6.3361766695
 11
17.8657149909
 21
-6.31909390534
  0
LINE
 10
17.8657149909
 20
-6.31909390534
 11
17.801026183
 21
-6.29994405087
  0
LINE
 10
17.801026183
 20
-6.29994405087
 11
17.7239953966
 21
-6.27937431219
  0
LINE
 10
17.7239953966
 20
-6.27937431219
 11
17.63450785
 21
-6.25803775121
  0
LINE
 10
17.63450785
 20
-6.25803775121
 11
17.5324750394
 21
-6.23659234931
  0
LINE
 10
17.5324750394
 20
-6.23659234931
 11
17.4178349145
 21
-6.21570006425
  0
LINE
 10
17.4178349145
 20
-6.21570006425
 11
17.2905520222
 21
-6.19602588143
  0
LINE
 10
17.2905520222
 20
-6.19602588143
 11
17.1506176181
 21
-6.17823686038
  0
LINE
 10
17.1506176181
 20
-6.17823686038
 11
16.9980497464
 21
-6.1630011777
  0
LINE
 10
16.9980497464
 20
-6.1630011777
 11
16.8328932869
 21
-6.15098716731
  0
LINE
 10
16.8328932869
 20
-6.15098716731
 11
16.6552199706
 21
-6.14286235917
  0
LINE
 10
16.6552199706
 20
-6.14286235917
 11
16.4651283622
 21
-6.13929251743
  0
LINE
 10
16.4651283622
 20
-6.13929251743
 11
16.2627438108
 21
-6.1409406792
  0
LINE
 10
16.2627438108
 20
-6.1409406792
 11
16.0482183679
 21
-6.1484661947
  0
LINE
 10
16.0482183679
 20
-6.1484661947
 11
15.8217306732
 21
-6.16252377022
  0
LINE
 10
15.8217306732
 20
-6.16252377022
 11
15.5452153963
 21
-6.830090702
  0
LINE
 10
15.5452153963
 20
-6.830090702
 11
15.6954261741
 21
-7.00018189373
  0
LINE
 10
15.6954261741
 20
-7.00018189373
 11
15.8417972265
 21
-7.15719563221
  0
LINE
 10
15.8417972265
 20
-7.15719563221
 11
15.9837392888
 21
-7.30146854727
  0
LINE
 10
15.9837392888
 20
-7.30146854727
 11
16.1206786134
 21
-7.43335935329
  0
LINE
 10
16.1206786134
 20
-7.43335935329
 11
16.2520577271
 21
-7.55324825315
  0
LINE
 10
16.2520577271
 20
-7.55324825315
 11
16.3773361678
 21
-7.6615363174
  0
LINE
 10
16.3773361678
 20
-7.6615363174
 11
16.4959911991
 21
-7.75864483958
  0
LINE
 10
16.4959911991
 20
-7.75864483958
 11
16.6075185025
 21
-7.84501466821
  0
LINE
 10
16.6075185025
 20
-7.84501466821
 11
16.7114328469
 21
-7.9211055164
  0
LINE
 10
16.7114328469
 20
-7.9211055164
 11
16.807268733
 21
-7.98739524966
  0
LINE
 10
16.807268733
 20
-7.98739524966
 11
16.8945810144
 21
-8.04437915283
  0
LINE
 10
16.8945810144
 20
-8.04437915283
 11
16.9729454924
 21
-8.09256917692
  0
LINE
 10
16.9729454924
 20
-8.09256917692
 11
17.0419594855
 21
-8.13249316661
  0
LINE
 10
17.0419594855
 20
-8.13249316661
 11
17.1012423722
 21
-8.16469406938
  0
LINE
 10
17.1012423722
 20
-8.16469406938
 11
17.1504361067
 21
-8.18972912708
  0
LINE
 10
17.1504361067
 20
-8.18972912708
 11
17.1892057069
 21
-8.20816905079
  0
LINE
 10
17.1892057069
 20
-8.20816905079
 11
17.2172397148
 21
-8.22059717992
  0
LINE
 10
17.2172397148
 20
-8.22059717992
 11
17.2342506271
 21
-8.22760862653
  0
LINE
 10
17.2342506271
 20
-8.22760862653
 11
17.2399752981
 21
-8.22980940563
  0
LINE
 10
17.2399752981
 20
-8.22980940563
 11
17.394523888
 21
-8.28606049211
  0
LINE
 10
17.394523888
 20
-8.28606049211
 11
16.7646324149
 21
-9.49607075382
  0
LINE
 10
16.7646324149
 20
-9.49607075382
 11
16.629908793
 21
-9.40173625818
  0
LINE
 10
16.629908793
 20
-9.40173625818
 11
16.6248224839
 21
-9.39830919725
  0
LINE
 10
16.6248224839
 20
-9.39830919725
 11
16.6093219846
 21
-9.38839627422
  0
LINE
 10
16.6093219846
 20
-9.38839627422
 11
16.5830618109
 21
-9.37256064142
  0
LINE
 10
16.5830618109
 20
-9.37256064142
 11
16.5457193806
 21
-9.35137914985
  0
LINE
 10
16.5457193806
 20
-9.35137914985
 11
16.496995495
 21
-9.32544152087
  0
LINE
 10
16.496995495
 20
-9.32544152087
 11
16.4366147927
 21
-9.29534950211
  0
LINE
 10
16.4366147927
 20
-9.29534950211
 11
16.3643261748
 21
-9.26171600831
  0
LINE
 10
16.3643261748
 20
-9.26171600831
 11
16.2799032
 21
-9.22516424825
  0
LINE
 10
16.2799032
 20
-9.22516424825
 11
16.183144452
 21
-9.18632683856
  0
LINE
 10
16.183144452
 20
-9.18632683856
 11
16.0738738754
 21
-9.14584490549
  0
LINE
 10
16.0738738754
 20
-9.14584490549
 11
15.9519410823
 21
-9.10436717541
  0
LINE
 10
15.9519410823
 20
-9.10436717541
 11
15.8172216273
 21
-9.0625490553
  0
LINE
 10
15.8172216273
 20
-9.0625490553
 11
15.6696172529
 21
-9.02105170397
  0
LINE
 10
15.6696172529
 20
-9.02105170397
 11
15.5090561021
 21
-8.98054109518
  0
LINE
 10
15.5090561021
 20
-8.98054109518
 11
15.3354929008
 21
-8.94168707353
  0
LINE
 10
15.3354929008
 20
-8.94168707353
 11
15.1489091076
 21
-8.90516240433
  0
LINE
 10
15.1489091076
 20
-8.90516240433
 11
14.9493130321
 21
-8.87164181827
  0
LINE
 10
14.9493130321
 20
-8.87164181827
 11
14.7367399206
 21
-8.84180105206
  0
LINE
 10
14.7367399206
 20
-8.84180105206
 11
14.5112520105
 21
-8.81631588597
  0
LINE
 10
14.5112520105
 20
-8.81631588597
 11
14.1230158408
 21
-9.42572460211
  0
LINE
 10
14.1230158408
 20
-9.42572460211
 11
14.2414085539
 21
-9.61931555427
  0
LINE
 10
14.2414085539
 20
-9.61931555427
 11
14.3582907515
 21
-9.79936096777
  0
LINE
 10
14.3582907515
 20
-9.79936096777
 11
14.4730236662
 21
-9.96609003353
  0
LINE
 10
14.4730236662
 20
-9.96609003353
 11
14.5849799767
 21
-10.119756386
  0
LINE
 10
14.5849799767
 20
-10.119756386
 11
14.6935446575
 21
-10.2606376478
  0
LINE
 10
14.6935446575
 20
-10.2606376478
 11
14.7981158121
 21
-10.3890349459
  0
LINE
 10
14.7981158121
 20
-10.3890349459
 11
14.8981054889
 21
-10.5052724014
  0
LINE
 10
14.8981054889
 20
-10.5052724014
 11
14.9929404787
 21
-10.6096965913
  0
LINE
 10
14.9929404787
 20
-10.6096965913
 11
15.0820630936
 21
-10.7026759851
  0
LINE
 10
15.0820630936
 20
-10.7026759851
 11
15.1649319259
 21
-10.7846003553
  0
LINE
 10
15.1649319259
 20
-10.7846003553
 11
15.2410225866
 21
-10.8558801635
  0
LINE
 10
15.2410225866
 20
-10.8558801635
 11
15.3098284222
 21
-10.9169459216
  0
LINE
 10
15.3098284222
 20
-10.9169459216
 11
15.3708612096
 21
-10.9682475303
  0
LINE
 10
15.3708612096
 20
-10.9682475303
 11
15.4236518279
 21
-11.0102535943
  0
LINE
 10
15.4236518279
 20
-11.0102535943
 11
15.4677509069
 21
-11.0434507155
  0
LINE
 10
15.4677509069
 20
-11.0434507155
 11
15.5027294507
 21
-11.0683427658
  0
LINE
 10
15.5027294507
 20
-11.0683427658
 11
15.5281794369
 21
-11.0854501381
  0
LINE
 10
15.5281794369
 20
-11.0854501381
 11
15.5437143903
 21
-11.095308979
  0
LINE
 10
15.5437143903
 20
-11.095308979
 11
15.5489699294
 21
-11.098470402
  0
LINE
 10
15.5489699294
 20
-11.098470402
 11
15.6914026803
 21
-11.1807039891
  0
LINE
 10
15.6914026803
 20
-11.1807039891
 11
14.8609645972
 21
-12.2629519696
  0
LINE
 10
14.8609645972
 20
-12.2629519696
 11
14.7446687431
 21
-12.1466561155
  0
LINE
 10
14.7446687431
 20
-12.1466561155
 11
14.7402548093
 21
-12.142397891
  0
LINE
 10
14.7402548093
 20
-12.142397891
 11
14.7267111585
 21
-12.1299439341
  0
LINE
 10
14.7267111585
 20
-12.1299439341
 11
14.7035997646
 21
-12.1097888489
  0
LINE
 10
14.7035997646
 20
-12.1097888489
 11
14.6705027771
 21
-12.0824447067
  0
LINE
 10
14.6705027771
 20
-12.0824447067
 11
14.6270231388
 21
-12.0484403147
  0
LINE
 10
14.6270231388
 20
-12.0484403147
 11
14.5727851793
 21
-12.0083204624
  0
LINE
 10
14.5727851793
 20
-12.0083204624
 11
14.5074351828
 21
-11.9626451502
  0
LINE
 10
14.5074351828
 20
-11.9626451502
 11
14.4306419292
 21
-11.9119887978
  0
LINE
 10
14.4306419292
 20
-11.9119887978
 11
14.3420972095
 21
-11.8569394353
  0
LINE
 10
14.3420972095
 20
-11.8569394353
 11
14.2415163124
 21
-11.7980978773
  0
LINE
 10
14.2415163124
 20
-11.7980978773
 11
14.1286384846
 21
-11.7360768798
  0
LINE
 10
14.1286384846
 20
-11.7360768798
 11
14.0032273612
 21
-11.671500283
  0
LINE
 10
14.0032273612
 20
-11.671500283
 11
13.8650713683
 21
-11.6050021391
  0
LINE
 10
13.8650713683
 20
-11.6050021391
 11
13.7139840956
 21
-11.5372258262
  0
LINE
 10
13.7139840956
 20
-11.5372258262
 11
13.5498046394
 21
-11.4688231509
  0
LINE
 10
13.5498046394
 20
-11.4688231509
 11
13.3723979155
 21
-11.4004534378
  0
LINE
 10
13.3723979155
 20
-11.4004534378
 11
13.1816549415
 21
-11.33278261
  0
LINE
 10
13.1816549415
 20
-11.33278261
 11
12.9774930879
 21
-11.2664822586
  0
LINE
 10
12.9774930879
 20
-11.2664822586
 11
12.7598562986
 21
-11.2022287048
  0
LINE
 10
12.7598562986
 20
-11.2022287048
 11
12.2716955956
 21
-11.7349626298
  0
LINE
 10
12.2716955956
 20
-11.7349626298
 11
12.3546729413
 21
-11.9461711793
  0
LINE
 10
12.3546729413
 20
-11.9461711793
 11
12.4385148778
 21
-12.143777679
  0
LINE
 10
12.4385148778
 20
-12.143777679
 11
12.5225525432
 21
-12.3278969172
  0
LINE
 10
12.5225525432
 20
-12.3278969172
 11
12.6061241037
 21
-12.4986697418
  0
LINE
 10
12.6061241037
 20
-12.4986697418
 11
12.6885756687
 21
-12.6562627596
  0
LINE
 10
12.6885756687
 20
-12.6562627596
 11
12.7692621957
 21
-12.8008680048
  0
LINE
 10
12.7692621957
 20
-12.8008680048
 11
12.8475483823
 21
-12.9327025773
  0
LINE
 10
12.8475483823
 20
-12.9327025773
 11
12.9228095452
 21
-13.0520082522
  0
LINE
 10
12.9228095452
 20
-13.0520082522
 11
12.994432485
 21
-13.1590510597
  0
LINE
 10
12.994432485
 20
-13.1590510597
 11
13.0618163359
 21
-13.2541208364
  0
LINE
 10
13.0618163359
 20
-13.2541208364
 11
13.1243733997
 21
-13.3375307487
  0
LINE
 10
13.1243733997
 20
-13.3375307487
 11
13.1815299625
 21
-13.4096167887
  0
LINE
 10
13.1815299625
 20
-13.4096167887
 11
13.2327270939
 21
-13.470737243
  0
LINE
 10
13.2327270939
 20
-13.470737243
 11
13.2774214276
 21
-13.5212721352
  0
LINE
 10
13.2774214276
 20
-13.5212721352
 11
13.3150859229
 21
-13.5616226423
  0
LINE
 10
13.3150859229
 20
-13.5616226423
 11
13.3452106048
 21
-13.5922104867
  0
LINE
 10
13.3452106048
 20
-13.5922104867
 11
13.3673032846
 21
-13.6134773033
  0
LINE
 10
13.3673032846
 20
-13.6134773033
 11
13.3808902573
 21
-13.6258839826
  0
LINE
 10
13.3808902573
 20
-13.6258839826
 11
13.3855169777
 21
-13.6299099913
  0
LINE
 10
13.3855169777
 20
-13.6299099913
 11
13.5115061425
 21
-13.7356274531
  0
LINE
 10
13.5115061425
 20
-13.7356274531
 11
12.5057538902
 21
-14.6572295952
  0
LINE
 10
12.5057538902
 20
-14.6572295952
 11
12.4114193946
 21
-14.5225059733
  0
LINE
 10
12.4114193946
 20
-14.5225059733
 11
12.4078119513
 21
-14.5175459692
  0
LINE
 10
12.4078119513
 20
-14.5175459692
 11
12.3966366659
 21
-14.5029293856
  0
LINE
 10
12.3966366659
 20
-14.5029293856
 11
12.3773762798
 21
-14.47906725
  0
LINE
 10
12.3773762798
 20
-14.47906725
 11
12.3495303704
 21
-14.4463912952
  0
LINE
 10
12.3495303704
 20
-14.4463912952
 11
12.3126160862
 21
-14.4053533464
  0
LINE
 10
12.3126160862
 20
-14.4053533464
 11
12.2661688625
 21
-14.356424682
  0
LINE
 10
12.2661688625
 20
-14.356424682
 11
12.2097431139
 21
-14.3000953725
  0
LINE
 10
12.2097431139
 20
-14.3000953725
 11
12.1429129057
 21
-14.2368735954
  0
LINE
 10
12.1429129057
 20
-14.2368735954
 11
12.0652726007
 21
-14.1672849273
  0
LINE
 10
12.0652726007
 20
-14.1672849273
 11
11.9764374828
 21
-14.0918716152
  0
LINE
 10
11.9764374828
 20
-14.0918716152
 11
11.876044356
 21
-14.0111918269
  0
LINE
 10
11.876044356
 20
-14.0111918269
 11
11.7637521177
 21
-13.9258188808
  0
LINE
 10
11.7637521177
 20
-13.9258188808
 11
11.6392423063
 21
-13.8363404566
  0
LINE
 10
11.6392423063
 20
-13.8363404566
 11
11.502219622
 21
-13.7433577887
  0
LINE
 10
11.502219622
 20
-13.7433577887
 11
11.3524124206
 21
-13.6474848403
  0
LINE
 10
11.3524124206
 20
-13.6474848403
 11
11.1895731795
 21
-13.5493474625
  0
LINE
 10
11.1895731795
 20
-13.5493474625
 11
11.0134789358
 21
-13.4495825367
  0
LINE
 10
11.0134789358
 20
-13.4495825367
 11
10.8239316947
 21
-13.3488371029
  0
LINE
 10
10.8239316947
 20
-13.3488371029
 11
10.6207588097
 21
-13.247767473
  0
LINE
 10
10.6207588097
 20
-13.247767473
 11
10.0475060895
 21
-13.6876397562
  0
LINE
 10
10.0475060895
 20
-13.6876397562
 11
10.0925468431
 21
-13.9100484381
  0
LINE
 10
10.0925468431
 20
-13.9100484381
 11
10.1408010236
 21
-14.1192118506
  0
LINE
 10
10.1408010236
 20
-14.1192118506
 11
10.1915899979
 21
-14.3151268913
  0
LINE
 10
10.1915899979
 20
-14.3151268913
 11
10.2442375288
 21
-14.4978173421
  0
LINE
 10
10.2442375288
 20
-14.4978173421
 11
10.2980707289
 21
-14.6673337319
  0
LINE
 10
10.2980707289
 20
-14.6673337319
 11
10.352421009
 21
-14.8237531668
  0
LINE
 10
10.352421009
 20
-14.8237531668
 11
10.4066250192
 21
-14.9671791296
  0
LINE
 10
10.4066250192
 20
-14.9671791296
 11
10.4600255829
 21
-15.097741247
  0
LINE
 10
10.4600255829
 20
-15.097741247
 11
10.5119726209
 21
-15.2155950267
  0
LINE
 10
10.5119726209
 20
-15.2155950267
 11
10.5618240662
 21
-15.3209215628
  0
LINE
 10
10.5618240662
 20
-15.3209215628
 11
10.6089467684
 21
-15.4139272112
  0
LINE
 10
10.6089467684
 20
-15.4139272112
 11
10.652717385
 21
-15.4948432353
  0
LINE
 10
10.652717385
 20
-15.4948432353
 11
10.6925232614
 21
-15.5639254212
  0
LINE
 10
10.6925232614
 20
-15.5639254212
 11
10.7277632959
 21
-15.6214536643
  0
LINE
 10
10.7277632959
 20
-15.6214536643
 11
10.7578487908
 21
-15.6677315275
  0
LINE
 10
10.7578487908
 20
-15.6677315275
 11
10.7822042877
 21
-15.70308577
  0
LINE
 10
10.7822042877
 20
-15.70308577
 11
10.8002683861
 21
-15.7278658495
  0
LINE
 10
10.8002683861
 20
-15.7278658495
 11
10.811494545
 21
-15.7424433965
  0
LINE
 10
10.811494545
 20
-15.7424433965
 11
10.8153518659
 21
-15.7472116626
  0
LINE
 10
10.8153518659
 20
-15.7472116626
 11
10.9210693277
 21
-15.8732008275
  0
LINE
 10
10.9210693277
 20
-15.8732008275
 11
9.7705621795
 21
-16.6061547164
  0
LINE
 10
9.7705621795
 20
-16.6061547164
 11
9.70105534825
 21
-16.4570968358
  0
LINE
 10
9.70105534825
 20
-16.4570968358
 11
9.69836400582
 21
-16.4515857594
  0
LINE
 10
9.69836400582
 20
-16.4515857594
 11
9.68989664119
 21
-16.4352506666
  0
LINE
 10
9.68989664119
 20
-16.4352506666
 11
9.67507248006
 21
-16.4084065194
  0
LINE
 10
9.67507248006
 20
-16.4084065194
 11
9.65332373253
 21
-16.3713915945
  0
LINE
 10
9.65332373253
 20
-16.3713915945
 11
9.62409642432
 21
-16.3245670061
  0
LINE
 10
9.62409642432
 20
-16.3245670061
 11
9.58685121168
 21
-16.2683162023
  0
LINE
 10
9.58685121168
 20
-16.2683162023
 11
9.541064179
 21
-16.2030444332
  0
LINE
 10
9.541064179
 20
-16.2030444332
 11
9.48622761822
 21
-16.1291781931
  0
LINE
 10
9.48622761822
 20
-16.1291781931
 11
9.42185078926
 21
-16.0471646357
  0
LINE
 10
9.42185078926
 20
-16.0471646357
 11
9.34746066062
 21
-15.9574709649
  0
LINE
 10
9.34746066062
 20
-15.9574709649
 11
9.26260262921
 21
-15.8605838004
  0
LINE
 10
9.26260262921
 20
-15.8605838004
 11
9.16684121888
 21
-15.7570085186
  0
LINE
 10
9.16684121888
 20
-15.7570085186
 11
9.05976075657
 21
-15.6472685709
  0
LINE
 10
9.05976075657
 20
-15.6472685709
 11
8.94096602554
 21
-15.5319047792
  0
LINE
 10
8.94096602554
 20
-15.5319047792
 11
8.81008289491
 21
-15.4114746088
  0
LINE
 10
8.81008289491
 20
-15.4114746088
 11
8.66675892467
 21
-15.2865514208
  0
LINE
 10
8.66675892467
 20
-15.2865514208
 11
8.51066394575
 21
-15.1577237039
  0
LINE
 10
8.51066394575
 20
-15.1577237039
 11
8.34149061415
 21
-15.0255942866
  0
LINE
 10
8.34149061415
 20
-15.0255942866
 11
8.15895493886
 21
-14.8907795303
  0
LINE
 10
8.15895493886
 20
-14.8907795303
 11
7.51802819513
 21
-15.2244248749
  0
LINE
 10
7.51802819513
 20
-15.2244248749
 11
7.52376381618
 21
-15.4512759139
  0
LINE
 10
7.52376381618
 20
-15.4512759139
 11
7.53496406186
 21
-15.6656409147
  0
LINE
 10
7.53496406186
 20
-15.6656409147
 11
7.55096114775
 21
-15.8673989785
  0
LINE
 10
7.55096114775
 20
-15.8673989785
 11
7.57108498047
 21
-16.0564560987
  0
LINE
 10
7.57108498047
 20
-16.0564560987
 11
7.59466412112
 21
-16.2327451907
  0
LINE
 10
7.59466412112
 20
-16.2327451907
 11
7.62102674847
 21
-16.3962260901
  0
LINE
 10
7.62102674847
 20
-16.3962260901
 11
7.64950162096
 21
-16.5468855178
  0
LINE
 10
7.64950162096
 20
-16.5468855178
 11
7.67941903633
 21
-16.6847370138
  0
LINE
 10
7.67941903633
 20
-16.6847370138
 11
7.71011178797
 21
-16.8098208383
  0
LINE
 10
7.71011178797
 20
-16.8098208383
 11
7.74091611681
 21
-16.9222038403
  0
LINE
 10
7.74091611681
 20
-16.9222038403
 11
7.77117265787
 21
-17.0219792953
  0
LINE
 10
7.77117265787
 20
-17.0219792953
 11
7.80022738039
 21
-17.109266711
  0
LINE
 10
7.80022738039
 20
-17.109266711
 11
7.8274325204
 21
-17.1842116011
  0
LINE
 10
7.8274325204
 20
-17.1842116011
 11
7.85214750499
 21
-17.2469852287
  0
LINE
 10
7.85214750499
 20
-17.2469852287
 11
7.87373986701
 21
-17.2977843185
  0
LINE
 10
7.87373986701
 20
-17.2977843185
 11
7.89158614937
 21
-17.3368307383
  0
LINE
 10
7.89158614937
 20
-17.3368307383
 11
7.90507279786
 21
-17.3643711504
  0
LINE
 10
7.90507279786
 20
-17.3643711504
 11
7.91359704169
 21
-17.3806766338
  0
LINE
 10
7.91359704169
 20
-17.3806766338
 11
7.91656776057
 21
-17.386042276
  0
LINE
 10
7.91656776057
 20
-17.386042276
 11
7.99880134765
 21
-17.5284750269
  0
LINE
 10
7.99880134765
 20
-17.5284750269
 11
6.73849688111
 21
-18.0505102297
  0
LINE
 10
6.73849688111
 20
-18.0505102297
 11
6.69592964414
 21
-17.8916471386
  0
LINE
 10
6.69592964414
 20
-17.8916471386
 11
6.69423617762
 21
-17.8857524411
  0
LINE
 10
6.69423617762
 20
-17.8857524411
 11
6.68873401038
 21
-17.8681951727
  0
LINE
 10
6.68873401038
 20
-17.8681951727
 11
6.6787964988
 21
-17.8391846599
  0
LINE
 10
6.6787964988
 20
-17.8391846599
 11
6.66380573788
 21
-17.7989554444
  0
LINE
 10
6.66380573788
 20
-17.7989554444
 11
6.6431534626
 21
-17.7477669579
  0
LINE
 10
6.6431534626
 20
-17.7477669579
 11
6.616241938
 21
-17.6859031669
  0
LINE
 10
6.616241938
 20
-17.6859031669
 11
6.58248483698
 21
-17.6136721879
  0
LINE
 10
6.58248483698
 20
-17.6136721879
 11
6.54130810477
 21
-17.5314058731
  0
LINE
 10
6.54130810477
 20
-17.5314058731
 11
6.49215080929
 21
-17.4394593669
  0
LINE
 10
6.49215080929
 20
-17.4394593669
 11
6.43446597632
 21
-17.3382106343
  0
LINE
 10
6.43446597632
 20
-17.3382106343
 11
6.36772140864
 21
-17.228059961
  0
LINE
 10
6.36772140864
 20
-17.228059961
 11
6.29140048825
 21
-17.109429426
  0
LINE
 10
6.29140048825
 20
-17.109429426
 11
6.2050029607
 21
-16.9827623476
  0
LINE
 10
6.2050029607
 20
-16.9827623476
 11
6.10804570077
 21
-16.8485227025
  0
LINE
 10
6.10804570077
 20
-16.8485227025
 11
6.00006345861
 21
-16.7071945199
  0
LINE
 10
6.00006345861
 20
-16.7071945199
 11
5.88060958547
 21
-16.5592812496
  0
LINE
 10
5.88060958547
 20
-16.5592812496
 11
5.74925673829
 21
-16.4053051066
  0
LINE
 10
5.74925673829
 20
-16.4053051066
 11
5.60559756227
 21
-16.2458063912
  0
LINE
 10
5.60559756227
 20
-16.2458063912
 11
5.44924535078
 21
-16.0813427866
  0
LINE
 10
5.44924535078
 20
-16.0813427866
 11
4.76011881838
 21
-16.2986235477
  0
LINE
 10
4.76011881838
 20
-16.2986235477
 11
4.72637503293
 21
-16.5230241899
  0
LINE
 10
4.72637503293
 20
-16.5230241899
 11
4.70018102996
 21
-16.7360774068
  0
LINE
 10
4.70018102996
 20
-16.7360774068
 11
4.68090016406
 21
-16.9375481771
  0
LINE
 10
4.68090016406
 20
-16.9375481771
 11
4.66788884615
 21
-17.1272275618
  0
LINE
 10
4.66788884615
 20
-17.1272275618
 11
4.6604974871
 21
-17.3049329011
  0
LINE
 10
4.6604974871
 20
-17.3049329011
 11
4.65807144665
 21
-17.4705079804
  0
LINE
 10
4.65807144665
 20
-17.4705079804
 11
4.65995198677
 21
-17.6238231626
  0
LINE
 10
4.65995198677
 20
-17.6238231626
 11
4.6654772283
 21
-17.7647754894
  0
LINE
 10
4.6654772283
 20
-17.7647754894
 11
4.67398310991
 21
-17.8932887499
  0
LINE
 10
4.67398310991
 20
-17.8932887499
 11
4.68480434828
 21
-18.0093135171
  0
LINE
 10
4.68480434828
 20
-18.0093135171
 11
4.69727539856
 21
-18.112827152
  0
LINE
 10
4.69727539856
 20
-18.112827152
 11
4.71073141389
 21
-18.2038337753
  0
LINE
 10
4.71073141389
 20
-18.2038337753
 11
4.7245092031
 21
-18.2823642071
  0
LINE
 10
4.7245092031
 20
-18.2823642071
 11
4.73794818549
 21
-18.3484758743
  0
LINE
 10
4.73794818549
 20
-18.3484758743
 11
4.75039134165
 21
-18.4022526862
  0
LINE
 10
4.75039134165
 20
-18.4022526862
 11
4.76118615923
 21
-18.4438048775
  0
LINE
 10
4.76118615923
 20
-18.4438048775
 11
4.76968557285
 21
-18.4732688208
  0
LINE
 10
4.76968557285
 20
-18.4732688208
 11
4.77524889679
 21
-18.4908068067
  0
LINE
 10
4.77524889679
 20
-18.4908068067
 11
4.77724274979
 21
-18.4966067926
  0
LINE
 10
4.77724274979
 20
-18.4966067926
 11
4.83349383626
 21
-18.6511553825
  0
LINE
 10
4.83349383626
 20
-18.6511553825
 11
3.50168576482
 21
-18.9464101236
  0
LINE
 10
3.50168576482
 20
-18.9464101236
 11
3.4873515061
 21
-18.7825687967
  0
LINE
 10
3.4873515061
 20
-18.7825687967
 11
3.48670737061
 21
-18.7764695856
  0
LINE
 10
3.48670737061
 20
-18.7764695856
 11
3.48433758133
 21
-18.7582236102
  0
LINE
 10
3.48433758133
 20
-18.7582236102
 11
3.47958866556
 21
-18.7279282015
  0
LINE
 10
3.47958866556
 20
-18.7279282015
 11
3.47181137794
 21
-18.6857070399
  0
LINE
 10
3.47181137794
 20
-18.6857070399
 11
3.46036164452
 21
-18.6317099915
  0
LINE
 10
3.46036164452
 20
-18.6317099915
 11
3.44460150102
 21
-18.5661129133
  0
LINE
 10
3.44460150102
 20
-18.5661129133
 11
3.42390002409
 21
-18.4891174261
  0
LINE
 10
3.42390002409
 20
-18.4891174261
 11
3.39763425462
 21
-18.400950657
  0
LINE
 10
3.39763425462
 20
-18.400950657
 11
3.36519011216
 21
-18.30186495
  0
LINE
 10
3.36519011216
 20
-18.30186495
 11
3.32596329932
 21
-18.192137547
  0
LINE
 10
3.32596329932
 20
-18.192137547
 11
3.27936019529
 21
-18.0720702374
  0
LINE
 10
3.27936019529
 20
-18.0720702374
 11
3.22479873739
 21
-17.9419889781
  0
LINE
 10
3.22479873739
 20
-17.9419889781
 11
3.16170928975
 21
-17.802243484
  0
LINE
 10
3.16170928975
 20
-17.802243484
 11
3.0895354982
 21
-17.6532067893
  0
LINE
 10
3.0895354982
 20
-17.6532067893
 11
3.0077351303
 21
-17.4952747797
  0
LINE
 10
3.0077351303
 20
-17.4952747797
 11
2.91578089975
 21
-17.328865697
  0
LINE
 10
2.91578089975
 20
-17.328865697
 11
2.8131612741
 21
-17.154419615
  0
LINE
 10
2.8131612741
 20
-17.154419615
 11
2.69938126502
 21
-16.9723978894
  0
LINE
 10
2.69938126502
 20
-16.9723978894
 11
2.57396320018
 21
-16.78328258
  0
LINE
 10
2.57396320018
 20
-16.78328258
 11
1.85757564006
 21
-16.8775967915
  0
LINE
 10
1.85757564006
 20
-16.8775967915
 11
1.78537773595
 21
-17.0927287368
  0
LINE
 10
1.78537773595
 20
-17.0927287368
 11
1.72258537588
 21
-17.2979966558
  0
LINE
 10
1.72258537588
 20
-17.2979966558
 11
1.66861239753
 21
-17.4930585452
  0
LINE
 10
1.66861239753
 20
-17.4930585452
 11
1.6228612713
 21
-17.6775968821
  0
LINE
 10
1.6228612713
 20
-17.6775968821
 11
1.58472399525
 21
-17.8513189821
  0
LINE
 10
1.58472399525
 20
-17.8513189821
 11
1.55358300103
 21
-18.0139573264
  0
LINE
 10
1.55358300103
 20
-18.0139573264
 11
1.52881206952
 21
-18.1652698588
  0
LINE
 10
1.52881206952
 20
-18.1652698588
 11
1.50977725554
 21
-18.3050402511
  0
LINE
 10
1.50977725554
 20
-18.3050402511
 11
1.49583782019
 21
-18.4330781373
  0
LINE
 10
1.49583782019
 20
-18.4330781373
 11
1.48634717025
 21
-18.5492193159
  0
LINE
 10
1.48634717025
 20
-18.5492193159
 11
1.48065380319
 21
-18.6533259212
  0
LINE
 10
1.48065380319
 20
-18.6533259212
 11
1.47810225712
 21
-18.745286562
  0
LINE
 10
1.47810225712
 20
-18.745286562
 11
1.47803406438
 21
-18.825016428
  0
LINE
 10
1.47803406438
 20
-18.825016428
 11
1.4797887079
 21
-18.8924573653
  0
LINE
 10
1.4797887079
 20
-18.8924573653
 11
1.48270457917
 21
-18.9475779179
  0
LINE
 10
1.48270457917
 20
-18.9475779179
 11
1.48611993693
 21
-18.9903733385
  0
LINE
 10
1.48611993693
 20
-18.9903733385
 11
1.48937386529
 21
-19.020865566
  0
LINE
 10
1.48937386529
 20
-19.020865566
 11
1.49180723056
 21
-19.0391031715
  0
LINE
 10
1.49180723056
 20
-19.0391031715
 11
1.49276363545
 21
-19.0451612716
  0
LINE
 10
1.49276363545
 20
-19.0451612716
 11
1.52132306053
 21
-19.2071298198
  0
LINE
 10
1.52132306053
 20
-19.2071298198
 11
0.158477698509
 21
-19.2666329333
  0
LINE
 10
0.158477698509
 20
-19.2666329333
 11
0.17281195723
 21
-19.1027916064
  0
LINE
 10
0.17281195723
 20
-19.1027916064
 11
0.173236724502
 21
-19.0966732031
  0
LINE
 10
0.173236724502
 20
-19.0966732031
 11
0.174071318029
 21
-19.0782929154
  0
LINE
 10
0.174071318029
 20
-19.0782929154
 11
0.174655291474
 21
-19.0476331215
  0
LINE
 10
0.174655291474
 20
-19.0476331215
 11
0.174327786095
 21
-19.0047028824
  0
LINE
 10
0.174327786095
 20
-19.0047028824
 11
0.172428488898
 21
-18.9495379452
  0
LINE
 10
0.172428488898
 20
-18.9495379452
 11
0.168298590486
 21
-18.8822007138
  0
LINE
 10
0.168298590486
 20
-18.8822007138
 11
0.161281741542
 21
-18.8027801873
  0
LINE
 10
0.161281741542
 20
-18.8027801873
 11
0.150725006927
 21
-18.7113918665
  0
LINE
 10
0.150725006927
 20
-18.7113918665
 11
0.135979816337
 21
-18.6081776278
  0
LINE
 10
0.135979816337
 20
-18.6081776278
 11
0.116402910496
 21
-18.4933055661
  0
LINE
 10
0.116402910496
 20
-18.4933055661
 11
0.0913572818467
 21
-18.3669698046
  0
LINE
 10
0.0913572818467
 20
-18.3669698046
 11
0.0602131087165
 21
-18.2293902742
  0
LINE
 10
0.0602131087165
 20
-18.2293902742
 11
0.0223486819351
 21
-18.0808124605
  0
LINE
 10
0.0223486819351
 20
-18.0808124605
 11
-0.0228486771049
 21
-17.9215071207
  0
LINE
 10
-0.0228486771049
 20
-17.9215071207
 11
-0.0759817079516
 21
-17.7517699684
  0
LINE
 10
-0.0759817079516
 20
-17.7517699684
 11
-0.137642313155
 21
-17.571921329
  0
LINE
 10
-0.137642313155
 20
-17.571921329
 11
-0.208410671875
 21
-17.382305764
  0
LINE
 10
-0.208410671875
 20
-17.382305764
 11
-0.288854366004
 21
-17.1832916662
  0
LINE
 10
-0.288854366004
 20
-17.1832916662
 11
-0.379527519773
 21
-16.9752708248
  0
LINE
 10
-0.379527519773
 20
-16.9752708248
 11
-1.1014090341
 21
-16.9437527972
  0
LINE
 10
-1.1014090341
 20
-16.9437527972
 11
-1.20986736008
 21
-17.1430793705
  0
LINE
 10
-1.20986736008
 20
-17.1430793705
 11
-1.30735016318
 21
-17.3343250296
  0
LINE
 10
-1.30735016318
 20
-17.3343250296
 11
-1.39437531233
 21
-17.5170511813
  0
LINE
 10
-1.39437531233
 20
-17.5170511813
 11
-1.47147612207
 21
-17.6908413665
  0
LINE
 10
-1.47147612207
 20
-17.6908413665
 11
-1.53920053327
 21
-17.8553017689
  0
LINE
 10
-1.53920053327
 20
-17.8553017689
 11
-1.59811027793
 21
-18.0100616944
  0
LINE
 10
-1.59811027793
 20
-18.0100616944
 11
-1.64878002884
 21
-18.1547740224
  0
LINE
 10
-1.64878002884
 20
-18.1547740224
 11
-1.69179653515
 21
-18.2891156276
  0
LINE
 10
-1.69179653515
 20
-18.2891156276
 11
-1.72775774475
 21
-18.412787773
  0
LINE
 10
-1.72775774475
 20
-18.412787773
 11
-1.75727191442
 21
-18.5255164721
  0
LINE
 10
-1.75727191442
 20
-18.5255164721
 11
-1.78095670873
 21
-18.6270528214
  0
LINE
 10
-1.78095670873
 20
-18.6270528214
 11
-1.79943828877
 21
-18.717173302
  0
LINE
 10
-1.79943828877
 20
-18.717173302
 11
-1.81335039146
 21
-18.7956800507
  0
LINE
 10
-1.81335039146
 20
-18.7956800507
 11
-1.82333340078
 21
-18.8624010993
  0
LINE
 10
-1.82333340078
 20
-18.8624010993
 11
-1.83003341165
 21
-18.9171905826
  0
LINE
 10
-1.83003341165
 20
-18.9171905826
 11
-1.83410128765
 21
-18.9599289152
  0
LINE
 10
-1.83410128765
 20
-18.9599289152
 11
-1.83619171351
 21
-18.990522936
  0
LINE
 10
-1.83619171351
 20
-18.990522936
 11
-1.83696224349
 21
-19.0089060207
  0
LINE
 10
-1.83696224349
 20
-19.0089060207
 11
-1.83707234657
 21
-19.0150381626
  0
LINE
 10
-1.83707234657
 20
-19.0150381626
 11
-1.83707234657
 21
-19.1795053367
  0
LINE
 10
-1.83707234657
 20
-19.1795053367
 11
-3.18954563248
 21
-19.0014488507
  0
LINE
 10
-3.18954563248
 20
-19.0014488507
 11
-3.14697839551
 21
-18.8425857596
  0
LINE
 10
-3.14697839551
 20
-18.8425857596
 11
-3.14549763182
 21
-18.8366340686
  0
LINE
 10
-3.14549763182
 20
-18.8366340686
 11
-3.14148401418
 21
-18.8186779445
  0
LINE
 10
-3.14148401418
 20
-18.8186779445
 11
-3.13558489527
 21
-18.7885853477
  0
LINE
 10
-3.13558489527
 20
-18.7885853477
 11
-3.12845266732
 21
-18.7462504446
  0
LINE
 10
-3.12845266732
 20
-18.7462504446
 11
-3.12074381911
 21
-18.6915937773
  0
LINE
 10
-3.12074381911
 20
-18.6915937773
 11
-3.11311798756
 21
-18.6245624004
  0
LINE
 10
-3.11311798756
 20
-18.6245624004
 11
-3.10623700511
 21
-18.5451299872
  0
LINE
 10
-3.10623700511
 20
-18.5451299872
 11
-3.10076394383
 21
-18.4532969025
  0
LINE
 10
-3.10076394383
 20
-18.4532969025
 11
-3.09736215739
 21
-18.3490902446
  0
LINE
 10
-3.09736215739
 20
-18.3490902446
 11
-3.09669432186
 21
-18.2325638536
  0
LINE
 10
-3.09669432186
 20
-18.2325638536
 11
-3.09942147638
 21
-18.1037982884
  0
LINE
 10
-3.09942147638
 20
-18.1037982884
 11
-3.10620206479
 21
-17.9629007713
  0
LINE
 10
-3.10620206479
 20
-17.9629007713
 11
-3.11769097927
 21
-17.8100050998
  0
LINE
 10
-3.11769097927
 20
-17.8100050998
 11
-3.13453860692
 21
-17.645271527
  0
LINE
 10
-3.13453860692
 20
-17.645271527
 11
-3.15738988046
 21
-17.4688866095
  0
LINE
 10
-3.15738988046
 20
-17.4688866095
 11
-3.18688333403
 21
-17.2810630233
  0
LINE
 10
-3.18688333403
 20
-17.2810630233
 11
-3.22365016504
 21
-17.0820393483
  0
LINE
 10
-3.22365016504
 20
-17.0820393483
 11
-3.26831330329
 21
-16.8720798209
  0
LINE
 10
-3.26831330329
 20
-16.8720798209
 11
-3.32148648809
 21
-16.6514740556
  0
LINE
 10
-3.32148648809
 20
-16.6514740556
 11
-4.0269279521
 21
-16.4950814482
  0
LINE
 10
-4.0269279521
 20
-16.4950814482
 11
-4.16835124861
 21
-16.6725462122
  0
LINE
 10
-4.16835124861
 20
-16.6725462122
 11
-4.29756252909
 21
-16.843958709
  0
LINE
 10
-4.29756252909
 20
-16.843958709
 11
-4.41499563392
 21
-17.0087970813
  0
LINE
 10
-4.41499563392
 20
-17.0087970813
 11
-4.52110345807
 21
-17.166558588
  0
LINE
 10
-4.52110345807
 20
-17.166558588
 11
-4.61635723247
 21
-17.3167602467
  0
LINE
 10
-4.61635723247
 20
-17.3167602467
 11
-4.70124578478
 21
-17.4589394514
  0
LINE
 10
-4.70124578478
 20
-17.4589394514
 11
-4.77627478036
 21
-17.592654564
  0
LINE
 10
-4.77627478036
 20
-17.592654564
 11
-4.84196594421
 21
-17.7174854805
  0
LINE
 10
-4.84196594421
 20
-17.7174854805
 11
-4.89885626491
 21
-17.8330341696
  0
LINE
 10
-4.89885626491
 20
-17.8330341696
 11
-4.94749718119
 21
-17.9389251847
  0
LINE
 10
-4.94749718119
 20
-17.9389251847
 11
-4.98845375228
 21
-18.0348061473
  0
LINE
 10
-4.98845375228
 20
-18.0348061473
 11
-5.02230381282
 21
-18.1203482026
  0
LINE
 10
-5.02230381282
 20
-18.1203482026
 11
-5.04963711326
 21
-18.1952464461
  0
LINE
 10
-5.04963711326
 20
-18.1952464461
 11
-5.07105444672
 21
-18.2592203207
  0
LINE
 10
-5.07105444672
 20
-18.2592203207
 11
-5.0871667633
 21
-18.3120139839
  0
LINE
 10
-5.0871667633
 20
-18.3120139839
 11
-5.0985942727
 21
-18.353396646
  0
LINE
 10
-5.0985942727
 20
-18.353396646
 11
-5.10596553625
 21
-18.3831628762
  0
LINE
 10
-5.10596553625
 20
-18.3831628762
 11
-5.10991654931
 21
-18.4011328794
  0
LINE
 10
-5.10991654931
 20
-18.4011328794
 11
-5.11108981495
 21
-18.4071527411
  0
LINE
 10
-5.11108981495
 20
-18.4071527411
 11
-5.13964924002
 21
-18.5691212893
  0
LINE
 10
-5.13964924002
 20
-18.5691212893
 11
-6.44065623341
 21
-18.15891536
  0
LINE
 10
-6.44065623341
 20
-18.15891536
 11
-6.37114940216
 21
-18.0098574794
  0
LINE
 10
-6.37114940216
 20
-18.0098574794
 11
-6.36865763429
 21
-18.0042533398
  0
LINE
 10
-6.36865763429
 20
-18.0042533398
 11
-6.36158694429
 21
-17.9872669669
  0
LINE
 10
-6.36158694429
 20
-17.9872669669
 11
-6.35055192165
 21
-17.9586559155
  0
LINE
 10
-6.35055192165
 20
-17.9586559155
 11
-6.3361766695
 21
-17.9182026732
  0
LINE
 10
-6.3361766695
 20
-17.9182026732
 11
-6.31909390534
 21
-17.8657149909
  0
LINE
 10
-6.31909390534
 20
-17.8657149909
 11
-6.29994405087
 21
-17.801026183
  0
LINE
 10
-6.29994405087
 20
-17.801026183
 11
-6.27937431219
 21
-17.7239953966
  0
LINE
 10
-6.27937431219
 20
-17.7239953966
 11
-6.25803775121
 21
-17.63450785
  0
LINE
 10
-6.25803775121
 20
-17.63450785
 11
-6.23659234931
 21
-17.5324750394
  0
LINE
 10
-6.23659234931
 20
-17.5324750394
 11
-6.21570006425
 21
-17.4178349145
  0
LINE
 10
-6.21570006425
 20
-17.4178349145
 11
-6.19602588143
 21
-17.2905520222
  0
LINE
 10
-6.19602588143
 20
-17.2905520222
 11
-6.17823686038
 21
-17.1506176181
  0
LINE
 10
-6.17823686038
 20
-17.1506176181
 11
-6.1630011777
 21
-16.9980497464
  0
LINE
 10
-6.1630011777
 20
-16.9980497464
 11
-6.15098716731
 21
-16.8328932869
  0
LINE
 10
-6.15098716731
 20
-16.8328932869
 11
-6.14286235917
 21
-16.6552199706
  0
LINE
 10
-6.14286235917
 20
-16.6552199706
 11
-6.13929251743
 21
-16.4651283622
  0
LINE
 10
-6.13929251743
 20
-16.4651283622
 11
-6.1409406792
 21
-16.2627438108
  0
LINE
 10
-6.1409406792
 20
-16.2627438108
 11
-6.1484661947
 21
-16.0482183679
  0
LINE
 10
-6.1484661947
 20
-16.0482183679
 11
-6.16252377022
 21
-15.8217306732
  0
LINE
 10
-6.16252377022
 20
-15.8217306732
 11
-6.830090702
 21
-15.5452153963
  0
LINE
 10
-6.830090702
 20
-15.5452153963
 11
-7.00018189373
 21
-15.6954261741
  0
LINE
 10
-7.00018189373
 20
-15.6954261741
 11
-7.15719563221
 21
-15.8417972265
  0
LINE
 10
-7.15719563221
 20
-15.8417972265
 11
-7.30146854727
 21
-15.9837392888
  0
LINE
 10
-7.30146854727
 20
-15.9837392888
 11
-7.43335935329
 21
-16.1206786134
  0
LINE
 10
-7.43335935329
 20
-16.1206786134
 11
-7.55324825315
 21
-16.2520577271
  0
LINE
 10
-7.55324825315
 20
-16.2520577271
 11
-7.6615363174
 21
-16.3773361678
  0
LINE
 10
-7.6615363174
 20
-16.3773361678
 11
-7.75864483958
 21
-16.4959911991
  0
LINE
 10
-7.75864483958
 20
-16.4959911991
 11
-7.84501466821
 21
-16.6075185025
  0
LINE
 10
-7.84501466821
 20
-16.6075185025
 11
-7.9211055164
 21
-16.7114328469
  0
LINE
 10
-7.9211055164
 20
-16.7114328469
 11
-7.98739524966
 21
-16.807268733
  0
LINE
 10
-7.98739524966
 20
-16.807268733
 11
-8.04437915283
 21
-16.8945810144
  0
LINE
 10
-8.04437915283
 20
-16.8945810144
 11
-8.09256917692
 21
-16.9729454924
  0
LINE
 10
-8.09256917692
 20
-16.9729454924
 11
-8.13249316661
 21
-17.0419594855
  0
LINE
 10
-8.13249316661
 20
-17.0419594855
 11
-8.16469406938
 21
-17.1012423722
  0
LINE
 10
-8.16469406938
 20
-17.1012423722
 11
-8.18972912708
 21
-17.1504361067
  0
LINE
 10
-8.18972912708
 20
-17.1504361067
 11
-8.20816905079
 21
-17.1892057069
  0
LINE
 10
-8.20816905079
 20
-17.1892057069
 11
-8.22059717992
 21
-17.2172397148
  0
LINE
 10
-8.22059717992
 20
-17.2172397148
 11
-8.22760862653
 21
-17.2342506271
  0
LINE
 10
-8.22760862653
 20
-17.2342506271
 11
-8.22980940563
 21
-17.2399752981
  0
LINE
 10
-8.22980940563
 20
-17.2399752981
 11
-8.28606049211
 21
-17.394523888
  0
LINE
 10
-8.28606049211
 20
-17.394523888
 11
-9.49607075382
 21
-16.7646324149
  0
LINE
 10
-9.49607075382
 20
-16.7646324149
 11
-9.40173625818
 21
-16.629908793
  0
LINE
 10
-9.40173625818
 20
-16.629908793
 11
-9.39830919725
 21
-16.6248224839
  0
LINE
 10
-9.39830919725
 20
-16.6248224839
 11
-9.38839627422
 21
-16.6093219846
  0
LINE
 10
-9.38839627422
 20
-16.6093219846
 11
-9.37256064142
 21
-16.5830618109
  0
LINE
 10
-9.37256064142
 20
-16.5830618109
 11
-9.35137914985
 21
-16.5457193806
  0
LINE
 10
-9.35137914985
 20
-16.5457193806
 11
-9.32544152087
 21
-16.496995495
  0
LINE
 10
-9.32544152087
 20
-16.496995495
 11
-9.29534950211
 21
-16.4366147927
  0
LINE
 10
-9.29534950211
 20
-16.4366147927
 11
-9.26171600831
 21
-16.3643261748
  0
LINE
 10
-9.26171600831
 20
-16.3643261748
 11
-9.22516424825
 21
-16.2799032
  0
LINE
 10
-9.22516424825
 20
-16.2799032
 11
-9.18632683856
 21
-16.183144452
  0
LINE
 10
-9.18632683856
 20
-16.183144452
 11
-9.14584490549
 21
-16.0738738754
  0
LINE
 10
-9.14584490549
 20
-16.0738738754
 11
-9.10436717541
 21
-15.9519410823
  0
LINE
 10
-9.10436717541
 20
-15.9519410823
 11
-9.0625490553
 21
-15.8172216273
  0
LINE
 10
-9.0625490553
 20
-15.8172216273
 11
-9.02105170397
 21
-15.6696172529
  0
LINE
 10
-9.02105170397
 20
-15.6696172529
 11
-8.98054109518
 21
-15.5090561021
  0
LINE
 10
-8.98054109518
 20
-15.5090561021
 11
-8.94168707353
 21
-15.3354929008
  0
LINE
 10
-8.94168707353
 20
-15.3354929008
 11
-8.90516240433
 21
-15.1489091076
  0
LINE
 10
-8.90516240433
 20
-15.1489091076
 11
-8.87164181827
 21
-14.9493130321
  0
LINE
 10
-8.87164181827
 20
-14.9493130321
 11
-8.84180105206
 21
-14.7367399206
  0
LINE
 10
-8.84180105206
 20
-14.7367399206
 11
-8.81631588597
 21
-14.5112520105
  0
LINE
 10
-8.81631588597
 20
-14.5112520105
 11
-9.42572460211
 21
-14.1230158408
  0
LINE
 10
-9.42572460211
 20
-14.1230158408
 11
-9.61931555427
 21
-14.2414085539
  0
LINE
 10
-9.61931555427
 20
-14.2414085539
 11
-9.79936096777
 21
-14.3582907515
  0
LINE
 10
-9.79936096777
 20
-14.3582907515
 11
-9.96609003353
 21
-14.4730236662
  0
LINE
 10
-9.96609003353
 20
-14.4730236662
 11
-10.119756386
 21
-14.5849799767
  0
LINE
 10
-10.119756386
 20
-14.5849799767
 11
-10.2606376478
 21
-14.6935446575
  0
LINE
 10
-10.2606376478
 20
-14.6935446575
 11
-10.3890349459
 21
-14.7981158121
  0
LINE
 10
-10.3890349459
 20
-14.7981158121
 11
-10.5052724014
 21
-14.8981054889
  0
LINE
 10
-10.5052724014
 20
-14.8981054889
 11
-10.6096965913
 21
-14.9929404787
  0
LINE
 10
-10.6096965913
 20
-14.9929404787
 11
-10.7026759851
 21
-15.0820630936
  0
LINE
 10
-10.7026759851
 20
-15.0820630936
 11
-10.7846003553
 21
-15.1649319259
  0
LINE
 10
-10.7846003553
 20
-15.1649319259
 11
-10.8558801635
 21
-15.2410225866
  0
LINE
 10
-10.8558801635
 20
-15.2410225866
 11
-10.9169459216
 21
-15.3098284222
  0
LINE
 10
-10.9169459216
 20
-15.3098284222
 11
-10.9682475303
 21
-15.3708612096
  0
LINE
 10
-10.9682475303
 20
-15.3708612096
 11
-11.0102535943
 21
-15.4236518279
  0
LINE
 10
-11.0102535943
 20
-15.4236518279
 11
-11.0434507155
 21
-15.4677509069
  0
LINE
 10
-11.0434507155
 20
-15.4677509069
 11
-11.0683427658
 21
-15.5027294507
  0
LINE
 10
-11.0683427658
 20
-15.5027294507
 11
-11.0854501381
 21
-15.5281794369
  0
LINE
 10
-11.0854501381
 20
-15.5281794369
 11
-11.095308979
 21
-15.5437143903
  0
LINE
 10
-11.095308979
 20
-15.5437143903
 11
-11.098470402
 21
-15.5489699294
  0
LINE
 10
-11.098470402
 20
-15.5489699294
 11
-11.1807039891
 21
-15.6914026803
  0
LINE
 10
-11.1807039891
 20
-15.6914026803
 11
-12.2629519696
 21
-14.8609645972
  0
LINE
 10
-12.2629519696
 20
-14.8609645972
 11
-12.1466561155
 21
-14.7446687431
  0
LINE
 10
-12.1466561155
 20
-14.7446687431
 11
-12.142397891
 21
-14.7402548093
  0
LINE
 10
-12.142397891
 20
-14.7402548093
 11
-12.1299439341
 21
-14.7267111585
  0
LINE
 10
-12.1299439341
 20
-14.7267111585
 11
-12.1097888489
 21
-14.7035997646
  0
LINE
 10
-12.1097888489
 20
-14.7035997646
 11
-12.0824447067
 21
-14.6705027771
  0
LINE
 10
-12.0824447067
 20
-14.6705027771
 11
-12.0484403147
 21
-14.6270231388
  0
LINE
 10
-12.0484403147
 20
-14.6270231388
 11
-12.0083204624
 21
-14.5727851793
  0
LINE
 10
-12.0083204624
 20
-14.5727851793
 11
-11.9626451502
 21
-14.5074351828
  0
LINE
 10
-11.9626451502
 20
-14.5074351828
 11
-11.9119887978
 21
-14.4306419292
  0
LINE
 10
-11.9119887978
 20
-14.4306419292
 11
-11.8569394353
 21
-14.3420972095
  0
LINE
 10
-11.8569394353
 20
-14.3420972095
 11
-11.7980978773
 21
-14.2415163124
  0
LINE
 10
-11.7980978773
 20
-14.2415163124
 11
-11.7360768798
 21
-14.1286384846
  0
LINE
 10
-11.7360768798
 20
-14.1286384846
 11
-11.671500283
 21
-14.0032273612
  0
LINE
 10
-11.671500283
 20
-14.0032273612
 11
-11.6050021391
 21
-13.8650713683
  0
LINE
 10
-11.6050021391
 20
-13.8650713683
 11
-11.5372258262
 21
-13.7139840956
  0
LINE
 10
-11.5372258262
 20
-13.7139840956
 11
-11.4688231509
 21
-13.5498046394
  0
LINE
 10
-11.4688231509
 20
-13.5498046394
 11
-11.4004534378
 21
-13.3723979155
  0
LINE
 10
-11.4004534378
 20
-13.3723979155
 11
-11.33278261
 21
-13.1816549415
  0
LINE
 10
-11.33278261
 20
-13.1816549415
 11
-11.2664822586
 21
-12.9774930879
  0
LINE
 10
-11.2664822586
 20
-12.9774930879
 11
-11.2022287048
 21
-12.7598562986
  0
LINE
 10
-11.2022287048
 20
-12.7598562986
 11
-11.7349626298
 21
-12.2716955956
  0
LINE
 10
-11.7349626298
 20
-12.2716955956
 11
-11.9461711793
 21
-12.3546729413
  0
LINE
 10
-11.9461711793
 20
-12.3546729413
 11
-12.143777679
 21
-12.4385148778
  0
LINE
 10
-12.143777679
 20
-12.4385148778
 11
-12.3278969172
 21
-12.5225525432
  0
LINE
 10
-12.3278969172
 20
-12.5225525432
 11
-12.4986697418
 21
-12.6061241037
  0
LINE
 10
-12.4986697418
 20
-12.6061241037
 11
-12.6562627596
 21
-12.6885756687
  0
LINE
 10
-12.6562627596
 20
-12.6885756687
 11
-12.8008680048
 21
-12.7692621957
  0
LINE
 10
-12.8008680048
 20
-12.7692621957
 11
-12.9327025773
 21
-12.8475483823
  0
LINE
 10
-12.9327025773
 20
-12.8475483823
 11
-13.0520082522
 21
-12.9228095452
  0
LINE
 10
-13.0520082522
 20
-12.9228095452
 11
-13.1590510597
 21
-12.994432485
  0
LINE
 10
-13.1590510597
 20
-12.994432485
 11
-13.2541208364
 21
-13.0618163359
  0
LINE
 10
-13.2541208364
 20
-13.0618163359
 11
-13.3375307487
 21
-13.1243733997
  0
LINE
 10
-13.3375307487
 20
-13.1243733997
 11
-13.4096167887
 21
-13.1815299625
  0
LINE
 10
-13.4096167887
 20
-13.1815299625
 11
-13.470737243
 21
-13.2327270939
  0
LINE
 10
-13.470737243
 20
-13.2327270939
 11
-13.5212721352
 21
-13.2774214276
  0
LINE
 10
-13.5212721352
 20
-13.2774214276
 11
-13.5616226423
 21
-13.3150859229
  0
LINE
 10
-13.5616226423
 20
-13.3150859229
 11
-13.5922104867
 21
-13.3452106048
  0
LINE
 10
-13.5922104867
 20
-13.3452106048
 11
-13.6134773033
 21
-13.3673032846
  0
LINE
 10
-13.6134773033
 20
-13.3673032846
 11
-13.6258839826
 21
-13.3808902573
  0
LINE
 10
-13.6258839826
 20
-13.3808902573
 11
-13.6299099913
 21
-13.3855169777
  0
LINE
 10
-13.6299099913
 20
-13.3855169777
 11
-13.7356274531
 21
-13.5115061425
  0
LINE
 10
-13.7356274531
 20
-13.5115061425
 11
-14.6572295952
 21
-12.5057538902
  0
LINE
 10
-14.6572295952
 20
-12.5057538902
 11
-14.5225059733
 21
-12.4114193946
  0
LINE
 10
-14.5225059733
 20
-12.4114193946
 11
-14.5175459692
 21
-12.4078119513
  0
LINE
 10
-14.5175459692
 20
-12.4078119513
 11
-14.5029293856
 21
-12.3966366659
  0
LINE
 10
-14.5029293856
 20
-12.3966366659
 11
-14.47906725
 21
-12.3773762798
  0
LINE
 10
-14.47906725
 20
-12.3773762798
 11
-14.4463912952
 21
-12.3495303704
  0
LINE
 10
-14.4463912952
 20
-12.3495303704
 11
-14.4053533464
 21
-12.3126160862
  0
LINE
 10
-14.4053533464
 20
-12.3126160862
 11
-14.356424682
 21
-12.2661688625
  0
LINE
 10
-14.356424682
 20
-12.2661688625
 11
-14.3000953725
 21
-12.2097431139
  0
LINE
 10
-14.3000953725
 20
-12.2097431139
 11
-14.2368735954
 21
-12.1429129057
  0
LINE
 10
-14.2368735954
 20
-12.1429129057
 11
-14.1672849273
 21
-12.0652726007
  0
LINE
 10
-14.1672849273
 20
-12.0652726007
 11
-14.0918716152
 21
-11.9764374828
  0
LINE
 10
-14.0918716152
 20
-11.9764374828
 11
-14.0111918269
 21
-11.876044356
  0
LINE
 10
-14.0111918269
 20
-11.876044356
 11
-13.9258188808
 21
-11.7637521177
  0
LINE
 10
-13.9258188808
 20
-11.7637521177
 11
-13.8363404566
 21
-11.6392423063
  0
LINE
 10
-13.8363404566
 20
-11.6392423063
 11
-13.7433577887
 21
-11.502219622
  0
LINE
 10
-13.7433577887
 20
-11.502219622
 11
-13.6474848403
 21
-11.3524124206
  0
LINE
 10
-13.6474848403
 20
-11.3524124206
 11
-13.5493474625
 21
-11.1895731795
  0
LINE
 10
-13.5493474625
 20
-11.1895731795
 11
-13.4495825367
 21
-11.0134789358
  0
LINE
 10
-13.4495825367
 20
-11.0134789358
 11
-13.3488371029
 21
-10.8239316947
  0
LINE
 10
-13.3488371029
 20
-10.8239316947
 11
-13.247767473
 21
-10.6207588097
  0
LINE
 10
-13.247767473
 20
-10.6207588097
 11
-13.6876397562
 21
-10.0475060895
  0
LINE
 10
-13.6876397562
 20
-10.0475060895
 11
-13.9100484381
 21
-10.0925468431
  0
LINE
 10
-13.9100484381
 20
-10.0925468431
 11
-14.1192118506
 21
-10.1408010236
  0
LINE
 10
-14.1192118506
 20
-10.1408010236
 11
-14.3151268913
 21
-10.1915899979
  0
LINE
 10
-14.3151268913
 20
-10.1915899979
 11
-14.4978173421
 21
-10.2442375288
  0
LINE
 10
-14.4978173421
 20
-10.2442375288
 11
-14.6673337319
 21
-10.2980707289
  0
LINE
 10
-14.6673337319
 20
-10.2980707289
 11
-14.8237531668
 21
-10.352421009
  0
LINE
 10
-14.8237531668
 20
-10.352421009
 11
-14.9671791296
 21
-10.4066250192
  0
LINE
 10
-14.9671791296
 20
-10.4066250192
 11
-15.097741247
 21
-10.4600255829
  0
LINE
 10
-15.097741247
 20
-10.4600255829
 11
-15.2155950267
 21
-10.5119726209
  0
LINE
 10
-15.2155950267
 20
-10.5119726209
 11
-15.3209215628
 21
-10.5618240662
  0
LINE
 10
-15.3209215628
 20
-10.5618240662
 11
-15.4139272112
 21
-10.6089467684
  0
LINE
 10
-15.4139272112
 20
-10.6089467684
 11
-15.4948432353
 21
-10.652717385
  0
LINE
 10
-15.4948432353
 20
-10.652717385
 11
-15.5639254212
 21
-10.6925232614
  0
LINE
 10
-15.5639254212
 20
-10.6925232614
 11
-15.6214536643
 21
-10.7277632959
  0
LINE
 10
-15.6214536643
 20
-10.7277632959
 11
-15.6677315275
 21
-10.7578487908
  0
LINE
 10
-15.6677315275
 20
-10.7578487908
 11
-15.70308577
 21
-10.7822042877
  0
LINE
 10
-15.70308577
 20
-10.7822042877
 11
-15.7278658495
 21
-10.8002683861
  0
LINE
 10
-15.7278658495
 20
-10.8002683861
 11
-15.7424433965
 21
-10.811494545
  0
LINE
 10
-15.7424433965
 20
-10.811494545
 11
-15.7472116626
 21
-10.8153518659
  0
LINE
 10
-15.7472116626
 20
-10.8153518659
 11
-15.8732008275
 21
-10.9210693277
  0
LINE
 10
-15.8732008275
 20
-10.9210693277
 11
-16.6061547164
 21
-9.7705621795
  0
LINE
 10
-16.6061547164
 20
-9.7705621795
 11
-16.4570968358
 21
-9.70105534825
  0
LINE
 10
-16.4570968358
 20
-9.70105534825
 11
-16.4515857594
 21
-9.69836400582
  0
LINE
 10
-16.4515857594
 20
-9.69836400582
 11
-16.4352506666
 21
-9.68989664119
  0
LINE
 10
-16.4352506666
 20
-9.68989664119
 11
-16.4084065194
 21
-9.67507248006
  0
LINE
 10
-16.4084065194
 20
-9.67507248006
 11
-16.3713915945
 21
-9.65332373253
  0
LINE
 10
-16.3713915945
 20
-9.65332373253
 11
-16.3245670061
 21
-9.62409642432
  0
LINE
 10
-16.3245670061
 20
-9.62409642432
 11
-16.2683162023
 21
-9.58685121168
  0
LINE
 10
-16.2683162023
 20
-9.58685121168
 11
-16.2030444332
 21
-9.541064179
  0
LINE
 10
-16.2030444332
 20
-9.541064179
 11
-16.1291781931
 21
-9.48622761822
  0
LINE
 10
-16.1291781931
 20
-9.48622761822
 11
-16.0471646357
 21
-9.42185078926
  0
LINE
 10
-16.0471646357
 20
-9.42185078926
 11
-15.9574709649
 21
-9.34746066062
  0
LINE
 10
-15.9574709649
 20
-9.34746066062
 11
-15.8605838004
 21
-9.26260262921
  0
LINE
 10
-15.8605838004
 20
-9.26260262921
 11
-15.7570085186
 21
-9.16684121888
  0
LINE
 10
-15.7570085186
 20
-9.16684121888
 11
-15.6472685709
 21
-9.05976075657
  0
LINE
 10
-15.6472685709
 20
-9.05976075657
 11
-15.5319047792
 21
-8.94096602554
  0
LINE
 10
-15.5319047792
 20
-8.94096602554
 11
-15.4114746088
 21
-8.81008289491
  0
LINE
 10
-15.4114746088
 20
-8.81008289491
 11
-15.2865514208
 21
-8.66675892467
  0
LINE
 10
-15.2865514208
 20
-8.66675892467
 11
-15.1577237039
 21
-8.51066394575
  0
LINE
 10
-15.1577237039
 20
-8.51066394575
 11
-15.0255942866
 21
-8.34149061415
  0
LINE
 10
-15.0255942866
 20
-8.34149061415
 11
-14.8907795303
 21
-8.15895493886
  0
LINE
 10
-14.8907795303
 20
-8.15895493886
 11
-15.2244248749
 21
-7.51802819513
  0
LINE
 10
-15.2244248749
 20
-7.51802819513
 11
-15.4512759139
 21
-7.52376381618
  0
LINE
 10
-15.4512759139
 20
-7.52376381618
 11
-15.6656409147
 21
-7.53496406186
  0
LINE
 10
-15.6656409147
 20
-7.53496406186
 11
-15.8673989785
 21
-7.55096114775
  0
LINE
 10
-15.8673989785
 20
-7.55096114775
 11
-16.0564560987
 21
-7.57108498047
  0
LINE
 10
-16.0564560987
 20
-7.57108498047
 11
-16.2327451907
 21
-7.59466412112
  0
LINE
 10
-16.2327451907
 20
-7.59466412112
 11
-16.3962260901
 21
-7.62102674847
  0
LINE
 10
-16.3962260901
 20
-7.62102674847
 11
-16.5468855178
 21
-7.64950162096
  0
LINE
 10
-16.5468855178
 20
-7.64950162096
 11
-16.6847370138
 21
-7.67941903633
  0
LINE
 10
-16.6847370138
 20
-7.67941903633
 11
-16.8098208383
 21
-7.71011178797
  0
LINE
 10
-16.8098208383
 20
-7.71011178797
 11
-16.9222038403
 21
-7.74091611681
  0
LINE
 10
-16.9222038403
 20
-7.74091611681
 11
-17.0219792953
 21
-7.77117265787
  0
LINE
 10
-17.0219792953
 20
-7.77117265787
 11
-17.109266711
 21
-7.80022738039
  0
LINE
 10
-17.109266711
 20
-7.80022738039
 11
-17.1842116011
 21
-7.8274325204
  0
LINE
 10
-17.1842116011
 20
-7.8274325204
 11
-17.2469852287
 21
-7.85214750499
  0
LINE
 10
-17.2469852287
 20
-7.85214750499
 11
-17.2977843185
 21
-7.87373986701
  0
LINE
 10
-17.2977843185
 20
-7.87373986701
 11
-17.3368307383
 21
-7.89158614937
  0
LINE
 10
-17.3368307383
 20
-7.89158614937
 11
-17.3643711504
 21
-7.90507279786
  0
LINE
 10
-17.3643711504
 20
-7.90507279786
 11
-17.3806766338
 21
-7.91359704169
  0
LINE
 10
-17.3806766338
 20
-7.91359704169
 11
-17.386042276
 21
-7.91656776057
  0
LINE
 10
-17.386042276
 20
-7.91656776057
 11
-17.5284750269
 21
-7.99880134765
  0
LINE
 10
-17.5284750269
 20
-7.99880134765
 11
-18.0505102297
 21
-6.73849688111
  0
LINE
 10
-18.0505102297
 20
-6.73849688111
 11
-17.8916471386
 21
-6.69592964414
  0
LINE
 10
-17.8916471386
 20
-6.69592964414
 11
-17.8857524411
 21
-6.69423617762
  0
LINE
 10
-17.8857524411
 20
-6.69423617762
 11
-17.8681951727
 21
-6.68873401038
  0
LINE
 10
-17.8681951727
 20
-6.68873401038
 11
-17.8391846599
 21
-6.6787964988
  0
LINE
 10
-17.8391846599
 20
-6.6787964988
 11
-17.7989554444
 21
-6.66380573788
  0
LINE
 10
-17.7989554444
 20
-6.66380573788
 11
-17.7477669579
 21
-6.6431534626
  0
LINE
 10
-17.7477669579
 20
-6.6431534626
 11
-17.6859031669
 21
-6.616241938
  0
LINE
 10
-17.6859031669
 20
-6.616241938
 11
-17.6136721879
 21
-6.58248483698
  0
LINE
 10
-17.6136721879
 20
-6.58248483698
 11
-17.5314058731
 21
-6.54130810477
  0
LINE
 10
-17.5314058731
 20
-6.54130810477
 11
-17.4394593669
 21
-6.49215080929
  0
LINE
 10
-17.4394593669
 20
-6.49215080929
 11
-17.3382106343
 21
-6.43446597632
  0
LINE
 10
-17.3382106343
 20
-6.43446597632
 11
-17.228059961
 21
-6.36772140864
  0
LINE
 10
-17.228059961
 20
-6.36772140864
 11
-17.109429426
 21
-6.29140048825
  0
LINE
 10
-17.109429426
 20
-6.29140048825
 11
-16.9827623476
 21
-6.2050029607
  0
LINE
 10
-16.9827623476
 20
-6.2050029607
 11
-16.8485227025
 21
-6.10804570077
  0
LINE
 10
-16.8485227025
 20
-6.10804570077
 11
-16.7071945199
 21
-6.00006345861
  0
LINE
 10
-16.7071945199
 20
-6.00006345861
 11
-16.5592812496
 21
-5.88060958547
  0
LINE
 10
-16.5592812496
 20
-5.88060958547
 11
-16.4053051066
 21
-5.74925673829
  0
LINE
 10
-16.4053051066
 20
-5.74925673829
 11
-16.2458063912
 21
-5.60559756227
  0
LINE
 10
-16.2458063912
 20
-5.60559756227
 11
-16.0813427866
 21
-5.44924535078
  0
LINE
 10
-16.0813427866
 20
-5.44924535078
 11
-16.2986235477
 21
-4.76011881838
  0
LINE
 10
-16.2986235477
 20
-4.76011881838
 11
-16.5230241899
 21
-4.72637503293
  0
LINE
 10
-16.5230241899
 20
-4.72637503293
 11
-16.7360774068
 21
-4.70018102996
  0
LINE
 10
-16.7360774068
 20
-4.70018102996
 11
-16.9375481771
 21
-4.68090016406
  0
LINE
 10
-16.9375481771
 20
-4.68090016406
 11
-17.1272275618
 21
-4.66788884615
  0
LINE
 10
-17.1272275618
 20
-4.66788884615
 11
-17.3049329011
 21
-4.6604974871
  0
LINE
 10
-17.3049329011
 20
-4.6604974871
 11
-17.4705079804
 21
-4.65807144665
  0
LINE
 10
-17.4705079804
 20
-4.65807144665
 11
-17.6238231626
 21
-4.65995198677
  0
LINE
 10
-17.6238231626
 20
-4.65995198677
 11
-17.7647754894
 21
-4.6654772283
  0
LINE
 10
-17.7647754894
 20
-4.6654772283
 11
-17.8932887499
 21
-4.67398310991
  0
LINE
 10
-17.8932887499
 20
-4.67398310991
 11
-18.0093135171
 21
-4.68480434828
  0
LINE
 10
-18.0093135171
 20
-4.68480434828
 11
-18.112827152
 21
-4.69727539856
  0
LINE
 10
-18.112827152
 20
-4.69727539856
 11
-18.2038337753
 21
-4.71073141389
  0
LINE
 10
-18.2038337753
 20
-4.71073141389
 11
-18.2823642071
 21
-4.7245092031
  0
LINE
 10
-18.2823642071
 20
-4.7245092031
 11
-18.3484758743
 21
-4.73794818549
  0
LINE
 10
-18.3484758743
 20
-4.73794818549
 11
-18.4022526862
 21
-4.75039134165
  0
LINE
 10
-18.4022526862
 20
-4.75039134165
 11
-18.4438048775
 21
-4.76118615923
  0
LINE
 10
-18.4438048775
 20
-4.76118615923
 11
-18.4732688208
 21
-4.76968557285
  0
LINE
 10
-18.4732688208
 20
-4.76968557285
 11
-18.4908068067
 21
-4.77524889679
  0
LINE
 10
-18.4908068067
 20
-4.77524889679
 11
-18.4966067926
 21
-4.77724274979
  0
LINE
 10
-18.4966067926
 20
-4.77724274979
 11
-18.6511553825
 21
-4.83349383626
  0
LINE
 10
-18.6511553825
 20
-4.83349383626
 11
-18.9464101236
 21
-3.50168576482
  0
LINE
 10
-18.9464101236
 20
-3.50168576482
 11
-18.7825687967
 21
-3.4873515061
  0
LINE
 10
-18.7825687967
 20
-3.4873515061
 11
-18.7764695856
 21
-3.48670737061
  0
LINE
 10
-18.7764695856
 20
-3.48670737061
 11
-18.7582236102
 21
-3.48433758133
  0
LINE
 10
-18.7582236102
 20
-3.48433758133
 11
-18.7279282015
 21
-3.47958866556
  0
LINE
 10
-18.7279282015
 20
-3.47958866556
 11
-18.6857070399
 21
-3.47181137794
  0
LINE
 10
-18.6857070399
 20
-3.47181137794
 11
-18.6317099915
 21
-3.46036164452
  0
LINE
 10
-18.6317099915
 20
-3.46036164452
 11
-18.5661129133
 21
-3.44460150102
  0
LINE
 10
-18.5661129133
 20
-3.44460150102
 11
-18.4891174261
 21
-3.42390002409
  0
LINE
 10
-18.4891174261
 20
-3.42390002409
 11
-18.400950657
 21
-3.39763425462
  0
LINE
 10
-18.400950657
 20
-3.39763425462
 11
-18.30186495
 21
-3.36519011216
  0
LINE
 10
-18.30186495
 20
-3.36519011216
 11
-18.192137547
 21
-3.32596329932
  0
LINE
 10
-18.192137547
 20
-3.32596329932
 11
-18.0720702374
 21
-3.27936019529
  0
LINE
 10
-18.0720702374
 20
-3.27936019529
 11
-17.9419889781
 21
-3.22479873739
  0
LINE
 10
-17.9419889781
 20
-3.22479873739
 11
-17.802243484
 21
-3.16170928975
  0
LINE
 10
-17.802243484
 20
-3.16170928975
 11
-17.6532067893
 21
-3.0895354982
  0
LINE
 10
-17.6532067893
 20
-3.0895354982
 11
-17.4952747797
 21
-3.0077351303
  0
LINE
 10
-17.4952747797
 20
-3.0077351303
 11
-17.328865697
 21
-2.91578089975
  0
LINE
 10
-17.328865697
 20
-2.91578089975
 11
-17.154419615
 21
-2.8131612741
  0
LINE
 10
-17.154419615
 20
-2.8131612741
 11
-16.9723978894
 21
-2.69938126502
  0
LINE
 10
-16.9723978894
 20
-2.69938126502
 11
-16.78328258
 21
-2.57396320018
  0
LINE
 10
-16.78328258
 20
-2.57396320018
 11
-16.8775967915
 21
-1.85757564006
  0
LINE
 10
-16.8775967915
 20
-1.85757564006
 11
-17.0927287368
 21
-1.78537773595
  0
LINE
 10
-17.0927287368
 20
-1.78537773595
 11
-17.2979966558
 21
-1.72258537588
  0
LINE
 10
-17.2979966558
 20
-1.72258537588
 11
-17.4930585452
 21
-1.66861239753
  0
LINE
 10
-17.4930585452
 20
-1.66861239753
 11
-17.6775968821
 21
-1.6228612713
  0
LINE
 10
-17.6775968821
 20
-1.6228612713
 11
-17.8513189821
 21
-1.58472399525
  0
LINE
 10
-17.8513189821
 20
-1.58472399525
 11
-18.0139573264
 21
-1.55358300103
  0
LINE
 10
-18.0139573264
 20
-1.55358300103
 11
-18.1652698588
 21
-1.52881206952
  0
LINE
 10
-18.1652698588
 20
-1.52881206952
 11
-18.3050402511
 21
-1.50977725554
  0
LINE
 10
-18.3050402511
 20
-1.50977725554
 11
-18.4330781373
 21
-1.49583782019
  0
LINE
 10
-18.4330781373
 20
-1.49583782019
 11
-18.5492193159
 21
-1.48634717025
  0
LINE
 10
-18.5492193159
 20
-1.48634717025
 11
-18.6533259212
 21
-1.48065380319
  0
LINE
 10
-18.6533259212
 20
-1.48065380319
 11
-18.745286562
 21
-1.47810225712
  0
LINE
 10
-18.745286562
 20
-1.47810225712
 11
-18.825016428
 21
-1.47803406438
  0
LINE
 10
-18.825016428
 20
-1.47803406438
 11
-18.8924573653
 21
-1.4797887079
  0
LINE
 10
-18.8924573653
 20
-1.4797887079
 11
-18.9475779179
 21
-1.48270457917
  0
LINE
 10
-18.9475779179
 20
-1.48270457917
 11
-18.9903733385
 21
-1.48611993693
  0
LINE
 10
-18.9903733385
 20
-1.48611993693
 11
-19.020865566
 21
-1.48937386529
  0
LINE
 10
-19.020865566
 20
-1.48937386529
 11
-19.0391031715
 21
-1.49180723056
  0
LINE
 10
-19.0391031715
 20
-1.49180723056
 11
-19.0451612716
 21
-1.49276363545
  0
LINE
 10
-19.0451612716
 20
-1.49276363545
 11
-19.2071298198
 21
-1.52132306053
  0
LINE
 10
-19.2071298198
 20
-1.52132306053
 11
-19.2666329333
 21
-0.158477698509
  0
LINE
 10
-19.2666329333
 20
-0.158477698509
 11
-19.1027916064
 21
-0.17281195723
  0
LINE
 10
-19.1027916064
 20
-0.17281195723
 11
-19.0966732031
 21
-0.173236724502
  0
LINE
 10
-19.0966732031
 20
-0.173236724502
 11
-19.0782929154
 21
-0.174071318029
  0
LINE
 10
-19.0782929154
 20
-0.174071318029
 11
-19.0476331215
 21
-0.174655291474
  0
LINE
 10
-19.0476331215
 20
-0.174655291474
 11
-19.0047028824
 21
-0.174327786095
  0
LINE
 10
-19.0047028824
 20
-0.174327786095
 11
-18.9495379452
 21
-0.172428488898
  0
LINE
 10
-18.9495379452
 20
-0.172428488898
 11
-18.8822007138
 21
-0.168298590486
  0
LINE
 10
-18.8822007138
 20
-0.168298590486
 11
-18.8027801873
 21
-0.161281741542
  0
LINE
 10
-18.8027801873
 20
-0.161281741542
 11
-18.7113918665
 21
-0.150725006927
  0
LINE
 10
-18.7113918665
 20
-0.150725006927
 11
-18.6081776278
 21
-0.135979816337
  0
LINE
 10
-18.6081776278
 20
-0.135979816337
 11
-18.4933055661
 21
-0.116402910496
  0
LINE
 10
-18.4933055661
 20
-0.116402910496
 11
-18.3669698046
 21
-0.0913572818467
  0
LINE
 10
-18.3669698046
 20
-0.0913572818467
 11
-18.2293902742
 21
-0.0602131087165
  0
LINE
 10
-18.2293902742
 20
-0.0602131087165
 11
-18.0808124605
 21
-0.0223486819351
  0
LINE
 10
-18.0808124605
 20
-0.0223486819351
 11
-17.9215071207
 21
0.0228486771049
  0
LINE
 10
-17.9215071207
 20
0.0228486771049
 11
-17.7517699684
 21
0.0759817079516
  0
LINE
 10
-17.7517699684
 20
0.0759817079516
 11
-17.571921329
 21
0.137642313155
  0
LINE
 10
-17.571921329
 20
0.137642313155
 11
-17.382305764
 21
0.208410671875
  0
LINE
 10
-17.382305764
 20
0.208410671875
 11
-17.1832916662
 21
0.288854366004
  0
LINE
 10
-17.1832916662
 20
0.288854366004
 11
-16.9752708248
 21
0.379527519773
  0
LINE
 10
-16.9752708248
 20
0.379527519773
 11
-16.9437527972
 21
1.1014090341
  0
LINE
 10
-16.9437527972
 20
1.1014090341
 11
-17.1430793705
 21
1.20986736008
  0
LINE
 10
-17.1430793705
 20
1.20986736008
 11
-17.3343250296
 21
1.30735016318
  0
LINE
 10
-17.3343250296
 20
1.30735016318
 11
-17.5170511813
 21
1.39437531233
  0
LINE
 10
-17.5170511813
 20
1.39437531233
 11
-17.6908413665
 21
1.47147612207
  0
LINE
 10
-17.6908413665
 20
1.47147612207
 11
-17.8553017689
 21
1.53920053327
  0
LINE
 10
-17.8553017689
 20
1.53920053327
 11
-18.0100616944
 21
1.59811027793
  0
LINE
 10
-18.0100616944
 20
1.59811027793
 11
-18.1547740224
 21
1.64878002884
  0
LINE
 10
-18.1547740224
 20
1.64878002884
 11
-18.2891156276
 21
1.69179653515
  0
LINE
 10
-18.2891156276
 20
1.69179653515
 11
-18.412787773
 21
1.72775774475
  0
LINE
 10
-18.412787773
 20
1.72775774475
 11
-18.5255164721
 21
1.75727191442
  0
LINE
 10
-18.5255164721
 20
1.75727191442
 11
-18.6270528214
 21
1.78095670873
  0
LINE
 10
-18.6270528214
 20
1.78095670873
 11
-18.717173302
 21
1.79943828877
  0
LINE
 10
-18.717173302
 20
1.79943828877
 11
-18.7956800507
 21
1.81335039146
  0
LINE
 10
-18.7956800507
 20
1.81335039146
 11
-18.8624010993
 21
1.82333340078
  0
LINE
 10
-18.8624010993
 20
1.82333340078
 11
-18.9171905826
 21
1.83003341165
  0
LINE
 10
-18.9171905826
 20
1.83003341165
 11
-18.9599289152
 21
1.83410128765
  0
LINE
 10
-18.9599289152
 20
1.83410128765
 11
-18.990522936
 21
1.83619171351
  0
LINE
 10
-18.990522936
 20
1.83619171351
 11
-19.0089060207
 21
1.83696224349
  0
LINE
 10
-19.0089060207
 20
1.83696224349
 11
-19.0150381626
 21
1.83707234657
  0
LINE
 10
-19.0150381626
 20
1.83707234657
 11
-19.1795053367
 21
1.83707234657
  0
LINE
 10
-19.1795053367
 20
1.83707234657
 11
-19.0014488507
 21
3.18954563248
  0
LINE
 10
-19.0014488507
 20
3.18954563248
 11
-18.8425857596
 21
3.14697839551
  0
LINE
 10
-18.8425857596
 20
3.14697839551
 11
-18.8366340686
 21
3.14549763182
  0
LINE
 10
-18.8366340686
 20
3.14549763182
 11
-18.8186779445
 21
3.14148401418
  0
LINE
 10
-18.8186779445
 20
3.14148401418
 11
-18.7885853477
 21
3.13558489527
  0
LINE
 10
-18.7885853477
 20
3.13558489527
 11
-18.7462504446
 21
3.12845266732
  0
LINE
 10
-18.7462504446
 20
3.12845266732
 11
-18.6915937773
 21
3.12074381911
  0
LINE
 10
-18.6915937773
 20
3.12074381911
 11
-18.6245624004
 21
3.11311798756
  0
LINE
 10
-18.6245624004
 20
3.11311798756
 11
-18.5451299872
 21
3.10623700511
  0
LINE
 10
-18.5451299872
 20
3.10623700511
 11
-18.4532969025
 21
3.10076394383
  0
LINE
 10
-18.4532969025
 20
3.10076394383
 11
-18.3490902446
 21
3.09736215739
  0
LINE
 10
-18.3490902446
 20
3.09736215739
 11
-18.2325638536
 21
3.09669432186
  0
LINE
 10
-18.2325638536
 20
3.09669432186
 11
-18.1037982884
 21
3.09942147638
  0
LINE
 10
-18.1037982884
 20
3.09942147638
 11
-17.9629007713
 21
3.10620206479
  0
LINE
 10
-17.9629007713
 20
3.10620206479
 11
-17.8100050998
 21
3.11769097927
  0
LINE
 10
-17.8100050998
 20
3.11769097927
 11
-17.645271527
 21
3.13453860692
  0
LINE
 10
-17.645271527
 20
3.13453860692
 11
-17.4688866095
 21
3.15738988046
  0
LINE
 10
-17.4688866095
 20
3.15738988046
 11
-17.2810630233
 21
3.18688333403
  0
LINE
 10
-17.2810630233
 20
3.18688333403
 11
-17.0820393483
 21
3.22365016504
  0
LINE
 10
-17.0820393483
 20
3.22365016504
 11
-16.8720798209
 21
3.26831330329
  0
LINE
 10
-16.8720798209
 20
3.26831330329
 11
-16.6514740556
 21
3.32148648809
  0
LINE
 10
-16.6514740556
 20
3.32148648809
 11
-16.4950814482
 21
4.0269279521
  0
LINE
 10
-16.4950814482
 20
4.0269279521
 11
-16.6725462122
 21
4.16835124861
  0
LINE
 10
-16.6725462122
 20
4.16835124861
 11
-16.843958709
 21
4.29756252909
  0
LINE
 10
-16.843958709
 20
4.29756252909
 11
-17.0087970813
 21
4.41499563392
  0
LINE
 10
-17.0087970813
 20
4.41499563392
 11
-17.166558588
 21
4.52110345807
  0
LINE
 10
-17.166558588
 20
4.52110345807
 11
-17.3167602467
 21
4.61635723247
  0
LINE
 10
-17.3167602467
 20
4.61635723247
 11
-17.4589394514
 21
4.70124578478
  0
LINE
 10
-17.4589394514
 20
4.70124578478
 11
-17.592654564
 21
4.77627478036
  0
LINE
 10
-17.592654564
 20
4.77627478036
 11
-17.7174854805
 21
4.84196594421
  0
LINE
 10
-17.7174854805
 20
4.84196594421
 11
-17.8330341696
 21
4.89885626491
  0
LINE
 10
-17.8330341696
 20
4.89885626491
 11
-17.9389251847
 21
4.94749718119
  0
LINE
 10
-17.9389251847
 20
4.94749718119
 11
-18.0348061473
 21
4.98845375228
  0
LINE
 10
-18.0348061473
 20
4.98845375228
 11
-18.1203482026
 21
5.02230381282
  0
LINE
 10
-18.1203482026
 20
5.02230381282
 11
-18.1952464461
 21
5.04963711326
  0
LINE
 10
-18.1952464461
 20
5.04963711326
 11
-18.2592203207
 21
5.07105444672
  0
LINE
 10
-18.2592203207
 20
5.07105444672
 11
-18.3120139839
 21
5.0871667633
  0
LINE
 10
-18.3120139839
 20
5.0871667633
 11
-18.353396646
 21
5.0985942727
  0
LINE
 10
-18.353396646
 20
5.0985942727
 11
-18.3831628762
 21
5.10596553625
  0
LINE
 10
-18.3831628762
 20
5.10596553625
 11
-18.4011328794
 21
5.10991654931
  0
LINE
 10
-18.4011328794
 20
5.10991654931
 11
-18.4071527411
 21
5.11108981495
  0
LINE
 10
-18.4071527411
 20
5.11108981495
 11
-18.5691212893
 21
5.13964924002
  0
LINE
 10
-18.5691212893
 20
5.13964924002
 11
-18.15891536
 21
6.44065623341
  0
LINE
 10
-18.15891536
 20
6.44065623341
 11
-18.0098574794
 21
6.37114940216
  0
LINE
 10
-18.0098574794
 20
6.37114940216
 11
-18.0042533398
 21
6.36865763429
  0
LINE
 10
-18.0042533398
 20
6.36865763429
 11
-17.9872669669
 21
6.36158694429
  0
LINE
 10
-17.9872669669
 20
6.36158694429
 11
-17.9586559155
 21
6.35055192165
  0
LINE
 10
-17.9586559155
 20
6.35055192165
 11
-17.9182026732
 21
6.3361766695
  0
LINE
 10
-17.9182026732
 20
6.3361766695
 11
-17.8657149909
 21
6.31909390534
  0
LINE
 10
-17.8657149909
 20
6.31909390534
 11
-17.801026183
 21
6.29994405087
  0
LINE
 10
-17.801026183
 20
6.29994405087
 11
-17.7239953966
 21
6.27937431219
  0
LINE
 10
-17.7239953966
 20
6.27937431219
 11
-17.63450785
 21
6.25803775121
  0
LINE
 10
-17.63450785
 20
6.25803775121
 11
-17.5324750394
 21
6.23659234931
  0
LINE
 10
-17.5324750394
 20
6.23659234931
 11
-17.4178349145
 21
6.21570006425
  0
LINE
 10
-17.4178349145
 20
6.21570006425
 11
-17.2905520222
 21
6.19602588143
  0
LINE
 10
-17.2905520222
 20
6.19602588143
 11
-17.1506176181
 21
6.17823686038
  0
LINE
 10
-17.1506176181
 20
6.17823686038
 11
-16.9980497464
 21
6.1630011777
  0
LINE
 10
-16.9980497464
 20
6.1630011777
 11
-16.8328932869
 21
6.15098716731
  0
LINE
 10
-16.8328932869
 20
6.15098716731
 11
-16.6552199706
 21
6.14286235917
  0
LINE
 10
-16.6552199706
 20
6.14286235917
 11
-16.4651283622
 21
6.13929251743
  0
LINE
 10
-16.4651283622
 20
6.13929251743
 11
-16.2627438108
 21
6.1409406792
  0
LINE
 10
-16.2627438108
 20
6.1409406792
 11
-16.0482183679
 21
6.1484661947
  0
LINE
 10
-16.0482183679
 20
6.1484661947
 11
-15.8217306732
 21
6.16252377022
  0
LINE
 10
-15.8217306732
 20
6.16252377022
 11
-15.5452153963
 21
6.830090702
  0
LINE
 10
-15.5452153963
 20
6.830090702
 11
-15.6954261741
 21
7.00018189373
  0
LINE
 10
-15.6954261741
 20
7.00018189373
 11
-15.8417972265
 21
7.15719563221
  0
LINE
 10
-15.8417972265
 20
7.15719563221
 11
-15.9837392888
 21
7.30146854727
  0
LINE
 10
-15.9837392888
 20
7.30146854727
 11
-16.1206786134
 21
7.43335935329
  0
LINE
 10
-16.1206786134
 20
7.43335935329
 11
-16.2520577271
 21
7.55324825315
  0
LINE
 10
-16.2520577271
 20
7.55324825315
 11
-16.3773361678
 21
7.6615363174
  0
LINE
 10
-16.3773361678
 20
7.6615363174
 11
-16.4959911991
 21
7.75864483958
  0
LINE
 10
-16.4959911991
 20
7.75864483958
 11
-16.6075185025
 21
7.84501466821
  0
LINE
 10
-16.6075185025
 20
7.84501466821
 11
-16.7114328469
 21
7.9211055164
  0
LINE
 10
-16.7114328469
 20
7.9211055164
 11
-16.807268733
 21
7.98739524966
  0
LINE
 10
-16.807268733
 20
7.98739524966
 11
-16.8945810144
 21
8.04437915283
  0
LINE
 10
-16.8945810144
 20
8.04437915283
 11
-16.9729454924
 21
8.09256917692
  0
LINE
 10
-16.9729454924
 20
8.09256917692
 11
-17.0419594855
 21
8.13249316661
  0
LINE
 10
-17.0419594855
 20
8.13249316661
 11
-17.1012423722
 21
8.16469406938
  0
LINE
 10
-17.1012423722
 20
8.16469406938
 11
-17.1504361067
 21
8.18972912708
  0
LINE
 10
-17.1504361067
 20
8.18972912708
 11
-17.1892057069
 21
8.20816905079
  0
LINE
 10
-17.1892057069
 20
8.20816905079
 11
-17.2172397148
 21
8.22059717992
  0
LINE
 10
-17.2172397148
 20
8.22059717992
 11
-17.2342506271
 21
8.22760862653
  0
LINE
 10
-17.2342506271
 20
8.22760862653
 11
-17.2399752981
 21
8.22980940563
  0
LINE
 10
-17.2399752981
 20
8.22980940563
 11
-17.394523888
 21
8.28606049211
  0
LINE
 10
-17.394523888
 20
8.28606049211
 11
-16.7646324149
 21
9.49607075382
  0
LINE
 10
-16.7646324149
 20
9.49607075382
 11
-16.629908793
 21
9.40173625818
  0
LINE
 10
-16.629908793
 20
9.40173625818
 11
-16.6248224839
 21
9.39830919725
  0
LINE
 10
-16.6248224839
 20
9.39830919725
 11
-16.6093219846
 21
9.38839627422
  0
LINE
 10
-16.6093219846
 20
9.38839627422
 11
-16.5830618109
 21
9.37256064142
  0
LINE
 10
-16.5830618109
 20
9.37256064142
 11
-16.5457193806
 21
9.35137914985
  0
LINE
 10
-16.5457193806
 20
9.35137914985
 11
-16.496995495
 21
9.32544152087
  0
LINE
 10
-16.496995495
 20
9.32544152087
 11
-16.4366147927
 21
9.29534950211
  0
LINE
 10
-16.4366147927
 20
9.29534950211
 11
-16.3643261748
 21
9.26171600831
  0
LINE
 10
-16.3643261748
 20
9.26171600831
 11
-16.2799032
 21
9.22516424825
  0
LINE
 10
-16.2799032
 20
9.22516424825
 11
-16.183144452
 21
9.18632683856
  0
LINE
 10
-16.183144452
 20
9.18632683856
 11
-16.0738738754
 21
9.14584490549
  0
LINE
 10
-16.0738738754
 20
9.14584490549
 11
-15.9519410823
 21
9.10436717541
  0
LINE
 10
-15.9519410823
 20
9.10436717541
 11
-15.8172216273
 21
9.0625490553
  0
LINE
 10
-15.8172216273
 20
9.0625490553
 11
-15.6696172529
 21
9.02105170397
  0
LINE
 10
-15.6696172529
 20
9.02105170397
 11
-15.5090561021
 21
8.98054109518
  0
LINE
 10
-15.5090561021
 20
8.98054109518
 11
-15.3354929008
 21
8.94168707353
  0
LINE
 10
-15.3354929008
 20
8.94168707353
 11
-15.1489091076
 21
8.90516240433
  0
LINE
 10
-15.1489091076
 20
8.90516240433
 11
-14.9493130321
 21
8.87164181827
  0
LINE
 10
-14.9493130321
 20
8.87164181827
 11
-14.7367399206
 21
8.84180105206
  0
LINE
 10
-14.7367399206
 20
8.84180105206
 11
-14.5112520105
 21
8.81631588597
  0
LINE
 10
-14.5112520105
 20
8.81631588597
 11
-14.1230158408
 21
9.42572460211
  0
LINE
 10
-14.1230158408
 20
9.42572460211
 11
-14.2414085539
 21
9.61931555427
  0
LINE
 10
-14.2414085539
 20
9.61931555427
 11
-14.3582907515
 21
9.79936096777
  0
LINE
 10
-14.3582907515
 20
9.79936096777
 11
-14.4730236662
 21
9.96609003353
  0
LINE
 10
-14.4730236662
 20
9.96609003353
 11
-14.5849799767
 21
10.119756386
  0
LINE
 10
-14.5849799767
 20
10.119756386
 11
-14.6935446575
 21
10.2606376478
  0
LINE
 10
-14.6935446575
 20
10.2606376478
 11
-14.7981158121
 21
10.3890349459
  0
LINE
 10
-14.7981158121
 20
10.3890349459
 11
-14.8981054889
 21
10.5052724014
  0
LINE
 10
-14.8981054889
 20
10.5052724014
 11
-14.9929404787
 21
10.6096965913
  0
LINE
 10
-14.9929404787
 20
10.6096965913
 11
-15.0820630936
 21
10.7026759851
  0
LINE
 10
-15.0820630936
 20
10.7026759851
 11
-15.1649319259
 21
10.7846003553
  0
LINE
 10
-15.1649319259
 20
10.7846003553
 11
-15.2410225866
 21
10.8558801635
  0
LINE
 10
-15.2410225866
 20
10.8558801635
 11
-15.3098284222
 21
10.9169459216
  0
LINE
 10
-15.3098284222
 20
10.9169459216
 11
-15.3708612096
 21
10.9682475303
  0
LINE
 10
-15.3708612096
 20
10.9682475303
 11
-15.4236518279
 21
11.0102535943
  0
LINE
 10
-15.4236518279
 20
11.0102535943
 11
-15.4677509069
 21
11.0434507155
  0
LINE
 10
-15.4677509069
 20
11.0434507155
 11
-15.5027294507
 21
11.0683427658
  0
LINE
 10
-15.5027294507
 20
11.0683427658
 11
-15.5281794369
 21
11.0854501381
  0
LINE
 10
-15.5281794369
 20
11.0854501381
 11
-15.5437143903
 21
11.095308979
  0
LINE
 10
-15.5437143903
 20
11.095308979
 11
-15.5489699294
 21
11.098470402
  0
LINE
 10
-15.5489699294
 20
11.098470402
 11
-15.6914026803
 21
11.1807039891
  0
LINE
 10
-15.6914026803
 20
11.1807039891
 11
-14.8609645972
 21
12.2629519696
  0
LINE
 10
-14.8609645972
 20
12.2629519696
 11
-14.7446687431
 21
12.1466561155
  0
LINE
 10
-14.7446687431
 20
12.1466561155
 11
-14.7402548093
 21
12.142397891
  0
LINE
 10
-14.7402548093
 20
12.142397891
 11
-14.7267111585
 21
12.1299439341
  0
LINE
 10
-14.7267111585
 20
12.1299439341
 11
-14.7035997646
 21
12.1097888489
  0
LINE
 10
-14.7035997646
 20
12.1097888489
 11
-14.6705027771
 21
12.0824447067
  0
LINE
 10
-14.6705027771
 20
12.0824447067
 11
-14.6270231388
 21
12.0484403147
  0
LINE
 10
-14.6270231388
 20
12.0484403147
 11
-14.5727851793
 21
12.0083204624
  0
LINE
 10
-14.5727851793
 20
12.0083204624
 11
-14.5074351828
 21
11.9626451502
  0
LINE
 10
-14.5074351828
 20
11.9626451502
 11
-14.4306419292
 21
11.9119887978
  0
LINE
 10
-14.4306419292
 20
11.9119887978
 11
-14.3420972095
 21
11.8569394353
  0
LINE
 10
-14.3420972095
 20
11.8569394353
 11
-14.2415163124
 21
11.7980978773
  0
LINE
 10
-14.2415163124
 20
11.7980978773
 11
-14.1286384846
 21
11.7360768798
  0
LINE
 10
-14.1286384846
 20
11.7360768798
 11
-14.0032273612
 21
11.671500283
  0
LINE
 10
-14.0032273612
 20
11.671500283
 11
-13.8650713683
 21
11.6050021391
  0
LINE
 10
-13.8650713683
 20
11.6050021391
 11
-13.7139840956
 21
11.5372258262
  0
LINE
 10
-13.7139840956
 20
11.5372258262
 11
-13.5498046394
 21
11.4688231509
  0
LINE
 10
-13.5498046394
 20
11.4688231509
 11
-13.3723979155
 21
11.4004534378
  0
LINE
 10
-13.3723979155
 20
11.4004534378
 11
-13.1816549415
 21
11.33278261
  0
LINE
 10
-13.1816549415
 20
11.33278261
 11
-12.9774930879
 21
11.2664822586
  0
LINE
 10
-12.9774930879
 20
11.2664822586
 11
-12.7598562986
 21
11.2022287048
  0
LINE
 10
-12.7598562986
 20
11.2022287048
 11
-12.2716955956
 21
11.7349626298
  0
LINE
 10
-12.2716955956
 20
11.7349626298
 11
-12.3546729413
 21
11.9461711793
  0
LINE
 10
-12.3546729413
 20
11.9461711793
 11
-12.4385148778
 21
12.143777679
  0
LINE
 10
-12.4385148778
 20
12.143777679
 11
-12.5225525432
 21
12.3278969172
  0
LINE
 10
-12.5225525432
 20
12.3278969172
 11
-12.6061241037
 21
12.4986697418
  0
LINE
 10
-12.6061241037
 20
12.4986697418
 11
-12.6885756687
 21
12.6562627596
  0
LINE
 10
-12.6885756687
 20
12.6562627596
 11
-12.7692621957
 21
12.8008680048
  0
LINE
 10
-12.7692621957
 20
12.8008680048
 11
-12.8475483823
 21
12.9327025773
  0
LINE
 10
-12.8475483823
 20
12.9327025773
 11
-12.9228095452
 21
13.0520082522
  0
LINE
 10
-12.9228095452
 20
13.0520082522
 11
-12.994432485
 21
13.1590510597
  0
LINE
 10
-12.994432485
 20
13.1590510597
 11
-13.0618163359
 21
13.2541208364
  0
LINE
 10
-13.0618163359
 20
13.2541208364
 11
-13.1243733997
 21
13.3375307487
  0
LINE
 10
-13.1243733997
 20
13.3375307487
 11
-13.1815299625
 21
13.4096167887
  0
LINE
 10
-13.1815299625
 20
13.4096167887
 11
-13.2327270939
 21
13.470737243
  0
LINE
 10
-13.2327270939
 20
13.470737243
 11
-13.2774214276
 21
13.5212721352
  0
LINE
 10
-13.2774214276
 20
13.5212721352
 11
-13.3150859229
 21
13.5616226423
  0
LINE
 10
-13.3150859229
 20
13.5616226423
 11
-13.3452106048
 21
13.5922104867
  0
LINE
 10
-13.3452106048
 20
13.5922104867
 11
-13.3673032846
 21
13.6134773033
  0
LINE
 10
-13.3673032846
 20
13.6134773033
 11
-13.3808902573
 21
13.6258839826
  0
LINE
 10
-13.3808902573
 20
13.6258839826
 11
-13.3855169777
 21
13.6299099913
  0
LINE
 10
-13.3855169777
 20
13.6299099913
 11
-13.5115061425
 21
13.7356274531
  0
LINE
 10
-13.5115061425
 20
13.7356274531
 11
-12.5057538902
 21
14.6572295952
  0
LINE
 10
-12.5057538902
 20
14.6572295952
 11
-12.4114193946
 21
14.5225059733
  0
LINE
 10
-12.4114193946
 20
14.5225059733
 11
-12.4078119513
 21
14.5175459692
  0
LINE
 10
-12.4078119513
 20
14.5175459692
 11
-12.3966366659
 21
14.5029293856
  0
LINE
 10
-12.3966366659
 20
14.5029293856
 11
-12.3773762798
 21
14.47906725
  0
LINE
 10
-12.3773762798
 20
14.47906725
 11
-12.3495303704
 21
14.4463912952
  0
LINE
 10
-12.3495303704
 20
14.4463912952
 11
-12.3126160862
 21
14.4053533464
  0
LINE
 10
-12.3126160862
 20
14.4053533464
 11
-12.2661688625
 21
14.356424682
  0
LINE
 10
-12.2661688625
 20
14.356424682
 11
-12.2097431139
 21
14.3000953725
  0
LINE
 10
-12.2097431139
 20
14.3000953725
 11
-12.1429129057
 21
14.2368735954
  0
LINE
 10
-12.1429129057
 20
14.2368735954
 11
-12.0652726007
 21
14.1672849273
  0
LINE
 10
-12.0652726007
 20
14.1672849273
 11
-11.9764374828
 21
14.0918716152
  0
LINE
 10
-11.9764374828
 20
14.0918716152
 11
-11.876044356
 21
14.0111918269
  0
LINE
 10
-11.876044356
 20
14.0111918269
 11
-11.7637521177
 21
13.9258188808
  0
LINE
 10
-11.7637521177
 20
13.9258188808
 11
-11.6392423063
 21
13.8363404566
  0
LINE
 10
-11.6392423063
 20
13.8363404566
 11
-11.502219622
 21
13.7433577887
  0
LINE
 10
-11.502219622
 20
13.7433577887
 11
-11.3524124206
 21
13.6474848403
  0
LINE
 10
-11.3524124206
 20
13.6474848403
 11
-11.1895731795
 21
13.5493474625
  0
LINE
 10
-11.1895731795
 20
13.5493474625
 11
-11.0134789358
 21
13.4495825367
  0
LINE
 10
-11.0134789358
 20
13.4495825367
 11
-10.8239316947
 21
13.3488371029
  0
LINE
 10
-10.8239316947
 20
13.3488371029
 11
-10.6207588097
 21
13.247767473
  0
LINE
 10
-10.6207588097
 20
13.247767473
 11
-10.0475060895
 21
13.6876397562
  0
LINE
 10
-10.0475060895
 20
13.6876397562
 11
-10.0925468431
 21
13.9100484381
  0
LINE
 10
-10.0925468431
 20
13.9100484381
 11
-10.1408010236
 21
14.1192118506
  0
LINE
 10
-10.1408010236
 20
14.1192118506
 11
-10.1915899979
 21
14.3151268913
  0
LINE
 10
-10.1915899979
 20
14.3151268913
 11
-10.2442375288
 21
14.4978173421
  0
LINE
 10
-10.2442375288
 20
14.4978173421
 11
-10.2980707289
 21
14.6673337319
  0
LINE
 10
-10.2980707289
 20
14.6673337319
 11
-10.352421009
 21
14.8237531668
  0
LINE
 10
-10.352421009
 20
14.8237531668
 11
-10.4066250192
 21
14.9671791296
  0
LINE
 10
-10.4066250192
 20
14.9671791296
 11
-10.4600255829
 21
15.097741247
  0
LINE
 10
-10.4600255829
 20
15.097741247
 11
-10.5119726209
 21
15.2155950267
  0
LINE
 10
-10.5119726209
 20
15.2155950267
 11
-10.5618240662
 21
15.3209215628
  0
LINE
 10
-10.5618240662
 20
15.3209215628
 11
-10.6089467684
 21
15.4139272112
  0
LINE
 10
-10.6089467684
 20
15.4139272112
 11
-10.652717385
 21
15.4948432353
  0
LINE
 10
-10.652717385
 20
15.4948432353
 11
-10.6925232614
 21
15.5639254212
  0
LINE
 10
-10.6925232614
 20
15.5639254212
 11
-10.7277632959
 21
15.6214536643
  0
LINE
 10
-10.7277632959
 20
15.6214536643
 11
-10.7578487908
 21
15.6677315275
  0
LINE
 10
-10.7578487908
 20
15.6677315275
 11
-10.7822042877
 21
15.70308577
  0
LINE
 10
-10.7822042877
 20
15.70308577
 11
-10.8002683861
 21
15.7278658495
  0
LINE
 10
-10.8002683861
 20
15.7278658495
 11
-10.811494545
 21
15.7424433965
  0
LINE
 10
-10.811494545
 20
15.7424433965
 11
-10.8153518659
 21
15.7472116626
  0
LINE
 10
-10.8153518659
 20
15.7472116626
 11
-10.9210693277
 21
15.8732008275
  0
LINE
 10
-10.9210693277
 20
15.8732008275
 11
-9.7705621795
 21
16.6061547164
  0
LINE
 10
-9.7705621795
 20
16.6061547164
 11
-9.70105534825
 21
16.4570968358
  0
LINE
 10
-9.70105534825
 20
16.4570968358
 11
-9.69836400582
 21
16.4515857594
  0
LINE
 10
-9.69836400582
 20
16.4515857594
 11
-9.68989664119
 21
16.4352506666
  0
LINE
 10
-9.68989664119
 20
16.4352506666
 11
-9.67507248006
 21
16.4084065194
  0
LINE
 10
-9.67507248006
 20
16.4084065194
 11
-9.65332373253
 21
16.3713915945
  0
LINE
 10
-9.65332373253
 20
16.3713915945
 11
-9.62409642432
 21
16.3245670061
  0
LINE
 10
-9.62409642432
 20
16.3245670061
 11
-9.58685121168
 21
16.2683162023
  0
LINE
 10
-9.58685121168
 20
16.2683162023
 11
-9.541064179
 21
16.2030444332
  0
LINE
 10
-9.541064179
 20
16.2030444332
 11
-9.48622761822
 21
16.1291781931
  0
LINE
 10
-9.48622761822
 20
16.1291781931
 11
-9.42185078926
 21
16.0471646357
  0
LINE
 10
-9.42185078926
 20
16.0471646357
 11
-9.34746066062
 21
15.9574709649
  0
LINE
 10
-9.34746066062
 20
15.9574709649
 11
-9.26260262921
 21
15.8605838004
  0
LINE
 10
-9.26260262921
 20
15.8605838004
 11
-9.16684121888
 21
15.7570085186
  0
LINE
 10
-9.16684121888
 20
15.7570085186
 11
-9.05976075657
 21
15.6472685709
  0
LINE
 10
-9.05976075657
 20
15.6472685709
 11
-8.94096602554
 21
15.5319047792
  0
LINE
 10
-8.94096602554
 20
15.5319047792
 11
-8.81008289491
 21
15.4114746088
  0
LINE
 10
-8.81008289491
 20
15.4114746088
 11
-8.66675892467
 21
15.2865514208
  0
LINE
 10
-8.66675892467
 20
15.2865514208
 11
-8.51066394575
 21
15.1577237039
  0
LINE
 10
-8.51066394575
 20
15.1577237039
 11
-8.34149061415
 21
15.0255942866
  0
LINE
 10
-8.34149061415
 20
15.0255942866
 11
-8.15895493886
 21
14.8907795303
  0
LINE
 10
-8.15895493886
 20
14.8907795303
 11
-7.51802819513
 21
15.2244248749
  0
LINE
 10
-7.51802819513
 20
15.2244248749
 11
-7.52376381618
 21
15.4512759139
  0
LINE
 10
-7.52376381618
 20
15.4512759139
 11
-7.53496406186
 21
15.6656409147
  0
LINE
 10
-7.53496406186
 20
15.6656409147
 11
-7.55096114775
 21
15.8673989785
  0
LINE
 10
-7.55096114775
 20
15.8673989785
 11
-7.57108498047
 21
16.0564560987
  0
LINE
 10
-7.57108498047
 20
16.0564560987
 11
-7.59466412112
 21
16.2327451907
  0
LINE
 10
-7.59466412112
 20
16.2327451907
 11
-7.62102674847
 21
16.3962260901
  0
LINE
 10
-7.62102674847
 20
16.3962260901
 11
-7.64950162096
 21
16.5468855178
  0
LINE
 10
-7.64950162096
 20
16.5468855178
 11
-7.67941903633
 21
16.6847370138
  0
LINE
 10
-7.67941903633
 20
16.6847370138
 11
-7.71011178797
 21
16.8098208383
  0
LINE
 10
-7.71011178797
 20
16.8098208383
 11
-7.74091611681
 21
16.9222038403
  0
LINE
 10
-7.74091611681
 20
16.9222038403
 11
-7.77117265787
 21
17.0219792953
  0
LINE
 10
-7.77117265787
 20
17.0219792953
 11
-7.80022738039
 21
17.109266711
  0
LINE
 10
-7.80022738039
 20
17.109266711
 11
-7.8274325204
 21
17.1842116011
  0
LINE
 10
-7.8274325204
 20
17.1842116011
 11
-7.85214750499
 21
17.2469852287
  0
LINE
 10
-7.85214750499
 20
17.2469852287
 11
-7.87373986701
 21
17.2977843185
  0
LINE
 10
-7.87373986701
 20
17.2977843185
 11
-7.89158614937
 21
17.3368307383
  0
LINE
 10
-7.89158614937
 20
17.3368307383
 11
-7.90507279786
 21
17.3643711504
  0
LINE
 10
-7.90507279786
 20
17.3643711504
 11
-7.91359704169
 21
17.3806766338
  0
LINE
 10
-7.91359704169
 20
17.3806766338
 11
-7.91656776057
 21
17.386042276
  0
LINE
 10
-7.91656776057
 20
17.386042276
 11
-7.99880134765
 21
17.5284750269
  0
LINE
 10
-7.99880134765
 20
17.5284750269
 11
-6.73849688111
 21
18.0505102297
  0
LINE
 10
-6.73849688111
 20
18.0505102297
 11
-6.69592964414
 21
17.8916471386
  0
LINE
 10
-6.69592964414
 20
17.8916471386
 11
-6.69423617762
 21
17.8857524411
  0
LINE
 10
-6.69423617762
 20
17.8857524411
 11
-6.68873401038
 21
17.8681951727
  0
LINE
 10
-6.68873401038
 20
17.8681951727
 11
-6.6787964988
 21
17.8391846599
  0
LINE
 10
-6.6787964988
 20
17.8391846599
 11
-6.66380573788
 21
17.7989554444
  0
LINE
 10
-6.66380573788
 20
17.7989554444
 11
-6.6431534626
 21
17.7477669579
  0
LINE
 10
-6.6431534626
 20
17.7477669579
 11
-6.616241938
 21
17.6859031669
  0
LINE
 10
-6.616241938
 20
17.6859031669
 11
-6.58248483698
 21
17.6136721879
  0
LINE
 10
-6.58248483698
 20
17.6136721879
 11
-6.54130810477
 21
17.5314058731
  0
LINE
 10
-6.54130810477
 20
17.5314058731
 11
-6.49215080929
 21
17.4394593669
  0
LINE
 10
-6.49215080929
 20
17.4394593669
 11
-6.43446597632
 21
17.3382106343
  0
LINE
 10
-6.43446597632
 20
17.3382106343
 11
-6.36772140864
 21
17.228059961
  0
LINE
 10
-6.36772140864
 20
17.228059961
 11
-6.29140048825
 21
17.109429426
  0
LINE
 10
-6.29140048825
 20
17.109429426
 11
-6.2050029607
 21
16.9827623476
  0
LINE
 10
-6.2050029607
 20
16.9827623476
 11
-6.10804570077
 21
16.8485227025
  0
LINE
 10
-6.10804570077
 20
16.8485227025
 11
-6.00006345861
 21
16.7071945199
  0
LINE
 10
-6.00006345861
 20
16.7071945199
 11
-5.88060958547
 21
16.5592812496
  0
LINE
 10
-5.88060958547
 20
16.5592812496
 11
-5.74925673829
 21
16.4053051066
  0
LINE
 10
-5.74925673829
 20
16.4053051066
 11
-5.60559756227
 21
16.2458063912
  0
LINE
 10
-5.60559756227
 20
16.2458063912
 11
-5.44924535078
 21
16.0813427866
  0
LINE
 10
-5.44924535078
 20
16.0813427866
 11
-4.76011881838
 21
16.2986235477
  0
LINE
 10
-4.76011881838
 20
16.2986235477
 11
-4.72637503293
 21
16.5230241899
  0
LINE
 10
-4.72637503293
 20
16.5230241899
 11
-4.70018102996
 21
16.7360774068
  0
LINE
 10
-4.70018102996
 20
16.7360774068
 11
-4.68090016406
 21
16.9375481771
  0
LINE
 10
-4.68090016406
 20
16.9375481771
 11
-4.66788884615
 21
17.1272275618
  0
LINE
 10
-4.66788884615
 20
17.1272275618
 11
-4.6604974871
 21
17.3049329011
  0
LINE
 10
-4.6604974871
 20
17.3049329011
 11
-4.65807144665
 21
17.4705079804
  0
LINE
 10
-4.65807144665
 20
17.4705079804
 11
-4.65995198677
 21
17.6238231626
  0
LINE
 10
-4.65995198677
 20
17.6238231626
 11
-4.6654772283
 21
17.7647754894
  0
LINE
 10
-4.6654772283
 20
17.7647754894
 11
-4.67398310991
 21
17.8932887499
  0
LINE
 10
-4.67398310991
 20
17.8932887499
 11
-4.68480434828
 21
18.0093135171
  0
LINE
 10
-4.68480434828
 20
18.0093135171
 11
-4.69727539856
 21
18.112827152
  0
LINE
 10
-4.69727539856
 20
18.112827152
 11
-4.71073141389
 21
18.2038337753
  0
LINE
 10
-4.71073141389
 20
18.2038337753
 11
-4.7245092031
 21
18.2823642071
  0
LINE
 10
-4.7245092031
 20
18.2823642071
 11
-4.73794818549
 21
18.3484758743
  0
LINE
 10
-4.73794818549
 20
18.3484758743
 11
-4.75039134165
 21
18.4022526862
  0
LINE
 10
-4.75039134165
 20
18.4022526862
 11
-4.76118615923
 21
18.4438048775
  0
LINE
 10
-4.76118615923
 20
18.4438048775
 11
-4.76968557285
 21
18.4732688208
  0
LINE
 10
-4.76968557285
 20
18.4732688208
 11
-4.77524889679
 21
18.4908068067
  0
LINE
 10
-4.77524889679
 20
18.4908068067
 11
-4.77724274979
 21
18.4966067926
  0
LINE
 10
-4.77724274979
 20
18.4966067926
 11
-4.83349383626
 21
18.6511553825
  0
LINE
 10
-4.83349383626
 20
18.6511553825
 11
-3.50168576482
 21
18.9464101236
  0
LINE
 10
-3.50168576482
 20
18.9464101236
 11
-3.4873515061
 21
18.7825687967
  0
LINE
 10
-3.4873515061
 20
18.7825687967
 11
-3.48670737061
 21
18.7764695856
  0
LINE
 10
-3.48670737061
 20
18.7764695856
 11
-3.48433758133
 21
18.7582236102
  0
LINE
 10
-3.48433758133
 20
18.7582236102
 11
-3.47958866556
 21
18.7279282015
  0
LINE
 10
-3.47958866556
 20
18.7279282015
 11
-3.47181137794
 21
18.6857070399
  0
LINE
 10
-3.47181137794
 20
18.6857070399
 11
-3.46036164452
 21
18.6317099915
  0
LINE
 10
-3.46036164452
 20
18.6317099915
 11
-3.44460150102
 21
18.5661129133
  0
LINE
 10
-3.44460150102
 20
18.5661129133
 11
-3.42390002409
 21
18.4891174261
  0
LINE
 10
-3.42390002409
 20
18.4891174261
 11
-3.39763425462
 21
18.400950657
  0
LINE
 10
-3.39763425462
 20
18.400950657
 11
-3.36519011216
 21
18.30186495
  0
LINE
 10
-3.36519011216
 20
18.30186495
 11
-3.32596329932
 21
18.192137547
  0
LINE
 10
-3.32596329932
 20
18.192137547
 11
-3.27936019529
 21
18.0720702374
  0
LINE
 10
-3.27936019529
 20
18.0720702374
 11
-3.22479873739
 21
17.9419889781
  0
LINE
 10
-3.22479873739
 20
17.9419889781
 11
-3.16170928975
 21
17.802243484
  0
LINE
 10
-3.16170928975
 20
17.802243484
 11
-3.0895354982
 21
17.6532067893
  0
LINE
 10
-3.0895354982
 20
17.6532067893
 11
-3.0077351303
 21
17.4952747797
  0
LINE
 10
-3.0077351303
 20
17.4952747797
 11
-2.91578089975
 21
17.328865697
  0
LINE
 10
-2.91578089975
 20
17.328865697
 11
-2.8131612741
 21
17.154419615
  0
LINE
 10
-2.8131612741
 20
17.154419615
 11
-2.69938126502
 21
16.9723978894
  0
LINE
 10
-2.69938126502
 20
16.9723978894
 11
-2.57396320018
 21
16.78328258
  0
LINE
 10
-2.57396320018
 20
16.78328258
 11
-1.85757564006
 21
16.8775967915
  0
LINE
 10
-1.85757564006
 20
16.8775967915
 11
-1.78537773595
 21
17.0927287368
  0
LINE
 10
-1.78537773595
 20
17.0927287368
 11
-1.72258537588
 21
17.2979966558
  0
LINE
 10
-1.72258537588
 20
17.2979966558
 11
-1.66861239753
 21
17.4930585452
  0
LINE
 10
-1.66861239753
 20
17.4930585452
 11
-1.6228612713
 21
17.6775968821
  0
LINE
 10
-1.6228612713
 20
17.6775968821
 11
-1.58472399525
 21
17.8513189821
  0
LINE
 10
-1.58472399525
 20
17.8513189821
 11
-1.55358300103
 21
18.0139573264
  0
LINE
 10
-1.55358300103
 20
18.0139573264
 11
-1.52881206952
 21
18.1652698588
  0
LINE
 10
-1.52881206952
 20
18.1652698588
 11
-1.50977725554
 21
18.3050402511
  0
LINE
 10
-1.50977725554
 20
18.3050402511
 11
-1.49583782019
 21
18.4330781373
  0
LINE
 10
-1.49583782019
 20
18.4330781373
 11
-1.48634717025
 21
18.5492193159
  0
LINE
 10
-1.48634717025
 20
18.5492193159
 11
-1.48065380319
 21
18.6533259212
  0
LINE
 10
-1.48065380319
 20
18.6533259212
 11
-1.47810225712
 21
18.745286562
  0
LINE
 10
-1.47810225712
 20
18.745286562
 11
-1.47803406438
 21
18.825016428
  0
LINE
 10
-1.47803406438
 20
18.825016428
 11
-1.4797887079
 21
18.8924573653
  0
LINE
 10
-1.4797887079
 20
18.8924573653
 11
-1.48270457917
 21
18.9475779179
  0
LINE
 10
-1.48270457917
 20
18.9475779179
 11
-1.48611993693
 21
18.9903733385
  0
LINE
 10
-1.48611993693
 20
18.9903733385
 11
-1.48937386529
 21
19.020865566
  0
LINE
 10
-1.48937386529
 20
19.020865566
 11
-1.49180723056
 21
19.0391031715
  0
LINE
 10
-1.49180723056
 20
19.0391031715
 11
-1.49276363545
 21
19.0451612716
  0
LINE
 10
-1.49276363545
 20
19.0451612716
 11
-1.52132306053
 21
19.2071298198
  0
LINE
 10
-1.52132306053
 20
19.2071298198
 11
-0.158477698509
 21
19.2666329333
  0
LINE
 10
-0.158477698509
 20
19.2666329333
 11
-0.17281195723
 21
19.1027916064
  0
LINE
 10
-0.17281195723
 20
19.1027916064
 11
-0.173236724502
 21
19.0966732031
  0
LINE
 10
-0.173236724502
 20
19.0966732031
 11
-0.174071318029
 21
19.0782929154
  0
LINE
 10
-0.174071318029
 20
19.0782929154
 11
-0.174655291474
 21
19.0476331215
  0
LINE
 10
-0.174655291474
 20
19.0476331215
 11
-0.174327786095
 21
19.0047028824
  0
LINE
 10
-0.174327786095
 20
19.0047028824
 11
-0.172428488898
 21
18.9495379452
  0
LINE
 10
-0.172428488898
 20
18.9495379452
 11
-0.168298590486
 21
18.8822007138
  0
LINE
 10
-0.168298590486
 20
18.8822007138
 11
-0.161281741542
 21
18.8027801873
  0
LINE
 10
-0.161281741542
 20
18.8027801873
 11
-0.150725006927
 21
18.7113918665
  0
LINE
 10
-0.150725006927
 20
18.7113918665
 11
-0.135979816337
 21
18.6081776278
  0
LINE
 10
-0.135979816337
 20
18.6081776278
 11
-0.116402910496
 21
18.4933055661
  0
LINE
 10
-0.116402910496
 20
18.4933055661
 11
-0.0913572818467
 21
18.3669698046
  0
LINE
 10
-0.0913572818467
 20
18.3669698046
 11
-0.0602131087165
 21
18.2293902742
  0
LINE
 10
-0.0602131087165
 20
18.2293902742
 11
-0.0223486819351
 21
18.0808124605
  0
LINE
 10
-0.0223486819351
 20
18.0808124605
 11
0.0228486771049
 21
17.9215071207
  0
LINE
 10
0.0228486771049
 20
17.9215071207
 11
0.0759817079516
 21
17.7517699684
  0
LINE
 10
0.0759817079516
 20
17.7517699684
 11
0.137642313155
 21
17.571921329
  0
LINE
 10
0.137642313155
 20
17.571921329
 11
0.208410671875
 21
17.382305764
  0
LINE
 10
0.208410671875
 20
17.382305764
 11
0.288854366004
 21
17.1832916662
  0
LINE
 10
0.288854366004
 20
17.1832916662
 11
0.379527519773
 21
16.9752708248
  0
LINE
 10
0.379527519773
 20
16.9752708248
 11
1.1014090341
 21
16.9437527972
  0
LINE
 10
1.1014090341
 20
16.9437527972
 11
1.20986736008
 21
17.1430793705
  0
LINE
 10
1.20986736008
 20
17.1430793705
 11
1.30735016318
 21
17.3343250296
  0
LINE
 10
1.30735016318
 20
17.3343250296
 11
1.39437531233
 21
17.5170511813
  0
LINE
 10
1.39437531233
 20
17.5170511813
 11
1.47147612207
 21
17.6908413665
  0
LINE
 10
1.47147612207
 20
17.6908413665
 11
1.53920053327
 21
17.8553017689
  0
LINE
 10
1.53920053327
 20
17.8553017689
 11
1.59811027793
 21
18.0100616944
  0
LINE
 10
1.59811027793
 20
18.0100616944
 11
1.64878002884
 21
18.1547740224
  0
LINE
 10
1.64878002884
 20
18.1547740224
 11
1.69179653515
 21
18.2891156276
  0
LINE
 10
1.69179653515
 20
18.2891156276
 11
1.72775774475
 21
18.412787773
  0
LINE
 10
1.72775774475
 20
18.412787773
 11
1.75727191442
 21
18.5255164721
  0
LINE
 10
1.75727191442
 20
18.5255164721
 11
1.78095670873
 21
18.6270528214
  0
LINE
 10
1.78095670873
 20
18.6270528214
 11
1.79943828877
 21
18.717173302
  0
LINE
 10
1.79943828877
 20
18.717173302
 11
1.81335039146
 21
18.7956800507
  0
LINE
 10
1.81335039146
 20
18.7956800507
 11
1.82333340078
 21
18.8624010993
  0
LINE
 10
1.82333340078
 20
18.8624010993
 11
1.83003341165
 21
18.9171905826
  0
LINE
 10
1.83003341165
 20
18.9171905826
 11
1.83410128765
 21
18.9599289152
  0
LINE
 10
1.83410128765
 20
18.9599289152
 11
1.83619171351
 21
18.990522936
  0
LINE
 10
1.83619171351
 20
18.990522936
 11
1.83696224349
 21
19.0089060207
  0
LINE
 10
1.83696224349
 20
19.0089060207
 11
1.83707234657
 21
19.0150381626
  0
LINE
 10
1.83707234657
 20
19.0150381626
 11
1.83707234657
 21
19.1795053367
  0
LINE
 10
1.83707234657
 20
19.1795053367
 11
3.18954563248
 21
19.0014488507
  0
LINE
 10
3.18954563248
 20
19.0014488507
 11
3.14697839551
 21
18.8425857596
  0
LINE
 10
3.14697839551
 20
18.8425857596
 11
3.14549763182
 21
18.8366340686
  0
LINE
 10
3.14549763182
 20
18.8366340686
 11
3.14148401418
 21
18.8186779445
  0
LINE
 10
3.14148401418
 20
18.8186779445
 11
3.13558489527
 21
18.7885853477
  0
LINE
 10
3.13558489527
 20
18.7885853477
 11
3.12845266732
 21
18.7462504446
  0
LINE
 10
3.12845266732
 20
18.7462504446
 11
3.12074381911
 21
18.6915937773
  0
LINE
 10
3.12074381911
 20
18.6915937773
 11
3.11311798756
 21
18.6245624004
  0
LINE
 10
3.11311798756
 20
18.6245624004
 11
3.10623700511
 21
18.5451299872
  0
LINE
 10
3.10623700511
 20
18.5451299872
 11
3.10076394383
 21
18.4532969025
  0
LINE
 10
3.10076394383
 20
18.4532969025
 11
3.09736215739
 21
18.3490902446
  0
LINE
 10
3.09736215739
 20
18.3490902446
 11
3.09669432186
 21
18.2325638536
  0
LINE
 10
3.09669432186
 20
18.2325638536
 11
3.09942147638
 21
18.1037982884
  0
LINE
 10
3.09942147638
 20
18.1037982884
 11
3.10620206479
 21
17.9629007713
  0
LINE
 10
3.10620206479
 20
17.9629007713
 11
3.11769097927
 21
17.8100050998
  0
LINE
 10
3.11769097927
 20
17.8100050998
 11
3.13453860692
 21
17.645271527
  0
LINE
 10
3.13453860692
 20
17.645271527
 11
3.15738988046
 21
17.4688866095
  0
LINE
 10
3.15738988046
 20
17.4688866095
 11
3.18688333403
 21
17.2810630233
  0
LINE
 10
3.18688333403
 20
17.2810630233
 11
3.22365016504
 21
17.0820393483
  0
LINE
 10
3.22365016504
 20
17.0820393483
 11
3.26831330329
 21
16.8720798209
  0
LINE
 10
3.26831330329
 20
16.8720798209
 11
3.32148648809
 21
16.6514740556
  0
LINE
 10
3.32148648809
 20
16.6514740556
 11
4.0269279521
 21
16.4950814482
  0
LINE
 10
4.0269279521
 20
16.4950814482
 11
4.16835124861
 21
16.6725462122
  0
LINE
 10
4.16835124861
 20
16.6725462122
 11
4.29756252909
 21
16.843958709
  0
LINE
 10
4.29756252909
 20
16.843958709
 11
4.41499563392
 21
17.0087970813
  0
LINE
 10
4.41499563392
 20
17.0087970813
 11
4.52110345807
 21
17.166558588
  0
LINE
 10
4.52110345807
 20
17.166558588
 11
4.61635723247
 21
17.3167602467
  0
LINE
 10
4.61635723247
 20
17.3167602467
 11
4.70124578478
 21
17.4589394514
  0
LINE
 10
4.70124578478
 20
17.4589394514
 11
4.77627478036
 21
17.592654564
  0
LINE
 10
4.77627478036
 20
17.592654564
 11
4.84196594421
 21
17.7174854805
  0
LINE
 10
4.84196594421
 20
17.7174854805
 11
4.89885626491
 21
17.8330341696
  0
LINE
 10
4.89885626491
 20
17.8330341696
 11
4.94749718119
 21
17.9389251847
  0
LINE
 10
4.94749718119
 20
17.9389251847
 11
4.98845375228
 21
18.0348061473
  0
LINE
 10
4.98845375228
 20
18.0348061473
 11
5.02230381282
 21
18.1203482026
  0
LINE
 10
5.02230381282
 20
18.1203482026
 11
5.04963711326
 21
18.1952464461
  0
LINE
 10
5.04963711326
 20
18.1952464461
 11
5.07105444672
 21
18.2592203207
  0
LINE
 10
5.07105444672
 20
18.2592203207
 11
5.0871667633
 21
18.3120139839
  0
LINE
 10
5.0871667633
 20
18.3120139839
 11
5.0985942727
 21
18.353396646
  0
LINE
 10
5.0985942727
 20
18.353396646
 11
5.10596553625
 21
18.3831628762
  0
LINE
 10
5.10596553625
 20
18.3831628762
 11
5.10991654931
 21
18.4011328794
  0
LINE
 10
5.10991654931
 20
18.4011328794
 11
5.11108981495
 21
18.4071527411
  0
LINE
 10
5.11108981495
 20
18.4071527411
 11
5.13964924002
 21
18.5691212893
  0
LINE
 10
5.13964924002
 20
18.5691212893
 11
6.44065623341
 21
18.15891536
  0
LINE
 10
6.44065623341
 20
18.15891536
 11
6.37114940216
 21
18.0098574794
  0
LINE
 10
6.37114940216
 20
18.0098574794
 11
6.36865763429
 21
18.0042533398
  0
LINE
 10
6.36865763429
 20
18.0042533398
 11
6.36158694429
 21
17.9872669669
  0
LINE
 10
6.36158694429
 20
17.9872669669
 11
6.35055192165
 21
17.9586559155
  0
LINE
 10
6.35055192165
 20
17.9586559155
 11
6.3361766695
 21
17.9182026732
  0
LINE
 10
6.3361766695
 20
17.9182026732
 11
6.31909390534
 21
17.8657149909
  0
LINE
 10
6.31909390534
 20
17.8657149909
 11
6.29994405087
 21
17.801026183
  0
LINE
 10
6.29994405087
 20
17.801026183
 11
6.27937431219
 21
17.7239953966
  0
LINE
 10
6.27937431219
 20
17.7239953966
 11
6.25803775121
 21
17.63450785
  0
LINE
 10
6.25803775121
 20
17.63450785
 11
6.23659234931
 21
17.5324750394
  0
LINE
 10
6.23659234931
 20
17.5324750394
 11
6.21570006425
 21
17.4178349145
  0
LINE
 10
6.21570006425
 20
17.4178349145
 11
6.19602588143
 21
17.2905520222
  0
LINE
 10
6.19602588143
 20
17.2905520222
 11
6.17823686038
 21
17.1506176181
  0
LINE
 10
6.17823686038
 20
17.1506176181
 11
6.1630011777
 21
16.9980497464
  0
LINE
 10
6.1630011777
 20
16.9980497464
 11
6.15098716731
 21
16.8328932869
  0
LINE
 10
6.15098716731
 20
16.8328932869
 11
6.14286235917
 21
16.6552199706
  0
LINE
 10
6.14286235917
 20
16.6552199706
 11
6.13929251743
 21
16.4651283622
  0
LINE
 10
6.13929251743
 20
16.4651283622
 11
6.1409406792
 21
16.2627438108
  0
LINE
 10
6.1409406792
 20
16.2627438108
 11
6.1484661947
 21
16.0482183679
  0
LINE
 10
6.1484661947
 20
16.0482183679
 11
6.16252377022
 21
15.8217306732
  0
LINE
 10
6.16252377022
 20
15.8217306732
 11
6.830090702
 21
15.5452153963
  0
LINE
 10
6.830090702
 20
15.5452153963
 11
7.00018189373
 21
15.6954261741
  0
LINE
 10
7.00018189373
 20
15.6954261741
 11
7.15719563221
 21
15.8417972265
  0
LINE
 10
7.15719563221
 20
15.8417972265
 11
7.30146854727
 21
15.9837392888
  0
LINE
 10
7.30146854727
 20
15.9837392888
 11
7.43335935329
 21
16.1206786134
  0
LINE
 10
7.43335935329
 20
16.1206786134
 11
7.55324825315
 21
16.2520577271
  0
LINE
 10
7.55324825315
 20
16.2520577271
 11
7.6615363174
 21
16.3773361678
  0
LINE
 10
7.6615363174
 20
16.3773361678
 11
7.75864483958
 21
16.4959911991
  0
LINE
 10
7.75864483958
 20
16.4959911991
 11
7.84501466821
 21
16.6075185025
  0
LINE
 10
7.84501466821
 20
16.6075185025
 11
7.9211055164
 21
16.7114328469
  0
LINE
 10
7.9211055164
 20
16.7114328469
 11
7.98739524966
 21
16.807268733
  0
LINE
 10
7.98739524966
 20
16.807268733
 11
8.04437915283
 21
16.8945810144
  0
LINE
 10
8.04437915283
 20
16.8945810144
 11
8.09256917692
 21
16.9729454924
  0
LINE
 10
8.09256917692
 20
16.9729454924
 11
8.13249316661
 21
17.0419594855
  0
LINE
 10
8.13249316661
 20
17.0419594855
 11
8.16469406938
 21
17.1012423722
  0
LINE
 10
8.16469406938
 20
17.1012423722
 11
8.18972912708
 21
17.1504361067
  0
LINE
 10
8.18972912708
 20
17.1504361067
 11
8.20816905079
 21
17.1892057069
  0
LINE
 10
8.20816905079
 20
17.1892057069
 11
8.22059717992
 21
17.2172397148
  0
LINE
 10
8.22059717992
 20
17.2172397148
 11
8.22760862653
 21
17.2342506271
  0
LINE
 10
8.22760862653
 20
17.2342506271
 11
8.22980940563
 21
17.2399752981
  0
LINE
 10
8.22980940563
 20
17.2399752981
 11
8.28606049211
 21
17.394523888
  0
LINE
 10
8.28606049211
 20
17.394523888
 11
9.49607075382
 21
16.7646324149
  0
LINE
 10
9.49607075382
 20
16.7646324149
 11
9.40173625818
 21
16.629908793
  0
LINE
 10
9.40173625818
 20
16.629908793
 11
9.39830919725
 21
16.6248224839
  0
LINE
 10
9.39830919725
 20
16.6248224839
 11
9.38839627422
 21
16.6093219846
  0
LINE
 10
9.38839627422
 20
16.6093219846
 11
9.37256064142
 21
16.5830618109
  0
LINE
 10
9.37256064142
 20
16.5830618109
 11
9.35137914985
 21
16.5457193806
  0
LINE
 10
9.35137914985
 20
16.5457193806
 11
9.32544152087
 21
16.496995495
  0
LINE
 10
9.32544152087
 20
16.496995495
 11
9.29534950211
 21
16.4366147927
  0
LINE
 10
9.29534950211
 20
16.4366147927
 11
9.26171600831
 21
16.3643261748
  0
LINE
 10
9.26171600831
 20
16.3643261748
 11
9.22516424825
 21
16.2799032
  0
LINE
 10
9.22516424825
 20
16.2799032
 11
9.18632683856
 21
16.183144452
  0
LINE
 10
9.18632683856
 20
16.183144452
 11
9.14584490549
 21
16.0738738754
  0
LINE
 10
9.14584490549
 20
16.0738738754
 11
9.10436717541
 21
15.9519410823
  0
LINE
 10
9.10436717541
 20
15.9519410823
 11
9.0625490553
 21
15.8172216273
  0
LINE
 10
9.0625490553
 20
15.8172216273
 11
9.02105170397
 21
15.6696172529
  0
LINE
 10
9.02105170397
 20
15.6696172529
 11
8.98054109518
 21
15.5090561021
  0
LINE
 10
8.98054109518
 20
15.5090561021
 11
8.94168707353
 21
15.3354929008
  0
LINE
 10
8.94168707353
 20
15.3354929008
 11
8.90516240433
 21
15.1489091076
  0
LINE
 10
8.90516240433
 20
15.1489091076
 11
8.87164181827
 21
14.9493130321
  0
LINE
 10
8.87164181827
 20
14.9493130321
 11
8.84180105206
 21
14.7367399206
  0
LINE
 10
8.84180105206
 20
14.7367399206
 11
8.81631588597
 21
14.5112520105
  0
LINE
 10
8.81631588597
 20
14.5112520105
 11
9.42572460211
 21
14.1230158408
  0
LINE
 10
9.42572460211
 20
14.1230158408
 11
9.61931555427
 21
14.2414085539
  0
LINE
 10
9.61931555427
 20
14.2414085539
 11
9.79936096777
 21
14.3582907515
  0
LINE
 10
9.79936096777
 20
14.3582907515
 11
9.96609003353
 21
14.4730236662
  0
LINE
 10
9.96609003353
 20
14.4730236662
 11
10.119756386
 21
14.5849799767
  0
LINE
 10
10.119756386
 20
14.5849799767
 11
10.2606376478
 21
14.6935446575
  0
LINE
 10
10.2606376478
 20
14.6935446575
 11
10.3890349459
 21
14.7981158121
  0
LINE
 10
10.3890349459
 20
14.7981158121
 11
10.5052724014
 21
14.8981054889
  0
LINE
 10
10.5052724014
 20
14.8981054889
 11
10.6096965913
 21
14.9929404787
  0
LINE
 10
10.6096965913
 20
14.9929404787
 11
10.7026759851
 21
15.0820630936
  0
LINE
 10
10.7026759851
 20
15.0820630936
 11
10.7846003553
 21
15.1649319259
  0
LINE
 10
10.7846003553
 20
15.1649319259
 11
10.8558801635
 21
15.2410225866
  0
LINE
 10
10.8558801635
 20
15.2410225866
 11
10.9169459216
 21
15.3098284222
  0
LINE
 10
10.9169459216
 20
15.3098284222
 11
10.9682475303
 21
15.3708612096
  0
LINE
 10
10.9682475303
 20
15.3708612096
 11
11.0102535943
 21
15.4236518279
  0
LINE
 10
11.0102535943
 20
15.4236518279
 11
11.0434507155
 21
15.4677509069
  0
LINE
 10
11.0434507155
 20
15.4677509069
 11
11.0683427658
 21
15.5027294507
  0
LINE
 10
11.0683427658
 20
15.5027294507
 11
11.0854501381
 21
15.5281794369
  0
LINE
 10
11.0854501381
 20
15.5281794369
 11
11.095308979
 21
15.5437143903
  0
LINE
 10
11.095308979
 20
15.5437143903
 11
11.098470402
 21
15.5489699294
  0
LINE
 10
11.098470402
 20
15.5489699294
 11
11.1807039891
 21
15.6914026803
  0
LINE
 10
11.1807039891
 20
15.6914026803
 11
12.2629519696
 21
14.8609645972
  0
LINE
 10
12.2629519696
 20
14.8609645972
 11
12.1466561155
 21
14.7446687431
  0
LINE
 10
12.1466561155
 20
14.7446687431
 11
12.142397891
 21
14.7402548093
  0
LINE
 10
12.142397891
 20
14.7402548093
 11
12.1299439341
 21
14.7267111585
  0
LINE
 10
12.1299439341
 20
14.7267111585
 11
12.1097888489
 21
14.7035997646
  0
LINE
 10
12.1097888489
 20
14.7035997646
 11
12.0824447067
 21
14.6705027771
  0
LINE
 10
12.0824447067
 20
14.6705027771
 11
12.0484403147
 21
14.6270231388
  0
LINE
 10
12.0484403147
 20
14.6270231388
 11
12.0083204624
 21
14.5727851793
  0
LINE
 10
12.0083204624
 20
14.5727851793
 11
11.9626451502
 21
14.5074351828
  0
LINE
 10
11.9626451502
 20
14.5074351828
 11
11.9119887978
 21
14.4306419292
  0
LINE
 10
11.9119887978
 20
14.4306419292
 11
11.8569394353
 21
14.3420972095
  0
LINE
 10
11.8569394353
 20
14.3420972095
 11
11.7980978773
 21
14.2415163124
  0
LINE
 10
11.7980978773
 20
14.2415163124
 11
11.7360768798
 21
14.1286384846
  0
LINE
 10
11.7360768798
 20
14.1286384846
 11
11.671500283
 21
14.0032273612
  0
LINE
 10
11.671500283
 20
14.0032273612
 11
11.6050021391
 21
13.8650713683
  0
LINE
 10
11.6050021391
 20
13.8650713683
 11
11.5372258262
 21
13.7139840956
  0
LINE
 10
11.5372258262
 20
13.7139840956
 11
11.4688231509
 21
13.5498046394
  0
LINE
 10
11.4688231509
 20
13.5498046394
 11
11.4004534378
 21
13.3723979155
  0
LINE
 10
11.4004534378
 20
13.3723979155
 11
11.33278261
 21
13.1816549415
  0
LINE
 10
11.33278261
 20
13.1816549415
 11
11.2664822586
 21
12.9774930879
  0
LINE
 10
11.2664822586
 20
12.9774930879
 11
11.2022287048
 21
12.7598562986
  0
LINE
 10
11.2022287048
 20
12.7598562986
 11
11.7349626298
 21
12.2716955956
  0
LINE
 10
11.7349626298
 20
12.2716955956
 11
11.9461711793
 21
12.3546729413
  0
LINE
 10
11.9461711793
 20
12.3546729413
 11
12.143777679
 21
12.4385148778
  0
LINE
 10
12.143777679
 20
12.4385148778
 11
12.3278969172
 21
12.5225525432
  0
LINE
 10
12.3278969172
 20
12.5225525432
 11
12.4986697418
 21
12.6061241037
  0
LINE
 10
12.4986697418
 20
12.6061241037
 11
12.6562627596
 21
12.6885756687
  0
LINE
 10
12.6562627596
 20
12.6885756687
 11
12.8008680048
 21
12.7692621957
  0
LINE
 10
12.8008680048
 20
12.7692621957
 11
12.9327025773
 21
12.8475483823
  0
LINE
 10
12.9327025773
 20
12.8475483823
 11
13.0520082522
 21
12.9228095452
  0
LINE
 10
13.0520082522
 20
12.9228095452
 11
13.1590510597
 21
12.994432485
  0
LINE
 10
13.1590510597
 20
12.994432485
 11
13.2541208364
 21
13.0618163359
  0
LINE
 10
13.2541208364
 20
13.0618163359
 11
13.3375307487
 21
13.1243733997
  0
LINE
 10
13.3375307487
 20
13.1243733997
 11
13.4096167887
 21
13.1815299625
  0
LINE
 10
13.4096167887
 20
13.1815299625
 11
13.470737243
 21
13.2327270939
  0
LINE
 10
13.470737243
 20
13.2327270939
 11
13.5212721352
 21
13.2774214276
  0
LINE
 10
13.5212721352
 20
13.2774214276
 11
13.5616226423
 21
13.3150859229
  0
LINE
 10
13.5616226423
 20
13.3150859229
 11
13.5922104867
 21
13.3452106048
  0
LINE
 10
13.5922104867
 20
13.3452106048
 11
13.6134773033
 21
13.3673032846
  0
LINE
 10
13.6134773033
 20
13.3673032846
 11
13.6258839826
 21
13.3808902573
  0
LINE
 10
13.6258839826
 20
13.3808902573
 11
13.6299099913
 21
13.3855169777
  0
LINE
 10
13.6299099913
 20
13.3855169777
 11
13.7356274531
 21
13.5115061425
  0
LINE
 10
13.7356274531
 20
13.5115061425
 11
14.6572295952
 21
12.5057538902
  0
LINE
 10
14.6572295952
 20
12.5057538902
 11
14.5225059733
 21
12.4114193946
  0
LINE
 10
14.5225059733
 20
12.4114193946
 11
14.5175459692
 21
12.4078119513
  0
LINE
 10
14.5175459692
 20
12.4078119513
 11
14.5029293856
 21
12.3966366659
  0
LINE
 10
14.5029293856
 20
12.3966366659
 11
14.47906725
 21
12.3773762798
  0
LINE
 10
14.47906725
 20
12.3773762798
 11
14.4463912952
 21
12.3495303704
  0
LINE
 10
14.4463912952
 20
12.3495303704
 11
14.4053533464
 21
12.3126160862
  0
LINE
 10
14.4053533464
 20
12.3126160862
 11
14.356424682
 21
12.2661688625
  0
LINE
 10
14.356424682
 20
12.2661688625
 11
14.3000953725
 21
12.2097431139
  0
LINE
 10
14.3000953725
 20
12.2097431139
 11
14.2368735954
 21
12.1429129057
  0
LINE
 10
14.2368735954
 20
12.1429129057
 11
14.1672849273
 21
12.0652726007
  0
LINE
 10
14.1672849273
 20
12.0652726007
 11
14.0918716152
 21
11.9764374828
  0
LINE
 10
14.0918716152
 20
11.9764374828
 11
14.0111918269
 21
11.876044356
  0
LINE
 10
14.0111918269
 20
11.876044356
 11
13.9258188808
 21
11.7637521177
  0
LINE
 10
13.9258188808
 20
11.7637521177
 11
13.8363404566
 21
11.6392423063
  0
LINE
 10
13.8363404566
 20
11.6392423063
 11
13.7433577887
 21
11.502219622
  0
LINE
 10
13.7433577887
 20
11.502219622
 11
13.6474848403
 21
11.3524124206
  0
LINE
 10
13.6474848403
 20
11.3524124206
 11
13.5493474625
 21
11.1895731795
  0
LINE
 10
13.5493474625
 20
11.1895731795
 11
13.4495825367
 21
11.0134789358
  0
LINE
 10
13.4495825367
 20
11.0134789358
 11
13.3488371029
 21
10.8239316947
  0
LINE
 10
13.3488371029
 20
10.8239316947
 11
13.247767473
 21
10.6207588097
  0
LINE
 10
13.247767473
 20
10.6207588097
 11
13.6876397562
 21
10.0475060895
  0
LINE
 10
13.6876397562
 20
10.0475060895
 11
13.9100484381
 21
10.0925468431
  0
LINE
 10
13.9100484381
 20
10.0925468431
 11
14.1192118506
 21
10.1408010236
  0
LINE
 10
14.1192118506
 20
10.1408010236
 11
14.3151268913
 21
10.1915899979
  0
LINE
 10
14.3151268913
 20
10.1915899979
 11
14.4978173421
 21
10.2442375288
  0
LINE
 10
14.4978173421
 20
10.2442375288
 11
14.6673337319
 21
10.2980707289
  0
LINE
 10
14.6673337319
 20
10.2980707289
 11
14.8237531668
 21
10.352421009
  0
LINE
 10
14.8237531668
 20
10.352421009
 11
14.9671791296
 21
10.4066250192
  0
LINE
 10
14.9671791296
 20
10.4066250192
 11
15.097741247
 21
10.4600255829
  0
LINE
 10
15.097741247
 20
10.4600255829
 11
15.2155950267
 21
10.5119726209
  0
LINE
 10
15.2155950267
 20
10.5119726209
 11
15.3209215628
 21
10.5618240662
  0
LINE
 10
15.3209215628
 20
10.5618240662
 11
15.4139272112
 21
10.6089467684
  0
LINE
 10
15.4139272112
 20
10.6089467684
 11
15.4948432353
 21
10.652717385
  0
LINE
 10
15.4948432353
 20
10.652717385
 11
15.5639254212
 21
10.6925232614
  0
LINE
 10
15.5639254212
 20
10.6925232614
 11
15.6214536643
 21
10.7277632959
  0
LINE
 10
15.6214536643
 20
10.7277632959
 11
15.6677315275
 21
10.7578487908
  0
LINE
 10
15.6677315275
 20
10.7578487908
 11
15.70308577
 21
10.7822042877
  0
LINE
 10
15.70308577
 20
10.7822042877
 11
15.7278658495
 21
10.8002683861
  0
LINE
 10
15.7278658495
 20
10.8002683861
 11
15.7424433965
 21
10.811494545
  0
LINE
 10
15.7424433965
 20
10.811494545
 11
15.7472116626
 21
10.8153518659
  0
LINE
 10
15.7472116626
 20
10.8153518659
 11
15.8732008275
 21
10.9210693277
  0
LINE
 10
15.8732008275
 20
10.9210693277
 11
16.6061547164
 21
9.7705621795
  0
LINE
 10
16.6061547164
 20
9.7705621795
 11
16.4570968358
 21
9.70105534825
  0
LINE
 10
16.4570968358
 20
9.70105534825
 11
16.4515857594
 21
9.69836400582
  0
LINE
 10
16.4515857594
 20
9.69836400582
 11
16.4352506666
 21
9.68989664119
  0
LINE
 10
16.4352506666
 20
9.68989664119
 11
16.4084065194
 21
9.67507248006
  0
LINE
 10
16.4084065194
 20
9.67507248006
 11
16.3713915945
 21
9.65332373253
  0
LINE
 10
16.3713915945
 20
9.65332373253
 11
16.3245670061
 21
9.62409642432
  0
LINE
 10
16.3245670061
 20
9.62409642432
 11
16.2683162023
 21
9.58685121168
  0
LINE
 10
16.2683162023
 20
9.58685121168
 11
16.2030444332
 21
9.541064179
  0
LINE
 10
16.2030444332
 20
9.541064179
 11
16.1291781931
 21
9.48622761822
  0
LINE
 10
16.1291781931
 20
9.48622761822
 11
16.0471646357
 21
9.42185078926
  0
LINE
 10
16.0471646357
 20
9.42185078926
 11
15.9574709649
 21
9.34746066062
  0
LINE
 10
15.9574709649
 20
9.34746066062
 11
15.8605838004
 21
9.26260262921
  0
LINE
 10
15.8605838004
 20
9.26260262921
 11
15.7570085186
 21
9.16684121888
  0
LINE
 10
15.7570085186
 20
9.16684121888
 11
15.6472685709
 21
9.05976075657
  0
LINE
 10
15.6472685709
 20
9.05976075657
 11
15.5319047792
 21
8.94096602554
  0
LINE
 10
15.5319047792
 20
8.94096602554
 11
15.4114746088
 21
8.81008289491
  0
LINE
 10
15.4114746088
 20
8.81008289491
 11
15.2865514208
 21
8.66675892467
  0
LINE
 10
15.2865514208
 20
8.66675892467
 11
15.1577237039
 21
8.51066394575
  0
LINE
 10
15.1577237039
 20
8.51066394575
 11
15.0255942866
 21
8.34149061415
  0
LINE
 10
15.0255942866
 20
8.34149061415
 11
14.8907795303
 21
8.15895493886
  0
LINE
 10
14.8907795303
 20
8.15895493886
 11
15.2244248749
 21
7.51802819513
  0
LINE
 10
15.2244248749
 20
7.51802819513
 11
15.4512759139
 21
7.52376381618
  0
LINE
 10
15.4512759139
 20
7.52376381618
 11
15.6656409147
 21
7.53496406186
  0
LINE
 10
15.6656409147
 20
7.53496406186
 11
15.8673989785
 21
7.55096114775
  0
LINE
 10
15.8673989785
 20
7.55096114775
 11
16.0564560987
 21
7.57108498047
  0
LINE
 10
16.0564560987
 20
7.57108498047
 11
16.2327451907
 21
7.59466412112
  0
LINE
 10
16.2327451907
 20
7.59466412112
 11
16.3962260901
 21
7.62102674847
  0
LINE
 10
16.3962260901
 20
7.62102674847
 11
16.5468855178
 21
7.64950162096
  0
LINE
 10
16.5468855178
 20
7.64950162096
 11
16.6847370138
 21
7.67941903633
  0
LINE
 10
16.6847370138
 20
7.67941903633
 11
16.8098208383
 21
7.71011178797
  0
LINE
 10
16.8098208383
 20
7.71011178797
 11
16.9222038403
 21
7.74091611681
  0
LINE
 10
16.9222038403
 20
7.74091611681
 11
17.0219792953
 21
7.77117265787
  0
LINE
 10
17.0219792953
 20
7.77117265787
 11
17.109266711
 21
7.80022738039
  0
LINE
 10
17.109266711
 20
7.80022738039
 11
17.1842116011
 21
7.8274325204
  0
LINE
 10
17.1842116011
 20
7.8274325204
 11
17.2469852287
 21
7.85214750499
  0
LINE
 10
17.2469852287
 20
7.85214750499
 11
17.2977843185
 21
7.87373986701
  0
LINE
 10
17.2977843185
 20
7.87373986701
 11
17.3368307383
 21
7.89158614937
  0
LINE
 10
17.3368307383
 20
7.89158614937
 11
17.3643711504
 21
7.90507279786
  0
LINE
 10
17.3643711504
 20
7.90507279786
 11
17.3806766338
 21
7.91359704169
  0
LINE
 10
17.3806766338
 20
7.91359704169
 11
17.386042276
 21
7.91656776057
  0
LINE
 10
17.386042276
 20
7.91656776057
 11
17.5284750269
 21
7.99880134765
  0
LINE
 10
17.5284750269
 20
7.99880134765
 11
18.0505102297
 21
6.73849688111
  0
LINE
 10
18.0505102297
 20
6.73849688111
 11
17.8916471386
 21
6.69592964414
  0
LINE
 10
17.8916471386
 20
6.69592964414
 11
17.8857524411
 21
6.69423617762
  0
LINE
 10
17.8857524411
 20
6.69423617762
 11
17.8681951727
 21
6.68873401038
  0
LINE
 10
17.8681951727
 20
6.68873401038
 11
17.8391846599
 21
6.6787964988
  0
LINE
 10
17.8391846599
 20
6.6787964988
 11
17.7989554444
 21
6.66380573788
  0
LINE
 10
17.7989554444
 20
6.66380573788
 11
17.7477669579
 21
6.6431534626
  0
LINE
 10
17.7477669579
 20
6.6431534626
 11
17.6859031669
 21
6.616241938
  0
LINE
 10
17.6859031669
 20
6.616241938
 11
17.6136721879
 21
6.58248483698
  0
LINE
 10
17.6136721879
 20
6.58248483698
 11
17.5314058731
 21
6.54130810477
  0
LINE
 10
17.5314058731
 20
6.54130810477
 11
17.4394593669
 21
6.49215080929
  0
LINE
 10
17.4394593669
 20
6.49215080929
 11
17.3382106343
 21
6.43446597632
  0
LINE
 10
17.3382106343
 20
6.43446597632
 11
17.228059961
 21
6.36772140864
  0
LINE
 10
17.228059961
 20
6.36772140864
 11
17.109429426
 21
6.29140048825
  0
LINE
 10
17.109429426
 20
6.29140048825
 11
16.9827623476
 21
6.2050029607
  0
LINE
 10
16.9827623476
 20
6.2050029607
 11
16.8485227025
 21
6.10804570077
  0
LINE
 10
16.8485227025
 20
6.10804570077
 11
16.7071945199
 21
6.00006345861
  0
LINE
 10
16.7071945199
 20
6.00006345861
 11
16.5592812496
 21
5.88060958547
  0
LINE
 10
16.5592812496
 20
5.88060958547
 11
16.4053051066
 21
5.74925673829
  0
LINE
 10
16.4053051066
 20
5.74925673829
 11
16.2458063912
 21
5.60559756227
  0
LINE
 10
16.2458063912
 20
5.60559756227
 11
16.0813427866
 21
5.44924535078
  0
LINE
 10
16.0813427866
 20
5.44924535078
 11
16.2986235477
 21
4.76011881838
  0
LINE
 10
16.2986235477
 20
4.76011881838
 11
16.5230241899
 21
4.72637503293
  0
LINE
 10
16.5230241899
 20
4.72637503293
 11
16.7360774068
 21
4.70018102996
  0
LINE
 10
16.7360774068
 20
4.70018102996
 11
16.9375481771
 21
4.68090016406
  0
LINE
 10
16.9375481771
 20
4.68090016406
 11
17.1272275618
 21
4.66788884615
  0
LINE
 10
17.1272275618
 20
4.66788884615
 11
17.3049329011
 21
4.6604974871
  0
LINE
 10
17.3049329011
 20
4.6604974871
 11
17.4705079804
 21
4.65807144665
  0
LINE
 10
17.4705079804
 20
4.65807144665
 11
17.6238231626
 21
4.65995198677
  0
LINE
 10
17.6238231626
 20
4.65995198677
 11
17.7647754894
 21
4.6654772283
  0
LINE
 10
17.7647754894
 20
4.6654772283
 11
17.8932887499
 21
4.67398310991
  0
LINE
 10
17.8932887499
 20
4.67398310991
 11
18.0093135171
 21
4.68480434828
  0
LINE
 10
18.0093135171
 20
4.68480434828
 11
18.112827152
 21
4.69727539856
  0
LINE
 10
18.112827152
 20
4.69727539856
 11
18.2038337753
 21
4.71073141389
  0
LINE
 10
18.2038337753
 20
4.71073141389
 11
18.2823642071
 21
4.7245092031
  0
LINE
 10
18.2823642071
 20
4.7245092031
 11
18.3484758743
 21
4.73794818549
  0
LINE
 10
18.3484758743
 20
4.73794818549
 11
18.4022526862
 21
4.75039134165
  0
LINE
 10
18.4022526862
 20
4.75039134165
 11
18.4438048775
 21
4.76118615923
  0
LINE
 10
18.4438048775
 20
4.76118615923
 11
18.4732688208
 21
4.76968557285
  0
LINE
 10
18.4732688208
 20
4.76968557285
 11
18.4908068067
 21
4.77524889679
  0
LINE
 10
18.4908068067
 20
4.77524889679
 11
18.4966067926
 21
4.77724274979
  0
LINE
 10
18.4966067926
 20
4.77724274979
 11
18.6511553825
 21
4.83349383626
  0
LINE
 10
18.6511553825
 20
4.83349383626
 11
18.9464101236
 21
3.50168576482
  0
LINE
 10
18.9464101236
 20
3.50168576482
 11
18.7825687967
 21
3.4873515061
  0
LINE
 10
18.7825687967
 20
3.4873515061
 11
18.7764695856
 21
3.48670737061
  0
LINE
 10
18.7764695856
 20
3.48670737061
 11
18.7582236102
 21
3.48433758133
  0
LINE
 10
18.7582236102
 20
3.48433758133
 11
18.7279282015
 21
3.47958866556
  0
LINE
 10
18.7279282015
 20
3.47958866556
 11
18.6857070399
 21
3.47181137794
  0
LINE
 10
18.6857070399
 20
3.47181137794
 11
18.6317099915
 21
3.46036164452
  0
LINE
 10
18.6317099915
 20
3.46036164452
 11
18.5661129133
 21
3.44460150102
  0
LINE
 10
18.5661129133
 20
3.44460150102
 11
18.4891174261
 21
3.42390002409
  0
LINE
 10
18.4891174261
 20
3.42390002409
 11
18.400950657
 21
3.39763425462
  0
LINE
 10
18.400950657
 20
3.39763425462
 11
18.30186495
 21
3.36519011216
  0
LINE
 10
18.30186495
 20
3.36519011216
 11
18.192137547
 21
3.32596329932
  0
LINE
 10
18.192137547
 20
3.32596329932
 11
18.0720702374
 21
3.27936019529
  0
LINE
 10
18.0720702374
 20
3.27936019529
 11
17.9419889781
 21
3.22479873739
  0
LINE
 10
17.9419889781
 20
3.22479873739
 11
17.802243484
 21
3.16170928975
  0
LINE
 10
17.802243484
 20
3.16170928975
 11
17.6532067893
 21
3.0895354982
  0
LINE
 10
17.6532067893
 20
3.0895354982
 11
17.4952747797
 21
3.0077351303
  0
LINE
 10
17.4952747797
 20
3.0077351303
 11
17.328865697
 21
2.91578089975
  0
LINE
 10
17.328865697
 20
2.91578089975
 11
17.154419615
 21
2.8131612741
  0
LINE
 10
17.154419615
 20
2.8131612741
 11
16.9723978894
 21
2.69938126502
  0
LINE
 10
16.9723978894
 20
2.69938126502
 11
16.78328258
 21
2.57396320018
  0
LINE
 10
16.78328258
 20
2.57396320018
 11
16.8775967915
 21
1.85757564006
  0
LINE
 10
16.8775967915
 20
1.85757564006
 11
17.0927287368
 21
1.78537773595
  0
LINE
 10
17.0927287368
 20
1.78537773595
 11
17.2979966558
 21
1.72258537588
  0
LINE
 10
17.2979966558
 20
1.72258537588
 11
17.4930585452
 21
1.66861239753
  0
LINE
 10
17.4930585452
 20
1.66861239753
 11
17.6775968821
 21
1.6228612713
  0
LINE
 10
17.6775968821
 20
1.6228612713
 11
17.8513189821
 21
1.58472399525
  0
LINE
 10
17.8513189821
 20
1.58472399525
 11
18.0139573264
 21
1.55358300103
  0
LINE
 10
18.0139573264
 20
1.55358300103
 11
18.1652698588
 21
1.52881206952
  0
LINE
 10
18.1652698588
 20
1.52881206952
 11
18.3050402511
 21
1.50977725554
  0
LINE
 10
18.3050402511
 20
1.50977725554
 11
18.4330781373
 21
1.49583782019
  0
LINE
 10
18.4330781373
 20
1.49583782019
 11
18.5492193159
 21
1.48634717025
  0
LINE
 10
18.5492193159
 20
1.48634717025
 11
18.6533259212
 21
1.48065380319
  0
LINE
 10
18.6533259212
 20
1.48065380319
 11
18.745286562
 21
1.47810225712
  0
LINE
 10
18.745286562
 20
1.47810225712
 11
18.825016428
 21
1.47803406438
  0
LINE
 10
18.825016428
 20
1.47803406438
 11
18.8924573653
 21
1.4797887079
  0
LINE
 10
18.8924573653
 20
1.4797887079
 11
18.9475779179
 21
1.48270457917
  0
LINE
 10
18.9475779179
 20
1.48270457917
 11
18.9903733385
 21
1.48611993693
  0
LINE
 10
18.9903733385
 20
1.48611993693
 11
19.020865566
 21
1.48937386529
  0
LINE
 10
19.020865566
 20
1.48937386529
 11
19.0391031715
 21
1.49180723056
  0
LINE
 10
19.0391031715
 20
1.49180723056
 11
19.0451612716
 21
1.49276363545
  0
LINE
 10
19.0451612716
 20
1.49276363545
 11
19.2071298198
 21
1.52132306053
  0
LINE
 10
19.2071298198
 20
1.52132306053
 11
19.2666329333
 21
0.158477698509
  0
LINE
 10
19.2666329333
 20
0.158477698509
 11
19.1027916064
 21
0.17281195723
  0
LINE
 10
19.1027916064
 20
0.17281195723
 11
19.0966732031
 21
0.173236724502
  0
LINE
 10
19.0966732031
 20
0.173236724502
 11
19.0782929154
 21
0.174071318029
  0
LINE
 10
19.0782929154
 20
0.174071318029
 11
19.0476331215
 21
0.174655291474
  0
LINE
 10
19.0476331215
 20
0.174655291474
 11
19.0047028824
 21
0.174327786095
  0
LINE
 10
19.0047028824
 20
0.174327786095
 11
18.9495379452
 21
0.172428488898
  0
LINE
 10
18.9495379452
 20
0.172428488898
 11
18.8822007138
 21
0.168298590486
  0
LINE
 10
18.8822007138
 20
0.168298590486
 11
18.8027801873
 21
0.161281741542
  0
LINE
 10
18.8027801873
 20
0.161281741542
 11
18.7113918665
 21
0.150725006927
  0
LINE
 10
18.7113918665
 20
0.150725006927
 11
18.6081776278
 21
0.135979816337
  0
LINE
 10
18.6081776278
 20
0.135979816337
 11
18.4933055661
 21
0.116402910496
  0
LINE
 10
18.4933055661
 20
0.116402910496
 11
18.3669698046
 21
0.0913572818467
  0
LINE
 10
18.3669698046
 20
0.0913572818467
 11
18.2293902742
 21
0.0602131087165
  0
LINE
 10
18.2293902742
 20
0.0602131087165
 11
18.0808124605
 21
0.0223486819351
  0
LINE
 10
18.0808124605
 20
0.0223486819351
 11
17.9215071207
 21
-0.0228486771049
  0
LINE
 10
17.9215071207
 20
-0.0228486771049
 11
17.7517699684
 21
-0.0759817079516
  0
LINE
 10
17.7517699684
 20
-0.0759817079516
 11
17.571921329
 21
-0.137642313155
  0
LINE
 10
17.571921329
 20
-0.137642313155
 11
17.382305764
 21
-0.208410671875
  0
LINE
 10
17.382305764
 20
-0.208410671875
 11
17.1832916662
 21
-0.288854366004
  0
LINE
 10
17.1832916662
 20
-0.288854366004
 11
16.9752708248
 21
-0.379527519773
  0
LINE
 10
16.9752708248
 20
-0.379527519773
 11
16.9437527972
 21
-1.1014090341
  0
LINE
 10
16.9437527972
 20
-1.1014090341
 11
17.1430793705
 21
-1.20986736008
  0
LINE
 10
17.1430793705
 20
-1.20986736008
 11
17.3343250296
 21
-1.30735016318
  0
LINE
 10
17.3343250296
 20
-1.30735016318
 11
17.5170511813
 21
-1.39437531233
  0
LINE
 10
17.5170511813
 20
-1.39437531233
 11
17.6908413665
 21
-1.47147612207
  0
LINE
 10
17.6908413665
 20
-1.47147612207
 11
17.8553017689
 21
-1.53920053327
  0
LINE
 10
17.8553017689
 20
-1.53920053327
 11
18.0100616944
 21
-1.59811027793
  0
LINE
 10
18.0100616944
 20
-1.59811027793
 11
18.1547740224
 21
-1.64878002884
  0
LINE
 10
18.1547740224
 20
-1.64878002884
 11
18.2891156276
 21
-1.69179653515
  0
LINE
 10
18.2891156276
 20
-1.69179653515
 11
18.412787773
 21
-1.72775774475
  0
LINE
 10
18.412787773
 20
-1.72775774475
 11
18.5255164721
 21
-1.75727191442
  0
LINE
 10
18.5255164721
 20
-1.75727191442
 11
18.6270528214
 21
-1.78095670873
  0
LINE
 10
18.6270528214
 20
-1.78095670873
 11
18.717173302
 21
-1.79943828877
  0
LINE
 10
18.717173302
 20
-1.79943828877
 11
18.7956800507
 21
-1.81335039146
  0
LINE
 10
18.7956800507
 20
-1.81335039146
 11
18.8624010993
 21
-1.82333340078
  0
LINE
 10
18.8624010993
 20
-1.82333340078
 11
18.9171905826
 21
-1.83003341165
  0
LINE
 10
18.9171905826
 20
-1.83003341165
 11
18.9599289152
 21
-1.83410128765
  0
LINE
 10
18.9599289152
 20
-1.83410128765
 11
18.990522936
 21
-1.83619171351
  0
LINE
 10
18.990522936
 20
-1.83619171351
 11
19.0089060207
 21
-1.83696224349
  0
LINE
 10
19.0089060207
 20
-1.83696224349
 11
19.0150381626
 21
-1.83707234657
  0
LINE
 10
19.0150381626
 20
-1.83707234657
 11
19.1795053367
 21
-1.83707234657
  0
LINE
 10
19.1795053367
 20
-1.83707234657
 11
19.0014488507
 21
-3.18954563248
  0
ENDSEC
  0
SECTION
  2
ENTITIES
  0
LINE
 10
-22.0
 20
-2.69422295812e-15
 11
-21.9693410271
 21
-1.16105763687
  0
LINE
 10
-21.9693410271
 20
-1.16105763687
 11
-21.8774495604
 21
-2.31887919786
  0
LINE
 10
-21.8774495604
 20
-2.31887919786
 11
-21.7245817178
 21
-3.47023762662
  0
LINE
 10
-21.7245817178
 20
-3.47023762662
 11
-21.5111635696
 21
-4.61192388071
  0
LINE
 10
-21.5111635696
 20
-4.61192388071
 11
-21.2377899503
 21
-5.74075587576
  0
LINE
 10
-21.2377899503
 20
-5.74075587576
 11
-20.9052228013
 21
-6.85358735453
  0
LINE
 10
-20.9052228013
 20
-6.85358735453
 11
-20.5143890469
 21
-7.94731665612
  0
LINE
 10
-20.5143890469
 20
-7.94731665612
 11
-20.0663780108
 21
-9.01889536077
  0
LINE
 10
-20.0663780108
 20
-9.01889536077
 11
-19.5624383801
 21
-10.0653367865
  0
LINE
 10
-19.5624383801
 20
-10.0653367865
 11
-19.003974725
 21
-11.0837243132
  0
LINE
 10
-19.003974725
 20
-11.0837243132
 11
-18.3925435838
 21
-12.0712195124
  0
LINE
 10
-18.3925435838
 20
-12.0712195124
 11
-17.7298491249
 21
-13.0250700577
  0
LINE
 10
-17.7298491249
 20
-13.0250700577
 11
-17.0177383965
 21
-13.9426173967
  0
LINE
 10
-17.0177383965
 20
-13.9426173967
 11
-16.2581961789
 21
-14.8213041602
  0
LINE
 10
-16.2581961789
 20
-14.8213041602
 11
-15.4533394525
 21
-15.6586812908
  0
LINE
 10
-15.4533394525
 20
-15.6586812908
 11
-14.6054114974
 21
-16.4524148681
  0
LINE
 10
-14.6054114974
 20
-16.4524148681
 11
-13.7167756409
 21
-17.2002926143
  0
LINE
 10
-13.7167756409
 20
-17.2002926143
 11
-12.7899086705
 21
-17.90023006
  0
LINE
 10
-12.7899086705
 20
-17.90023006
 11
-11.8273939306
 21
-18.550276354
  0
LINE
 10
-11.8273939306
 20
-18.550276354
 11
-10.8319141226
 21
-19.1486197007
  0
LINE
 10
-10.8319141226
 20
-19.1486197007
 11
-9.80624382708
 21
-19.6935924098
  0
LINE
 10
-9.80624382708
 20
-19.6935924098
 11
-8.75324177123
 21
-20.1836755447
  0
LINE
 10
-8.75324177123
 20
-20.1836755447
 11
-7.6758428606
 21
-20.6175031558
  0
LINE
 10
-7.6758428606
 20
-20.6175031558
 11
-6.57704999921
 21
-20.9938660877
  0
LINE
 10
-6.57704999921
 20
-20.9938660877
 11
-5.45992571982
 21
-21.3117153494
  0
LINE
 10
-5.45992571982
 20
-21.3117153494
 11
-4.32758364819
 21
-21.570165038
  0
LINE
 10
-4.32758364819
 20
-21.570165038
 11
-3.18317982474
 21
-21.7684948079
  0
LINE
 10
-3.18317982474
 20
-21.7684948079
 11
-2.02990390819
 21
-21.9061518785
  0
LINE
 10
-2.02990390819
 20
-21.9061518785
 11
-0.870970285378
 21
-21.9827525747
  0
LINE
 10
-0.870970285378
 20
-21.9827525747
 11
0.290390887837
 21
-21.9980833968
  0
LINE
 10
0.290390887837
 20
-21.9980833968
 11
1.45094268956
 21
-21.9521016149
  0
LINE
 10
1.45094268956
 20
-21.9521016149
 11
2.60745045378
 21
-21.8449353886
  0
LINE
 10
2.60745045378
 20
-21.8449353886
 11
3.75669078591
 21
-21.6768834093
  0
LINE
 10
3.75669078591
 20
-21.6768834093
 11
4.89546054704
 21
-21.448414068
  0
LINE
 10
4.89546054704
 20
-21.448414068
 11
6.02058578159
 21
-21.1601641498
  0
LINE
 10
6.02058578159
 20
-21.1601641498
 11
7.12893056373
 21
-20.8129370589
  0
LINE
 10
7.12893056373
 20
-20.8129370589
 11
8.21740573776
 21
-20.4077005795
  0
LINE
 10
8.21740573776
 20
-20.4077005795
 11
9.28297752816
 21
-19.9455841783
  0
LINE
 10
9.28297752816
 20
-19.9455841783
 11
10.3226759952
 21
-19.4278758566
  0
LINE
 10
10.3226759952
 20
-19.4278758566
 11
11.3336033128
 21
-18.8560185603
  0
LINE
 10
11.3336033128
 20
-18.8560185603
 11
12.3129418453
 21
-18.2316061584
  0
LINE
 10
12.3129418453
 20
-18.2316061584
 11
13.2579620003
 21
-17.5563790002
  0
LINE
 10
13.2579620003
 20
-17.5563790002
 11
14.1660298374
 21
-16.8322190648
  0
LINE
 10
14.1660298374
 20
-16.8322190648
 11
15.0346144086
 21
-16.0611447159
  0
LINE
 10
15.0346144086
 20
-16.0611447159
 11
15.8612948128
 21
-15.245305076
  0
LINE
 10
15.8612948128
 20
-15.245305076
 11
16.6437669436
 21
-14.3869740365
  0
LINE
 10
16.6437669436
 20
-14.3869740365
 11
17.3798499107
 21
-13.48854392
  0
LINE
 10
17.3798499107
 20
-13.48854392
 11
18.0674921189
 21
-12.5525188123
  0
LINE
 10
18.0674921189
 20
-12.5525188123
 11
18.7047769861
 21
-11.5815075833
  0
LINE
 10
18.7047769861
 20
-11.5815075833
 11
19.2899282849
 21
-10.5782166154
  0
LINE
 10
19.2899282849
 20
-10.5782166154
 11
19.8213150939
 21
-9.54544226059
  0
LINE
 10
19.8213150939
 20
-9.54544226059
 11
20.2974563425
 21
-8.48606304612
  0
LINE
 10
20.2974563425
 20
-8.48606304612
 11
20.7170249399
 21
-7.4030316519
  0
LINE
 10
20.7170249399
 20
-7.4030316519
 11
21.078851473
 21
-6.29936668069
  0
LINE
 10
21.078851473
 20
-6.29936668069
 11
21.3819274665
 21
-5.1781442447
  0
LINE
 10
21.3819274665
 20
-5.1781442447
 11
21.625408193
 21
-4.04248939196
  0
LINE
 10
21.625408193
 20
-4.04248939196
 11
21.8086150283
 21
-2.89556739625
  0
LINE
 10
21.8086150283
 20
-2.89556739625
 11
21.931037342
 21
-1.74057493486
  0
LINE
 10
21.931037342
 20
-1.74057493486
 11
21.9923339211
 21
-0.580731178936
  0
LINE
 10
21.9923339211
 20
-0.580731178936
 11
21.9923339211
 21
0.580731178936
  0
LINE
 10
21.9923339211
 20
0.580731178936
 11
21.931037342
 21
1.74057493486
  0
LINE
 10
21.931037342
 20
1.74057493486
 11
21.8086150283
 21
2.89556739625
  0
LINE
 10
21.8086150283
 20
2.89556739625
 11
21.625408193
 21
4.04248939196
  0
LINE
 10
21.625408193
 20
4.04248939196
 11
21.3819274665
 21
5.1781442447
  0
LINE
 10
21.3819274665
 20
5.1781442447
 11
21.078851473
 21
6.29936668069
  0
LINE
 10
21.078851473
 20
6.29936668069
 11
20.7170249399
 21
7.4030316519
  0
LINE
 10
20.7170249399
 20
7.4030316519
 11
20.2974563425
 21
8.48606304612
  0
LINE
 10
20.2974563425
 20
8.48606304612
 11
19.8213150939
 21
9.54544226059
  0
LINE
 10
19.8213150939
 20
9.54544226059
 11
19.2899282849
 21
10.5782166154
  0
LINE
 10
19.2899282849
 20
10.5782166154
 11
18.7047769861
 21
11.5815075833
  0
LINE
 10
18.7047769861
 20
11.5815075833
 11
18.0674921189
 21
12.5525188123
  0
LINE
 10
18.0674921189
 20
12.5525188123
 11
17.3798499107
 21
13.48854392
  0
LINE
 10
17.3798499107
 20
13.48854392
 11
16.6437669436
 21
14.3869740365
  0
LINE
 10
16.6437669436
 20
14.3869740365
 11
15.8612948128
 21
15.245305076
  0
LINE
 10
15.8612948128
 20
15.245305076
 11
15.0346144086
 21
16.0611447159
  0
LINE
 10
15.0346144086
 20
16.0611447159
 11
14.1660298374
 21
16.8322190648
  0
LINE
 10
14.1660298374
 20
16.8322190648
 11
13.2579620003
 21
17.5563790002
  0
LINE
 10
13.2579620003
 20
17.5563790002
 11
12.3129418453
 21
18.2316061584
  0
LINE
 10
12.3129418453
 20
18.2316061584
 11
11.3336033128
 21
18.8560185603
  0
LINE
 10
11.3336033128
 20
18.8560185603
 11
10.3226759952
 21
19.4278758566
  0
LINE
 10
10.3226759952
 20
19.4278758566
 11
9.28297752816
 21
19.9455841783
  0
LINE
 10
9.28297752816
 20
19.9455841783
 11
8.21740573776
 21
20.4077005795
  0
LINE
 10
8.21740573776
 20
20.4077005795
 11
7.12893056373
 21
20.8129370589
  0
LINE
 10
7.12893056373
 20
20.8129370589
 11
6.02058578159
 21
21.1601641498
  0
LINE
 10
6.02058578159
 20
21.1601641498
 11
4.89546054704
 21
21.448414068
  0
LINE
 10
4.89546054704
 20
21.448414068
 11
3.75669078591
 21
21.6768834093
  0
LINE
 10
3.75669078591
 20
21.6768834093
 11
2.60745045378
 21
21.8449353886
  0
LINE
 10
2.60745045378
 20
21.8449353886
 11
1.45094268956
 21
21.9521016149
  0
LINE
 10
1.45094268956
 20
21.9521016149
 11
0.290390887837
 21
21.9980833968
  0
LINE
 10
0.290390887837
 20
21.9980833968
 11
-0.870970285378
 21
21.9827525747
  0
LINE
 10
-0.870970285378
 20
21.9827525747
 11
-2.02990390819
 21
21.9061518785
  0
LINE
 10
-2.02990390819
 20
21.9061518785
 11
-3.18317982474
 21
21.7684948079
  0
LINE
 10
-3.18317982474
 20
21.7684948079
 11
-4.32758364819
 21
21.570165038
  0
LINE
 10
-4.32758364819
 20
21.570165038
 11
-5.45992571982
 21
21.3117153494
  0
LINE
 10
-5.45992571982
 20
21.3117153494
 11
-6.57704999921
 21
20.9938660877
  0
LINE
 10
-6.57704999921
 20
20.9938660877
 11
-7.6758428606
 21
20.6175031558
  0
LINE
 10
-7.6758428606
 20
20.6175031558
 11
-8.75324177123
 21
20.1836755447
  0
LINE
 10
-8.75324177123
 20
20.1836755447
 11
-9.80624382708
 21
19.6935924098
  0
LINE
 10
-9.80624382708
 20
19.6935924098
 11
-10.8319141226
 21
19.1486197007
  0
LINE
 10
-10.8319141226
 20
19.1486197007
 11
-11.8273939306
 21
18.550276354
  0
LINE
 10
-11.8273939306
 20
18.550276354
 11
-12.7899086705
 21
17.90023006
  0
LINE
 10
-12.7899086705
 20
17.90023006
 11
-13.7167756409
 21
17.2002926143
  0
LINE
 10
-13.7167756409
 20
17.2002926143
 11
-14.6054114974
 21
16.4524148681
  0
LINE
 10
-14.6054114974
 20
16.4524148681
 11
-15.4533394525
 21
15.6586812908
  0
LINE
 10
-15.4533394525
 20
15.6586812908
 11
-16.2581961789
 21
14.8213041602
  0
LINE
 10
-16.2581961789
 20
14.8213041602
 11
-17.0177383965
 21
13.9426173967
  0
LINE
 10
-17.0177383965
 20
13.9426173967
 11
-17.7298491249
 21
13.0250700577
  0
LINE
 10
-17.7298491249
 20
13.0250700577
 11
-18.3925435838
 21
12.0712195124
  0
LINE
 10
-18.3925435838
 20
12.0712195124
 11
-19.003974725
 21
11.0837243132
  0
LINE
 10
-19.003974725
 20
11.0837243132
 11
-19.5624383801
 21
10.0653367865
  0
LINE
 10
-19.5624383801
 20
10.0653367865
 11
-20.0663780108
 21
9.01889536077
  0
LINE
 10
-20.0663780108
 20
9.01889536077
 11
-20.5143890469
 21
7.94731665612
  0
LINE
 10
-20.5143890469
 20
7.94731665612
 11
-20.9052228013
 21
6.85358735453
  0
LINE
 10
-20.9052228013
 20
6.85358735453
 11
-21.2377899503
 21
5.74075587576
  0
LINE
 10
-21.2377899503
 20
5.74075587576
 11
-21.5111635696
 21
4.61192388071
  0
LINE
 10
-21.5111635696
 20
4.61192388071
 11
-21.7245817178
 21
3.47023762662
  0
LINE
 10
-21.7245817178
 20
3.47023762662
 11
-21.8774495604
 21
2.31887919786
  0
LINE
 10
-21.8774495604
 20
2.31887919786
 11
-21.9693410271
 21
1.16105763687
  0
LINE
 10
-21.9693410271
 20
1.16105763687
 11
-22.0
 21
2.69422295812e-15
  0
ENDSEC
  0
SECTION
  0
EOF
