  0
SECTION
  2
ENTITIES
  0
LWPOLYLINE
  100
AcDbPolyline
  90
  505
  70
0
 10
19.0014488507
 20
-3.18954563248
 30
0
 10
18.8425857596
 20
-3.14697839551
 30
0
 10
18.7557010047
 20
-3.12994630152
 30
0
 10
18.4915170817
 20
-3.1027417583
 30
0
 10
18.0488882173
 20
-3.10161053589
 30
0
 10
17.4322297227
 20
-3.16273688688
 30
0
 10
16.6514740556
 20
-3.32148648809
 30
0
 10
16.4950814482
 20
-4.0269279521
 30
0
 10
17.1355959086
 20
-4.50076555475
 30
0
 10
17.668645192
 20
-4.81677598372
 30
0
 10
18.0702812538
 20
-5.00281378932
 30
0
 10
18.3212103372
 20
-5.08980705027
 30
0
 10
18.4071527411
 20
-5.11108981495
 30
0
 10
18.5691212893
 20
-5.13964924002
 30
0
 10
18.15891536
 20
-6.44065623341
 30
0
 10
18.0098574794
 20
-6.37114940216
 30
0
 10
17.9272502912
 20
-6.33928868459
 30
0
 10
17.671803935
 20
-6.26662238271
 30
0
 10
17.2360960323
 20
-6.18864665042
 30
0
 10
16.6181914864
 20
-6.14176273096
 30
0
 10
15.8217306732
 20
-6.16252377022
 30
0
 10
15.5452153963
 20
-6.830090702
 30
0
 10
16.0937179666
 20
-7.40795381557
 30
0
 10
16.5637943985
 20
-7.81172637272
 30
0
 10
16.9270235802
 20
-8.06468121625
 30
0
 10
17.1590342657
 20
-8.19392623215
 30
0
 10
17.2399752981
 20
-8.22980940563
 30
0
 10
17.394523888
 20
-8.28606049211
 30
0
 10
16.7646324149
 20
-9.49607075382
 30
0
 10
16.629908793
 20
-9.40173625818
 30
0
 10
16.5540891492
 20
-9.35601498881
 30
0
 10
16.315141968
 20
-9.24009485709
 30
0
 10
15.8995937912
 20
-9.08764386808
 30
0
 10
15.2992179109
 20
-8.93417422234
 30
0
 10
14.5112520105
 20
-8.81631588597
 30
0
 10
14.1230158408
 20
-9.42572460211
 30
0
 10
14.562840548
 20
-10.0900551483
 30
0
 10
14.9556610939
 20
-10.5693214088
 30
0
 10
15.2694468605
 20
-10.8815073854
 30
0
 10
15.4754896209
 20
-11.0490771118
 30
0
 10
15.5489699294
 20
-11.098470402
 30
0
 10
15.6914026803
 20
-11.1807039891
 30
0
 10
14.8609645972
 20
-12.2629519696
 30
0
 10
14.7446687431
 20
-12.1466561155
 30
0
 10
14.6779403851
 20
-12.088463512
 30
0
 10
14.4627526681
 20
-11.9328117249
 30
0
 10
14.0799904383
 20
-11.7105176254
 30
0
 10
13.515385341
 20
-11.4551253509
 30
0
 10
12.7598562986
 20
-11.2022287048
 30
0
 10
12.2716955956
 20
-11.7349626298
 30
0
 10
12.5894785884
 20
-12.4655752612
 30
0
 10
12.8931075948
 20
-13.0057729622
 30
0
 10
13.1479157247
 20
-13.3677044589
 30
0
 10
13.321730055
 20
-13.5685073745
 30
0
 10
13.3855169777
 20
-13.6299099913
 30
0
 10
13.5115061425
 20
-13.7356274531
 30
0
 10
12.5057538902
 20
-14.6572295952
 30
0
 10
12.4114193946
 20
-14.5225059733
 30
0
 10
12.3558098299
 20
-14.4536101884
 30
0
 10
12.170919947
 20
-14.2629561468
 30
0
 10
11.8325737008
 20
-13.9775732304
 30
0
 10
11.3208946267
 20
-13.6280182922
 30
0
 10
10.6207588097
 20
-13.247767473
 30
0
 10
10.0475060895
 20
-13.6876397562
 30
0
 10
10.2335916926
 20
-14.4623351776
 30
0
 10
10.4388035458
 20
-15.0470506854
 30
0
 10
10.6268918227
 20
-15.4477305968
 30
0
 10
10.7631964624
 20
-15.6756654066
 30
0
 10
10.8153518659
 20
-15.7472116626
 30
0
 10
10.9210693277
 20
-15.8732008275
 30
0
 10
9.7705621795
 20
-16.6061547164
 30
0
 10
9.70105534825
 20
-16.4570968358
 30
0
 10
9.65825424528
 20
-16.3795912331
 30
0
 10
9.50927998207
 20
-16.1597278636
 30
0
 10
9.22563019896
 20
-15.8199273459
 30
0
 10
8.78242425773
 20
-15.3868307939
 30
0
 10
8.15895493886
 20
-14.8907795303
 30
0
 10
7.51802819513
 20
-15.2244248749
 30
0
 10
7.56676229164
 20
-16.019664358
 30
0
 10
7.66732173327
 20
-16.6311313877
 30
0
 10
7.78297519024
 20
-17.0583852574
 30
0
 10
7.87762859181
 20
-17.3065262776
 30
0
 10
7.91656776057
 20
-17.386042276
 30
0
 10
7.99880134765
 20
-17.5284750269
 30
0
 10
6.73849688111
 20
-18.0505102297
 30
0
 10
6.69592964414
 20
-17.8916471386
 30
0
 10
6.66723749276
 20
-17.8078866866
 30
0
 10
6.5587053568
 20
-17.5654944264
 30
0
 10
6.33837059192
 20
-17.1816009742
 30
0
 10
5.97710437183
 20
-16.6781222279
 30
0
 10
5.44924535078
 20
-16.0813427866
 30
0
 10
4.76011881838
 20
-16.2986235477
 30
0
 10
4.6700206474
 20
-17.0902441432
 30
0
 10
4.66287222975
 20
-17.7098835786
 30
0
 10
4.70257679496
 20
-18.150729514
 30
0
 10
4.75270296271
 20
-18.4115371052
 30
0
 10
4.77724274979
 20
-18.4966067926
 30
0
 10
4.83349383626
 20
-18.6511553825
 30
0
 10
3.50168576482
 20
-18.9464101236
 30
0
 10
3.4873515061
 20
-18.7825687967
 30
0
 10
3.47364010281
 20
-18.6950985145
 30
0
 10
3.40884778812
 20
-18.4375423297
 30
0
 10
3.25852280182
 20
-18.0212203512
 30
0
 10
2.99017319416
 20
-17.4626573576
 30
0
 10
2.57396320018
 20
-16.78328258
 30
0
 10
1.85757564006
 20
-16.8775967915
 30
0
 10
1.63138278894
 20
-17.6415455082
 30
0
 10
1.51674371305
 20
-18.2505299185
 30
0
 10
1.47929298338
 20
-18.691573039
 30
0
 10
1.48336885907
 20
-18.9571226946
 30
0
 10
1.49276363545
 20
-19.0451612716
 30
0
 10
1.52132306053
 20
-19.2071298198
 30
0
 10
0.158477698509
 20
-19.2666329333
 30
0
 10
0.17281195723
 20
-19.1027916064
 30
0
 10
0.174497916086
 20
-19.0142692341
 30
0
 10
0.15541410437
 20
-18.7493748392
 30
0
 10
0.0796664452791
 20
-18.313274067
 30
0
 10
-0.0876128829186
 20
-17.7165984801
 30
0
 10
-0.379527519773
 20
-16.9752708248
 30
0
 10
-1.1014090341
 20
-16.9437527972
 30
0
 10
-1.45682381004
 20
-17.65681744
 30
0
 10
-1.67547029386
 20
-18.2366431421
 30
0
 10
-1.78893839694
 20
-18.6644825756
 30
0
 10
-1.83103665673
 20
-18.9267057036
 30
0
 10
-1.83707234657
 20
-19.0150381626
 30
0
 10
-1.83707234657
 20
-19.1795053367
 30
0
 10
-3.18954563248
 20
-19.0014488507
 30
0
 10
-3.14697839551
 20
-18.8425857596
 30
0
 10
-3.12994630152
 20
-18.7557010047
 30
0
 10
-3.1027417583
 20
-18.4915170817
 30
0
 10
-3.10161053589
 20
-18.0488882173
 30
0
 10
-3.16273688688
 20
-17.4322297227
 30
0
 10
-3.32148648809
 20
-16.6514740556
 30
0
 10
-4.0269279521
 20
-16.4950814482
 30
0
 10
-4.50076555475
 20
-17.1355959086
 30
0
 10
-4.81677598372
 20
-17.668645192
 30
0
 10
-5.00281378932
 20
-18.0702812538
 30
0
 10
-5.08980705027
 20
-18.3212103372
 30
0
 10
-5.11108981495
 20
-18.4071527411
 30
0
 10
-5.13964924002
 20
-18.5691212893
 30
0
 10
-6.44065623341
 20
-18.15891536
 30
0
 10
-6.37114940216
 20
-18.0098574794
 30
0
 10
-6.33928868459
 20
-17.9272502912
 30
0
 10
-6.26662238271
 20
-17.671803935
 30
0
 10
-6.18864665042
 20
-17.2360960323
 30
0
 10
-6.14176273096
 20
-16.6181914864
 30
0
 10
-6.16252377022
 20
-15.8217306732
 30
0
 10
-6.830090702
 20
-15.5452153963
 30
0
 10
-7.40795381557
 20
-16.0937179666
 30
0
 10
-7.81172637272
 20
-16.5637943985
 30
0
 10
-8.06468121625
 20
-16.9270235802
 30
0
 10
-8.19392623215
 20
-17.1590342657
 30
0
 10
-8.22980940563
 20
-17.2399752981
 30
0
 10
-8.28606049211
 20
-17.394523888
 30
0
 10
-9.49607075382
 20
-16.7646324149
 30
0
 10
-9.40173625818
 20
-16.629908793
 30
0
 10
-9.35601498881
 20
-16.5540891492
 30
0
 10
-9.24009485709
 20
-16.315141968
 30
0
 10
-9.08764386808
 20
-15.8995937912
 30
0
 10
-8.93417422234
 20
-15.2992179109
 30
0
 10
-8.81631588597
 20
-14.5112520105
 30
0
 10
-9.42572460211
 20
-14.1230158408
 30
0
 10
-10.0900551483
 20
-14.562840548
 30
0
 10
-10.5693214088
 20
-14.9556610939
 30
0
 10
-10.8815073854
 20
-15.2694468605
 30
0
 10
-11.0490771118
 20
-15.4754896209
 30
0
 10
-11.098470402
 20
-15.5489699294
 30
0
 10
-11.1807039891
 20
-15.6914026803
 30
0
 10
-12.2629519696
 20
-14.8609645972
 30
0
 10
-12.1466561155
 20
-14.7446687431
 30
0
 10
-12.088463512
 20
-14.6779403851
 30
0
 10
-11.9328117249
 20
-14.4627526681
 30
0
 10
-11.7105176254
 20
-14.0799904383
 30
0
 10
-11.4551253509
 20
-13.515385341
 30
0
 10
-11.2022287048
 20
-12.7598562986
 30
0
 10
-11.7349626298
 20
-12.2716955956
 30
0
 10
-12.4655752612
 20
-12.5894785884
 30
0
 10
-13.0057729622
 20
-12.8931075948
 30
0
 10
-13.3677044589
 20
-13.1479157247
 30
0
 10
-13.5685073745
 20
-13.321730055
 30
0
 10
-13.6299099913
 20
-13.3855169777
 30
0
 10
-13.7356274531
 20
-13.5115061425
 30
0
 10
-14.6572295952
 20
-12.5057538902
 30
0
 10
-14.5225059733
 20
-12.4114193946
 30
0
 10
-14.4536101884
 20
-12.3558098299
 30
0
 10
-14.2629561468
 20
-12.170919947
 30
0
 10
-13.9775732304
 20
-11.8325737008
 30
0
 10
-13.6280182922
 20
-11.3208946267
 30
0
 10
-13.247767473
 20
-10.6207588097
 30
0
 10
-13.6876397562
 20
-10.0475060895
 30
0
 10
-14.4623351776
 20
-10.2335916926
 30
0
 10
-15.0470506854
 20
-10.4388035458
 30
0
 10
-15.4477305968
 20
-10.6268918227
 30
0
 10
-15.6756654066
 20
-10.7631964624
 30
0
 10
-15.7472116626
 20
-10.8153518659
 30
0
 10
-15.8732008275
 20
-10.9210693277
 30
0
 10
-16.6061547164
 20
-9.7705621795
 30
0
 10
-16.4570968358
 20
-9.70105534825
 30
0
 10
-16.3795912331
 20
-9.65825424528
 30
0
 10
-16.1597278636
 20
-9.50927998207
 30
0
 10
-15.8199273459
 20
-9.22563019896
 30
0
 10
-15.3868307939
 20
-8.78242425773
 30
0
 10
-14.8907795303
 20
-8.15895493886
 30
0
 10
-15.2244248749
 20
-7.51802819513
 30
0
 10
-16.019664358
 20
-7.56676229164
 30
0
 10
-16.6311313877
 20
-7.66732173327
 30
0
 10
-17.0583852574
 20
-7.78297519024
 30
0
 10
-17.3065262776
 20
-7.87762859181
 30
0
 10
-17.386042276
 20
-7.91656776057
 30
0
 10
-17.5284750269
 20
-7.99880134765
 30
0
 10
-18.0505102297
 20
-6.73849688111
 30
0
 10
-17.8916471386
 20
-6.69592964414
 30
0
 10
-17.8078866866
 20
-6.66723749276
 30
0
 10
-17.5654944264
 20
-6.5587053568
 30
0
 10
-17.1816009742
 20
-6.33837059192
 30
0
 10
-16.6781222279
 20
-5.97710437183
 30
0
 10
-16.0813427866
 20
-5.44924535078
 30
0
 10
-16.2986235477
 20
-4.76011881838
 30
0
 10
-17.0902441432
 20
-4.6700206474
 30
0
 10
-17.7098835786
 20
-4.66287222975
 30
0
 10
-18.150729514
 20
-4.70257679496
 30
0
 10
-18.4115371052
 20
-4.75270296271
 30
0
 10
-18.4966067926
 20
-4.77724274979
 30
0
 10
-18.6511553825
 20
-4.83349383626
 30
0
 10
-18.9464101236
 20
-3.50168576482
 30
0
 10
-18.7825687967
 20
-3.4873515061
 30
0
 10
-18.6950985145
 20
-3.47364010281
 30
0
 10
-18.4375423297
 20
-3.40884778812
 30
0
 10
-18.0212203512
 20
-3.25852280182
 30
0
 10
-17.4626573576
 20
-2.99017319416
 30
0
 10
-16.78328258
 20
-2.57396320018
 30
0
 10
-16.8775967915
 20
-1.85757564006
 30
0
 10
-17.6415455082
 20
-1.63138278894
 30
0
 10
-18.2505299185
 20
-1.51674371305
 30
0
 10
-18.691573039
 20
-1.47929298338
 30
0
 10
-18.9571226946
 20
-1.48336885907
 30
0
 10
-19.0451612716
 20
-1.49276363545
 30
0
 10
-19.2071298198
 20
-1.52132306053
 30
0
 10
-19.2666329333
 20
-0.158477698509
 30
0
 10
-19.1027916064
 20
-0.17281195723
 30
0
 10
-19.0142692341
 20
-0.174497916086
 30
0
 10
-18.7493748392
 20
-0.15541410437
 30
0
 10
-18.313274067
 20
-0.0796664452791
 30
0
 10
-17.7165984801
 20
0.0876128829186
 30
0
 10
-16.9752708248
 20
0.379527519773
 30
0
 10
-16.9437527972
 20
1.1014090341
 30
0
 10
-17.65681744
 20
1.45682381004
 30
0
 10
-18.2366431421
 20
1.67547029386
 30
0
 10
-18.6644825756
 20
1.78893839694
 30
0
 10
-18.9267057036
 20
1.83103665673
 30
0
 10
-19.0150381626
 20
1.83707234657
 30
0
 10
-19.1795053367
 20
1.83707234657
 30
0
 10
-19.0014488507
 20
3.18954563248
 30
0
 10
-18.8425857596
 20
3.14697839551
 30
0
 10
-18.7557010047
 20
3.12994630152
 30
0
 10
-18.4915170817
 20
3.1027417583
 30
0
 10
-18.0488882173
 20
3.10161053589
 30
0
 10
-17.4322297227
 20
3.16273688688
 30
0
 10
-16.6514740556
 20
3.32148648809
 30
0
 10
-16.4950814482
 20
4.0269279521
 30
0
 10
-17.1355959086
 20
4.50076555475
 30
0
 10
-17.668645192
 20
4.81677598372
 30
0
 10
-18.0702812538
 20
5.00281378932
 30
0
 10
-18.3212103372
 20
5.08980705027
 30
0
 10
-18.4071527411
 20
5.11108981495
 30
0
 10
-18.5691212893
 20
5.13964924002
 30
0
 10
-18.15891536
 20
6.44065623341
 30
0
 10
-18.0098574794
 20
6.37114940216
 30
0
 10
-17.9272502912
 20
6.33928868459
 30
0
 10
-17.671803935
 20
6.26662238271
 30
0
 10
-17.2360960323
 20
6.18864665042
 30
0
 10
-16.6181914864
 20
6.14176273096
 30
0
 10
-15.8217306732
 20
6.16252377022
 30
0
 10
-15.5452153963
 20
6.830090702
 30
0
 10
-16.0937179666
 20
7.40795381557
 30
0
 10
-16.5637943985
 20
7.81172637272
 30
0
 10
-16.9270235802
 20
8.06468121625
 30
0
 10
-17.1590342657
 20
8.19392623215
 30
0
 10
-17.2399752981
 20
8.22980940563
 30
0
 10
-17.394523888
 20
8.28606049211
 30
0
 10
-16.7646324149
 20
9.49607075382
 30
0
 10
-16.629908793
 20
9.40173625818
 30
0
 10
-16.5540891492
 20
9.35601498881
 30
0
 10
-16.315141968
 20
9.24009485709
 30
0
 10
-15.8995937912
 20
9.08764386808
 30
0
 10
-15.2992179109
 20
8.93417422234
 30
0
 10
-14.5112520105
 20
8.81631588597
 30
0
 10
-14.1230158408
 20
9.42572460211
 30
0
 10
-14.562840548
 20
10.0900551483
 30
0
 10
-14.9556610939
 20
10.5693214088
 30
0
 10
-15.2694468605
 20
10.8815073854
 30
0
 10
-15.4754896209
 20
11.0490771118
 30
0
 10
-15.5489699294
 20
11.098470402
 30
0
 10
-15.6914026803
 20
11.1807039891
 30
0
 10
-14.8609645972
 20
12.2629519696
 30
0
 10
-14.7446687431
 20
12.1466561155
 30
0
 10
-14.6779403851
 20
12.088463512
 30
0
 10
-14.4627526681
 20
11.9328117249
 30
0
 10
-14.0799904383
 20
11.7105176254
 30
0
 10
-13.515385341
 20
11.4551253509
 30
0
 10
-12.7598562986
 20
11.2022287048
 30
0
 10
-12.2716955956
 20
11.7349626298
 30
0
 10
-12.5894785884
 20
12.4655752612
 30
0
 10
-12.8931075948
 20
13.0057729622
 30
0
 10
-13.1479157247
 20
13.3677044589
 30
0
 10
-13.321730055
 20
13.5685073745
 30
0
 10
-13.3855169777
 20
13.6299099913
 30
0
 10
-13.5115061425
 20
13.7356274531
 30
0
 10
-12.5057538902
 20
14.6572295952
 30
0
 10
-12.4114193946
 20
14.5225059733
 30
0
 10
-12.3558098299
 20
14.4536101884
 30
0
 10
-12.170919947
 20
14.2629561468
 30
0
 10
-11.8325737008
 20
13.9775732304
 30
0
 10
-11.3208946267
 20
13.6280182922
 30
0
 10
-10.6207588097
 20
13.247767473
 30
0
 10
-10.0475060895
 20
13.6876397562
 30
0
 10
-10.2335916926
 20
14.4623351776
 30
0
 10
-10.4388035458
 20
15.0470506854
 30
0
 10
-10.6268918227
 20
15.4477305968
 30
0
 10
-10.7631964624
 20
15.6756654066
 30
0
 10
-10.8153518659
 20
15.7472116626
 30
0
 10
-10.9210693277
 20
15.8732008275
 30
0
 10
-9.7705621795
 20
16.6061547164
 30
0
 10
-9.70105534825
 20
16.4570968358
 30
0
 10
-9.65825424528
 20
16.3795912331
 30
0
 10
-9.50927998207
 20
16.1597278636
 30
0
 10
-9.22563019896
 20
15.8199273459
 30
0
 10
-8.78242425773
 20
15.3868307939
 30
0
 10
-8.15895493886
 20
14.8907795303
 30
0
 10
-7.51802819513
 20
15.2244248749
 30
0
 10
-7.56676229164
 20
16.019664358
 30
0
 10
-7.66732173327
 20
16.6311313877
 30
0
 10
-7.78297519024
 20
17.0583852574
 30
0
 10
-7.87762859181
 20
17.3065262776
 30
0
 10
-7.91656776057
 20
17.386042276
 30
0
 10
-7.99880134765
 20
17.5284750269
 30
0
 10
-6.73849688111
 20
18.0505102297
 30
0
 10
-6.69592964414
 20
17.8916471386
 30
0
 10
-6.66723749276
 20
17.8078866866
 30
0
 10
-6.5587053568
 20
17.5654944264
 30
0
 10
-6.33837059192
 20
17.1816009742
 30
0
 10
-5.97710437183
 20
16.6781222279
 30
0
 10
-5.44924535078
 20
16.0813427866
 30
0
 10
-4.76011881838
 20
16.2986235477
 30
0
 10
-4.6700206474
 20
17.0902441432
 30
0
 10
-4.66287222975
 20
17.7098835786
 30
0
 10
-4.70257679496
 20
18.150729514
 30
0
 10
-4.75270296271
 20
18.4115371052
 30
0
 10
-4.77724274979
 20
18.4966067926
 30
0
 10
-4.83349383626
 20
18.6511553825
 30
0
 10
-3.50168576482
 20
18.9464101236
 30
0
 10
-3.4873515061
 20
18.7825687967
 30
0
 10
-3.47364010281
 20
18.6950985145
 30
0
 10
-3.40884778812
 20
18.4375423297
 30
0
 10
-3.25852280182
 20
18.0212203512
 30
0
 10
-2.99017319416
 20
17.4626573576
 30
0
 10
-2.57396320018
 20
16.78328258
 30
0
 10
-1.85757564006
 20
16.8775967915
 30
0
 10
-1.63138278894
 20
17.6415455082
 30
0
 10
-1.51674371305
 20
18.2505299185
 30
0
 10
-1.47929298338
 20
18.691573039
 30
0
 10
-1.48336885907
 20
18.9571226946
 30
0
 10
-1.49276363545
 20
19.0451612716
 30
0
 10
-1.52132306053
 20
19.2071298198
 30
0
 10
-0.158477698509
 20
19.2666329333
 30
0
 10
-0.17281195723
 20
19.1027916064
 30
0
 10
-0.174497916086
 20
19.0142692341
 30
0
 10
-0.15541410437
 20
18.7493748392
 30
0
 10
-0.0796664452791
 20
18.313274067
 30
0
 10
0.0876128829186
 20
17.7165984801
 30
0
 10
0.379527519773
 20
16.9752708248
 30
0
 10
1.1014090341
 20
16.9437527972
 30
0
 10
1.45682381004
 20
17.65681744
 30
0
 10
1.67547029386
 20
18.2366431421
 30
0
 10
1.78893839694
 20
18.6644825756
 30
0
 10
1.83103665673
 20
18.9267057036
 30
0
 10
1.83707234657
 20
19.0150381626
 30
0
 10
1.83707234657
 20
19.1795053367
 30
0
 10
3.18954563248
 20
19.0014488507
 30
0
 10
3.14697839551
 20
18.8425857596
 30
0
 10
3.12994630152
 20
18.7557010047
 30
0
 10
3.1027417583
 20
18.4915170817
 30
0
 10
3.10161053589
 20
18.0488882173
 30
0
 10
3.16273688688
 20
17.4322297227
 30
0
 10
3.32148648809
 20
16.6514740556
 30
0
 10
4.0269279521
 20
16.4950814482
 30
0
 10
4.50076555475
 20
17.1355959086
 30
0
 10
4.81677598372
 20
17.668645192
 30
0
 10
5.00281378932
 20
18.0702812538
 30
0
 10
5.08980705027
 20
18.3212103372
 30
0
 10
5.11108981495
 20
18.4071527411
 30
0
 10
5.13964924002
 20
18.5691212893
 30
0
 10
6.44065623341
 20
18.15891536
 30
0
 10
6.37114940216
 20
18.0098574794
 30
0
 10
6.33928868459
 20
17.9272502912
 30
0
 10
6.26662238271
 20
17.671803935
 30
0
 10
6.18864665042
 20
17.2360960323
 30
0
 10
6.14176273096
 20
16.6181914864
 30
0
 10
6.16252377022
 20
15.8217306732
 30
0
 10
6.830090702
 20
15.5452153963
 30
0
 10
7.40795381557
 20
16.0937179666
 30
0
 10
7.81172637272
 20
16.5637943985
 30
0
 10
8.06468121625
 20
16.9270235802
 30
0
 10
8.19392623215
 20
17.1590342657
 30
0
 10
8.22980940563
 20
17.2399752981
 30
0
 10
8.28606049211
 20
17.394523888
 30
0
 10
9.49607075382
 20
16.7646324149
 30
0
 10
9.40173625818
 20
16.629908793
 30
0
 10
9.35601498881
 20
16.5540891492
 30
0
 10
9.24009485709
 20
16.315141968
 30
0
 10
9.08764386808
 20
15.8995937912
 30
0
 10
8.93417422234
 20
15.2992179109
 30
0
 10
8.81631588597
 20
14.5112520105
 30
0
 10
9.42572460211
 20
14.1230158408
 30
0
 10
10.0900551483
 20
14.562840548
 30
0
 10
10.5693214088
 20
14.9556610939
 30
0
 10
10.8815073854
 20
15.2694468605
 30
0
 10
11.0490771118
 20
15.4754896209
 30
0
 10
11.098470402
 20
15.5489699294
 30
0
 10
11.1807039891
 20
15.6914026803
 30
0
 10
12.2629519696
 20
14.8609645972
 30
0
 10
12.1466561155
 20
14.7446687431
 30
0
 10
12.088463512
 20
14.6779403851
 30
0
 10
11.9328117249
 20
14.4627526681
 30
0
 10
11.7105176254
 20
14.0799904383
 30
0
 10
11.4551253509
 20
13.515385341
 30
0
 10
11.2022287048
 20
12.7598562986
 30
0
 10
11.7349626298
 20
12.2716955956
 30
0
 10
12.4655752612
 20
12.5894785884
 30
0
 10
13.0057729622
 20
12.8931075948
 30
0
 10
13.3677044589
 20
13.1479157247
 30
0
 10
13.5685073745
 20
13.321730055
 30
0
 10
13.6299099913
 20
13.3855169777
 30
0
 10
13.7356274531
 20
13.5115061425
 30
0
 10
14.6572295952
 20
12.5057538902
 30
0
 10
14.5225059733
 20
12.4114193946
 30
0
 10
14.4536101884
 20
12.3558098299
 30
0
 10
14.2629561468
 20
12.170919947
 30
0
 10
13.9775732304
 20
11.8325737008
 30
0
 10
13.6280182922
 20
11.3208946267
 30
0
 10
13.247767473
 20
10.6207588097
 30
0
 10
13.6876397562
 20
10.0475060895
 30
0
 10
14.4623351776
 20
10.2335916926
 30
0
 10
15.0470506854
 20
10.4388035458
 30
0
 10
15.4477305968
 20
10.6268918227
 30
0
 10
15.6756654066
 20
10.7631964624
 30
0
 10
15.7472116626
 20
10.8153518659
 30
0
 10
15.8732008275
 20
10.9210693277
 30
0
 10
16.6061547164
 20
9.7705621795
 30
0
 10
16.4570968358
 20
9.70105534825
 30
0
 10
16.3795912331
 20
9.65825424528
 30
0
 10
16.1597278636
 20
9.50927998207
 30
0
 10
15.8199273459
 20
9.22563019896
 30
0
 10
15.3868307939
 20
8.78242425773
 30
0
 10
14.8907795303
 20
8.15895493886
 30
0
 10
15.2244248749
 20
7.51802819513
 30
0
 10
16.019664358
 20
7.56676229164
 30
0
 10
16.6311313877
 20
7.66732173327
 30
0
 10
17.0583852574
 20
7.78297519024
 30
0
 10
17.3065262776
 20
7.87762859181
 30
0
 10
17.386042276
 20
7.91656776057
 30
0
 10
17.5284750269
 20
7.99880134765
 30
0
 10
18.0505102297
 20
6.73849688111
 30
0
 10
17.8916471386
 20
6.69592964414
 30
0
 10
17.8078866866
 20
6.66723749276
 30
0
 10
17.5654944264
 20
6.5587053568
 30
0
 10
17.1816009742
 20
6.33837059192
 30
0
 10
16.6781222279
 20
5.97710437183
 30
0
 10
16.0813427866
 20
5.44924535078
 30
0
 10
16.2986235477
 20
4.76011881838
 30
0
 10
17.0902441432
 20
4.6700206474
 30
0
 10
17.7098835786
 20
4.66287222975
 30
0
 10
18.150729514
 20
4.70257679496
 30
0
 10
18.4115371052
 20
4.75270296271
 30
0
 10
18.4966067926
 20
4.77724274979
 30
0
 10
18.6511553825
 20
4.83349383626
 30
0
 10
18.9464101236
 20
3.50168576482
 30
0
 10
18.7825687967
 20
3.4873515061
 30
0
 10
18.6950985145
 20
3.47364010281
 30
0
 10
18.4375423297
 20
3.40884778812
 30
0
 10
18.0212203512
 20
3.25852280182
 30
0
 10
17.4626573576
 20
2.99017319416
 30
0
 10
16.78328258
 20
2.57396320018
 30
0
 10
16.8775967915
 20
1.85757564006
 30
0
 10
17.6415455082
 20
1.63138278894
 30
0
 10
18.2505299185
 20
1.51674371305
 30
0
 10
18.691573039
 20
1.47929298338
 30
0
 10
18.9571226946
 20
1.48336885907
 30
0
 10
19.0451612716
 20
1.49276363545
 30
0
 10
19.2071298198
 20
1.52132306053
 30
0
 10
19.2666329333
 20
0.158477698509
 30
0
 10
19.1027916064
 20
0.17281195723
 30
0
 10
19.0142692341
 20
0.174497916086
 30
0
 10
18.7493748392
 20
0.15541410437
 30
0
 10
18.313274067
 20
0.0796664452791
 30
0
 10
17.7165984801
 20
-0.0876128829186
 30
0
 10
16.9752708248
 20
-0.379527519773
 30
0
 10
16.9437527972
 20
-1.1014090341
 30
0
 10
17.65681744
 20
-1.45682381004
 30
0
 10
18.2366431421
 20
-1.67547029386
 30
0
 10
18.6644825756
 20
-1.78893839694
 30
0
 10
18.9267057036
 20
-1.83103665673
 30
0
 10
19.0150381626
 20
-1.83707234657
 30
0
 10
19.1795053367
 20
-1.83707234657
 30
0
 10
19.0014488507
 20
-3.18954563248
 30
0
 10
18.8425857596
 20
-3.14697839551
 30
0
 10
19.0014488507
 20
-3.18954563248
 30
0
  0
LWPOLYLINE
  100
AcDbPolyline
  90
  120
  70
0
 10
-22.0
 20
-2.69422295812e-15
 30
0
 10
-21.9693410271
 20
-1.16105763687
 30
0
 10
-21.8774495604
 20
-2.31887919786
 30
0
 10
-21.7245817178
 20
-3.47023762662
 30
0
 10
-21.5111635696
 20
-4.61192388071
 30
0
 10
-21.2377899503
 20
-5.74075587576
 30
0
 10
-20.9052228013
 20
-6.85358735453
 30
0
 10
-20.5143890469
 20
-7.94731665612
 30
0
 10
-20.0663780108
 20
-9.01889536077
 30
0
 10
-19.5624383801
 20
-10.0653367865
 30
0
 10
-19.003974725
 20
-11.0837243132
 30
0
 10
-18.3925435838
 20
-12.0712195124
 30
0
 10
-17.7298491249
 20
-13.0250700577
 30
0
 10
-17.0177383965
 20
-13.9426173967
 30
0
 10
-16.2581961789
 20
-14.8213041602
 30
0
 10
-15.4533394525
 20
-15.6586812908
 30
0
 10
-14.6054114974
 20
-16.4524148681
 30
0
 10
-13.7167756409
 20
-17.2002926143
 30
0
 10
-12.7899086705
 20
-17.90023006
 30
0
 10
-11.8273939306
 20
-18.550276354
 30
0
 10
-10.8319141226
 20
-19.1486197007
 30
0
 10
-9.80624382708
 20
-19.6935924098
 30
0
 10
-8.75324177123
 20
-20.1836755447
 30
0
 10
-7.6758428606
 20
-20.6175031558
 30
0
 10
-6.57704999921
 20
-20.9938660877
 30
0
 10
-5.45992571982
 20
-21.3117153494
 30
0
 10
-4.32758364819
 20
-21.570165038
 30
0
 10
-3.18317982474
 20
-21.7684948079
 30
0
 10
-2.02990390819
 20
-21.9061518785
 30
0
 10
-0.870970285378
 20
-21.9827525747
 30
0
 10
0.290390887837
 20
-21.9980833968
 30
0
 10
1.45094268956
 20
-21.9521016149
 30
0
 10
2.60745045378
 20
-21.8449353886
 30
0
 10
3.75669078591
 20
-21.6768834093
 30
0
 10
4.89546054704
 20
-21.448414068
 30
0
 10
6.02058578159
 20
-21.1601641498
 30
0
 10
7.12893056373
 20
-20.8129370589
 30
0
 10
8.21740573776
 20
-20.4077005795
 30
0
 10
9.28297752816
 20
-19.9455841783
 30
0
 10
10.3226759952
 20
-19.4278758566
 30
0
 10
11.3336033128
 20
-18.8560185603
 30
0
 10
12.3129418453
 20
-18.2316061584
 30
0
 10
13.2579620003
 20
-17.5563790002
 30
0
 10
14.1660298374
 20
-16.8322190648
 30
0
 10
15.0346144086
 20
-16.0611447159
 30
0
 10
15.8612948128
 20
-15.245305076
 30
0
 10
16.6437669436
 20
-14.3869740365
 30
0
 10
17.3798499107
 20
-13.48854392
 30
0
 10
18.0674921189
 20
-12.5525188123
 30
0
 10
18.7047769861
 20
-11.5815075833
 30
0
 10
19.2899282849
 20
-10.5782166154
 30
0
 10
19.8213150939
 20
-9.54544226059
 30
0
 10
20.2974563425
 20
-8.48606304612
 30
0
 10
20.7170249399
 20
-7.4030316519
 30
0
 10
21.078851473
 20
-6.29936668069
 30
0
 10
21.3819274665
 20
-5.1781442447
 30
0
 10
21.625408193
 20
-4.04248939196
 30
0
 10
21.8086150283
 20
-2.89556739625
 30
0
 10
21.931037342
 20
-1.74057493486
 30
0
 10
21.9923339211
 20
-0.580731178936
 30
0
 10
21.9923339211
 20
0.580731178936
 30
0
 10
21.931037342
 20
1.74057493486
 30
0
 10
21.8086150283
 20
2.89556739625
 30
0
 10
21.625408193
 20
4.04248939196
 30
0
 10
21.3819274665
 20
5.1781442447
 30
0
 10
21.078851473
 20
6.29936668069
 30
0
 10
20.7170249399
 20
7.4030316519
 30
0
 10
20.2974563425
 20
8.48606304612
 30
0
 10
19.8213150939
 20
9.54544226059
 30
0
 10
19.2899282849
 20
10.5782166154
 30
0
 10
18.7047769861
 20
11.5815075833
 30
0
 10
18.0674921189
 20
12.5525188123
 30
0
 10
17.3798499107
 20
13.48854392
 30
0
 10
16.6437669436
 20
14.3869740365
 30
0
 10
15.8612948128
 20
15.245305076
 30
0
 10
15.0346144086
 20
16.0611447159
 30
0
 10
14.1660298374
 20
16.8322190648
 30
0
 10
13.2579620003
 20
17.5563790002
 30
0
 10
12.3129418453
 20
18.2316061584
 30
0
 10
11.3336033128
 20
18.8560185603
 30
0
 10
10.3226759952
 20
19.4278758566
 30
0
 10
9.28297752816
 20
19.9455841783
 30
0
 10
8.21740573776
 20
20.4077005795
 30
0
 10
7.12893056373
 20
20.8129370589
 30
0
 10
6.02058578159
 20
21.1601641498
 30
0
 10
4.89546054704
 20
21.448414068
 30
0
 10
3.75669078591
 20
21.6768834093
 30
0
 10
2.60745045378
 20
21.8449353886
 30
0
 10
1.45094268956
 20
21.9521016149
 30
0
 10
0.290390887837
 20
21.9980833968
 30
0
 10
-0.870970285378
 20
21.9827525747
 30
0
 10
-2.02990390819
 20
21.9061518785
 30
0
 10
-3.18317982474
 20
21.7684948079
 30
0
 10
-4.32758364819
 20
21.570165038
 30
0
 10
-5.45992571982
 20
21.3117153494
 30
0
 10
-6.57704999921
 20
20.9938660877
 30
0
 10
-7.6758428606
 20
20.6175031558
 30
0
 10
-8.75324177123
 20
20.1836755447
 30
0
 10
-9.80624382708
 20
19.6935924098
 30
0
 10
-10.8319141226
 20
19.1486197007
 30
0
 10
-11.8273939306
 20
18.550276354
 30
0
 10
-12.7899086705
 20
17.90023006
 30
0
 10
-13.7167756409
 20
17.2002926143
 30
0
 10
-14.6054114974
 20
16.4524148681
 30
0
 10
-15.4533394525
 20
15.6586812908
 30
0
 10
-16.2581961789
 20
14.8213041602
 30
0
 10
-17.0177383965
 20
13.9426173967
 30
0
 10
-17.7298491249
 20
13.0250700577
 30
0
 10
-18.3925435838
 20
12.0712195124
 30
0
 10
-19.003974725
 20
11.0837243132
 30
0
 10
-19.5624383801
 20
10.0653367865
 30
0
 10
-20.0663780108
 20
9.01889536077
 30
0
 10
-20.5143890469
 20
7.94731665612
 30
0
 10
-20.9052228013
 20
6.85358735453
 30
0
 10
-21.2377899503
 20
5.74075587576
 30
0
 10
-21.5111635696
 20
4.61192388071
 30
0
 10
-21.7245817178
 20
3.47023762662
 30
0
 10
-21.8774495604
 20
2.31887919786
 30
0
 10
-21.9693410271
 20
1.16105763687
 30
0
 10
-22.0
 20
2.69422295812e-15
 30
0
  0
ENDSEC
  0
EOF
