  0
SECTION
  2
ENTITIES
  0
LWPOLYLINE
  100
AcDbPolyline
  90
  1513
  70
0
 10
19.0014488507
 20
-3.18954563248
 30
0
 10
18.8425857596
 20
-3.14697839551
 30
0
 10
18.8366340686
 20
-3.14549763182
 30
0
 10
18.8186779445
 20
-3.14148401418
 30
0
 10
18.7885853477
 20
-3.13558489527
 30
0
 10
18.7462504446
 20
-3.12845266732
 30
0
 10
18.6915937773
 20
-3.12074381911
 30
0
 10
18.6245624004
 20
-3.11311798756
 30
0
 10
18.5451299872
 20
-3.10623700511
 30
0
 10
18.4532969025
 20
-3.10076394383
 30
0
 10
18.3490902446
 20
-3.09736215739
 30
0
 10
18.2325638536
 20
-3.09669432186
 30
0
 10
18.1037982884
 20
-3.09942147638
 30
0
 10
17.9629007713
 20
-3.10620206479
 30
0
 10
17.8100050998
 20
-3.11769097927
 30
0
 10
17.645271527
 20
-3.13453860692
 30
0
 10
17.4688866095
 20
-3.15738988046
 30
0
 10
17.2810630233
 20
-3.18688333403
 30
0
 10
17.0820393483
 20
-3.22365016504
 30
0
 10
16.8720798209
 20
-3.26831330329
 30
0
 10
16.6514740556
 20
-3.32148648809
 30
0
 10
16.4950814482
 20
-4.0269279521
 30
0
 10
16.6725462122
 20
-4.16835124861
 30
0
 10
16.843958709
 20
-4.29756252909
 30
0
 10
17.0087970813
 20
-4.41499563392
 30
0
 10
17.166558588
 20
-4.52110345807
 30
0
 10
17.3167602467
 20
-4.61635723247
 30
0
 10
17.4589394514
 20
-4.70124578478
 30
0
 10
17.592654564
 20
-4.77627478036
 30
0
 10
17.7174854805
 20
-4.84196594421
 30
0
 10
17.8330341696
 20
-4.89885626491
 30
0
 10
17.9389251847
 20
-4.94749718119
 30
0
 10
18.0348061473
 20
-4.98845375228
 30
0
 10
18.1203482026
 20
-5.02230381282
 30
0
 10
18.1952464461
 20
-5.04963711326
 30
0
 10
18.2592203207
 20
-5.07105444672
 30
0
 10
18.3120139839
 20
-5.0871667633
 30
0
 10
18.353396646
 20
-5.0985942727
 30
0
 10
18.3831628762
 20
-5.10596553625
 30
0
 10
18.4011328794
 20
-5.10991654931
 30
0
 10
18.4071527411
 20
-5.11108981495
 30
0
 10
18.5691212893
 20
-5.13964924002
 30
0
 10
18.15891536
 20
-6.44065623341
 30
0
 10
18.0098574794
 20
-6.37114940216
 30
0
 10
18.0042533398
 20
-6.36865763429
 30
0
 10
17.9872669669
 20
-6.36158694429
 30
0
 10
17.9586559155
 20
-6.35055192165
 30
0
 10
17.9182026732
 20
-6.3361766695
 30
0
 10
17.8657149909
 20
-6.31909390534
 30
0
 10
17.801026183
 20
-6.29994405087
 30
0
 10
17.7239953966
 20
-6.27937431219
 30
0
 10
17.63450785
 20
-6.25803775121
 30
0
 10
17.5324750394
 20
-6.23659234931
 30
0
 10
17.4178349145
 20
-6.21570006425
 30
0
 10
17.2905520222
 20
-6.19602588143
 30
0
 10
17.1506176181
 20
-6.17823686038
 30
0
 10
16.9980497464
 20
-6.1630011777
 30
0
 10
16.8328932869
 20
-6.15098716731
 30
0
 10
16.6552199706
 20
-6.14286235917
 30
0
 10
16.4651283622
 20
-6.13929251743
 30
0
 10
16.2627438108
 20
-6.1409406792
 30
0
 10
16.0482183679
 20
-6.1484661947
 30
0
 10
15.8217306732
 20
-6.16252377022
 30
0
 10
15.5452153963
 20
-6.830090702
 30
0
 10
15.6954261741
 20
-7.00018189373
 30
0
 10
15.8417972265
 20
-7.15719563221
 30
0
 10
15.9837392888
 20
-7.30146854727
 30
0
 10
16.1206786134
 20
-7.43335935329
 30
0
 10
16.2520577271
 20
-7.55324825315
 30
0
 10
16.3773361678
 20
-7.6615363174
 30
0
 10
16.4959911991
 20
-7.75864483958
 30
0
 10
16.6075185025
 20
-7.84501466821
 30
0
 10
16.7114328469
 20
-7.9211055164
 30
0
 10
16.807268733
 20
-7.98739524966
 30
0
 10
16.8945810144
 20
-8.04437915283
 30
0
 10
16.9729454924
 20
-8.09256917692
 30
0
 10
17.0419594855
 20
-8.13249316661
 30
0
 10
17.1012423722
 20
-8.16469406938
 30
0
 10
17.1504361067
 20
-8.18972912708
 30
0
 10
17.1892057069
 20
-8.20816905079
 30
0
 10
17.2172397148
 20
-8.22059717992
 30
0
 10
17.2342506271
 20
-8.22760862653
 30
0
 10
17.2399752981
 20
-8.22980940563
 30
0
 10
17.394523888
 20
-8.28606049211
 30
0
 10
16.7646324149
 20
-9.49607075382
 30
0
 10
16.629908793
 20
-9.40173625818
 30
0
 10
16.6248224839
 20
-9.39830919725
 30
0
 10
16.6093219846
 20
-9.38839627422
 30
0
 10
16.5830618109
 20
-9.37256064142
 30
0
 10
16.5457193806
 20
-9.35137914985
 30
0
 10
16.496995495
 20
-9.32544152087
 30
0
 10
16.4366147927
 20
-9.29534950211
 30
0
 10
16.3643261748
 20
-9.26171600831
 30
0
 10
16.2799032
 20
-9.22516424825
 30
0
 10
16.183144452
 20
-9.18632683856
 30
0
 10
16.0738738754
 20
-9.14584490549
 30
0
 10
15.9519410823
 20
-9.10436717541
 30
0
 10
15.8172216273
 20
-9.0625490553
 30
0
 10
15.6696172529
 20
-9.02105170397
 30
0
 10
15.5090561021
 20
-8.98054109518
 30
0
 10
15.3354929008
 20
-8.94168707353
 30
0
 10
15.1489091076
 20
-8.90516240433
 30
0
 10
14.9493130321
 20
-8.87164181827
 30
0
 10
14.7367399206
 20
-8.84180105206
 30
0
 10
14.5112520105
 20
-8.81631588597
 30
0
 10
14.1230158408
 20
-9.42572460211
 30
0
 10
14.2414085539
 20
-9.61931555427
 30
0
 10
14.3582907515
 20
-9.79936096777
 30
0
 10
14.4730236662
 20
-9.96609003353
 30
0
 10
14.5849799767
 20
-10.119756386
 30
0
 10
14.6935446575
 20
-10.2606376478
 30
0
 10
14.7981158121
 20
-10.3890349459
 30
0
 10
14.8981054889
 20
-10.5052724014
 30
0
 10
14.9929404787
 20
-10.6096965913
 30
0
 10
15.0820630936
 20
-10.7026759851
 30
0
 10
15.1649319259
 20
-10.7846003553
 30
0
 10
15.2410225866
 20
-10.8558801635
 30
0
 10
15.3098284222
 20
-10.9169459216
 30
0
 10
15.3708612096
 20
-10.9682475303
 30
0
 10
15.4236518279
 20
-11.0102535943
 30
0
 10
15.4677509069
 20
-11.0434507155
 30
0
 10
15.5027294507
 20
-11.0683427658
 30
0
 10
15.5281794369
 20
-11.0854501381
 30
0
 10
15.5437143903
 20
-11.095308979
 30
0
 10
15.5489699294
 20
-11.098470402
 30
0
 10
15.6914026803
 20
-11.1807039891
 30
0
 10
14.8609645972
 20
-12.2629519696
 30
0
 10
14.7446687431
 20
-12.1466561155
 30
0
 10
14.7402548093
 20
-12.142397891
 30
0
 10
14.7267111585
 20
-12.1299439341
 30
0
 10
14.7035997646
 20
-12.1097888489
 30
0
 10
14.6705027771
 20
-12.0824447067
 30
0
 10
14.6270231388
 20
-12.0484403147
 30
0
 10
14.5727851793
 20
-12.0083204624
 30
0
 10
14.5074351828
 20
-11.9626451502
 30
0
 10
14.4306419292
 20
-11.9119887978
 30
0
 10
14.3420972095
 20
-11.8569394353
 30
0
 10
14.2415163124
 20
-11.7980978773
 30
0
 10
14.1286384846
 20
-11.7360768798
 30
0
 10
14.0032273612
 20
-11.671500283
 30
0
 10
13.8650713683
 20
-11.6050021391
 30
0
 10
13.7139840956
 20
-11.5372258262
 30
0
 10
13.5498046394
 20
-11.4688231509
 30
0
 10
13.3723979155
 20
-11.4004534378
 30
0
 10
13.1816549415
 20
-11.33278261
 30
0
 10
12.9774930879
 20
-11.2664822586
 30
0
 10
12.7598562986
 20
-11.2022287048
 30
0
 10
12.2716955956
 20
-11.7349626298
 30
0
 10
12.3546729413
 20
-11.9461711793
 30
0
 10
12.4385148778
 20
-12.143777679
 30
0
 10
12.5225525432
 20
-12.3278969172
 30
0
 10
12.6061241037
 20
-12.4986697418
 30
0
 10
12.6885756687
 20
-12.6562627596
 30
0
 10
12.7692621957
 20
-12.8008680048
 30
0
 10
12.8475483823
 20
-12.9327025773
 30
0
 10
12.9228095452
 20
-13.0520082522
 30
0
 10
12.994432485
 20
-13.1590510597
 30
0
 10
13.0618163359
 20
-13.2541208364
 30
0
 10
13.1243733997
 20
-13.3375307487
 30
0
 10
13.1815299625
 20
-13.4096167887
 30
0
 10
13.2327270939
 20
-13.470737243
 30
0
 10
13.2774214276
 20
-13.5212721352
 30
0
 10
13.3150859229
 20
-13.5616226423
 30
0
 10
13.3452106048
 20
-13.5922104867
 30
0
 10
13.3673032846
 20
-13.6134773033
 30
0
 10
13.3808902573
 20
-13.6258839826
 30
0
 10
13.3855169777
 20
-13.6299099913
 30
0
 10
13.5115061425
 20
-13.7356274531
 30
0
 10
12.5057538902
 20
-14.6572295952
 30
0
 10
12.4114193946
 20
-14.5225059733
 30
0
 10
12.4078119513
 20
-14.5175459692
 30
0
 10
12.3966366659
 20
-14.5029293856
 30
0
 10
12.3773762798
 20
-14.47906725
 30
0
 10
12.3495303704
 20
-14.4463912952
 30
0
 10
12.3126160862
 20
-14.4053533464
 30
0
 10
12.2661688625
 20
-14.356424682
 30
0
 10
12.2097431139
 20
-14.3000953725
 30
0
 10
12.1429129057
 20
-14.2368735954
 30
0
 10
12.0652726007
 20
-14.1672849273
 30
0
 10
11.9764374828
 20
-14.0918716152
 30
0
 10
11.876044356
 20
-14.0111918269
 30
0
 10
11.7637521177
 20
-13.9258188808
 30
0
 10
11.6392423063
 20
-13.8363404566
 30
0
 10
11.502219622
 20
-13.7433577887
 30
0
 10
11.3524124206
 20
-13.6474848403
 30
0
 10
11.1895731795
 20
-13.5493474625
 30
0
 10
11.0134789358
 20
-13.4495825367
 30
0
 10
10.8239316947
 20
-13.3488371029
 30
0
 10
10.6207588097
 20
-13.247767473
 30
0
 10
10.0475060895
 20
-13.6876397562
 30
0
 10
10.0925468431
 20
-13.9100484381
 30
0
 10
10.1408010236
 20
-14.1192118506
 30
0
 10
10.1915899979
 20
-14.3151268913
 30
0
 10
10.2442375288
 20
-14.4978173421
 30
0
 10
10.2980707289
 20
-14.6673337319
 30
0
 10
10.352421009
 20
-14.8237531668
 30
0
 10
10.4066250192
 20
-14.9671791296
 30
0
 10
10.4600255829
 20
-15.097741247
 30
0
 10
10.5119726209
 20
-15.2155950267
 30
0
 10
10.5618240662
 20
-15.3209215628
 30
0
 10
10.6089467684
 20
-15.4139272112
 30
0
 10
10.652717385
 20
-15.4948432353
 30
0
 10
10.6925232614
 20
-15.5639254212
 30
0
 10
10.7277632959
 20
-15.6214536643
 30
0
 10
10.7578487908
 20
-15.6677315275
 30
0
 10
10.7822042877
 20
-15.70308577
 30
0
 10
10.8002683861
 20
-15.7278658495
 30
0
 10
10.811494545
 20
-15.7424433965
 30
0
 10
10.8153518659
 20
-15.7472116626
 30
0
 10
10.9210693277
 20
-15.8732008275
 30
0
 10
9.7705621795
 20
-16.6061547164
 30
0
 10
9.70105534825
 20
-16.4570968358
 30
0
 10
9.69836400582
 20
-16.4515857594
 30
0
 10
9.68989664119
 20
-16.4352506666
 30
0
 10
9.67507248006
 20
-16.4084065194
 30
0
 10
9.65332373253
 20
-16.3713915945
 30
0
 10
9.62409642432
 20
-16.3245670061
 30
0
 10
9.58685121168
 20
-16.2683162023
 30
0
 10
9.541064179
 20
-16.2030444332
 30
0
 10
9.48622761822
 20
-16.1291781931
 30
0
 10
9.42185078926
 20
-16.0471646357
 30
0
 10
9.34746066062
 20
-15.9574709649
 30
0
 10
9.26260262921
 20
-15.8605838004
 30
0
 10
9.16684121888
 20
-15.7570085186
 30
0
 10
9.05976075657
 20
-15.6472685709
 30
0
 10
8.94096602554
 20
-15.5319047792
 30
0
 10
8.81008289491
 20
-15.4114746088
 30
0
 10
8.66675892467
 20
-15.2865514208
 30
0
 10
8.51066394575
 20
-15.1577237039
 30
0
 10
8.34149061415
 20
-15.0255942866
 30
0
 10
8.15895493886
 20
-14.8907795303
 30
0
 10
7.51802819513
 20
-15.2244248749
 30
0
 10
7.52376381618
 20
-15.4512759139
 30
0
 10
7.53496406186
 20
-15.6656409147
 30
0
 10
7.55096114775
 20
-15.8673989785
 30
0
 10
7.57108498047
 20
-16.0564560987
 30
0
 10
7.59466412112
 20
-16.2327451907
 30
0
 10
7.62102674847
 20
-16.3962260901
 30
0
 10
7.64950162096
 20
-16.5468855178
 30
0
 10
7.67941903633
 20
-16.6847370138
 30
0
 10
7.71011178797
 20
-16.8098208383
 30
0
 10
7.74091611681
 20
-16.9222038403
 30
0
 10
7.77117265787
 20
-17.0219792953
 30
0
 10
7.80022738039
 20
-17.109266711
 30
0
 10
7.8274325204
 20
-17.1842116011
 30
0
 10
7.85214750499
 20
-17.2469852287
 30
0
 10
7.87373986701
 20
-17.2977843185
 30
0
 10
7.89158614937
 20
-17.3368307383
 30
0
 10
7.90507279786
 20
-17.3643711504
 30
0
 10
7.91359704169
 20
-17.3806766338
 30
0
 10
7.91656776057
 20
-17.386042276
 30
0
 10
7.99880134765
 20
-17.5284750269
 30
0
 10
6.73849688111
 20
-18.0505102297
 30
0
 10
6.69592964414
 20
-17.8916471386
 30
0
 10
6.69423617762
 20
-17.8857524411
 30
0
 10
6.68873401038
 20
-17.8681951727
 30
0
 10
6.6787964988
 20
-17.8391846599
 30
0
 10
6.66380573788
 20
-17.7989554444
 30
0
 10
6.6431534626
 20
-17.7477669579
 30
0
 10
6.616241938
 20
-17.6859031669
 30
0
 10
6.58248483698
 20
-17.6136721879
 30
0
 10
6.54130810477
 20
-17.5314058731
 30
0
 10
6.49215080929
 20
-17.4394593669
 30
0
 10
6.43446597632
 20
-17.3382106343
 30
0
 10
6.36772140864
 20
-17.228059961
 30
0
 10
6.29140048825
 20
-17.109429426
 30
0
 10
6.2050029607
 20
-16.9827623476
 30
0
 10
6.10804570077
 20
-16.8485227025
 30
0
 10
6.00006345861
 20
-16.7071945199
 30
0
 10
5.88060958547
 20
-16.5592812496
 30
0
 10
5.74925673829
 20
-16.4053051066
 30
0
 10
5.60559756227
 20
-16.2458063912
 30
0
 10
5.44924535078
 20
-16.0813427866
 30
0
 10
4.76011881838
 20
-16.2986235477
 30
0
 10
4.72637503293
 20
-16.5230241899
 30
0
 10
4.70018102996
 20
-16.7360774068
 30
0
 10
4.68090016406
 20
-16.9375481771
 30
0
 10
4.66788884615
 20
-17.1272275618
 30
0
 10
4.6604974871
 20
-17.3049329011
 30
0
 10
4.65807144665
 20
-17.4705079804
 30
0
 10
4.65995198677
 20
-17.6238231626
 30
0
 10
4.6654772283
 20
-17.7647754894
 30
0
 10
4.67398310991
 20
-17.8932887499
 30
0
 10
4.68480434828
 20
-18.0093135171
 30
0
 10
4.69727539856
 20
-18.112827152
 30
0
 10
4.71073141389
 20
-18.2038337753
 30
0
 10
4.7245092031
 20
-18.2823642071
 30
0
 10
4.73794818549
 20
-18.3484758743
 30
0
 10
4.75039134165
 20
-18.4022526862
 30
0
 10
4.76118615923
 20
-18.4438048775
 30
0
 10
4.76968557285
 20
-18.4732688208
 30
0
 10
4.77524889679
 20
-18.4908068067
 30
0
 10
4.77724274979
 20
-18.4966067926
 30
0
 10
4.83349383626
 20
-18.6511553825
 30
0
 10
3.50168576482
 20
-18.9464101236
 30
0
 10
3.4873515061
 20
-18.7825687967
 30
0
 10
3.48670737061
 20
-18.7764695856
 30
0
 10
3.48433758133
 20
-18.7582236102
 30
0
 10
3.47958866556
 20
-18.7279282015
 30
0
 10
3.47181137794
 20
-18.6857070399
 30
0
 10
3.46036164452
 20
-18.6317099915
 30
0
 10
3.44460150102
 20
-18.5661129133
 30
0
 10
3.42390002409
 20
-18.4891174261
 30
0
 10
3.39763425462
 20
-18.400950657
 30
0
 10
3.36519011216
 20
-18.30186495
 30
0
 10
3.32596329932
 20
-18.192137547
 30
0
 10
3.27936019529
 20
-18.0720702374
 30
0
 10
3.22479873739
 20
-17.9419889781
 30
0
 10
3.16170928975
 20
-17.802243484
 30
0
 10
3.0895354982
 20
-17.6532067893
 30
0
 10
3.0077351303
 20
-17.4952747797
 30
0
 10
2.91578089975
 20
-17.328865697
 30
0
 10
2.8131612741
 20
-17.154419615
 30
0
 10
2.69938126502
 20
-16.9723978894
 30
0
 10
2.57396320018
 20
-16.78328258
 30
0
 10
1.85757564006
 20
-16.8775967915
 30
0
 10
1.78537773595
 20
-17.0927287368
 30
0
 10
1.72258537588
 20
-17.2979966558
 30
0
 10
1.66861239753
 20
-17.4930585452
 30
0
 10
1.6228612713
 20
-17.6775968821
 30
0
 10
1.58472399525
 20
-17.8513189821
 30
0
 10
1.55358300103
 20
-18.0139573264
 30
0
 10
1.52881206952
 20
-18.1652698588
 30
0
 10
1.50977725554
 20
-18.3050402511
 30
0
 10
1.49583782019
 20
-18.4330781373
 30
0
 10
1.48634717025
 20
-18.5492193159
 30
0
 10
1.48065380319
 20
-18.6533259212
 30
0
 10
1.47810225712
 20
-18.745286562
 30
0
 10
1.47803406438
 20
-18.825016428
 30
0
 10
1.4797887079
 20
-18.8924573653
 30
0
 10
1.48270457917
 20
-18.9475779179
 30
0
 10
1.48611993693
 20
-18.9903733385
 30
0
 10
1.48937386529
 20
-19.020865566
 30
0
 10
1.49180723056
 20
-19.0391031715
 30
0
 10
1.49276363545
 20
-19.0451612716
 30
0
 10
1.52132306053
 20
-19.2071298198
 30
0
 10
0.158477698509
 20
-19.2666329333
 30
0
 10
0.17281195723
 20
-19.1027916064
 30
0
 10
0.173236724502
 20
-19.0966732031
 30
0
 10
0.174071318029
 20
-19.0782929154
 30
0
 10
0.174655291474
 20
-19.0476331215
 30
0
 10
0.174327786095
 20
-19.0047028824
 30
0
 10
0.172428488898
 20
-18.9495379452
 30
0
 10
0.168298590486
 20
-18.8822007138
 30
0
 10
0.161281741542
 20
-18.8027801873
 30
0
 10
0.150725006927
 20
-18.7113918665
 30
0
 10
0.135979816337
 20
-18.6081776278
 30
0
 10
0.116402910496
 20
-18.4933055661
 30
0
 10
0.0913572818467
 20
-18.3669698046
 30
0
 10
0.0602131087165
 20
-18.2293902742
 30
0
 10
0.0223486819351
 20
-18.0808124605
 30
0
 10
-0.0228486771049
 20
-17.9215071207
 30
0
 10
-0.0759817079516
 20
-17.7517699684
 30
0
 10
-0.137642313155
 20
-17.571921329
 30
0
 10
-0.208410671875
 20
-17.382305764
 30
0
 10
-0.288854366004
 20
-17.1832916662
 30
0
 10
-0.379527519773
 20
-16.9752708248
 30
0
 10
-1.1014090341
 20
-16.9437527972
 30
0
 10
-1.20986736008
 20
-17.1430793705
 30
0
 10
-1.30735016318
 20
-17.3343250296
 30
0
 10
-1.39437531233
 20
-17.5170511813
 30
0
 10
-1.47147612207
 20
-17.6908413665
 30
0
 10
-1.53920053327
 20
-17.8553017689
 30
0
 10
-1.59811027793
 20
-18.0100616944
 30
0
 10
-1.64878002884
 20
-18.1547740224
 30
0
 10
-1.69179653515
 20
-18.2891156276
 30
0
 10
-1.72775774475
 20
-18.412787773
 30
0
 10
-1.75727191442
 20
-18.5255164721
 30
0
 10
-1.78095670873
 20
-18.6270528214
 30
0
 10
-1.79943828877
 20
-18.717173302
 30
0
 10
-1.81335039146
 20
-18.7956800507
 30
0
 10
-1.82333340078
 20
-18.8624010993
 30
0
 10
-1.83003341165
 20
-18.9171905826
 30
0
 10
-1.83410128765
 20
-18.9599289152
 30
0
 10
-1.83619171351
 20
-18.990522936
 30
0
 10
-1.83696224349
 20
-19.0089060207
 30
0
 10
-1.83707234657
 20
-19.0150381626
 30
0
 10
-1.83707234657
 20
-19.1795053367
 30
0
 10
-3.18954563248
 20
-19.0014488507
 30
0
 10
-3.14697839551
 20
-18.8425857596
 30
0
 10
-3.14549763182
 20
-18.8366340686
 30
0
 10
-3.14148401418
 20
-18.8186779445
 30
0
 10
-3.13558489527
 20
-18.7885853477
 30
0
 10
-3.12845266732
 20
-18.7462504446
 30
0
 10
-3.12074381911
 20
-18.6915937773
 30
0
 10
-3.11311798756
 20
-18.6245624004
 30
0
 10
-3.10623700511
 20
-18.5451299872
 30
0
 10
-3.10076394383
 20
-18.4532969025
 30
0
 10
-3.09736215739
 20
-18.3490902446
 30
0
 10
-3.09669432186
 20
-18.2325638536
 30
0
 10
-3.09942147638
 20
-18.1037982884
 30
0
 10
-3.10620206479
 20
-17.9629007713
 30
0
 10
-3.11769097927
 20
-17.8100050998
 30
0
 10
-3.13453860692
 20
-17.645271527
 30
0
 10
-3.15738988046
 20
-17.4688866095
 30
0
 10
-3.18688333403
 20
-17.2810630233
 30
0
 10
-3.22365016504
 20
-17.0820393483
 30
0
 10
-3.26831330329
 20
-16.8720798209
 30
0
 10
-3.32148648809
 20
-16.6514740556
 30
0
 10
-4.0269279521
 20
-16.4950814482
 30
0
 10
-4.16835124861
 20
-16.6725462122
 30
0
 10
-4.29756252909
 20
-16.843958709
 30
0
 10
-4.41499563392
 20
-17.0087970813
 30
0
 10
-4.52110345807
 20
-17.166558588
 30
0
 10
-4.61635723247
 20
-17.3167602467
 30
0
 10
-4.70124578478
 20
-17.4589394514
 30
0
 10
-4.77627478036
 20
-17.592654564
 30
0
 10
-4.84196594421
 20
-17.7174854805
 30
0
 10
-4.89885626491
 20
-17.8330341696
 30
0
 10
-4.94749718119
 20
-17.9389251847
 30
0
 10
-4.98845375228
 20
-18.0348061473
 30
0
 10
-5.02230381282
 20
-18.1203482026
 30
0
 10
-5.04963711326
 20
-18.1952464461
 30
0
 10
-5.07105444672
 20
-18.2592203207
 30
0
 10
-5.0871667633
 20
-18.3120139839
 30
0
 10
-5.0985942727
 20
-18.353396646
 30
0
 10
-5.10596553625
 20
-18.3831628762
 30
0
 10
-5.10991654931
 20
-18.4011328794
 30
0
 10
-5.11108981495
 20
-18.4071527411
 30
0
 10
-5.13964924002
 20
-18.5691212893
 30
0
 10
-6.44065623341
 20
-18.15891536
 30
0
 10
-6.37114940216
 20
-18.0098574794
 30
0
 10
-6.36865763429
 20
-18.0042533398
 30
0
 10
-6.36158694429
 20
-17.9872669669
 30
0
 10
-6.35055192165
 20
-17.9586559155
 30
0
 10
-6.3361766695
 20
-17.9182026732
 30
0
 10
-6.31909390534
 20
-17.8657149909
 30
0
 10
-6.29994405087
 20
-17.801026183
 30
0
 10
-6.27937431219
 20
-17.7239953966
 30
0
 10
-6.25803775121
 20
-17.63450785
 30
0
 10
-6.23659234931
 20
-17.5324750394
 30
0
 10
-6.21570006425
 20
-17.4178349145
 30
0
 10
-6.19602588143
 20
-17.2905520222
 30
0
 10
-6.17823686038
 20
-17.1506176181
 30
0
 10
-6.1630011777
 20
-16.9980497464
 30
0
 10
-6.15098716731
 20
-16.8328932869
 30
0
 10
-6.14286235917
 20
-16.6552199706
 30
0
 10
-6.13929251743
 20
-16.4651283622
 30
0
 10
-6.1409406792
 20
-16.2627438108
 30
0
 10
-6.1484661947
 20
-16.0482183679
 30
0
 10
-6.16252377022
 20
-15.8217306732
 30
0
 10
-6.830090702
 20
-15.5452153963
 30
0
 10
-7.00018189373
 20
-15.6954261741
 30
0
 10
-7.15719563221
 20
-15.8417972265
 30
0
 10
-7.30146854727
 20
-15.9837392888
 30
0
 10
-7.43335935329
 20
-16.1206786134
 30
0
 10
-7.55324825315
 20
-16.2520577271
 30
0
 10
-7.6615363174
 20
-16.3773361678
 30
0
 10
-7.75864483958
 20
-16.4959911991
 30
0
 10
-7.84501466821
 20
-16.6075185025
 30
0
 10
-7.9211055164
 20
-16.7114328469
 30
0
 10
-7.98739524966
 20
-16.807268733
 30
0
 10
-8.04437915283
 20
-16.8945810144
 30
0
 10
-8.09256917692
 20
-16.9729454924
 30
0
 10
-8.13249316661
 20
-17.0419594855
 30
0
 10
-8.16469406938
 20
-17.1012423722
 30
0
 10
-8.18972912708
 20
-17.1504361067
 30
0
 10
-8.20816905079
 20
-17.1892057069
 30
0
 10
-8.22059717992
 20
-17.2172397148
 30
0
 10
-8.22760862653
 20
-17.2342506271
 30
0
 10
-8.22980940563
 20
-17.2399752981
 30
0
 10
-8.28606049211
 20
-17.394523888
 30
0
 10
-9.49607075382
 20
-16.7646324149
 30
0
 10
-9.40173625818
 20
-16.629908793
 30
0
 10
-9.39830919725
 20
-16.6248224839
 30
0
 10
-9.38839627422
 20
-16.6093219846
 30
0
 10
-9.37256064142
 20
-16.5830618109
 30
0
 10
-9.35137914985
 20
-16.5457193806
 30
0
 10
-9.32544152087
 20
-16.496995495
 30
0
 10
-9.29534950211
 20
-16.4366147927
 30
0
 10
-9.26171600831
 20
-16.3643261748
 30
0
 10
-9.22516424825
 20
-16.2799032
 30
0
 10
-9.18632683856
 20
-16.183144452
 30
0
 10
-9.14584490549
 20
-16.0738738754
 30
0
 10
-9.10436717541
 20
-15.9519410823
 30
0
 10
-9.0625490553
 20
-15.8172216273
 30
0
 10
-9.02105170397
 20
-15.6696172529
 30
0
 10
-8.98054109518
 20
-15.5090561021
 30
0
 10
-8.94168707353
 20
-15.3354929008
 30
0
 10
-8.90516240433
 20
-15.1489091076
 30
0
 10
-8.87164181827
 20
-14.9493130321
 30
0
 10
-8.84180105206
 20
-14.7367399206
 30
0
 10
-8.81631588597
 20
-14.5112520105
 30
0
 10
-9.42572460211
 20
-14.1230158408
 30
0
 10
-9.61931555427
 20
-14.2414085539
 30
0
 10
-9.79936096777
 20
-14.3582907515
 30
0
 10
-9.96609003353
 20
-14.4730236662
 30
0
 10
-10.119756386
 20
-14.5849799767
 30
0
 10
-10.2606376478
 20
-14.6935446575
 30
0
 10
-10.3890349459
 20
-14.7981158121
 30
0
 10
-10.5052724014
 20
-14.8981054889
 30
0
 10
-10.6096965913
 20
-14.9929404787
 30
0
 10
-10.7026759851
 20
-15.0820630936
 30
0
 10
-10.7846003553
 20
-15.1649319259
 30
0
 10
-10.8558801635
 20
-15.2410225866
 30
0
 10
-10.9169459216
 20
-15.3098284222
 30
0
 10
-10.9682475303
 20
-15.3708612096
 30
0
 10
-11.0102535943
 20
-15.4236518279
 30
0
 10
-11.0434507155
 20
-15.4677509069
 30
0
 10
-11.0683427658
 20
-15.5027294507
 30
0
 10
-11.0854501381
 20
-15.5281794369
 30
0
 10
-11.095308979
 20
-15.5437143903
 30
0
 10
-11.098470402
 20
-15.5489699294
 30
0
 10
-11.1807039891
 20
-15.6914026803
 30
0
 10
-12.2629519696
 20
-14.8609645972
 30
0
 10
-12.1466561155
 20
-14.7446687431
 30
0
 10
-12.142397891
 20
-14.7402548093
 30
0
 10
-12.1299439341
 20
-14.7267111585
 30
0
 10
-12.1097888489
 20
-14.7035997646
 30
0
 10
-12.0824447067
 20
-14.6705027771
 30
0
 10
-12.0484403147
 20
-14.6270231388
 30
0
 10
-12.0083204624
 20
-14.5727851793
 30
0
 10
-11.9626451502
 20
-14.5074351828
 30
0
 10
-11.9119887978
 20
-14.4306419292
 30
0
 10
-11.8569394353
 20
-14.3420972095
 30
0
 10
-11.7980978773
 20
-14.2415163124
 30
0
 10
-11.7360768798
 20
-14.1286384846
 30
0
 10
-11.671500283
 20
-14.0032273612
 30
0
 10
-11.6050021391
 20
-13.8650713683
 30
0
 10
-11.5372258262
 20
-13.7139840956
 30
0
 10
-11.4688231509
 20
-13.5498046394
 30
0
 10
-11.4004534378
 20
-13.3723979155
 30
0
 10
-11.33278261
 20
-13.1816549415
 30
0
 10
-11.2664822586
 20
-12.9774930879
 30
0
 10
-11.2022287048
 20
-12.7598562986
 30
0
 10
-11.7349626298
 20
-12.2716955956
 30
0
 10
-11.9461711793
 20
-12.3546729413
 30
0
 10
-12.143777679
 20
-12.4385148778
 30
0
 10
-12.3278969172
 20
-12.5225525432
 30
0
 10
-12.4986697418
 20
-12.6061241037
 30
0
 10
-12.6562627596
 20
-12.6885756687
 30
0
 10
-12.8008680048
 20
-12.7692621957
 30
0
 10
-12.9327025773
 20
-12.8475483823
 30
0
 10
-13.0520082522
 20
-12.9228095452
 30
0
 10
-13.1590510597
 20
-12.994432485
 30
0
 10
-13.2541208364
 20
-13.0618163359
 30
0
 10
-13.3375307487
 20
-13.1243733997
 30
0
 10
-13.4096167887
 20
-13.1815299625
 30
0
 10
-13.470737243
 20
-13.2327270939
 30
0
 10
-13.5212721352
 20
-13.2774214276
 30
0
 10
-13.5616226423
 20
-13.3150859229
 30
0
 10
-13.5922104867
 20
-13.3452106048
 30
0
 10
-13.6134773033
 20
-13.3673032846
 30
0
 10
-13.6258839826
 20
-13.3808902573
 30
0
 10
-13.6299099913
 20
-13.3855169777
 30
0
 10
-13.7356274531
 20
-13.5115061425
 30
0
 10
-14.6572295952
 20
-12.5057538902
 30
0
 10
-14.5225059733
 20
-12.4114193946
 30
0
 10
-14.5175459692
 20
-12.4078119513
 30
0
 10
-14.5029293856
 20
-12.3966366659
 30
0
 10
-14.47906725
 20
-12.3773762798
 30
0
 10
-14.4463912952
 20
-12.3495303704
 30
0
 10
-14.4053533464
 20
-12.3126160862
 30
0
 10
-14.356424682
 20
-12.2661688625
 30
0
 10
-14.3000953725
 20
-12.2097431139
 30
0
 10
-14.2368735954
 20
-12.1429129057
 30
0
 10
-14.1672849273
 20
-12.0652726007
 30
0
 10
-14.0918716152
 20
-11.9764374828
 30
0
 10
-14.0111918269
 20
-11.876044356
 30
0
 10
-13.9258188808
 20
-11.7637521177
 30
0
 10
-13.8363404566
 20
-11.6392423063
 30
0
 10
-13.7433577887
 20
-11.502219622
 30
0
 10
-13.6474848403
 20
-11.3524124206
 30
0
 10
-13.5493474625
 20
-11.1895731795
 30
0
 10
-13.4495825367
 20
-11.0134789358
 30
0
 10
-13.3488371029
 20
-10.8239316947
 30
0
 10
-13.247767473
 20
-10.6207588097
 30
0
 10
-13.6876397562
 20
-10.0475060895
 30
0
 10
-13.9100484381
 20
-10.0925468431
 30
0
 10
-14.1192118506
 20
-10.1408010236
 30
0
 10
-14.3151268913
 20
-10.1915899979
 30
0
 10
-14.4978173421
 20
-10.2442375288
 30
0
 10
-14.6673337319
 20
-10.2980707289
 30
0
 10
-14.8237531668
 20
-10.352421009
 30
0
 10
-14.9671791296
 20
-10.4066250192
 30
0
 10
-15.097741247
 20
-10.4600255829
 30
0
 10
-15.2155950267
 20
-10.5119726209
 30
0
 10
-15.3209215628
 20
-10.5618240662
 30
0
 10
-15.4139272112
 20
-10.6089467684
 30
0
 10
-15.4948432353
 20
-10.652717385
 30
0
 10
-15.5639254212
 20
-10.6925232614
 30
0
 10
-15.6214536643
 20
-10.7277632959
 30
0
 10
-15.6677315275
 20
-10.7578487908
 30
0
 10
-15.70308577
 20
-10.7822042877
 30
0
 10
-15.7278658495
 20
-10.8002683861
 30
0
 10
-15.7424433965
 20
-10.811494545
 30
0
 10
-15.7472116626
 20
-10.8153518659
 30
0
 10
-15.8732008275
 20
-10.9210693277
 30
0
 10
-16.6061547164
 20
-9.7705621795
 30
0
 10
-16.4570968358
 20
-9.70105534825
 30
0
 10
-16.4515857594
 20
-9.69836400582
 30
0
 10
-16.4352506666
 20
-9.68989664119
 30
0
 10
-16.4084065194
 20
-9.67507248006
 30
0
 10
-16.3713915945
 20
-9.65332373253
 30
0
 10
-16.3245670061
 20
-9.62409642432
 30
0
 10
-16.2683162023
 20
-9.58685121168
 30
0
 10
-16.2030444332
 20
-9.541064179
 30
0
 10
-16.1291781931
 20
-9.48622761822
 30
0
 10
-16.0471646357
 20
-9.42185078926
 30
0
 10
-15.9574709649
 20
-9.34746066062
 30
0
 10
-15.8605838004
 20
-9.26260262921
 30
0
 10
-15.7570085186
 20
-9.16684121888
 30
0
 10
-15.6472685709
 20
-9.05976075657
 30
0
 10
-15.5319047792
 20
-8.94096602554
 30
0
 10
-15.4114746088
 20
-8.81008289491
 30
0
 10
-15.2865514208
 20
-8.66675892467
 30
0
 10
-15.1577237039
 20
-8.51066394575
 30
0
 10
-15.0255942866
 20
-8.34149061415
 30
0
 10
-14.8907795303
 20
-8.15895493886
 30
0
 10
-15.2244248749
 20
-7.51802819513
 30
0
 10
-15.4512759139
 20
-7.52376381618
 30
0
 10
-15.6656409147
 20
-7.53496406186
 30
0
 10
-15.8673989785
 20
-7.55096114775
 30
0
 10
-16.0564560987
 20
-7.57108498047
 30
0
 10
-16.2327451907
 20
-7.59466412112
 30
0
 10
-16.3962260901
 20
-7.62102674847
 30
0
 10
-16.5468855178
 20
-7.64950162096
 30
0
 10
-16.6847370138
 20
-7.67941903633
 30
0
 10
-16.8098208383
 20
-7.71011178797
 30
0
 10
-16.9222038403
 20
-7.74091611681
 30
0
 10
-17.0219792953
 20
-7.77117265787
 30
0
 10
-17.109266711
 20
-7.80022738039
 30
0
 10
-17.1842116011
 20
-7.8274325204
 30
0
 10
-17.2469852287
 20
-7.85214750499
 30
0
 10
-17.2977843185
 20
-7.87373986701
 30
0
 10
-17.3368307383
 20
-7.89158614937
 30
0
 10
-17.3643711504
 20
-7.90507279786
 30
0
 10
-17.3806766338
 20
-7.91359704169
 30
0
 10
-17.386042276
 20
-7.91656776057
 30
0
 10
-17.5284750269
 20
-7.99880134765
 30
0
 10
-18.0505102297
 20
-6.73849688111
 30
0
 10
-17.8916471386
 20
-6.69592964414
 30
0
 10
-17.8857524411
 20
-6.69423617762
 30
0
 10
-17.8681951727
 20
-6.68873401038
 30
0
 10
-17.8391846599
 20
-6.6787964988
 30
0
 10
-17.7989554444
 20
-6.66380573788
 30
0
 10
-17.7477669579
 20
-6.6431534626
 30
0
 10
-17.6859031669
 20
-6.616241938
 30
0
 10
-17.6136721879
 20
-6.58248483698
 30
0
 10
-17.5314058731
 20
-6.54130810477
 30
0
 10
-17.4394593669
 20
-6.49215080929
 30
0
 10
-17.3382106343
 20
-6.43446597632
 30
0
 10
-17.228059961
 20
-6.36772140864
 30
0
 10
-17.109429426
 20
-6.29140048825
 30
0
 10
-16.9827623476
 20
-6.2050029607
 30
0
 10
-16.8485227025
 20
-6.10804570077
 30
0
 10
-16.7071945199
 20
-6.00006345861
 30
0
 10
-16.5592812496
 20
-5.88060958547
 30
0
 10
-16.4053051066
 20
-5.74925673829
 30
0
 10
-16.2458063912
 20
-5.60559756227
 30
0
 10
-16.0813427866
 20
-5.44924535078
 30
0
 10
-16.2986235477
 20
-4.76011881838
 30
0
 10
-16.5230241899
 20
-4.72637503293
 30
0
 10
-16.7360774068
 20
-4.70018102996
 30
0
 10
-16.9375481771
 20
-4.68090016406
 30
0
 10
-17.1272275618
 20
-4.66788884615
 30
0
 10
-17.3049329011
 20
-4.6604974871
 30
0
 10
-17.4705079804
 20
-4.65807144665
 30
0
 10
-17.6238231626
 20
-4.65995198677
 30
0
 10
-17.7647754894
 20
-4.6654772283
 30
0
 10
-17.8932887499
 20
-4.67398310991
 30
0
 10
-18.0093135171
 20
-4.68480434828
 30
0
 10
-18.112827152
 20
-4.69727539856
 30
0
 10
-18.2038337753
 20
-4.71073141389
 30
0
 10
-18.2823642071
 20
-4.7245092031
 30
0
 10
-18.3484758743
 20
-4.73794818549
 30
0
 10
-18.4022526862
 20
-4.75039134165
 30
0
 10
-18.4438048775
 20
-4.76118615923
 30
0
 10
-18.4732688208
 20
-4.76968557285
 30
0
 10
-18.4908068067
 20
-4.77524889679
 30
0
 10
-18.4966067926
 20
-4.77724274979
 30
0
 10
-18.6511553825
 20
-4.83349383626
 30
0
 10
-18.9464101236
 20
-3.50168576482
 30
0
 10
-18.7825687967
 20
-3.4873515061
 30
0
 10
-18.7764695856
 20
-3.48670737061
 30
0
 10
-18.7582236102
 20
-3.48433758133
 30
0
 10
-18.7279282015
 20
-3.47958866556
 30
0
 10
-18.6857070399
 20
-3.47181137794
 30
0
 10
-18.6317099915
 20
-3.46036164452
 30
0
 10
-18.5661129133
 20
-3.44460150102
 30
0
 10
-18.4891174261
 20
-3.42390002409
 30
0
 10
-18.400950657
 20
-3.39763425462
 30
0
 10
-18.30186495
 20
-3.36519011216
 30
0
 10
-18.192137547
 20
-3.32596329932
 30
0
 10
-18.0720702374
 20
-3.27936019529
 30
0
 10
-17.9419889781
 20
-3.22479873739
 30
0
 10
-17.802243484
 20
-3.16170928975
 30
0
 10
-17.6532067893
 20
-3.0895354982
 30
0
 10
-17.4952747797
 20
-3.0077351303
 30
0
 10
-17.328865697
 20
-2.91578089975
 30
0
 10
-17.154419615
 20
-2.8131612741
 30
0
 10
-16.9723978894
 20
-2.69938126502
 30
0
 10
-16.78328258
 20
-2.57396320018
 30
0
 10
-16.8775967915
 20
-1.85757564006
 30
0
 10
-17.0927287368
 20
-1.78537773595
 30
0
 10
-17.2979966558
 20
-1.72258537588
 30
0
 10
-17.4930585452
 20
-1.66861239753
 30
0
 10
-17.6775968821
 20
-1.6228612713
 30
0
 10
-17.8513189821
 20
-1.58472399525
 30
0
 10
-18.0139573264
 20
-1.55358300103
 30
0
 10
-18.1652698588
 20
-1.52881206952
 30
0
 10
-18.3050402511
 20
-1.50977725554
 30
0
 10
-18.4330781373
 20
-1.49583782019
 30
0
 10
-18.5492193159
 20
-1.48634717025
 30
0
 10
-18.6533259212
 20
-1.48065380319
 30
0
 10
-18.745286562
 20
-1.47810225712
 30
0
 10
-18.825016428
 20
-1.47803406438
 30
0
 10
-18.8924573653
 20
-1.4797887079
 30
0
 10
-18.9475779179
 20
-1.48270457917
 30
0
 10
-18.9903733385
 20
-1.48611993693
 30
0
 10
-19.020865566
 20
-1.48937386529
 30
0
 10
-19.0391031715
 20
-1.49180723056
 30
0
 10
-19.0451612716
 20
-1.49276363545
 30
0
 10
-19.2071298198
 20
-1.52132306053
 30
0
 10
-19.2666329333
 20
-0.158477698509
 30
0
 10
-19.1027916064
 20
-0.17281195723
 30
0
 10
-19.0966732031
 20
-0.173236724502
 30
0
 10
-19.0782929154
 20
-0.174071318029
 30
0
 10
-19.0476331215
 20
-0.174655291474
 30
0
 10
-19.0047028824
 20
-0.174327786095
 30
0
 10
-18.9495379452
 20
-0.172428488898
 30
0
 10
-18.8822007138
 20
-0.168298590486
 30
0
 10
-18.8027801873
 20
-0.161281741542
 30
0
 10
-18.7113918665
 20
-0.150725006927
 30
0
 10
-18.6081776278
 20
-0.135979816337
 30
0
 10
-18.4933055661
 20
-0.116402910496
 30
0
 10
-18.3669698046
 20
-0.0913572818467
 30
0
 10
-18.2293902742
 20
-0.0602131087165
 30
0
 10
-18.0808124605
 20
-0.0223486819351
 30
0
 10
-17.9215071207
 20
0.0228486771049
 30
0
 10
-17.7517699684
 20
0.0759817079516
 30
0
 10
-17.571921329
 20
0.137642313155
 30
0
 10
-17.382305764
 20
0.208410671875
 30
0
 10
-17.1832916662
 20
0.288854366004
 30
0
 10
-16.9752708248
 20
0.379527519773
 30
0
 10
-16.9437527972
 20
1.1014090341
 30
0
 10
-17.1430793705
 20
1.20986736008
 30
0
 10
-17.3343250296
 20
1.30735016318
 30
0
 10
-17.5170511813
 20
1.39437531233
 30
0
 10
-17.6908413665
 20
1.47147612207
 30
0
 10
-17.8553017689
 20
1.53920053327
 30
0
 10
-18.0100616944
 20
1.59811027793
 30
0
 10
-18.1547740224
 20
1.64878002884
 30
0
 10
-18.2891156276
 20
1.69179653515
 30
0
 10
-18.412787773
 20
1.72775774475
 30
0
 10
-18.5255164721
 20
1.75727191442
 30
0
 10
-18.6270528214
 20
1.78095670873
 30
0
 10
-18.717173302
 20
1.79943828877
 30
0
 10
-18.7956800507
 20
1.81335039146
 30
0
 10
-18.8624010993
 20
1.82333340078
 30
0
 10
-18.9171905826
 20
1.83003341165
 30
0
 10
-18.9599289152
 20
1.83410128765
 30
0
 10
-18.990522936
 20
1.83619171351
 30
0
 10
-19.0089060207
 20
1.83696224349
 30
0
 10
-19.0150381626
 20
1.83707234657
 30
0
 10
-19.1795053367
 20
1.83707234657
 30
0
 10
-19.0014488507
 20
3.18954563248
 30
0
 10
-18.8425857596
 20
3.14697839551
 30
0
 10
-18.8366340686
 20
3.14549763182
 30
0
 10
-18.8186779445
 20
3.14148401418
 30
0
 10
-18.7885853477
 20
3.13558489527
 30
0
 10
-18.7462504446
 20
3.12845266732
 30
0
 10
-18.6915937773
 20
3.12074381911
 30
0
 10
-18.6245624004
 20
3.11311798756
 30
0
 10
-18.5451299872
 20
3.10623700511
 30
0
 10
-18.4532969025
 20
3.10076394383
 30
0
 10
-18.3490902446
 20
3.09736215739
 30
0
 10
-18.2325638536
 20
3.09669432186
 30
0
 10
-18.1037982884
 20
3.09942147638
 30
0
 10
-17.9629007713
 20
3.10620206479
 30
0
 10
-17.8100050998
 20
3.11769097927
 30
0
 10
-17.645271527
 20
3.13453860692
 30
0
 10
-17.4688866095
 20
3.15738988046
 30
0
 10
-17.2810630233
 20
3.18688333403
 30
0
 10
-17.0820393483
 20
3.22365016504
 30
0
 10
-16.8720798209
 20
3.26831330329
 30
0
 10
-16.6514740556
 20
3.32148648809
 30
0
 10
-16.4950814482
 20
4.0269279521
 30
0
 10
-16.6725462122
 20
4.16835124861
 30
0
 10
-16.843958709
 20
4.29756252909
 30
0
 10
-17.0087970813
 20
4.41499563392
 30
0
 10
-17.166558588
 20
4.52110345807
 30
0
 10
-17.3167602467
 20
4.61635723247
 30
0
 10
-17.4589394514
 20
4.70124578478
 30
0
 10
-17.592654564
 20
4.77627478036
 30
0
 10
-17.7174854805
 20
4.84196594421
 30
0
 10
-17.8330341696
 20
4.89885626491
 30
0
 10
-17.9389251847
 20
4.94749718119
 30
0
 10
-18.0348061473
 20
4.98845375228
 30
0
 10
-18.1203482026
 20
5.02230381282
 30
0
 10
-18.1952464461
 20
5.04963711326
 30
0
 10
-18.2592203207
 20
5.07105444672
 30
0
 10
-18.3120139839
 20
5.0871667633
 30
0
 10
-18.353396646
 20
5.0985942727
 30
0
 10
-18.3831628762
 20
5.10596553625
 30
0
 10
-18.4011328794
 20
5.10991654931
 30
0
 10
-18.4071527411
 20
5.11108981495
 30
0
 10
-18.5691212893
 20
5.13964924002
 30
0
 10
-18.15891536
 20
6.44065623341
 30
0
 10
-18.0098574794
 20
6.37114940216
 30
0
 10
-18.0042533398
 20
6.36865763429
 30
0
 10
-17.9872669669
 20
6.36158694429
 30
0
 10
-17.9586559155
 20
6.35055192165
 30
0
 10
-17.9182026732
 20
6.3361766695
 30
0
 10
-17.8657149909
 20
6.31909390534
 30
0
 10
-17.801026183
 20
6.29994405087
 30
0
 10
-17.7239953966
 20
6.27937431219
 30
0
 10
-17.63450785
 20
6.25803775121
 30
0
 10
-17.5324750394
 20
6.23659234931
 30
0
 10
-17.4178349145
 20
6.21570006425
 30
0
 10
-17.2905520222
 20
6.19602588143
 30
0
 10
-17.1506176181
 20
6.17823686038
 30
0
 10
-16.9980497464
 20
6.1630011777
 30
0
 10
-16.8328932869
 20
6.15098716731
 30
0
 10
-16.6552199706
 20
6.14286235917
 30
0
 10
-16.4651283622
 20
6.13929251743
 30
0
 10
-16.2627438108
 20
6.1409406792
 30
0
 10
-16.0482183679
 20
6.1484661947
 30
0
 10
-15.8217306732
 20
6.16252377022
 30
0
 10
-15.5452153963
 20
6.830090702
 30
0
 10
-15.6954261741
 20
7.00018189373
 30
0
 10
-15.8417972265
 20
7.15719563221
 30
0
 10
-15.9837392888
 20
7.30146854727
 30
0
 10
-16.1206786134
 20
7.43335935329
 30
0
 10
-16.2520577271
 20
7.55324825315
 30
0
 10
-16.3773361678
 20
7.6615363174
 30
0
 10
-16.4959911991
 20
7.75864483958
 30
0
 10
-16.6075185025
 20
7.84501466821
 30
0
 10
-16.7114328469
 20
7.9211055164
 30
0
 10
-16.807268733
 20
7.98739524966
 30
0
 10
-16.8945810144
 20
8.04437915283
 30
0
 10
-16.9729454924
 20
8.09256917692
 30
0
 10
-17.0419594855
 20
8.13249316661
 30
0
 10
-17.1012423722
 20
8.16469406938
 30
0
 10
-17.1504361067
 20
8.18972912708
 30
0
 10
-17.1892057069
 20
8.20816905079
 30
0
 10
-17.2172397148
 20
8.22059717992
 30
0
 10
-17.2342506271
 20
8.22760862653
 30
0
 10
-17.2399752981
 20
8.22980940563
 30
0
 10
-17.394523888
 20
8.28606049211
 30
0
 10
-16.7646324149
 20
9.49607075382
 30
0
 10
-16.629908793
 20
9.40173625818
 30
0
 10
-16.6248224839
 20
9.39830919725
 30
0
 10
-16.6093219846
 20
9.38839627422
 30
0
 10
-16.5830618109
 20
9.37256064142
 30
0
 10
-16.5457193806
 20
9.35137914985
 30
0
 10
-16.496995495
 20
9.32544152087
 30
0
 10
-16.4366147927
 20
9.29534950211
 30
0
 10
-16.3643261748
 20
9.26171600831
 30
0
 10
-16.2799032
 20
9.22516424825
 30
0
 10
-16.183144452
 20
9.18632683856
 30
0
 10
-16.0738738754
 20
9.14584490549
 30
0
 10
-15.9519410823
 20
9.10436717541
 30
0
 10
-15.8172216273
 20
9.0625490553
 30
0
 10
-15.6696172529
 20
9.02105170397
 30
0
 10
-15.5090561021
 20
8.98054109518
 30
0
 10
-15.3354929008
 20
8.94168707353
 30
0
 10
-15.1489091076
 20
8.90516240433
 30
0
 10
-14.9493130321
 20
8.87164181827
 30
0
 10
-14.7367399206
 20
8.84180105206
 30
0
 10
-14.5112520105
 20
8.81631588597
 30
0
 10
-14.1230158408
 20
9.42572460211
 30
0
 10
-14.2414085539
 20
9.61931555427
 30
0
 10
-14.3582907515
 20
9.79936096777
 30
0
 10
-14.4730236662
 20
9.96609003353
 30
0
 10
-14.5849799767
 20
10.119756386
 30
0
 10
-14.6935446575
 20
10.2606376478
 30
0
 10
-14.7981158121
 20
10.3890349459
 30
0
 10
-14.8981054889
 20
10.5052724014
 30
0
 10
-14.9929404787
 20
10.6096965913
 30
0
 10
-15.0820630936
 20
10.7026759851
 30
0
 10
-15.1649319259
 20
10.7846003553
 30
0
 10
-15.2410225866
 20
10.8558801635
 30
0
 10
-15.3098284222
 20
10.9169459216
 30
0
 10
-15.3708612096
 20
10.9682475303
 30
0
 10
-15.4236518279
 20
11.0102535943
 30
0
 10
-15.4677509069
 20
11.0434507155
 30
0
 10
-15.5027294507
 20
11.0683427658
 30
0
 10
-15.5281794369
 20
11.0854501381
 30
0
 10
-15.5437143903
 20
11.095308979
 30
0
 10
-15.5489699294
 20
11.098470402
 30
0
 10
-15.6914026803
 20
11.1807039891
 30
0
 10
-14.8609645972
 20
12.2629519696
 30
0
 10
-14.7446687431
 20
12.1466561155
 30
0
 10
-14.7402548093
 20
12.142397891
 30
0
 10
-14.7267111585
 20
12.1299439341
 30
0
 10
-14.7035997646
 20
12.1097888489
 30
0
 10
-14.6705027771
 20
12.0824447067
 30
0
 10
-14.6270231388
 20
12.0484403147
 30
0
 10
-14.5727851793
 20
12.0083204624
 30
0
 10
-14.5074351828
 20
11.9626451502
 30
0
 10
-14.4306419292
 20
11.9119887978
 30
0
 10
-14.3420972095
 20
11.8569394353
 30
0
 10
-14.2415163124
 20
11.7980978773
 30
0
 10
-14.1286384846
 20
11.7360768798
 30
0
 10
-14.0032273612
 20
11.671500283
 30
0
 10
-13.8650713683
 20
11.6050021391
 30
0
 10
-13.7139840956
 20
11.5372258262
 30
0
 10
-13.5498046394
 20
11.4688231509
 30
0
 10
-13.3723979155
 20
11.4004534378
 30
0
 10
-13.1816549415
 20
11.33278261
 30
0
 10
-12.9774930879
 20
11.2664822586
 30
0
 10
-12.7598562986
 20
11.2022287048
 30
0
 10
-12.2716955956
 20
11.7349626298
 30
0
 10
-12.3546729413
 20
11.9461711793
 30
0
 10
-12.4385148778
 20
12.143777679
 30
0
 10
-12.5225525432
 20
12.3278969172
 30
0
 10
-12.6061241037
 20
12.4986697418
 30
0
 10
-12.6885756687
 20
12.6562627596
 30
0
 10
-12.7692621957
 20
12.8008680048
 30
0
 10
-12.8475483823
 20
12.9327025773
 30
0
 10
-12.9228095452
 20
13.0520082522
 30
0
 10
-12.994432485
 20
13.1590510597
 30
0
 10
-13.0618163359
 20
13.2541208364
 30
0
 10
-13.1243733997
 20
13.3375307487
 30
0
 10
-13.1815299625
 20
13.4096167887
 30
0
 10
-13.2327270939
 20
13.470737243
 30
0
 10
-13.2774214276
 20
13.5212721352
 30
0
 10
-13.3150859229
 20
13.5616226423
 30
0
 10
-13.3452106048
 20
13.5922104867
 30
0
 10
-13.3673032846
 20
13.6134773033
 30
0
 10
-13.3808902573
 20
13.6258839826
 30
0
 10
-13.3855169777
 20
13.6299099913
 30
0
 10
-13.5115061425
 20
13.7356274531
 30
0
 10
-12.5057538902
 20
14.6572295952
 30
0
 10
-12.4114193946
 20
14.5225059733
 30
0
 10
-12.4078119513
 20
14.5175459692
 30
0
 10
-12.3966366659
 20
14.5029293856
 30
0
 10
-12.3773762798
 20
14.47906725
 30
0
 10
-12.3495303704
 20
14.4463912952
 30
0
 10
-12.3126160862
 20
14.4053533464
 30
0
 10
-12.2661688625
 20
14.356424682
 30
0
 10
-12.2097431139
 20
14.3000953725
 30
0
 10
-12.1429129057
 20
14.2368735954
 30
0
 10
-12.0652726007
 20
14.1672849273
 30
0
 10
-11.9764374828
 20
14.0918716152
 30
0
 10
-11.876044356
 20
14.0111918269
 30
0
 10
-11.7637521177
 20
13.9258188808
 30
0
 10
-11.6392423063
 20
13.8363404566
 30
0
 10
-11.502219622
 20
13.7433577887
 30
0
 10
-11.3524124206
 20
13.6474848403
 30
0
 10
-11.1895731795
 20
13.5493474625
 30
0
 10
-11.0134789358
 20
13.4495825367
 30
0
 10
-10.8239316947
 20
13.3488371029
 30
0
 10
-10.6207588097
 20
13.247767473
 30
0
 10
-10.0475060895
 20
13.6876397562
 30
0
 10
-10.0925468431
 20
13.9100484381
 30
0
 10
-10.1408010236
 20
14.1192118506
 30
0
 10
-10.1915899979
 20
14.3151268913
 30
0
 10
-10.2442375288
 20
14.4978173421
 30
0
 10
-10.2980707289
 20
14.6673337319
 30
0
 10
-10.352421009
 20
14.8237531668
 30
0
 10
-10.4066250192
 20
14.9671791296
 30
0
 10
-10.4600255829
 20
15.097741247
 30
0
 10
-10.5119726209
 20
15.2155950267
 30
0
 10
-10.5618240662
 20
15.3209215628
 30
0
 10
-10.6089467684
 20
15.4139272112
 30
0
 10
-10.652717385
 20
15.4948432353
 30
0
 10
-10.6925232614
 20
15.5639254212
 30
0
 10
-10.7277632959
 20
15.6214536643
 30
0
 10
-10.7578487908
 20
15.6677315275
 30
0
 10
-10.7822042877
 20
15.70308577
 30
0
 10
-10.8002683861
 20
15.7278658495
 30
0
 10
-10.811494545
 20
15.7424433965
 30
0
 10
-10.8153518659
 20
15.7472116626
 30
0
 10
-10.9210693277
 20
15.8732008275
 30
0
 10
-9.7705621795
 20
16.6061547164
 30
0
 10
-9.70105534825
 20
16.4570968358
 30
0
 10
-9.69836400582
 20
16.4515857594
 30
0
 10
-9.68989664119
 20
16.4352506666
 30
0
 10
-9.67507248006
 20
16.4084065194
 30
0
 10
-9.65332373253
 20
16.3713915945
 30
0
 10
-9.62409642432
 20
16.3245670061
 30
0
 10
-9.58685121168
 20
16.2683162023
 30
0
 10
-9.541064179
 20
16.2030444332
 30
0
 10
-9.48622761822
 20
16.1291781931
 30
0
 10
-9.42185078926
 20
16.0471646357
 30
0
 10
-9.34746066062
 20
15.9574709649
 30
0
 10
-9.26260262921
 20
15.8605838004
 30
0
 10
-9.16684121888
 20
15.7570085186
 30
0
 10
-9.05976075657
 20
15.6472685709
 30
0
 10
-8.94096602554
 20
15.5319047792
 30
0
 10
-8.81008289491
 20
15.4114746088
 30
0
 10
-8.66675892467
 20
15.2865514208
 30
0
 10
-8.51066394575
 20
15.1577237039
 30
0
 10
-8.34149061415
 20
15.0255942866
 30
0
 10
-8.15895493886
 20
14.8907795303
 30
0
 10
-7.51802819513
 20
15.2244248749
 30
0
 10
-7.52376381618
 20
15.4512759139
 30
0
 10
-7.53496406186
 20
15.6656409147
 30
0
 10
-7.55096114775
 20
15.8673989785
 30
0
 10
-7.57108498047
 20
16.0564560987
 30
0
 10
-7.59466412112
 20
16.2327451907
 30
0
 10
-7.62102674847
 20
16.3962260901
 30
0
 10
-7.64950162096
 20
16.5468855178
 30
0
 10
-7.67941903633
 20
16.6847370138
 30
0
 10
-7.71011178797
 20
16.8098208383
 30
0
 10
-7.74091611681
 20
16.9222038403
 30
0
 10
-7.77117265787
 20
17.0219792953
 30
0
 10
-7.80022738039
 20
17.109266711
 30
0
 10
-7.8274325204
 20
17.1842116011
 30
0
 10
-7.85214750499
 20
17.2469852287
 30
0
 10
-7.87373986701
 20
17.2977843185
 30
0
 10
-7.89158614937
 20
17.3368307383
 30
0
 10
-7.90507279786
 20
17.3643711504
 30
0
 10
-7.91359704169
 20
17.3806766338
 30
0
 10
-7.91656776057
 20
17.386042276
 30
0
 10
-7.99880134765
 20
17.5284750269
 30
0
 10
-6.73849688111
 20
18.0505102297
 30
0
 10
-6.69592964414
 20
17.8916471386
 30
0
 10
-6.69423617762
 20
17.8857524411
 30
0
 10
-6.68873401038
 20
17.8681951727
 30
0
 10
-6.6787964988
 20
17.8391846599
 30
0
 10
-6.66380573788
 20
17.7989554444
 30
0
 10
-6.6431534626
 20
17.7477669579
 30
0
 10
-6.616241938
 20
17.6859031669
 30
0
 10
-6.58248483698
 20
17.6136721879
 30
0
 10
-6.54130810477
 20
17.5314058731
 30
0
 10
-6.49215080929
 20
17.4394593669
 30
0
 10
-6.43446597632
 20
17.3382106343
 30
0
 10
-6.36772140864
 20
17.228059961
 30
0
 10
-6.29140048825
 20
17.109429426
 30
0
 10
-6.2050029607
 20
16.9827623476
 30
0
 10
-6.10804570077
 20
16.8485227025
 30
0
 10
-6.00006345861
 20
16.7071945199
 30
0
 10
-5.88060958547
 20
16.5592812496
 30
0
 10
-5.74925673829
 20
16.4053051066
 30
0
 10
-5.60559756227
 20
16.2458063912
 30
0
 10
-5.44924535078
 20
16.0813427866
 30
0
 10
-4.76011881838
 20
16.2986235477
 30
0
 10
-4.72637503293
 20
16.5230241899
 30
0
 10
-4.70018102996
 20
16.7360774068
 30
0
 10
-4.68090016406
 20
16.9375481771
 30
0
 10
-4.66788884615
 20
17.1272275618
 30
0
 10
-4.6604974871
 20
17.3049329011
 30
0
 10
-4.65807144665
 20
17.4705079804
 30
0
 10
-4.65995198677
 20
17.6238231626
 30
0
 10
-4.6654772283
 20
17.7647754894
 30
0
 10
-4.67398310991
 20
17.8932887499
 30
0
 10
-4.68480434828
 20
18.0093135171
 30
0
 10
-4.69727539856
 20
18.112827152
 30
0
 10
-4.71073141389
 20
18.2038337753
 30
0
 10
-4.7245092031
 20
18.2823642071
 30
0
 10
-4.73794818549
 20
18.3484758743
 30
0
 10
-4.75039134165
 20
18.4022526862
 30
0
 10
-4.76118615923
 20
18.4438048775
 30
0
 10
-4.76968557285
 20
18.4732688208
 30
0
 10
-4.77524889679
 20
18.4908068067
 30
0
 10
-4.77724274979
 20
18.4966067926
 30
0
 10
-4.83349383626
 20
18.6511553825
 30
0
 10
-3.50168576482
 20
18.9464101236
 30
0
 10
-3.4873515061
 20
18.7825687967
 30
0
 10
-3.48670737061
 20
18.7764695856
 30
0
 10
-3.48433758133
 20
18.7582236102
 30
0
 10
-3.47958866556
 20
18.7279282015
 30
0
 10
-3.47181137794
 20
18.6857070399
 30
0
 10
-3.46036164452
 20
18.6317099915
 30
0
 10
-3.44460150102
 20
18.5661129133
 30
0
 10
-3.42390002409
 20
18.4891174261
 30
0
 10
-3.39763425462
 20
18.400950657
 30
0
 10
-3.36519011216
 20
18.30186495
 30
0
 10
-3.32596329932
 20
18.192137547
 30
0
 10
-3.27936019529
 20
18.0720702374
 30
0
 10
-3.22479873739
 20
17.9419889781
 30
0
 10
-3.16170928975
 20
17.802243484
 30
0
 10
-3.0895354982
 20
17.6532067893
 30
0
 10
-3.0077351303
 20
17.4952747797
 30
0
 10
-2.91578089975
 20
17.328865697
 30
0
 10
-2.8131612741
 20
17.154419615
 30
0
 10
-2.69938126502
 20
16.9723978894
 30
0
 10
-2.57396320018
 20
16.78328258
 30
0
 10
-1.85757564006
 20
16.8775967915
 30
0
 10
-1.78537773595
 20
17.0927287368
 30
0
 10
-1.72258537588
 20
17.2979966558
 30
0
 10
-1.66861239753
 20
17.4930585452
 30
0
 10
-1.6228612713
 20
17.6775968821
 30
0
 10
-1.58472399525
 20
17.8513189821
 30
0
 10
-1.55358300103
 20
18.0139573264
 30
0
 10
-1.52881206952
 20
18.1652698588
 30
0
 10
-1.50977725554
 20
18.3050402511
 30
0
 10
-1.49583782019
 20
18.4330781373
 30
0
 10
-1.48634717025
 20
18.5492193159
 30
0
 10
-1.48065380319
 20
18.6533259212
 30
0
 10
-1.47810225712
 20
18.745286562
 30
0
 10
-1.47803406438
 20
18.825016428
 30
0
 10
-1.4797887079
 20
18.8924573653
 30
0
 10
-1.48270457917
 20
18.9475779179
 30
0
 10
-1.48611993693
 20
18.9903733385
 30
0
 10
-1.48937386529
 20
19.020865566
 30
0
 10
-1.49180723056
 20
19.0391031715
 30
0
 10
-1.49276363545
 20
19.0451612716
 30
0
 10
-1.52132306053
 20
19.2071298198
 30
0
 10
-0.158477698509
 20
19.2666329333
 30
0
 10
-0.17281195723
 20
19.1027916064
 30
0
 10
-0.173236724502
 20
19.0966732031
 30
0
 10
-0.174071318029
 20
19.0782929154
 30
0
 10
-0.174655291474
 20
19.0476331215
 30
0
 10
-0.174327786095
 20
19.0047028824
 30
0
 10
-0.172428488898
 20
18.9495379452
 30
0
 10
-0.168298590486
 20
18.8822007138
 30
0
 10
-0.161281741542
 20
18.8027801873
 30
0
 10
-0.150725006927
 20
18.7113918665
 30
0
 10
-0.135979816337
 20
18.6081776278
 30
0
 10
-0.116402910496
 20
18.4933055661
 30
0
 10
-0.0913572818467
 20
18.3669698046
 30
0
 10
-0.0602131087165
 20
18.2293902742
 30
0
 10
-0.0223486819351
 20
18.0808124605
 30
0
 10
0.0228486771049
 20
17.9215071207
 30
0
 10
0.0759817079516
 20
17.7517699684
 30
0
 10
0.137642313155
 20
17.571921329
 30
0
 10
0.208410671875
 20
17.382305764
 30
0
 10
0.288854366004
 20
17.1832916662
 30
0
 10
0.379527519773
 20
16.9752708248
 30
0
 10
1.1014090341
 20
16.9437527972
 30
0
 10
1.20986736008
 20
17.1430793705
 30
0
 10
1.30735016318
 20
17.3343250296
 30
0
 10
1.39437531233
 20
17.5170511813
 30
0
 10
1.47147612207
 20
17.6908413665
 30
0
 10
1.53920053327
 20
17.8553017689
 30
0
 10
1.59811027793
 20
18.0100616944
 30
0
 10
1.64878002884
 20
18.1547740224
 30
0
 10
1.69179653515
 20
18.2891156276
 30
0
 10
1.72775774475
 20
18.412787773
 30
0
 10
1.75727191442
 20
18.5255164721
 30
0
 10
1.78095670873
 20
18.6270528214
 30
0
 10
1.79943828877
 20
18.717173302
 30
0
 10
1.81335039146
 20
18.7956800507
 30
0
 10
1.82333340078
 20
18.8624010993
 30
0
 10
1.83003341165
 20
18.9171905826
 30
0
 10
1.83410128765
 20
18.9599289152
 30
0
 10
1.83619171351
 20
18.990522936
 30
0
 10
1.83696224349
 20
19.0089060207
 30
0
 10
1.83707234657
 20
19.0150381626
 30
0
 10
1.83707234657
 20
19.1795053367
 30
0
 10
3.18954563248
 20
19.0014488507
 30
0
 10
3.14697839551
 20
18.8425857596
 30
0
 10
3.14549763182
 20
18.8366340686
 30
0
 10
3.14148401418
 20
18.8186779445
 30
0
 10
3.13558489527
 20
18.7885853477
 30
0
 10
3.12845266732
 20
18.7462504446
 30
0
 10
3.12074381911
 20
18.6915937773
 30
0
 10
3.11311798756
 20
18.6245624004
 30
0
 10
3.10623700511
 20
18.5451299872
 30
0
 10
3.10076394383
 20
18.4532969025
 30
0
 10
3.09736215739
 20
18.3490902446
 30
0
 10
3.09669432186
 20
18.2325638536
 30
0
 10
3.09942147638
 20
18.1037982884
 30
0
 10
3.10620206479
 20
17.9629007713
 30
0
 10
3.11769097927
 20
17.8100050998
 30
0
 10
3.13453860692
 20
17.645271527
 30
0
 10
3.15738988046
 20
17.4688866095
 30
0
 10
3.18688333403
 20
17.2810630233
 30
0
 10
3.22365016504
 20
17.0820393483
 30
0
 10
3.26831330329
 20
16.8720798209
 30
0
 10
3.32148648809
 20
16.6514740556
 30
0
 10
4.0269279521
 20
16.4950814482
 30
0
 10
4.16835124861
 20
16.6725462122
 30
0
 10
4.29756252909
 20
16.843958709
 30
0
 10
4.41499563392
 20
17.0087970813
 30
0
 10
4.52110345807
 20
17.166558588
 30
0
 10
4.61635723247
 20
17.3167602467
 30
0
 10
4.70124578478
 20
17.4589394514
 30
0
 10
4.77627478036
 20
17.592654564
 30
0
 10
4.84196594421
 20
17.7174854805
 30
0
 10
4.89885626491
 20
17.8330341696
 30
0
 10
4.94749718119
 20
17.9389251847
 30
0
 10
4.98845375228
 20
18.0348061473
 30
0
 10
5.02230381282
 20
18.1203482026
 30
0
 10
5.04963711326
 20
18.1952464461
 30
0
 10
5.07105444672
 20
18.2592203207
 30
0
 10
5.0871667633
 20
18.3120139839
 30
0
 10
5.0985942727
 20
18.353396646
 30
0
 10
5.10596553625
 20
18.3831628762
 30
0
 10
5.10991654931
 20
18.4011328794
 30
0
 10
5.11108981495
 20
18.4071527411
 30
0
 10
5.13964924002
 20
18.5691212893
 30
0
 10
6.44065623341
 20
18.15891536
 30
0
 10
6.37114940216
 20
18.0098574794
 30
0
 10
6.36865763429
 20
18.0042533398
 30
0
 10
6.36158694429
 20
17.9872669669
 30
0
 10
6.35055192165
 20
17.9586559155
 30
0
 10
6.3361766695
 20
17.9182026732
 30
0
 10
6.31909390534
 20
17.8657149909
 30
0
 10
6.29994405087
 20
17.801026183
 30
0
 10
6.27937431219
 20
17.7239953966
 30
0
 10
6.25803775121
 20
17.63450785
 30
0
 10
6.23659234931
 20
17.5324750394
 30
0
 10
6.21570006425
 20
17.4178349145
 30
0
 10
6.19602588143
 20
17.2905520222
 30
0
 10
6.17823686038
 20
17.1506176181
 30
0
 10
6.1630011777
 20
16.9980497464
 30
0
 10
6.15098716731
 20
16.8328932869
 30
0
 10
6.14286235917
 20
16.6552199706
 30
0
 10
6.13929251743
 20
16.4651283622
 30
0
 10
6.1409406792
 20
16.2627438108
 30
0
 10
6.1484661947
 20
16.0482183679
 30
0
 10
6.16252377022
 20
15.8217306732
 30
0
 10
6.830090702
 20
15.5452153963
 30
0
 10
7.00018189373
 20
15.6954261741
 30
0
 10
7.15719563221
 20
15.8417972265
 30
0
 10
7.30146854727
 20
15.9837392888
 30
0
 10
7.43335935329
 20
16.1206786134
 30
0
 10
7.55324825315
 20
16.2520577271
 30
0
 10
7.6615363174
 20
16.3773361678
 30
0
 10
7.75864483958
 20
16.4959911991
 30
0
 10
7.84501466821
 20
16.6075185025
 30
0
 10
7.9211055164
 20
16.7114328469
 30
0
 10
7.98739524966
 20
16.807268733
 30
0
 10
8.04437915283
 20
16.8945810144
 30
0
 10
8.09256917692
 20
16.9729454924
 30
0
 10
8.13249316661
 20
17.0419594855
 30
0
 10
8.16469406938
 20
17.1012423722
 30
0
 10
8.18972912708
 20
17.1504361067
 30
0
 10
8.20816905079
 20
17.1892057069
 30
0
 10
8.22059717992
 20
17.2172397148
 30
0
 10
8.22760862653
 20
17.2342506271
 30
0
 10
8.22980940563
 20
17.2399752981
 30
0
 10
8.28606049211
 20
17.394523888
 30
0
 10
9.49607075382
 20
16.7646324149
 30
0
 10
9.40173625818
 20
16.629908793
 30
0
 10
9.39830919725
 20
16.6248224839
 30
0
 10
9.38839627422
 20
16.6093219846
 30
0
 10
9.37256064142
 20
16.5830618109
 30
0
 10
9.35137914985
 20
16.5457193806
 30
0
 10
9.32544152087
 20
16.496995495
 30
0
 10
9.29534950211
 20
16.4366147927
 30
0
 10
9.26171600831
 20
16.3643261748
 30
0
 10
9.22516424825
 20
16.2799032
 30
0
 10
9.18632683856
 20
16.183144452
 30
0
 10
9.14584490549
 20
16.0738738754
 30
0
 10
9.10436717541
 20
15.9519410823
 30
0
 10
9.0625490553
 20
15.8172216273
 30
0
 10
9.02105170397
 20
15.6696172529
 30
0
 10
8.98054109518
 20
15.5090561021
 30
0
 10
8.94168707353
 20
15.3354929008
 30
0
 10
8.90516240433
 20
15.1489091076
 30
0
 10
8.87164181827
 20
14.9493130321
 30
0
 10
8.84180105206
 20
14.7367399206
 30
0
 10
8.81631588597
 20
14.5112520105
 30
0
 10
9.42572460211
 20
14.1230158408
 30
0
 10
9.61931555427
 20
14.2414085539
 30
0
 10
9.79936096777
 20
14.3582907515
 30
0
 10
9.96609003353
 20
14.4730236662
 30
0
 10
10.119756386
 20
14.5849799767
 30
0
 10
10.2606376478
 20
14.6935446575
 30
0
 10
10.3890349459
 20
14.7981158121
 30
0
 10
10.5052724014
 20
14.8981054889
 30
0
 10
10.6096965913
 20
14.9929404787
 30
0
 10
10.7026759851
 20
15.0820630936
 30
0
 10
10.7846003553
 20
15.1649319259
 30
0
 10
10.8558801635
 20
15.2410225866
 30
0
 10
10.9169459216
 20
15.3098284222
 30
0
 10
10.9682475303
 20
15.3708612096
 30
0
 10
11.0102535943
 20
15.4236518279
 30
0
 10
11.0434507155
 20
15.4677509069
 30
0
 10
11.0683427658
 20
15.5027294507
 30
0
 10
11.0854501381
 20
15.5281794369
 30
0
 10
11.095308979
 20
15.5437143903
 30
0
 10
11.098470402
 20
15.5489699294
 30
0
 10
11.1807039891
 20
15.6914026803
 30
0
 10
12.2629519696
 20
14.8609645972
 30
0
 10
12.1466561155
 20
14.7446687431
 30
0
 10
12.142397891
 20
14.7402548093
 30
0
 10
12.1299439341
 20
14.7267111585
 30
0
 10
12.1097888489
 20
14.7035997646
 30
0
 10
12.0824447067
 20
14.6705027771
 30
0
 10
12.0484403147
 20
14.6270231388
 30
0
 10
12.0083204624
 20
14.5727851793
 30
0
 10
11.9626451502
 20
14.5074351828
 30
0
 10
11.9119887978
 20
14.4306419292
 30
0
 10
11.8569394353
 20
14.3420972095
 30
0
 10
11.7980978773
 20
14.2415163124
 30
0
 10
11.7360768798
 20
14.1286384846
 30
0
 10
11.671500283
 20
14.0032273612
 30
0
 10
11.6050021391
 20
13.8650713683
 30
0
 10
11.5372258262
 20
13.7139840956
 30
0
 10
11.4688231509
 20
13.5498046394
 30
0
 10
11.4004534378
 20
13.3723979155
 30
0
 10
11.33278261
 20
13.1816549415
 30
0
 10
11.2664822586
 20
12.9774930879
 30
0
 10
11.2022287048
 20
12.7598562986
 30
0
 10
11.7349626298
 20
12.2716955956
 30
0
 10
11.9461711793
 20
12.3546729413
 30
0
 10
12.143777679
 20
12.4385148778
 30
0
 10
12.3278969172
 20
12.5225525432
 30
0
 10
12.4986697418
 20
12.6061241037
 30
0
 10
12.6562627596
 20
12.6885756687
 30
0
 10
12.8008680048
 20
12.7692621957
 30
0
 10
12.9327025773
 20
12.8475483823
 30
0
 10
13.0520082522
 20
12.9228095452
 30
0
 10
13.1590510597
 20
12.994432485
 30
0
 10
13.2541208364
 20
13.0618163359
 30
0
 10
13.3375307487
 20
13.1243733997
 30
0
 10
13.4096167887
 20
13.1815299625
 30
0
 10
13.470737243
 20
13.2327270939
 30
0
 10
13.5212721352
 20
13.2774214276
 30
0
 10
13.5616226423
 20
13.3150859229
 30
0
 10
13.5922104867
 20
13.3452106048
 30
0
 10
13.6134773033
 20
13.3673032846
 30
0
 10
13.6258839826
 20
13.3808902573
 30
0
 10
13.6299099913
 20
13.3855169777
 30
0
 10
13.7356274531
 20
13.5115061425
 30
0
 10
14.6572295952
 20
12.5057538902
 30
0
 10
14.5225059733
 20
12.4114193946
 30
0
 10
14.5175459692
 20
12.4078119513
 30
0
 10
14.5029293856
 20
12.3966366659
 30
0
 10
14.47906725
 20
12.3773762798
 30
0
 10
14.4463912952
 20
12.3495303704
 30
0
 10
14.4053533464
 20
12.3126160862
 30
0
 10
14.356424682
 20
12.2661688625
 30
0
 10
14.3000953725
 20
12.2097431139
 30
0
 10
14.2368735954
 20
12.1429129057
 30
0
 10
14.1672849273
 20
12.0652726007
 30
0
 10
14.0918716152
 20
11.9764374828
 30
0
 10
14.0111918269
 20
11.876044356
 30
0
 10
13.9258188808
 20
11.7637521177
 30
0
 10
13.8363404566
 20
11.6392423063
 30
0
 10
13.7433577887
 20
11.502219622
 30
0
 10
13.6474848403
 20
11.3524124206
 30
0
 10
13.5493474625
 20
11.1895731795
 30
0
 10
13.4495825367
 20
11.0134789358
 30
0
 10
13.3488371029
 20
10.8239316947
 30
0
 10
13.247767473
 20
10.6207588097
 30
0
 10
13.6876397562
 20
10.0475060895
 30
0
 10
13.9100484381
 20
10.0925468431
 30
0
 10
14.1192118506
 20
10.1408010236
 30
0
 10
14.3151268913
 20
10.1915899979
 30
0
 10
14.4978173421
 20
10.2442375288
 30
0
 10
14.6673337319
 20
10.2980707289
 30
0
 10
14.8237531668
 20
10.352421009
 30
0
 10
14.9671791296
 20
10.4066250192
 30
0
 10
15.097741247
 20
10.4600255829
 30
0
 10
15.2155950267
 20
10.5119726209
 30
0
 10
15.3209215628
 20
10.5618240662
 30
0
 10
15.4139272112
 20
10.6089467684
 30
0
 10
15.4948432353
 20
10.652717385
 30
0
 10
15.5639254212
 20
10.6925232614
 30
0
 10
15.6214536643
 20
10.7277632959
 30
0
 10
15.6677315275
 20
10.7578487908
 30
0
 10
15.70308577
 20
10.7822042877
 30
0
 10
15.7278658495
 20
10.8002683861
 30
0
 10
15.7424433965
 20
10.811494545
 30
0
 10
15.7472116626
 20
10.8153518659
 30
0
 10
15.8732008275
 20
10.9210693277
 30
0
 10
16.6061547164
 20
9.7705621795
 30
0
 10
16.4570968358
 20
9.70105534825
 30
0
 10
16.4515857594
 20
9.69836400582
 30
0
 10
16.4352506666
 20
9.68989664119
 30
0
 10
16.4084065194
 20
9.67507248006
 30
0
 10
16.3713915945
 20
9.65332373253
 30
0
 10
16.3245670061
 20
9.62409642432
 30
0
 10
16.2683162023
 20
9.58685121168
 30
0
 10
16.2030444332
 20
9.541064179
 30
0
 10
16.1291781931
 20
9.48622761822
 30
0
 10
16.0471646357
 20
9.42185078926
 30
0
 10
15.9574709649
 20
9.34746066062
 30
0
 10
15.8605838004
 20
9.26260262921
 30
0
 10
15.7570085186
 20
9.16684121888
 30
0
 10
15.6472685709
 20
9.05976075657
 30
0
 10
15.5319047792
 20
8.94096602554
 30
0
 10
15.4114746088
 20
8.81008289491
 30
0
 10
15.2865514208
 20
8.66675892467
 30
0
 10
15.1577237039
 20
8.51066394575
 30
0
 10
15.0255942866
 20
8.34149061415
 30
0
 10
14.8907795303
 20
8.15895493886
 30
0
 10
15.2244248749
 20
7.51802819513
 30
0
 10
15.4512759139
 20
7.52376381618
 30
0
 10
15.6656409147
 20
7.53496406186
 30
0
 10
15.8673989785
 20
7.55096114775
 30
0
 10
16.0564560987
 20
7.57108498047
 30
0
 10
16.2327451907
 20
7.59466412112
 30
0
 10
16.3962260901
 20
7.62102674847
 30
0
 10
16.5468855178
 20
7.64950162096
 30
0
 10
16.6847370138
 20
7.67941903633
 30
0
 10
16.8098208383
 20
7.71011178797
 30
0
 10
16.9222038403
 20
7.74091611681
 30
0
 10
17.0219792953
 20
7.77117265787
 30
0
 10
17.109266711
 20
7.80022738039
 30
0
 10
17.1842116011
 20
7.8274325204
 30
0
 10
17.2469852287
 20
7.85214750499
 30
0
 10
17.2977843185
 20
7.87373986701
 30
0
 10
17.3368307383
 20
7.89158614937
 30
0
 10
17.3643711504
 20
7.90507279786
 30
0
 10
17.3806766338
 20
7.91359704169
 30
0
 10
17.386042276
 20
7.91656776057
 30
0
 10
17.5284750269
 20
7.99880134765
 30
0
 10
18.0505102297
 20
6.73849688111
 30
0
 10
17.8916471386
 20
6.69592964414
 30
0
 10
17.8857524411
 20
6.69423617762
 30
0
 10
17.8681951727
 20
6.68873401038
 30
0
 10
17.8391846599
 20
6.6787964988
 30
0
 10
17.7989554444
 20
6.66380573788
 30
0
 10
17.7477669579
 20
6.6431534626
 30
0
 10
17.6859031669
 20
6.616241938
 30
0
 10
17.6136721879
 20
6.58248483698
 30
0
 10
17.5314058731
 20
6.54130810477
 30
0
 10
17.4394593669
 20
6.49215080929
 30
0
 10
17.3382106343
 20
6.43446597632
 30
0
 10
17.228059961
 20
6.36772140864
 30
0
 10
17.109429426
 20
6.29140048825
 30
0
 10
16.9827623476
 20
6.2050029607
 30
0
 10
16.8485227025
 20
6.10804570077
 30
0
 10
16.7071945199
 20
6.00006345861
 30
0
 10
16.5592812496
 20
5.88060958547
 30
0
 10
16.4053051066
 20
5.74925673829
 30
0
 10
16.2458063912
 20
5.60559756227
 30
0
 10
16.0813427866
 20
5.44924535078
 30
0
 10
16.2986235477
 20
4.76011881838
 30
0
 10
16.5230241899
 20
4.72637503293
 30
0
 10
16.7360774068
 20
4.70018102996
 30
0
 10
16.9375481771
 20
4.68090016406
 30
0
 10
17.1272275618
 20
4.66788884615
 30
0
 10
17.3049329011
 20
4.6604974871
 30
0
 10
17.4705079804
 20
4.65807144665
 30
0
 10
17.6238231626
 20
4.65995198677
 30
0
 10
17.7647754894
 20
4.6654772283
 30
0
 10
17.8932887499
 20
4.67398310991
 30
0
 10
18.0093135171
 20
4.68480434828
 30
0
 10
18.112827152
 20
4.69727539856
 30
0
 10
18.2038337753
 20
4.71073141389
 30
0
 10
18.2823642071
 20
4.7245092031
 30
0
 10
18.3484758743
 20
4.73794818549
 30
0
 10
18.4022526862
 20
4.75039134165
 30
0
 10
18.4438048775
 20
4.76118615923
 30
0
 10
18.4732688208
 20
4.76968557285
 30
0
 10
18.4908068067
 20
4.77524889679
 30
0
 10
18.4966067926
 20
4.77724274979
 30
0
 10
18.6511553825
 20
4.83349383626
 30
0
 10
18.9464101236
 20
3.50168576482
 30
0
 10
18.7825687967
 20
3.4873515061
 30
0
 10
18.7764695856
 20
3.48670737061
 30
0
 10
18.7582236102
 20
3.48433758133
 30
0
 10
18.7279282015
 20
3.47958866556
 30
0
 10
18.6857070399
 20
3.47181137794
 30
0
 10
18.6317099915
 20
3.46036164452
 30
0
 10
18.5661129133
 20
3.44460150102
 30
0
 10
18.4891174261
 20
3.42390002409
 30
0
 10
18.400950657
 20
3.39763425462
 30
0
 10
18.30186495
 20
3.36519011216
 30
0
 10
18.192137547
 20
3.32596329932
 30
0
 10
18.0720702374
 20
3.27936019529
 30
0
 10
17.9419889781
 20
3.22479873739
 30
0
 10
17.802243484
 20
3.16170928975
 30
0
 10
17.6532067893
 20
3.0895354982
 30
0
 10
17.4952747797
 20
3.0077351303
 30
0
 10
17.328865697
 20
2.91578089975
 30
0
 10
17.154419615
 20
2.8131612741
 30
0
 10
16.9723978894
 20
2.69938126502
 30
0
 10
16.78328258
 20
2.57396320018
 30
0
 10
16.8775967915
 20
1.85757564006
 30
0
 10
17.0927287368
 20
1.78537773595
 30
0
 10
17.2979966558
 20
1.72258537588
 30
0
 10
17.4930585452
 20
1.66861239753
 30
0
 10
17.6775968821
 20
1.6228612713
 30
0
 10
17.8513189821
 20
1.58472399525
 30
0
 10
18.0139573264
 20
1.55358300103
 30
0
 10
18.1652698588
 20
1.52881206952
 30
0
 10
18.3050402511
 20
1.50977725554
 30
0
 10
18.4330781373
 20
1.49583782019
 30
0
 10
18.5492193159
 20
1.48634717025
 30
0
 10
18.6533259212
 20
1.48065380319
 30
0
 10
18.745286562
 20
1.47810225712
 30
0
 10
18.825016428
 20
1.47803406438
 30
0
 10
18.8924573653
 20
1.4797887079
 30
0
 10
18.9475779179
 20
1.48270457917
 30
0
 10
18.9903733385
 20
1.48611993693
 30
0
 10
19.020865566
 20
1.48937386529
 30
0
 10
19.0391031715
 20
1.49180723056
 30
0
 10
19.0451612716
 20
1.49276363545
 30
0
 10
19.2071298198
 20
1.52132306053
 30
0
 10
19.2666329333
 20
0.158477698509
 30
0
 10
19.1027916064
 20
0.17281195723
 30
0
 10
19.0966732031
 20
0.173236724502
 30
0
 10
19.0782929154
 20
0.174071318029
 30
0
 10
19.0476331215
 20
0.174655291474
 30
0
 10
19.0047028824
 20
0.174327786095
 30
0
 10
18.9495379452
 20
0.172428488898
 30
0
 10
18.8822007138
 20
0.168298590486
 30
0
 10
18.8027801873
 20
0.161281741542
 30
0
 10
18.7113918665
 20
0.150725006927
 30
0
 10
18.6081776278
 20
0.135979816337
 30
0
 10
18.4933055661
 20
0.116402910496
 30
0
 10
18.3669698046
 20
0.0913572818467
 30
0
 10
18.2293902742
 20
0.0602131087165
 30
0
 10
18.0808124605
 20
0.0223486819351
 30
0
 10
17.9215071207
 20
-0.0228486771049
 30
0
 10
17.7517699684
 20
-0.0759817079516
 30
0
 10
17.571921329
 20
-0.137642313155
 30
0
 10
17.382305764
 20
-0.208410671875
 30
0
 10
17.1832916662
 20
-0.288854366004
 30
0
 10
16.9752708248
 20
-0.379527519773
 30
0
 10
16.9437527972
 20
-1.1014090341
 30
0
 10
17.1430793705
 20
-1.20986736008
 30
0
 10
17.3343250296
 20
-1.30735016318
 30
0
 10
17.5170511813
 20
-1.39437531233
 30
0
 10
17.6908413665
 20
-1.47147612207
 30
0
 10
17.8553017689
 20
-1.53920053327
 30
0
 10
18.0100616944
 20
-1.59811027793
 30
0
 10
18.1547740224
 20
-1.64878002884
 30
0
 10
18.2891156276
 20
-1.69179653515
 30
0
 10
18.412787773
 20
-1.72775774475
 30
0
 10
18.5255164721
 20
-1.75727191442
 30
0
 10
18.6270528214
 20
-1.78095670873
 30
0
 10
18.717173302
 20
-1.79943828877
 30
0
 10
18.7956800507
 20
-1.81335039146
 30
0
 10
18.8624010993
 20
-1.82333340078
 30
0
 10
18.9171905826
 20
-1.83003341165
 30
0
 10
18.9599289152
 20
-1.83410128765
 30
0
 10
18.990522936
 20
-1.83619171351
 30
0
 10
19.0089060207
 20
-1.83696224349
 30
0
 10
19.0150381626
 20
-1.83707234657
 30
0
 10
19.1795053367
 20
-1.83707234657
 30
0
 10
19.0014488507
 20
-3.18954563248
 30
0
 10
18.8425857596
 20
-3.14697839551
 30
0
 10
19.0014488507
 20
-3.18954563248
 30
0
  0
LWPOLYLINE
  100
AcDbPolyline
  90
  120
  70
0
 10
-22.0
 20
-2.69422295812e-15
 30
0
 10
-21.9693410271
 20
-1.16105763687
 30
0
 10
-21.8774495604
 20
-2.31887919786
 30
0
 10
-21.7245817178
 20
-3.47023762662
 30
0
 10
-21.5111635696
 20
-4.61192388071
 30
0
 10
-21.2377899503
 20
-5.74075587576
 30
0
 10
-20.9052228013
 20
-6.85358735453
 30
0
 10
-20.5143890469
 20
-7.94731665612
 30
0
 10
-20.0663780108
 20
-9.01889536077
 30
0
 10
-19.5624383801
 20
-10.0653367865
 30
0
 10
-19.003974725
 20
-11.0837243132
 30
0
 10
-18.3925435838
 20
-12.0712195124
 30
0
 10
-17.7298491249
 20
-13.0250700577
 30
0
 10
-17.0177383965
 20
-13.9426173967
 30
0
 10
-16.2581961789
 20
-14.8213041602
 30
0
 10
-15.4533394525
 20
-15.6586812908
 30
0
 10
-14.6054114974
 20
-16.4524148681
 30
0
 10
-13.7167756409
 20
-17.2002926143
 30
0
 10
-12.7899086705
 20
-17.90023006
 30
0
 10
-11.8273939306
 20
-18.550276354
 30
0
 10
-10.8319141226
 20
-19.1486197007
 30
0
 10
-9.80624382708
 20
-19.6935924098
 30
0
 10
-8.75324177123
 20
-20.1836755447
 30
0
 10
-7.6758428606
 20
-20.6175031558
 30
0
 10
-6.57704999921
 20
-20.9938660877
 30
0
 10
-5.45992571982
 20
-21.3117153494
 30
0
 10
-4.32758364819
 20
-21.570165038
 30
0
 10
-3.18317982474
 20
-21.7684948079
 30
0
 10
-2.02990390819
 20
-21.9061518785
 30
0
 10
-0.870970285378
 20
-21.9827525747
 30
0
 10
0.290390887837
 20
-21.9980833968
 30
0
 10
1.45094268956
 20
-21.9521016149
 30
0
 10
2.60745045378
 20
-21.8449353886
 30
0
 10
3.75669078591
 20
-21.6768834093
 30
0
 10
4.89546054704
 20
-21.448414068
 30
0
 10
6.02058578159
 20
-21.1601641498
 30
0
 10
7.12893056373
 20
-20.8129370589
 30
0
 10
8.21740573776
 20
-20.4077005795
 30
0
 10
9.28297752816
 20
-19.9455841783
 30
0
 10
10.3226759952
 20
-19.4278758566
 30
0
 10
11.3336033128
 20
-18.8560185603
 30
0
 10
12.3129418453
 20
-18.2316061584
 30
0
 10
13.2579620003
 20
-17.5563790002
 30
0
 10
14.1660298374
 20
-16.8322190648
 30
0
 10
15.0346144086
 20
-16.0611447159
 30
0
 10
15.8612948128
 20
-15.245305076
 30
0
 10
16.6437669436
 20
-14.3869740365
 30
0
 10
17.3798499107
 20
-13.48854392
 30
0
 10
18.0674921189
 20
-12.5525188123
 30
0
 10
18.7047769861
 20
-11.5815075833
 30
0
 10
19.2899282849
 20
-10.5782166154
 30
0
 10
19.8213150939
 20
-9.54544226059
 30
0
 10
20.2974563425
 20
-8.48606304612
 30
0
 10
20.7170249399
 20
-7.4030316519
 30
0
 10
21.078851473
 20
-6.29936668069
 30
0
 10
21.3819274665
 20
-5.1781442447
 30
0
 10
21.625408193
 20
-4.04248939196
 30
0
 10
21.8086150283
 20
-2.89556739625
 30
0
 10
21.931037342
 20
-1.74057493486
 30
0
 10
21.9923339211
 20
-0.580731178936
 30
0
 10
21.9923339211
 20
0.580731178936
 30
0
 10
21.931037342
 20
1.74057493486
 30
0
 10
21.8086150283
 20
2.89556739625
 30
0
 10
21.625408193
 20
4.04248939196
 30
0
 10
21.3819274665
 20
5.1781442447
 30
0
 10
21.078851473
 20
6.29936668069
 30
0
 10
20.7170249399
 20
7.4030316519
 30
0
 10
20.2974563425
 20
8.48606304612
 30
0
 10
19.8213150939
 20
9.54544226059
 30
0
 10
19.2899282849
 20
10.5782166154
 30
0
 10
18.7047769861
 20
11.5815075833
 30
0
 10
18.0674921189
 20
12.5525188123
 30
0
 10
17.3798499107
 20
13.48854392
 30
0
 10
16.6437669436
 20
14.3869740365
 30
0
 10
15.8612948128
 20
15.245305076
 30
0
 10
15.0346144086
 20
16.0611447159
 30
0
 10
14.1660298374
 20
16.8322190648
 30
0
 10
13.2579620003
 20
17.5563790002
 30
0
 10
12.3129418453
 20
18.2316061584
 30
0
 10
11.3336033128
 20
18.8560185603
 30
0
 10
10.3226759952
 20
19.4278758566
 30
0
 10
9.28297752816
 20
19.9455841783
 30
0
 10
8.21740573776
 20
20.4077005795
 30
0
 10
7.12893056373
 20
20.8129370589
 30
0
 10
6.02058578159
 20
21.1601641498
 30
0
 10
4.89546054704
 20
21.448414068
 30
0
 10
3.75669078591
 20
21.6768834093
 30
0
 10
2.60745045378
 20
21.8449353886
 30
0
 10
1.45094268956
 20
21.9521016149
 30
0
 10
0.290390887837
 20
21.9980833968
 30
0
 10
-0.870970285378
 20
21.9827525747
 30
0
 10
-2.02990390819
 20
21.9061518785
 30
0
 10
-3.18317982474
 20
21.7684948079
 30
0
 10
-4.32758364819
 20
21.570165038
 30
0
 10
-5.45992571982
 20
21.3117153494
 30
0
 10
-6.57704999921
 20
20.9938660877
 30
0
 10
-7.6758428606
 20
20.6175031558
 30
0
 10
-8.75324177123
 20
20.1836755447
 30
0
 10
-9.80624382708
 20
19.6935924098
 30
0
 10
-10.8319141226
 20
19.1486197007
 30
0
 10
-11.8273939306
 20
18.550276354
 30
0
 10
-12.7899086705
 20
17.90023006
 30
0
 10
-13.7167756409
 20
17.2002926143
 30
0
 10
-14.6054114974
 20
16.4524148681
 30
0
 10
-15.4533394525
 20
15.6586812908
 30
0
 10
-16.2581961789
 20
14.8213041602
 30
0
 10
-17.0177383965
 20
13.9426173967
 30
0
 10
-17.7298491249
 20
13.0250700577
 30
0
 10
-18.3925435838
 20
12.0712195124
 30
0
 10
-19.003974725
 20
11.0837243132
 30
0
 10
-19.5624383801
 20
10.0653367865
 30
0
 10
-20.0663780108
 20
9.01889536077
 30
0
 10
-20.5143890469
 20
7.94731665612
 30
0
 10
-20.9052228013
 20
6.85358735453
 30
0
 10
-21.2377899503
 20
5.74075587576
 30
0
 10
-21.5111635696
 20
4.61192388071
 30
0
 10
-21.7245817178
 20
3.47023762662
 30
0
 10
-21.8774495604
 20
2.31887919786
 30
0
 10
-21.9693410271
 20
1.16105763687
 30
0
 10
-22.0
 20
2.69422295812e-15
 30
0
  0
ENDSEC
  0
EOF
