<?xml version="1.0" encoding="UTF-8" standalone="no"?>
<!-- Created with ggears by Gareth Nisbet) -->
<svg docname="ggears.svg">
   <g
     transform="matrix(3.5434,0,0,3.5434,0,0)"
     style="font-size:1px;stroke-width:0.05">
<circle r="22.0" stroke="black" stroke-width="0.05" fill="none" />
    <path
       id="gear"
       d="m 19.0014488507,-3.18954563248 L 18.8425857596,-3.14697839551 L 18.8366340686,-3.14549763182 L 18.8186779445,-3.14148401418 L 18.7885853477,-3.13558489527 L 18.7462504446,-3.12845266732 L 18.6915937773,-3.12074381911 L 18.6245624004,-3.11311798756 L 18.5451299872,-3.10623700511 L 18.4532969025,-3.10076394383 L 18.3490902446,-3.09736215739 L 18.2325638536,-3.09669432186 L 18.1037982884,-3.09942147638 L 17.9629007713,-3.10620206479 L 17.8100050998,-3.11769097927 L 17.645271527,-3.13453860692 L 17.4688866095,-3.15738988046 L 17.2810630233,-3.18688333403 L 17.0820393483,-3.22365016504 L 16.8720798209,-3.26831330329 L 16.6514740556,-3.32148648809 L 16.4950814482,-4.0269279521 L 16.6725462122,-4.16835124861 L 16.843958709,-4.29756252909 L 17.0087970813,-4.41499563392 L 17.166558588,-4.52110345807 L 17.3167602467,-4.61635723247 L 17.4589394514,-4.70124578478 L 17.592654564,-4.77627478036 L 17.7174854805,-4.84196594421 L 17.8330341696,-4.89885626491 L 17.9389251847,-4.94749718119 L 18.0348061473,-4.98845375228 L 18.1203482026,-5.02230381282 L 18.1952464461,-5.04963711326 L 18.2592203207,-5.07105444672 L 18.3120139839,-5.0871667633 L 18.353396646,-5.0985942727 L 18.3831628762,-5.10596553625 L 18.4011328794,-5.10991654931 L 18.4071527411,-5.11108981495 L 18.5691212893,-5.13964924002 L 18.15891536,-6.44065623341 L 18.0098574794,-6.37114940216 L 18.0042533398,-6.36865763429 L 17.9872669669,-6.36158694429 L 17.9586559155,-6.35055192165 L 17.9182026732,-6.3361766695 L 17.8657149909,-6.31909390534 L 17.801026183,-6.29994405087 L 17.7239953966,-6.27937431219 L 17.63450785,-6.25803775121 L 17.5324750394,-6.23659234931 L 17.4178349145,-6.21570006425 L 17.2905520222,-6.19602588143 L 17.1506176181,-6.17823686038 L 16.9980497464,-6.1630011777 L 16.8328932869,-6.15098716731 L 16.6552199706,-6.14286235917 L 16.4651283622,-6.13929251743 L 16.2627438108,-6.1409406792 L 16.0482183679,-6.1484661947 L 15.8217306732,-6.16252377022 L 15.5452153963,-6.830090702 L 15.6954261741,-7.00018189373 L 15.8417972265,-7.15719563221 L 15.9837392888,-7.30146854727 L 16.1206786134,-7.43335935329 L 16.2520577271,-7.55324825315 L 16.3773361678,-7.6615363174 L 16.4959911991,-7.75864483958 L 16.6075185025,-7.84501466821 L 16.7114328469,-7.9211055164 L 16.807268733,-7.98739524966 L 16.8945810144,-8.04437915283 L 16.9729454924,-8.09256917692 L 17.0419594855,-8.13249316661 L 17.1012423722,-8.16469406938 L 17.1504361067,-8.18972912708 L 17.1892057069,-8.20816905079 L 17.2172397148,-8.22059717992 L 17.2342506271,-8.22760862653 L 17.2399752981,-8.22980940563 L 17.394523888,-8.28606049211 L 16.7646324149,-9.49607075382 L 16.629908793,-9.40173625818 L 16.6248224839,-9.39830919725 L 16.6093219846,-9.38839627422 L 16.5830618109,-9.37256064142 L 16.5457193806,-9.35137914985 L 16.496995495,-9.32544152087 L 16.4366147927,-9.29534950211 L 16.3643261748,-9.26171600831 L 16.2799032,-9.22516424825 L 16.183144452,-9.18632683856 L 16.0738738754,-9.14584490549 L 15.9519410823,-9.10436717541 L 15.8172216273,-9.0625490553 L 15.6696172529,-9.02105170397 L 15.5090561021,-8.98054109518 L 15.3354929008,-8.94168707353 L 15.1489091076,-8.90516240433 L 14.9493130321,-8.87164181827 L 14.7367399206,-8.84180105206 L 14.5112520105,-8.81631588597 L 14.1230158408,-9.42572460211 L 14.2414085539,-9.61931555427 L 14.3582907515,-9.79936096777 L 14.4730236662,-9.96609003353 L 14.5849799767,-10.119756386 L 14.6935446575,-10.2606376478 L 14.7981158121,-10.3890349459 L 14.8981054889,-10.5052724014 L 14.9929404787,-10.6096965913 L 15.0820630936,-10.7026759851 L 15.1649319259,-10.7846003553 L 15.2410225866,-10.8558801635 L 15.3098284222,-10.9169459216 L 15.3708612096,-10.9682475303 L 15.4236518279,-11.0102535943 L 15.4677509069,-11.0434507155 L 15.5027294507,-11.0683427658 L 15.5281794369,-11.0854501381 L 15.5437143903,-11.095308979 L 15.5489699294,-11.098470402 L 15.6914026803,-11.1807039891 L 14.8609645972,-12.2629519696 L 14.7446687431,-12.1466561155 L 14.7402548093,-12.142397891 L 14.7267111585,-12.1299439341 L 14.7035997646,-12.1097888489 L 14.6705027771,-12.0824447067 L 14.6270231388,-12.0484403147 L 14.5727851793,-12.0083204624 L 14.5074351828,-11.9626451502 L 14.4306419292,-11.9119887978 L 14.3420972095,-11.8569394353 L 14.2415163124,-11.7980978773 L 14.1286384846,-11.7360768798 L 14.0032273612,-11.671500283 L 13.8650713683,-11.6050021391 L 13.7139840956,-11.5372258262 L 13.5498046394,-11.4688231509 L 13.3723979155,-11.4004534378 L 13.1816549415,-11.33278261 L 12.9774930879,-11.2664822586 L 12.7598562986,-11.2022287048 L 12.2716955956,-11.7349626298 L 12.3546729413,-11.9461711793 L 12.4385148778,-12.143777679 L 12.5225525432,-12.3278969172 L 12.6061241037,-12.4986697418 L 12.6885756687,-12.6562627596 L 12.7692621957,-12.8008680048 L 12.8475483823,-12.9327025773 L 12.9228095452,-13.0520082522 L 12.994432485,-13.1590510597 L 13.0618163359,-13.2541208364 L 13.1243733997,-13.3375307487 L 13.1815299625,-13.4096167887 L 13.2327270939,-13.470737243 L 13.2774214276,-13.5212721352 L 13.3150859229,-13.5616226423 L 13.3452106048,-13.5922104867 L 13.3673032846,-13.6134773033 L 13.3808902573,-13.6258839826 L 13.3855169777,-13.6299099913 L 13.5115061425,-13.7356274531 L 12.5057538902,-14.6572295952 L 12.4114193946,-14.5225059733 L 12.4078119513,-14.5175459692 L 12.3966366659,-14.5029293856 L 12.3773762798,-14.47906725 L 12.3495303704,-14.4463912952 L 12.3126160862,-14.4053533464 L 12.2661688625,-14.356424682 L 12.2097431139,-14.3000953725 L 12.1429129057,-14.2368735954 L 12.0652726007,-14.1672849273 L 11.9764374828,-14.0918716152 L 11.876044356,-14.0111918269 L 11.7637521177,-13.9258188808 L 11.6392423063,-13.8363404566 L 11.502219622,-13.7433577887 L 11.3524124206,-13.6474848403 L 11.1895731795,-13.5493474625 L 11.0134789358,-13.4495825367 L 10.8239316947,-13.3488371029 L 10.6207588097,-13.247767473 L 10.0475060895,-13.6876397562 L 10.0925468431,-13.9100484381 L 10.1408010236,-14.1192118506 L 10.1915899979,-14.3151268913 L 10.2442375288,-14.4978173421 L 10.2980707289,-14.6673337319 L 10.352421009,-14.8237531668 L 10.4066250192,-14.9671791296 L 10.4600255829,-15.097741247 L 10.5119726209,-15.2155950267 L 10.5618240662,-15.3209215628 L 10.6089467684,-15.4139272112 L 10.652717385,-15.4948432353 L 10.6925232614,-15.5639254212 L 10.7277632959,-15.6214536643 L 10.7578487908,-15.6677315275 L 10.7822042877,-15.70308577 L 10.8002683861,-15.7278658495 L 10.811494545,-15.7424433965 L 10.8153518659,-15.7472116626 L 10.9210693277,-15.8732008275 L 9.7705621795,-16.6061547164 L 9.70105534825,-16.4570968358 L 9.69836400582,-16.4515857594 L 9.68989664119,-16.4352506666 L 9.67507248006,-16.4084065194 L 9.65332373253,-16.3713915945 L 9.62409642432,-16.3245670061 L 9.58685121168,-16.2683162023 L 9.541064179,-16.2030444332 L 9.48622761822,-16.1291781931 L 9.42185078926,-16.0471646357 L 9.34746066062,-15.9574709649 L 9.26260262921,-15.8605838004 L 9.16684121888,-15.7570085186 L 9.05976075657,-15.6472685709 L 8.94096602554,-15.5319047792 L 8.81008289491,-15.4114746088 L 8.66675892467,-15.2865514208 L 8.51066394575,-15.1577237039 L 8.34149061415,-15.0255942866 L 8.15895493886,-14.8907795303 L 7.51802819513,-15.2244248749 L 7.52376381618,-15.4512759139 L 7.53496406186,-15.6656409147 L 7.55096114775,-15.8673989785 L 7.57108498047,-16.0564560987 L 7.59466412112,-16.2327451907 L 7.62102674847,-16.3962260901 L 7.64950162096,-16.5468855178 L 7.67941903633,-16.6847370138 L 7.71011178797,-16.8098208383 L 7.74091611681,-16.9222038403 L 7.77117265787,-17.0219792953 L 7.80022738039,-17.109266711 L 7.8274325204,-17.1842116011 L 7.85214750499,-17.2469852287 L 7.87373986701,-17.2977843185 L 7.89158614937,-17.3368307383 L 7.90507279786,-17.3643711504 L 7.91359704169,-17.3806766338 L 7.91656776057,-17.386042276 L 7.99880134765,-17.5284750269 L 6.73849688111,-18.0505102297 L 6.69592964414,-17.8916471386 L 6.69423617762,-17.8857524411 L 6.68873401038,-17.8681951727 L 6.6787964988,-17.8391846599 L 6.66380573788,-17.7989554444 L 6.6431534626,-17.7477669579 L 6.616241938,-17.6859031669 L 6.58248483698,-17.6136721879 L 6.54130810477,-17.5314058731 L 6.49215080929,-17.4394593669 L 6.43446597632,-17.3382106343 L 6.36772140864,-17.228059961 L 6.29140048825,-17.109429426 L 6.2050029607,-16.9827623476 L 6.10804570077,-16.8485227025 L 6.00006345861,-16.7071945199 L 5.88060958547,-16.5592812496 L 5.74925673829,-16.4053051066 L 5.60559756227,-16.2458063912 L 5.44924535078,-16.0813427866 L 4.76011881838,-16.2986235477 L 4.72637503293,-16.5230241899 L 4.70018102996,-16.7360774068 L 4.68090016406,-16.9375481771 L 4.66788884615,-17.1272275618 L 4.6604974871,-17.3049329011 L 4.65807144665,-17.4705079804 L 4.65995198677,-17.6238231626 L 4.6654772283,-17.7647754894 L 4.67398310991,-17.8932887499 L 4.68480434828,-18.0093135171 L 4.69727539856,-18.112827152 L 4.71073141389,-18.2038337753 L 4.7245092031,-18.2823642071 L 4.73794818549,-18.3484758743 L 4.75039134165,-18.4022526862 L 4.76118615923,-18.4438048775 L 4.76968557285,-18.4732688208 L 4.77524889679,-18.4908068067 L 4.77724274979,-18.4966067926 L 4.83349383626,-18.6511553825 L 3.50168576482,-18.9464101236 L 3.4873515061,-18.7825687967 L 3.48670737061,-18.7764695856 L 3.48433758133,-18.7582236102 L 3.47958866556,-18.7279282015 L 3.47181137794,-18.6857070399 L 3.46036164452,-18.6317099915 L 3.44460150102,-18.5661129133 L 3.42390002409,-18.4891174261 L 3.39763425462,-18.400950657 L 3.36519011216,-18.30186495 L 3.32596329932,-18.192137547 L 3.27936019529,-18.0720702374 L 3.22479873739,-17.9419889781 L 3.16170928975,-17.802243484 L 3.0895354982,-17.6532067893 L 3.0077351303,-17.4952747797 L 2.91578089975,-17.328865697 L 2.8131612741,-17.154419615 L 2.69938126502,-16.9723978894 L 2.57396320018,-16.78328258 L 1.85757564006,-16.8775967915 L 1.78537773595,-17.0927287368 L 1.72258537588,-17.2979966558 L 1.66861239753,-17.4930585452 L 1.6228612713,-17.6775968821 L 1.58472399525,-17.8513189821 L 1.55358300103,-18.0139573264 L 1.52881206952,-18.1652698588 L 1.50977725554,-18.3050402511 L 1.49583782019,-18.4330781373 L 1.48634717025,-18.5492193159 L 1.48065380319,-18.6533259212 L 1.47810225712,-18.745286562 L 1.47803406438,-18.825016428 L 1.4797887079,-18.8924573653 L 1.48270457917,-18.9475779179 L 1.48611993693,-18.9903733385 L 1.48937386529,-19.020865566 L 1.49180723056,-19.0391031715 L 1.49276363545,-19.0451612716 L 1.52132306053,-19.2071298198 L 0.158477698509,-19.2666329333 L 0.17281195723,-19.1027916064 L 0.173236724502,-19.0966732031 L 0.174071318029,-19.0782929154 L 0.174655291474,-19.0476331215 L 0.174327786095,-19.0047028824 L 0.172428488898,-18.9495379452 L 0.168298590486,-18.8822007138 L 0.161281741542,-18.8027801873 L 0.150725006927,-18.7113918665 L 0.135979816337,-18.6081776278 L 0.116402910496,-18.4933055661 L 0.0913572818467,-18.3669698046 L 0.0602131087165,-18.2293902742 L 0.0223486819351,-18.0808124605 L -0.0228486771049,-17.9215071207 L -0.0759817079516,-17.7517699684 L -0.137642313155,-17.571921329 L -0.208410671875,-17.382305764 L -0.288854366004,-17.1832916662 L -0.379527519773,-16.9752708248 L -1.1014090341,-16.9437527972 L -1.20986736008,-17.1430793705 L -1.30735016318,-17.3343250296 L -1.39437531233,-17.5170511813 L -1.47147612207,-17.6908413665 L -1.53920053327,-17.8553017689 L -1.59811027793,-18.0100616944 L -1.64878002884,-18.1547740224 L -1.69179653515,-18.2891156276 L -1.72775774475,-18.412787773 L -1.75727191442,-18.5255164721 L -1.78095670873,-18.6270528214 L -1.79943828877,-18.717173302 L -1.81335039146,-18.7956800507 L -1.82333340078,-18.8624010993 L -1.83003341165,-18.9171905826 L -1.83410128765,-18.9599289152 L -1.83619171351,-18.990522936 L -1.83696224349,-19.0089060207 L -1.83707234657,-19.0150381626 L -1.83707234657,-19.1795053367 L -3.18954563248,-19.0014488507 L -3.14697839551,-18.8425857596 L -3.14549763182,-18.8366340686 L -3.14148401418,-18.8186779445 L -3.13558489527,-18.7885853477 L -3.12845266732,-18.7462504446 L -3.12074381911,-18.6915937773 L -3.11311798756,-18.6245624004 L -3.10623700511,-18.5451299872 L -3.10076394383,-18.4532969025 L -3.09736215739,-18.3490902446 L -3.09669432186,-18.2325638536 L -3.09942147638,-18.1037982884 L -3.10620206479,-17.9629007713 L -3.11769097927,-17.8100050998 L -3.13453860692,-17.645271527 L -3.15738988046,-17.4688866095 L -3.18688333403,-17.2810630233 L -3.22365016504,-17.0820393483 L -3.26831330329,-16.8720798209 L -3.32148648809,-16.6514740556 L -4.0269279521,-16.4950814482 L -4.16835124861,-16.6725462122 L -4.29756252909,-16.843958709 L -4.41499563392,-17.0087970813 L -4.52110345807,-17.166558588 L -4.61635723247,-17.3167602467 L -4.70124578478,-17.4589394514 L -4.77627478036,-17.592654564 L -4.84196594421,-17.7174854805 L -4.89885626491,-17.8330341696 L -4.94749718119,-17.9389251847 L -4.98845375228,-18.0348061473 L -5.02230381282,-18.1203482026 L -5.04963711326,-18.1952464461 L -5.07105444672,-18.2592203207 L -5.0871667633,-18.3120139839 L -5.0985942727,-18.353396646 L -5.10596553625,-18.3831628762 L -5.10991654931,-18.4011328794 L -5.11108981495,-18.4071527411 L -5.13964924002,-18.5691212893 L -6.44065623341,-18.15891536 L -6.37114940216,-18.0098574794 L -6.36865763429,-18.0042533398 L -6.36158694429,-17.9872669669 L -6.35055192165,-17.9586559155 L -6.3361766695,-17.9182026732 L -6.31909390534,-17.8657149909 L -6.29994405087,-17.801026183 L -6.27937431219,-17.7239953966 L -6.25803775121,-17.63450785 L -6.23659234931,-17.5324750394 L -6.21570006425,-17.4178349145 L -6.19602588143,-17.2905520222 L -6.17823686038,-17.1506176181 L -6.1630011777,-16.9980497464 L -6.15098716731,-16.8328932869 L -6.14286235917,-16.6552199706 L -6.13929251743,-16.4651283622 L -6.1409406792,-16.2627438108 L -6.1484661947,-16.0482183679 L -6.16252377022,-15.8217306732 L -6.830090702,-15.5452153963 L -7.00018189373,-15.6954261741 L -7.15719563221,-15.8417972265 L -7.30146854727,-15.9837392888 L -7.43335935329,-16.1206786134 L -7.55324825315,-16.2520577271 L -7.6615363174,-16.3773361678 L -7.75864483958,-16.4959911991 L -7.84501466821,-16.6075185025 L -7.9211055164,-16.7114328469 L -7.98739524966,-16.807268733 L -8.04437915283,-16.8945810144 L -8.09256917692,-16.9729454924 L -8.13249316661,-17.0419594855 L -8.16469406938,-17.1012423722 L -8.18972912708,-17.1504361067 L -8.20816905079,-17.1892057069 L -8.22059717992,-17.2172397148 L -8.22760862653,-17.2342506271 L -8.22980940563,-17.2399752981 L -8.28606049211,-17.394523888 L -9.49607075382,-16.7646324149 L -9.40173625818,-16.629908793 L -9.39830919725,-16.6248224839 L -9.38839627422,-16.6093219846 L -9.37256064142,-16.5830618109 L -9.35137914985,-16.5457193806 L -9.32544152087,-16.496995495 L -9.29534950211,-16.4366147927 L -9.26171600831,-16.3643261748 L -9.22516424825,-16.2799032 L -9.18632683856,-16.183144452 L -9.14584490549,-16.0738738754 L -9.10436717541,-15.9519410823 L -9.0625490553,-15.8172216273 L -9.02105170397,-15.6696172529 L -8.98054109518,-15.5090561021 L -8.94168707353,-15.3354929008 L -8.90516240433,-15.1489091076 L -8.87164181827,-14.9493130321 L -8.84180105206,-14.7367399206 L -8.81631588597,-14.5112520105 L -9.42572460211,-14.1230158408 L -9.61931555427,-14.2414085539 L -9.79936096777,-14.3582907515 L -9.96609003353,-14.4730236662 L -10.119756386,-14.5849799767 L -10.2606376478,-14.6935446575 L -10.3890349459,-14.7981158121 L -10.5052724014,-14.8981054889 L -10.6096965913,-14.9929404787 L -10.7026759851,-15.0820630936 L -10.7846003553,-15.1649319259 L -10.8558801635,-15.2410225866 L -10.9169459216,-15.3098284222 L -10.9682475303,-15.3708612096 L -11.0102535943,-15.4236518279 L -11.0434507155,-15.4677509069 L -11.0683427658,-15.5027294507 L -11.0854501381,-15.5281794369 L -11.095308979,-15.5437143903 L -11.098470402,-15.5489699294 L -11.1807039891,-15.6914026803 L -12.2629519696,-14.8609645972 L -12.1466561155,-14.7446687431 L -12.142397891,-14.7402548093 L -12.1299439341,-14.7267111585 L -12.1097888489,-14.7035997646 L -12.0824447067,-14.6705027771 L -12.0484403147,-14.6270231388 L -12.0083204624,-14.5727851793 L -11.9626451502,-14.5074351828 L -11.9119887978,-14.4306419292 L -11.8569394353,-14.3420972095 L -11.7980978773,-14.2415163124 L -11.7360768798,-14.1286384846 L -11.671500283,-14.0032273612 L -11.6050021391,-13.8650713683 L -11.5372258262,-13.7139840956 L -11.4688231509,-13.5498046394 L -11.4004534378,-13.3723979155 L -11.33278261,-13.1816549415 L -11.2664822586,-12.9774930879 L -11.2022287048,-12.7598562986 L -11.7349626298,-12.2716955956 L -11.9461711793,-12.3546729413 L -12.143777679,-12.4385148778 L -12.3278969172,-12.5225525432 L -12.4986697418,-12.6061241037 L -12.6562627596,-12.6885756687 L -12.8008680048,-12.7692621957 L -12.9327025773,-12.8475483823 L -13.0520082522,-12.9228095452 L -13.1590510597,-12.994432485 L -13.2541208364,-13.0618163359 L -13.3375307487,-13.1243733997 L -13.4096167887,-13.1815299625 L -13.470737243,-13.2327270939 L -13.5212721352,-13.2774214276 L -13.5616226423,-13.3150859229 L -13.5922104867,-13.3452106048 L -13.6134773033,-13.3673032846 L -13.6258839826,-13.3808902573 L -13.6299099913,-13.3855169777 L -13.7356274531,-13.5115061425 L -14.6572295952,-12.5057538902 L -14.5225059733,-12.4114193946 L -14.5175459692,-12.4078119513 L -14.5029293856,-12.3966366659 L -14.47906725,-12.3773762798 L -14.4463912952,-12.3495303704 L -14.4053533464,-12.3126160862 L -14.356424682,-12.2661688625 L -14.3000953725,-12.2097431139 L -14.2368735954,-12.1429129057 L -14.1672849273,-12.0652726007 L -14.0918716152,-11.9764374828 L -14.0111918269,-11.876044356 L -13.9258188808,-11.7637521177 L -13.8363404566,-11.6392423063 L -13.7433577887,-11.502219622 L -13.6474848403,-11.3524124206 L -13.5493474625,-11.1895731795 L -13.4495825367,-11.0134789358 L -13.3488371029,-10.8239316947 L -13.247767473,-10.6207588097 L -13.6876397562,-10.0475060895 L -13.9100484381,-10.0925468431 L -14.1192118506,-10.1408010236 L -14.3151268913,-10.1915899979 L -14.4978173421,-10.2442375288 L -14.6673337319,-10.2980707289 L -14.8237531668,-10.352421009 L -14.9671791296,-10.4066250192 L -15.097741247,-10.4600255829 L -15.2155950267,-10.5119726209 L -15.3209215628,-10.5618240662 L -15.4139272112,-10.6089467684 L -15.4948432353,-10.652717385 L -15.5639254212,-10.6925232614 L -15.6214536643,-10.7277632959 L -15.6677315275,-10.7578487908 L -15.70308577,-10.7822042877 L -15.7278658495,-10.8002683861 L -15.7424433965,-10.811494545 L -15.7472116626,-10.8153518659 L -15.8732008275,-10.9210693277 L -16.6061547164,-9.7705621795 L -16.4570968358,-9.70105534825 L -16.4515857594,-9.69836400582 L -16.4352506666,-9.68989664119 L -16.4084065194,-9.67507248006 L -16.3713915945,-9.65332373253 L -16.3245670061,-9.62409642432 L -16.2683162023,-9.58685121168 L -16.2030444332,-9.541064179 L -16.1291781931,-9.48622761822 L -16.0471646357,-9.42185078926 L -15.9574709649,-9.34746066062 L -15.8605838004,-9.26260262921 L -15.7570085186,-9.16684121888 L -15.6472685709,-9.05976075657 L -15.5319047792,-8.94096602554 L -15.4114746088,-8.81008289491 L -15.2865514208,-8.66675892467 L -15.1577237039,-8.51066394575 L -15.0255942866,-8.34149061415 L -14.8907795303,-8.15895493886 L -15.2244248749,-7.51802819513 L -15.4512759139,-7.52376381618 L -15.6656409147,-7.53496406186 L -15.8673989785,-7.55096114775 L -16.0564560987,-7.57108498047 L -16.2327451907,-7.59466412112 L -16.3962260901,-7.62102674847 L -16.5468855178,-7.64950162096 L -16.6847370138,-7.67941903633 L -16.8098208383,-7.71011178797 L -16.9222038403,-7.74091611681 L -17.0219792953,-7.77117265787 L -17.109266711,-7.80022738039 L -17.1842116011,-7.8274325204 L -17.2469852287,-7.85214750499 L -17.2977843185,-7.87373986701 L -17.3368307383,-7.89158614937 L -17.3643711504,-7.90507279786 L -17.3806766338,-7.91359704169 L -17.386042276,-7.91656776057 L -17.5284750269,-7.99880134765 L -18.0505102297,-6.73849688111 L -17.8916471386,-6.69592964414 L -17.8857524411,-6.69423617762 L -17.8681951727,-6.68873401038 L -17.8391846599,-6.6787964988 L -17.7989554444,-6.66380573788 L -17.7477669579,-6.6431534626 L -17.6859031669,-6.616241938 L -17.6136721879,-6.58248483698 L -17.5314058731,-6.54130810477 L -17.4394593669,-6.49215080929 L -17.3382106343,-6.43446597632 L -17.228059961,-6.36772140864 L -17.109429426,-6.29140048825 L -16.9827623476,-6.2050029607 L -16.8485227025,-6.10804570077 L -16.7071945199,-6.00006345861 L -16.5592812496,-5.88060958547 L -16.4053051066,-5.74925673829 L -16.2458063912,-5.60559756227 L -16.0813427866,-5.44924535078 L -16.2986235477,-4.76011881838 L -16.5230241899,-4.72637503293 L -16.7360774068,-4.70018102996 L -16.9375481771,-4.68090016406 L -17.1272275618,-4.66788884615 L -17.3049329011,-4.6604974871 L -17.4705079804,-4.65807144665 L -17.6238231626,-4.65995198677 L -17.7647754894,-4.6654772283 L -17.8932887499,-4.67398310991 L -18.0093135171,-4.68480434828 L -18.112827152,-4.69727539856 L -18.2038337753,-4.71073141389 L -18.2823642071,-4.7245092031 L -18.3484758743,-4.73794818549 L -18.4022526862,-4.75039134165 L -18.4438048775,-4.76118615923 L -18.4732688208,-4.76968557285 L -18.4908068067,-4.77524889679 L -18.4966067926,-4.77724274979 L -18.6511553825,-4.83349383626 L -18.9464101236,-3.50168576482 L -18.7825687967,-3.4873515061 L -18.7764695856,-3.48670737061 L -18.7582236102,-3.48433758133 L -18.7279282015,-3.47958866556 L -18.6857070399,-3.47181137794 L -18.6317099915,-3.46036164452 L -18.5661129133,-3.44460150102 L -18.4891174261,-3.42390002409 L -18.400950657,-3.39763425462 L -18.30186495,-3.36519011216 L -18.192137547,-3.32596329932 L -18.0720702374,-3.27936019529 L -17.9419889781,-3.22479873739 L -17.802243484,-3.16170928975 L -17.6532067893,-3.0895354982 L -17.4952747797,-3.0077351303 L -17.328865697,-2.91578089975 L -17.154419615,-2.8131612741 L -16.9723978894,-2.69938126502 L -16.78328258,-2.57396320018 L -16.8775967915,-1.85757564006 L -17.0927287368,-1.78537773595 L -17.2979966558,-1.72258537588 L -17.4930585452,-1.66861239753 L -17.6775968821,-1.6228612713 L -17.8513189821,-1.58472399525 L -18.0139573264,-1.55358300103 L -18.1652698588,-1.52881206952 L -18.3050402511,-1.50977725554 L -18.4330781373,-1.49583782019 L -18.5492193159,-1.48634717025 L -18.6533259212,-1.48065380319 L -18.745286562,-1.47810225712 L -18.825016428,-1.47803406438 L -18.8924573653,-1.4797887079 L -18.9475779179,-1.48270457917 L -18.9903733385,-1.48611993693 L -19.020865566,-1.48937386529 L -19.0391031715,-1.49180723056 L -19.0451612716,-1.49276363545 L -19.2071298198,-1.52132306053 L -19.2666329333,-0.158477698509 L -19.1027916064,-0.17281195723 L -19.0966732031,-0.173236724502 L -19.0782929154,-0.174071318029 L -19.0476331215,-0.174655291474 L -19.0047028824,-0.174327786095 L -18.9495379452,-0.172428488898 L -18.8822007138,-0.168298590486 L -18.8027801873,-0.161281741542 L -18.7113918665,-0.150725006927 L -18.6081776278,-0.135979816337 L -18.4933055661,-0.116402910496 L -18.3669698046,-0.0913572818467 L -18.2293902742,-0.0602131087165 L -18.0808124605,-0.0223486819351 L -17.9215071207,0.0228486771049 L -17.7517699684,0.0759817079516 L -17.571921329,0.137642313155 L -17.382305764,0.208410671875 L -17.1832916662,0.288854366004 L -16.9752708248,0.379527519773 L -16.9437527972,1.1014090341 L -17.1430793705,1.20986736008 L -17.3343250296,1.30735016318 L -17.5170511813,1.39437531233 L -17.6908413665,1.47147612207 L -17.8553017689,1.53920053327 L -18.0100616944,1.59811027793 L -18.1547740224,1.64878002884 L -18.2891156276,1.69179653515 L -18.412787773,1.72775774475 L -18.5255164721,1.75727191442 L -18.6270528214,1.78095670873 L -18.717173302,1.79943828877 L -18.7956800507,1.81335039146 L -18.8624010993,1.82333340078 L -18.9171905826,1.83003341165 L -18.9599289152,1.83410128765 L -18.990522936,1.83619171351 L -19.0089060207,1.83696224349 L -19.0150381626,1.83707234657 L -19.1795053367,1.83707234657 L -19.0014488507,3.18954563248 L -18.8425857596,3.14697839551 L -18.8366340686,3.14549763182 L -18.8186779445,3.14148401418 L -18.7885853477,3.13558489527 L -18.7462504446,3.12845266732 L -18.6915937773,3.12074381911 L -18.6245624004,3.11311798756 L -18.5451299872,3.10623700511 L -18.4532969025,3.10076394383 L -18.3490902446,3.09736215739 L -18.2325638536,3.09669432186 L -18.1037982884,3.09942147638 L -17.9629007713,3.10620206479 L -17.8100050998,3.11769097927 L -17.645271527,3.13453860692 L -17.4688866095,3.15738988046 L -17.2810630233,3.18688333403 L -17.0820393483,3.22365016504 L -16.8720798209,3.26831330329 L -16.6514740556,3.32148648809 L -16.4950814482,4.0269279521 L -16.6725462122,4.16835124861 L -16.843958709,4.29756252909 L -17.0087970813,4.41499563392 L -17.166558588,4.52110345807 L -17.3167602467,4.61635723247 L -17.4589394514,4.70124578478 L -17.592654564,4.77627478036 L -17.7174854805,4.84196594421 L -17.8330341696,4.89885626491 L -17.9389251847,4.94749718119 L -18.0348061473,4.98845375228 L -18.1203482026,5.02230381282 L -18.1952464461,5.04963711326 L -18.2592203207,5.07105444672 L -18.3120139839,5.0871667633 L -18.353396646,5.0985942727 L -18.3831628762,5.10596553625 L -18.4011328794,5.10991654931 L -18.4071527411,5.11108981495 L -18.5691212893,5.13964924002 L -18.15891536,6.44065623341 L -18.0098574794,6.37114940216 L -18.0042533398,6.36865763429 L -17.9872669669,6.36158694429 L -17.9586559155,6.35055192165 L -17.9182026732,6.3361766695 L -17.8657149909,6.31909390534 L -17.801026183,6.29994405087 L -17.7239953966,6.27937431219 L -17.63450785,6.25803775121 L -17.5324750394,6.23659234931 L -17.4178349145,6.21570006425 L -17.2905520222,6.19602588143 L -17.1506176181,6.17823686038 L -16.9980497464,6.1630011777 L -16.8328932869,6.15098716731 L -16.6552199706,6.14286235917 L -16.4651283622,6.13929251743 L -16.2627438108,6.1409406792 L -16.0482183679,6.1484661947 L -15.8217306732,6.16252377022 L -15.5452153963,6.830090702 L -15.6954261741,7.00018189373 L -15.8417972265,7.15719563221 L -15.9837392888,7.30146854727 L -16.1206786134,7.43335935329 L -16.2520577271,7.55324825315 L -16.3773361678,7.6615363174 L -16.4959911991,7.75864483958 L -16.6075185025,7.84501466821 L -16.7114328469,7.9211055164 L -16.807268733,7.98739524966 L -16.8945810144,8.04437915283 L -16.9729454924,8.09256917692 L -17.0419594855,8.13249316661 L -17.1012423722,8.16469406938 L -17.1504361067,8.18972912708 L -17.1892057069,8.20816905079 L -17.2172397148,8.22059717992 L -17.2342506271,8.22760862653 L -17.2399752981,8.22980940563 L -17.394523888,8.28606049211 L -16.7646324149,9.49607075382 L -16.629908793,9.40173625818 L -16.6248224839,9.39830919725 L -16.6093219846,9.38839627422 L -16.5830618109,9.37256064142 L -16.5457193806,9.35137914985 L -16.496995495,9.32544152087 L -16.4366147927,9.29534950211 L -16.3643261748,9.26171600831 L -16.2799032,9.22516424825 L -16.183144452,9.18632683856 L -16.0738738754,9.14584490549 L -15.9519410823,9.10436717541 L -15.8172216273,9.0625490553 L -15.6696172529,9.02105170397 L -15.5090561021,8.98054109518 L -15.3354929008,8.94168707353 L -15.1489091076,8.90516240433 L -14.9493130321,8.87164181827 L -14.7367399206,8.84180105206 L -14.5112520105,8.81631588597 L -14.1230158408,9.42572460211 L -14.2414085539,9.61931555427 L -14.3582907515,9.79936096777 L -14.4730236662,9.96609003353 L -14.5849799767,10.119756386 L -14.6935446575,10.2606376478 L -14.7981158121,10.3890349459 L -14.8981054889,10.5052724014 L -14.9929404787,10.6096965913 L -15.0820630936,10.7026759851 L -15.1649319259,10.7846003553 L -15.2410225866,10.8558801635 L -15.3098284222,10.9169459216 L -15.3708612096,10.9682475303 L -15.4236518279,11.0102535943 L -15.4677509069,11.0434507155 L -15.5027294507,11.0683427658 L -15.5281794369,11.0854501381 L -15.5437143903,11.095308979 L -15.5489699294,11.098470402 L -15.6914026803,11.1807039891 L -14.8609645972,12.2629519696 L -14.7446687431,12.1466561155 L -14.7402548093,12.142397891 L -14.7267111585,12.1299439341 L -14.7035997646,12.1097888489 L -14.6705027771,12.0824447067 L -14.6270231388,12.0484403147 L -14.5727851793,12.0083204624 L -14.5074351828,11.9626451502 L -14.4306419292,11.9119887978 L -14.3420972095,11.8569394353 L -14.2415163124,11.7980978773 L -14.1286384846,11.7360768798 L -14.0032273612,11.671500283 L -13.8650713683,11.6050021391 L -13.7139840956,11.5372258262 L -13.5498046394,11.4688231509 L -13.3723979155,11.4004534378 L -13.1816549415,11.33278261 L -12.9774930879,11.2664822586 L -12.7598562986,11.2022287048 L -12.2716955956,11.7349626298 L -12.3546729413,11.9461711793 L -12.4385148778,12.143777679 L -12.5225525432,12.3278969172 L -12.6061241037,12.4986697418 L -12.6885756687,12.6562627596 L -12.7692621957,12.8008680048 L -12.8475483823,12.9327025773 L -12.9228095452,13.0520082522 L -12.994432485,13.1590510597 L -13.0618163359,13.2541208364 L -13.1243733997,13.3375307487 L -13.1815299625,13.4096167887 L -13.2327270939,13.470737243 L -13.2774214276,13.5212721352 L -13.3150859229,13.5616226423 L -13.3452106048,13.5922104867 L -13.3673032846,13.6134773033 L -13.3808902573,13.6258839826 L -13.3855169777,13.6299099913 L -13.5115061425,13.7356274531 L -12.5057538902,14.6572295952 L -12.4114193946,14.5225059733 L -12.4078119513,14.5175459692 L -12.3966366659,14.5029293856 L -12.3773762798,14.47906725 L -12.3495303704,14.4463912952 L -12.3126160862,14.4053533464 L -12.2661688625,14.356424682 L -12.2097431139,14.3000953725 L -12.1429129057,14.2368735954 L -12.0652726007,14.1672849273 L -11.9764374828,14.0918716152 L -11.876044356,14.0111918269 L -11.7637521177,13.9258188808 L -11.6392423063,13.8363404566 L -11.502219622,13.7433577887 L -11.3524124206,13.6474848403 L -11.1895731795,13.5493474625 L -11.0134789358,13.4495825367 L -10.8239316947,13.3488371029 L -10.6207588097,13.247767473 L -10.0475060895,13.6876397562 L -10.0925468431,13.9100484381 L -10.1408010236,14.1192118506 L -10.1915899979,14.3151268913 L -10.2442375288,14.4978173421 L -10.2980707289,14.6673337319 L -10.352421009,14.8237531668 L -10.4066250192,14.9671791296 L -10.4600255829,15.097741247 L -10.5119726209,15.2155950267 L -10.5618240662,15.3209215628 L -10.6089467684,15.4139272112 L -10.652717385,15.4948432353 L -10.6925232614,15.5639254212 L -10.7277632959,15.6214536643 L -10.7578487908,15.6677315275 L -10.7822042877,15.70308577 L -10.8002683861,15.7278658495 L -10.811494545,15.7424433965 L -10.8153518659,15.7472116626 L -10.9210693277,15.8732008275 L -9.7705621795,16.6061547164 L -9.70105534825,16.4570968358 L -9.69836400582,16.4515857594 L -9.68989664119,16.4352506666 L -9.67507248006,16.4084065194 L -9.65332373253,16.3713915945 L -9.62409642432,16.3245670061 L -9.58685121168,16.2683162023 L -9.541064179,16.2030444332 L -9.48622761822,16.1291781931 L -9.42185078926,16.0471646357 L -9.34746066062,15.9574709649 L -9.26260262921,15.8605838004 L -9.16684121888,15.7570085186 L -9.05976075657,15.6472685709 L -8.94096602554,15.5319047792 L -8.81008289491,15.4114746088 L -8.66675892467,15.2865514208 L -8.51066394575,15.1577237039 L -8.34149061415,15.0255942866 L -8.15895493886,14.8907795303 L -7.51802819513,15.2244248749 L -7.52376381618,15.4512759139 L -7.53496406186,15.6656409147 L -7.55096114775,15.8673989785 L -7.57108498047,16.0564560987 L -7.59466412112,16.2327451907 L -7.62102674847,16.3962260901 L -7.64950162096,16.5468855178 L -7.67941903633,16.6847370138 L -7.71011178797,16.8098208383 L -7.74091611681,16.9222038403 L -7.77117265787,17.0219792953 L -7.80022738039,17.109266711 L -7.8274325204,17.1842116011 L -7.85214750499,17.2469852287 L -7.87373986701,17.2977843185 L -7.89158614937,17.3368307383 L -7.90507279786,17.3643711504 L -7.91359704169,17.3806766338 L -7.91656776057,17.386042276 L -7.99880134765,17.5284750269 L -6.73849688111,18.0505102297 L -6.69592964414,17.8916471386 L -6.69423617762,17.8857524411 L -6.68873401038,17.8681951727 L -6.6787964988,17.8391846599 L -6.66380573788,17.7989554444 L -6.6431534626,17.7477669579 L -6.616241938,17.6859031669 L -6.58248483698,17.6136721879 L -6.54130810477,17.5314058731 L -6.49215080929,17.4394593669 L -6.43446597632,17.3382106343 L -6.36772140864,17.228059961 L -6.29140048825,17.109429426 L -6.2050029607,16.9827623476 L -6.10804570077,16.8485227025 L -6.00006345861,16.7071945199 L -5.88060958547,16.5592812496 L -5.74925673829,16.4053051066 L -5.60559756227,16.2458063912 L -5.44924535078,16.0813427866 L -4.76011881838,16.2986235477 L -4.72637503293,16.5230241899 L -4.70018102996,16.7360774068 L -4.68090016406,16.9375481771 L -4.66788884615,17.1272275618 L -4.6604974871,17.3049329011 L -4.65807144665,17.4705079804 L -4.65995198677,17.6238231626 L -4.6654772283,17.7647754894 L -4.67398310991,17.8932887499 L -4.68480434828,18.0093135171 L -4.69727539856,18.112827152 L -4.71073141389,18.2038337753 L -4.7245092031,18.2823642071 L -4.73794818549,18.3484758743 L -4.75039134165,18.4022526862 L -4.76118615923,18.4438048775 L -4.76968557285,18.4732688208 L -4.77524889679,18.4908068067 L -4.77724274979,18.4966067926 L -4.83349383626,18.6511553825 L -3.50168576482,18.9464101236 L -3.4873515061,18.7825687967 L -3.48670737061,18.7764695856 L -3.48433758133,18.7582236102 L -3.47958866556,18.7279282015 L -3.47181137794,18.6857070399 L -3.46036164452,18.6317099915 L -3.44460150102,18.5661129133 L -3.42390002409,18.4891174261 L -3.39763425462,18.400950657 L -3.36519011216,18.30186495 L -3.32596329932,18.192137547 L -3.27936019529,18.0720702374 L -3.22479873739,17.9419889781 L -3.16170928975,17.802243484 L -3.0895354982,17.6532067893 L -3.0077351303,17.4952747797 L -2.91578089975,17.328865697 L -2.8131612741,17.154419615 L -2.69938126502,16.9723978894 L -2.57396320018,16.78328258 L -1.85757564006,16.8775967915 L -1.78537773595,17.0927287368 L -1.72258537588,17.2979966558 L -1.66861239753,17.4930585452 L -1.6228612713,17.6775968821 L -1.58472399525,17.8513189821 L -1.55358300103,18.0139573264 L -1.52881206952,18.1652698588 L -1.50977725554,18.3050402511 L -1.49583782019,18.4330781373 L -1.48634717025,18.5492193159 L -1.48065380319,18.6533259212 L -1.47810225712,18.745286562 L -1.47803406438,18.825016428 L -1.4797887079,18.8924573653 L -1.48270457917,18.9475779179 L -1.48611993693,18.9903733385 L -1.48937386529,19.020865566 L -1.49180723056,19.0391031715 L -1.49276363545,19.0451612716 L -1.52132306053,19.2071298198 L -0.158477698509,19.2666329333 L -0.17281195723,19.1027916064 L -0.173236724502,19.0966732031 L -0.174071318029,19.0782929154 L -0.174655291474,19.0476331215 L -0.174327786095,19.0047028824 L -0.172428488898,18.9495379452 L -0.168298590486,18.8822007138 L -0.161281741542,18.8027801873 L -0.150725006927,18.7113918665 L -0.135979816337,18.6081776278 L -0.116402910496,18.4933055661 L -0.0913572818467,18.3669698046 L -0.0602131087165,18.2293902742 L -0.0223486819351,18.0808124605 L 0.0228486771049,17.9215071207 L 0.0759817079516,17.7517699684 L 0.137642313155,17.571921329 L 0.208410671875,17.382305764 L 0.288854366004,17.1832916662 L 0.379527519773,16.9752708248 L 1.1014090341,16.9437527972 L 1.20986736008,17.1430793705 L 1.30735016318,17.3343250296 L 1.39437531233,17.5170511813 L 1.47147612207,17.6908413665 L 1.53920053327,17.8553017689 L 1.59811027793,18.0100616944 L 1.64878002884,18.1547740224 L 1.69179653515,18.2891156276 L 1.72775774475,18.412787773 L 1.75727191442,18.5255164721 L 1.78095670873,18.6270528214 L 1.79943828877,18.717173302 L 1.81335039146,18.7956800507 L 1.82333340078,18.8624010993 L 1.83003341165,18.9171905826 L 1.83410128765,18.9599289152 L 1.83619171351,18.990522936 L 1.83696224349,19.0089060207 L 1.83707234657,19.0150381626 L 1.83707234657,19.1795053367 L 3.18954563248,19.0014488507 L 3.14697839551,18.8425857596 L 3.14549763182,18.8366340686 L 3.14148401418,18.8186779445 L 3.13558489527,18.7885853477 L 3.12845266732,18.7462504446 L 3.12074381911,18.6915937773 L 3.11311798756,18.6245624004 L 3.10623700511,18.5451299872 L 3.10076394383,18.4532969025 L 3.09736215739,18.3490902446 L 3.09669432186,18.2325638536 L 3.09942147638,18.1037982884 L 3.10620206479,17.9629007713 L 3.11769097927,17.8100050998 L 3.13453860692,17.645271527 L 3.15738988046,17.4688866095 L 3.18688333403,17.2810630233 L 3.22365016504,17.0820393483 L 3.26831330329,16.8720798209 L 3.32148648809,16.6514740556 L 4.0269279521,16.4950814482 L 4.16835124861,16.6725462122 L 4.29756252909,16.843958709 L 4.41499563392,17.0087970813 L 4.52110345807,17.166558588 L 4.61635723247,17.3167602467 L 4.70124578478,17.4589394514 L 4.77627478036,17.592654564 L 4.84196594421,17.7174854805 L 4.89885626491,17.8330341696 L 4.94749718119,17.9389251847 L 4.98845375228,18.0348061473 L 5.02230381282,18.1203482026 L 5.04963711326,18.1952464461 L 5.07105444672,18.2592203207 L 5.0871667633,18.3120139839 L 5.0985942727,18.353396646 L 5.10596553625,18.3831628762 L 5.10991654931,18.4011328794 L 5.11108981495,18.4071527411 L 5.13964924002,18.5691212893 L 6.44065623341,18.15891536 L 6.37114940216,18.0098574794 L 6.36865763429,18.0042533398 L 6.36158694429,17.9872669669 L 6.35055192165,17.9586559155 L 6.3361766695,17.9182026732 L 6.31909390534,17.8657149909 L 6.29994405087,17.801026183 L 6.27937431219,17.7239953966 L 6.25803775121,17.63450785 L 6.23659234931,17.5324750394 L 6.21570006425,17.4178349145 L 6.19602588143,17.2905520222 L 6.17823686038,17.1506176181 L 6.1630011777,16.9980497464 L 6.15098716731,16.8328932869 L 6.14286235917,16.6552199706 L 6.13929251743,16.4651283622 L 6.1409406792,16.2627438108 L 6.1484661947,16.0482183679 L 6.16252377022,15.8217306732 L 6.830090702,15.5452153963 L 7.00018189373,15.6954261741 L 7.15719563221,15.8417972265 L 7.30146854727,15.9837392888 L 7.43335935329,16.1206786134 L 7.55324825315,16.2520577271 L 7.6615363174,16.3773361678 L 7.75864483958,16.4959911991 L 7.84501466821,16.6075185025 L 7.9211055164,16.7114328469 L 7.98739524966,16.807268733 L 8.04437915283,16.8945810144 L 8.09256917692,16.9729454924 L 8.13249316661,17.0419594855 L 8.16469406938,17.1012423722 L 8.18972912708,17.1504361067 L 8.20816905079,17.1892057069 L 8.22059717992,17.2172397148 L 8.22760862653,17.2342506271 L 8.22980940563,17.2399752981 L 8.28606049211,17.394523888 L 9.49607075382,16.7646324149 L 9.40173625818,16.629908793 L 9.39830919725,16.6248224839 L 9.38839627422,16.6093219846 L 9.37256064142,16.5830618109 L 9.35137914985,16.5457193806 L 9.32544152087,16.496995495 L 9.29534950211,16.4366147927 L 9.26171600831,16.3643261748 L 9.22516424825,16.2799032 L 9.18632683856,16.183144452 L 9.14584490549,16.0738738754 L 9.10436717541,15.9519410823 L 9.0625490553,15.8172216273 L 9.02105170397,15.6696172529 L 8.98054109518,15.5090561021 L 8.94168707353,15.3354929008 L 8.90516240433,15.1489091076 L 8.87164181827,14.9493130321 L 8.84180105206,14.7367399206 L 8.81631588597,14.5112520105 L 9.42572460211,14.1230158408 L 9.61931555427,14.2414085539 L 9.79936096777,14.3582907515 L 9.96609003353,14.4730236662 L 10.119756386,14.5849799767 L 10.2606376478,14.6935446575 L 10.3890349459,14.7981158121 L 10.5052724014,14.8981054889 L 10.6096965913,14.9929404787 L 10.7026759851,15.0820630936 L 10.7846003553,15.1649319259 L 10.8558801635,15.2410225866 L 10.9169459216,15.3098284222 L 10.9682475303,15.3708612096 L 11.0102535943,15.4236518279 L 11.0434507155,15.4677509069 L 11.0683427658,15.5027294507 L 11.0854501381,15.5281794369 L 11.095308979,15.5437143903 L 11.098470402,15.5489699294 L 11.1807039891,15.6914026803 L 12.2629519696,14.8609645972 L 12.1466561155,14.7446687431 L 12.142397891,14.7402548093 L 12.1299439341,14.7267111585 L 12.1097888489,14.7035997646 L 12.0824447067,14.6705027771 L 12.0484403147,14.6270231388 L 12.0083204624,14.5727851793 L 11.9626451502,14.5074351828 L 11.9119887978,14.4306419292 L 11.8569394353,14.3420972095 L 11.7980978773,14.2415163124 L 11.7360768798,14.1286384846 L 11.671500283,14.0032273612 L 11.6050021391,13.8650713683 L 11.5372258262,13.7139840956 L 11.4688231509,13.5498046394 L 11.4004534378,13.3723979155 L 11.33278261,13.1816549415 L 11.2664822586,12.9774930879 L 11.2022287048,12.7598562986 L 11.7349626298,12.2716955956 L 11.9461711793,12.3546729413 L 12.143777679,12.4385148778 L 12.3278969172,12.5225525432 L 12.4986697418,12.6061241037 L 12.6562627596,12.6885756687 L 12.8008680048,12.7692621957 L 12.9327025773,12.8475483823 L 13.0520082522,12.9228095452 L 13.1590510597,12.994432485 L 13.2541208364,13.0618163359 L 13.3375307487,13.1243733997 L 13.4096167887,13.1815299625 L 13.470737243,13.2327270939 L 13.5212721352,13.2774214276 L 13.5616226423,13.3150859229 L 13.5922104867,13.3452106048 L 13.6134773033,13.3673032846 L 13.6258839826,13.3808902573 L 13.6299099913,13.3855169777 L 13.7356274531,13.5115061425 L 14.6572295952,12.5057538902 L 14.5225059733,12.4114193946 L 14.5175459692,12.4078119513 L 14.5029293856,12.3966366659 L 14.47906725,12.3773762798 L 14.4463912952,12.3495303704 L 14.4053533464,12.3126160862 L 14.356424682,12.2661688625 L 14.3000953725,12.2097431139 L 14.2368735954,12.1429129057 L 14.1672849273,12.0652726007 L 14.0918716152,11.9764374828 L 14.0111918269,11.876044356 L 13.9258188808,11.7637521177 L 13.8363404566,11.6392423063 L 13.7433577887,11.502219622 L 13.6474848403,11.3524124206 L 13.5493474625,11.1895731795 L 13.4495825367,11.0134789358 L 13.3488371029,10.8239316947 L 13.247767473,10.6207588097 L 13.6876397562,10.0475060895 L 13.9100484381,10.0925468431 L 14.1192118506,10.1408010236 L 14.3151268913,10.1915899979 L 14.4978173421,10.2442375288 L 14.6673337319,10.2980707289 L 14.8237531668,10.352421009 L 14.9671791296,10.4066250192 L 15.097741247,10.4600255829 L 15.2155950267,10.5119726209 L 15.3209215628,10.5618240662 L 15.4139272112,10.6089467684 L 15.4948432353,10.652717385 L 15.5639254212,10.6925232614 L 15.6214536643,10.7277632959 L 15.6677315275,10.7578487908 L 15.70308577,10.7822042877 L 15.7278658495,10.8002683861 L 15.7424433965,10.811494545 L 15.7472116626,10.8153518659 L 15.8732008275,10.9210693277 L 16.6061547164,9.7705621795 L 16.4570968358,9.70105534825 L 16.4515857594,9.69836400582 L 16.4352506666,9.68989664119 L 16.4084065194,9.67507248006 L 16.3713915945,9.65332373253 L 16.3245670061,9.62409642432 L 16.2683162023,9.58685121168 L 16.2030444332,9.541064179 L 16.1291781931,9.48622761822 L 16.0471646357,9.42185078926 L 15.9574709649,9.34746066062 L 15.8605838004,9.26260262921 L 15.7570085186,9.16684121888 L 15.6472685709,9.05976075657 L 15.5319047792,8.94096602554 L 15.4114746088,8.81008289491 L 15.2865514208,8.66675892467 L 15.1577237039,8.51066394575 L 15.0255942866,8.34149061415 L 14.8907795303,8.15895493886 L 15.2244248749,7.51802819513 L 15.4512759139,7.52376381618 L 15.6656409147,7.53496406186 L 15.8673989785,7.55096114775 L 16.0564560987,7.57108498047 L 16.2327451907,7.59466412112 L 16.3962260901,7.62102674847 L 16.5468855178,7.64950162096 L 16.6847370138,7.67941903633 L 16.8098208383,7.71011178797 L 16.9222038403,7.74091611681 L 17.0219792953,7.77117265787 L 17.109266711,7.80022738039 L 17.1842116011,7.8274325204 L 17.2469852287,7.85214750499 L 17.2977843185,7.87373986701 L 17.3368307383,7.89158614937 L 17.3643711504,7.90507279786 L 17.3806766338,7.91359704169 L 17.386042276,7.91656776057 L 17.5284750269,7.99880134765 L 18.0505102297,6.73849688111 L 17.8916471386,6.69592964414 L 17.8857524411,6.69423617762 L 17.8681951727,6.68873401038 L 17.8391846599,6.6787964988 L 17.7989554444,6.66380573788 L 17.7477669579,6.6431534626 L 17.6859031669,6.616241938 L 17.6136721879,6.58248483698 L 17.5314058731,6.54130810477 L 17.4394593669,6.49215080929 L 17.3382106343,6.43446597632 L 17.228059961,6.36772140864 L 17.109429426,6.29140048825 L 16.9827623476,6.2050029607 L 16.8485227025,6.10804570077 L 16.7071945199,6.00006345861 L 16.5592812496,5.88060958547 L 16.4053051066,5.74925673829 L 16.2458063912,5.60559756227 L 16.0813427866,5.44924535078 L 16.2986235477,4.76011881838 L 16.5230241899,4.72637503293 L 16.7360774068,4.70018102996 L 16.9375481771,4.68090016406 L 17.1272275618,4.66788884615 L 17.3049329011,4.6604974871 L 17.4705079804,4.65807144665 L 17.6238231626,4.65995198677 L 17.7647754894,4.6654772283 L 17.8932887499,4.67398310991 L 18.0093135171,4.68480434828 L 18.112827152,4.69727539856 L 18.2038337753,4.71073141389 L 18.2823642071,4.7245092031 L 18.3484758743,4.73794818549 L 18.4022526862,4.75039134165 L 18.4438048775,4.76118615923 L 18.4732688208,4.76968557285 L 18.4908068067,4.77524889679 L 18.4966067926,4.77724274979 L 18.6511553825,4.83349383626 L 18.9464101236,3.50168576482 L 18.7825687967,3.4873515061 L 18.7764695856,3.48670737061 L 18.7582236102,3.48433758133 L 18.7279282015,3.47958866556 L 18.6857070399,3.47181137794 L 18.6317099915,3.46036164452 L 18.5661129133,3.44460150102 L 18.4891174261,3.42390002409 L 18.400950657,3.39763425462 L 18.30186495,3.36519011216 L 18.192137547,3.32596329932 L 18.0720702374,3.27936019529 L 17.9419889781,3.22479873739 L 17.802243484,3.16170928975 L 17.6532067893,3.0895354982 L 17.4952747797,3.0077351303 L 17.328865697,2.91578089975 L 17.154419615,2.8131612741 L 16.9723978894,2.69938126502 L 16.78328258,2.57396320018 L 16.8775967915,1.85757564006 L 17.0927287368,1.78537773595 L 17.2979966558,1.72258537588 L 17.4930585452,1.66861239753 L 17.6775968821,1.6228612713 L 17.8513189821,1.58472399525 L 18.0139573264,1.55358300103 L 18.1652698588,1.52881206952 L 18.3050402511,1.50977725554 L 18.4330781373,1.49583782019 L 18.5492193159,1.48634717025 L 18.6533259212,1.48065380319 L 18.745286562,1.47810225712 L 18.825016428,1.47803406438 L 18.8924573653,1.4797887079 L 18.9475779179,1.48270457917 L 18.9903733385,1.48611993693 L 19.020865566,1.48937386529 L 19.0391031715,1.49180723056 L 19.0451612716,1.49276363545 L 19.2071298198,1.52132306053 L 19.2666329333,0.158477698509 L 19.1027916064,0.17281195723 L 19.0966732031,0.173236724502 L 19.0782929154,0.174071318029 L 19.0476331215,0.174655291474 L 19.0047028824,0.174327786095 L 18.9495379452,0.172428488898 L 18.8822007138,0.168298590486 L 18.8027801873,0.161281741542 L 18.7113918665,0.150725006927 L 18.6081776278,0.135979816337 L 18.4933055661,0.116402910496 L 18.3669698046,0.0913572818467 L 18.2293902742,0.0602131087165 L 18.0808124605,0.0223486819351 L 17.9215071207,-0.0228486771049 L 17.7517699684,-0.0759817079516 L 17.571921329,-0.137642313155 L 17.382305764,-0.208410671875 L 17.1832916662,-0.288854366004 L 16.9752708248,-0.379527519773 L 16.9437527972,-1.1014090341 L 17.1430793705,-1.20986736008 L 17.3343250296,-1.30735016318 L 17.5170511813,-1.39437531233 L 17.6908413665,-1.47147612207 L 17.8553017689,-1.53920053327 L 18.0100616944,-1.59811027793 L 18.1547740224,-1.64878002884 L 18.2891156276,-1.69179653515 L 18.412787773,-1.72775774475 L 18.5255164721,-1.75727191442 L 18.6270528214,-1.78095670873 L 18.717173302,-1.79943828877 L 18.7956800507,-1.81335039146 L 18.8624010993,-1.82333340078 L 18.9171905826,-1.83003341165 L 18.9599289152,-1.83410128765 L 18.990522936,-1.83619171351 L 19.0089060207,-1.83696224349 L 19.0150381626,-1.83707234657 L 19.1795053367,-1.83707234657 L 19.0014488507,-3.18954563248z"
       style="fill:none;stroke:#000000" />
  </g>
</svg>